<?xml version="1.0" standalone="no"?>
<!DOCTYPE svg PUBLIC "-//W3C//DTD SVG 1.1//EN" "http://www.w3.org/Graphics/SVG/1.1/DTD/svg11.dtd" >
<svg xmlns="http://www.w3.org/2000/svg" xmlns:xlink="http://www.w3.org/1999/xlink" version="1.1">
<metadata>
Created by FontForge 20190801 at Fri Jan  1 00:00:00 1904
 By www-data
Converted by ALLTYPE
</metadata>
<defs>
<font id="ClearfaceRegular" horiz-adv-x="278" >
  <font-face 
    font-family="ClearfaceRegular"
    font-weight="5"
    font-stretch="normal"
    units-per-em="1000"
    panose-1="0 0 0 0 0 0 0 0 0 0"
    ascent="800"
    descent="-200"
    x-height="470"
    cap-height="667"
    bbox="-170 -193 1042 895"
    underline-thickness="50"
    underline-position="-105"
    unicode-range="U+0020-F002"
  />
<missing-glyph 
 />
    <glyph glyph-name=".notdef" 
 />
    <glyph glyph-name="glyph1" horiz-adv-x="0" 
 />
    <glyph glyph-name="glyph2" 
 />
    <glyph glyph-name="space" unicode=" " 
 />
    <glyph glyph-name="space" unicode="&#xa0;" 
 />
    <glyph glyph-name="exclam" unicode="!" horiz-adv-x="300" 
d="M153 50q0 -26 -16.5 -43t-40.5 -17q-25 0 -41 16t-16 40q0 25 16.5 41.5t40.5 16.5t40.5 -16t16.5 -39v1zM144 155h-31q28 85 45 172t32 175q1 5 1.5 9.5t1.5 9.5q4 27 7.5 47.5t6.5 36.5q10 47 22.5 59t38.5 12q22 0 36.5 -15t14.5 -38v-5.5v-5.5q-2 -18 -14 -48.5
t-54 -123.5q-31 -70 -57.5 -141t-49.5 -145v1z" />
    <glyph glyph-name="quotedbl" unicode="&#x22;" horiz-adv-x="385" 
d="M217 666h60l-94 -267h-33l67 267v0zM356 666h60l-94 -267h-33l67 267v0z" />
    <glyph glyph-name="numbersign" unicode="#" horiz-adv-x="583" 
d="M400 245l-90 -245h-52l89 245h-109l-89 -245h-52l89 245h-129l14 45h131l37 102h-128l15 45h130l83 230h53l-84 -230h109l83 230h53l-83 -230h118l-14 -45h-121l-37 -102h119l-15 -45h-120v0zM400 392h-108l-38 -102h109l37 102v0z" />
    <glyph glyph-name="dollar" unicode="$" horiz-adv-x="507" 
d="M426 745l-24 -83q77 -8 115 -30.5t38 -60.5q0 -22 -15 -37.5t-37 -15.5q-24 0 -41.5 16t-23.5 42q-1 3 -1.5 6t-1.5 6q-4 17 -11 25.5t-32 9.5l-66 -227q51 -32 90.5 -75t39.5 -108q0 -41 -19 -80t-53 -67q-31 -25 -68.5 -37.5t-99.5 -18.5l-27 -92h-39l27 94
q-14 1 -30.5 4t-34.5 8q-38 10 -70 31.5t-32 62.5q0 21 16.5 37t37.5 16q29 0 48.5 -25t19.5 -61v-4.5t-1 -5.5q0 -14 11 -20t25 -8q4 -1 9 -1t9 -1h0.5h1.5l78 275q-3 2 -5 3.5t-4 2.5q-33 23 -54 41t-33 35t-16.5 36t-4.5 44q0 56 41 104.5t105 65.5q7 2 13 3.5t11 2.5
q6 1 11.5 1.5t12.5 1.5q5 0 10.5 0.5t11.5 1.5l23 82h39v0zM299 302l-73 -256q68 -1 113 37t45 95q0 35 -20.5 65t-64.5 58v1zM353 626q-61 -2 -99 -31.5t-38 -76.5q0 -18 6 -33.5t20 -29.5q9 -10 21.5 -20t29.5 -21l60 212v0z" />
    <glyph glyph-name="percent" unicode="%" horiz-adv-x="720" 
d="M668 196q-8 -85 -58.5 -145.5t-110.5 -60.5q-44 0 -72.5 35.5t-28.5 90.5q0 18 3.5 38t10.5 41q18 56 58.5 103t97.5 47q44 0 72.5 -37t28.5 -95v-8.5t-1 -9.5v1zM608 271q0 21 -10.5 33.5t-29.5 12.5q-20 0 -34 -12t-27 -41l-4 -10l-4 -10q-19 -51 -30 -96.5t-11 -75.5
q0 -27 11 -42t30 -15q33 0 55.5 42t35.5 93q9 36 13.5 69t4.5 51v1zM656 667l-491 -667h-46l491 667h46v0zM379 537q-6 -81 -55.5 -144.5t-108.5 -65.5h-1.5h-1.5q-46 0 -74 33.5t-28 90.5q0 86 53 155.5t118 69.5q45 0 67 -33t28 -72q2 -9 2.5 -18t0.5 -17v1zM315 607
q0 19 -10 31t-27 12q-29 0 -51.5 -41.5t-36.5 -92.5q-9 -32 -14 -62.5t-5 -49.5q0 -25 10.5 -38.5t29.5 -13.5q30 0 51 41t34 90q10 39 14.5 73.5t4.5 49.5v1z" />
    <glyph glyph-name="ampersand" unicode="&#x26;" horiz-adv-x="762" 
d="M664 80l22 -22q-9 -12 -18.5 -21.5t-18.5 -17.5q-25 -20 -50 -30t-53 -10t-52.5 10.5t-47.5 33.5q-10 10 -20 22t-20 27q-27 -26 -55 -44.5t-56 -28.5q-17 -6 -33.5 -9t-33.5 -3q-78 0 -130 49t-52 124q0 87 62 140t136 82q12 4 24 8.5t24 7.5q-1 9 -1.5 15t-0.5 11v3.5
v3.5q0 107 62.5 179.5t154.5 72.5q68 0 111 -32.5t43 -85.5q0 -67 -53.5 -102t-117.5 -54q-31 -10 -60.5 -17t-53.5 -13q11 -53 29 -105.5t42 -101.5q11 14 22.5 30.5t23.5 32.5q35 46 78.5 84t99.5 38q32 0 51.5 -17.5t19.5 -43.5q0 -22 -16 -38.5t-39 -16.5
q-19 0 -33.5 12t-25.5 26l-3.5 3.5t-2.5 3.5q-3 4 -5.5 5.5t-4.5 1.5q-12 0 -30 -14.5t-37 -36.5q-8 -8 -15 -16.5t-14 -17.5q-16 -21 -30 -40.5t-21 -31.5q27 -53 55 -78t60 -25q8 0 15 1t14 4q12 5 25 14.5t30 26.5v1zM296 365q-70 -16 -109.5 -67.5t-39.5 -127.5
q0 -55 34.5 -93.5t83.5 -38.5q4 0 8.5 0.5t8.5 0.5q31 5 59.5 22t46.5 43q-33 61 -55 127t-37 133v1zM369 413q19 3 41 8.5t45 13.5q53 17 96.5 49t43.5 88q0 34 -25 56t-63 22q-63 0 -103.5 -52t-40.5 -133v-10.5t1 -9.5q0 -7 1.5 -14.5t3.5 -18.5v1z" />
    <glyph glyph-name="quotesingle" unicode="'" horiz-adv-x="248" 
d="M218 666h60l-94 -267h-33l67 267v0z" />
    <glyph glyph-name="parenleft" unicode="(" horiz-adv-x="311" 
d="M137 -187q-41 79 -64 162t-23 173q0 182 92.5 328.5t242.5 242.5l12 -19q-18 -15 -31 -26t-23 -21q-3 -3 -6.5 -6t-6.5 -7q-6 -6 -12.5 -13.5t-14.5 -16.5q-52 -63 -92 -153t-65 -186q-16 -63 -24.5 -124t-8.5 -115q0 -26 2 -48.5t6 -45.5q5 -27 13 -54.5t21 -61.5
l-18 -9v0z" />
    <glyph glyph-name="parenright" unicode=")" horiz-adv-x="311" 
d="M196 720q40 -80 63.5 -164t23.5 -173q0 -184 -92 -329t-243 -241l-12 20q18 14 30.5 24.5t22.5 19.5q4 4 7.5 8t7.5 8q6 6 12 13t13 16q53 63 93.5 152.5t64.5 185.5q15 63 23.5 124t8.5 114q0 27 -1.5 50t-5.5 46q-5 26 -13.5 54t-21.5 62l19 10v0z" />
    <glyph glyph-name="asterisk" unicode="*" horiz-adv-x="427" 
d="M295 553q0 8 -0.5 17t-0.5 19q-1 9 -1.5 18t-0.5 18q0 33 12.5 51t34.5 18q17 0 26.5 -11.5t9.5 -29.5q0 -20 -10.5 -37.5t-23.5 -33.5q-1 -2 -3 -4.5t-4 -5.5q-5 -6 -9.5 -13t-8.5 -14l6 -10q9 2 18.5 5.5t18.5 7.5q17 7 34 13t34 6q19 0 32.5 -12t13.5 -29t-12.5 -28
t-32.5 -11q-17 0 -33 4.5t-31 9.5h-1h-1q-10 4 -20.5 7t-20.5 5l-6 -7q4 -6 8 -11.5t9 -11.5q2 -3 4.5 -5.5l5.5 -5.5q14 -16 26 -33.5t12 -38.5q0 -19 -10.5 -31t-27.5 -12q-22 0 -34.5 21.5t-12.5 61.5l1 39v5t-2 15l-10 4q-5 -7 -10 -14.5t-9 -15.5q-2 -3 -3.5 -5
t-2.5 -5q-13 -22 -29 -40t-43 -18q-15 0 -26 11t-11 26q0 23 21 36.5t46 22.5q13 5 26 9t23 8q1 0 2.5 0.5t2.5 1.5v12q-4 0 -8.5 1.5t-9.5 2.5q-8 2 -17 4l-18 4q-26 7 -48 20t-22 39q0 17 10 27.5t25 10.5q25 0 42 -17t31 -37q2 -3 4.5 -6.5t4.5 -6.5q5 -7 10 -13.5
t10 -11.5l10 4v0z" />
    <glyph glyph-name="plus" unicode="+" horiz-adv-x="507" 
d="M87 364h171v175h51v-175h173v-48h-173v-174h-51v174h-171v48v0z" />
    <glyph glyph-name="comma" unicode="," horiz-adv-x="233" 
d="M-23 -142l-15 19q47 40 68.5 66t21.5 44q0 1 -0.5 2t-0.5 2q-3 5 -9.5 9t-13.5 10q-9 8 -16.5 18t-7.5 25q0 26 15 41.5t39 15.5q26 0 42.5 -18.5t16.5 -46.5q0 -45 -31.5 -86.5t-68.5 -71.5q-10 -9 -20 -16t-19 -13h-1z" />
    <glyph glyph-name="hyphen" unicode="-" horiz-adv-x="214" 
d="M206 265l-24 -71h-174l24 71h174v0z" />
    <glyph glyph-name="period" unicode="." horiz-adv-x="233" 
d="M123 49q0 -26 -18 -42.5t-44 -16.5q-22 0 -38.5 16.5t-16.5 38.5q0 29 16.5 45.5t43.5 16.5q23 0 40 -17.5t17 -41.5v1z" />
    <glyph glyph-name="slash" unicode="/" horiz-adv-x="443" 
d="M574 707l-668 -880h-43l668 880h43v0z" />
    <glyph glyph-name="zero" unicode="0" horiz-adv-x="507" 
d="M502 438q-8 -166 -91 -302.5t-180 -151.5q-6 -1 -11 -1.5t-10 -0.5q-67 0 -108 62t-41 166q0 30 4 61t11 63q14 63 41.5 124t64.5 112q31 43 65 70.5t69 38.5q11 3 21.5 4.5t20.5 1.5q67 0 106 -62t39 -168v-8.5t-1 -9.5v1zM430 584q-3 31 -22 49.5t-50 18.5
q-24 0 -43 -11t-36 -35q-34 -49 -63 -120.5t-48 -147.5q-16 -59 -24.5 -116t-8.5 -103q0 -49 21 -77.5t55 -28.5q43 0 77.5 42.5t65.5 133.5q1 2 1.5 4t1.5 4q17 52 33 106.5t27 110.5q6 34 10 68t4 67v8v9q-1 4 -1 8.5v8.5v1z" />
    <glyph glyph-name="one" unicode="1" horiz-adv-x="507" 
d="M444 689q-7 -24 -14 -46.5t-13 -45.5q-7 -23 -14 -45.5t-14 -45.5l-133 -465l109 -9l-9 -32h-328l9 32l135 9l128 448q2 4 3.5 9.5t3.5 11.5q3 7 5.5 14t3.5 15q2 8 3.5 15.5t1.5 15.5q0 18 -11.5 27.5t-34.5 9.5q-15 0 -30.5 -2t-31.5 -5q-8 -1 -15.5 -2.5t-15.5 -2.5
l11 39q32 5 63 12t63 14q7 2 15 3.5t16 3.5q23 5 46.5 10.5t47.5 10.5v1z" />
    <glyph glyph-name="two" unicode="2" horiz-adv-x="507" 
d="M439 175l-96 -187q-9 4 -15.5 6t-12.5 3q-5 1 -10.5 1.5t-11.5 0.5h-6h-10q-6 1 -13.5 1h-16.5h-267l14 50q35 46 79 85.5t91 73.5l96 70q65 45 116 113.5t51 152.5q0 44 -28.5 74t-72.5 30q-9 0 -20.5 -1.5t-23.5 -5.5q-22 -7 -41 -20.5t-19 -34.5q0 -5 1 -10.5t3 -11.5
q1 -2 2 -5t2 -5q2 -8 4.5 -16.5t2.5 -17.5q0 -26 -16.5 -43t-42.5 -17q-20 0 -35 16.5t-15 40.5q0 65 63.5 115.5t145.5 50.5q79 0 131.5 -50.5t52.5 -127.5q0 -71 -47 -123t-103 -88q-6 -4 -12 -7.5t-12 -7.5q-74 -44 -145 -91t-134 -107l146 1q60 -1 96.5 11.5t68.5 48.5
q7 9 14.5 19t15.5 21l30 -8v0z" />
    <glyph glyph-name="three" unicode="3" horiz-adv-x="507" 
d="M290 354q67 -14 106 -58t39 -103q0 -88 -74.5 -149.5t-181.5 -61.5q-78 0 -128.5 33.5t-50.5 85.5q0 28 15.5 45.5t40.5 17.5q23 0 38 -16t15 -41q0 -9 -3 -17.5t-6 -16.5q-3 -5 -5.5 -10.5t-3.5 -10.5q0 -3 -0.5 -5t-0.5 -4q0 -8 12.5 -13.5t27.5 -8.5q13 -3 24.5 -4
t14.5 -1q74 0 120 57.5t46 147.5q0 51 -25.5 87.5t-62.5 36.5q-6 0 -12 -1t-12 -3q-6 -1 -12.5 -2.5t-12.5 -1.5q-9 0 -15.5 6.5t-6.5 15.5q0 10 7.5 17t18.5 7q7 0 13 -1.5t12 -3.5l3 -1.5t2 -0.5q5 -2 10 -3t10 -1q62 0 105 52t43 126q0 44 -26 72.5t-66 28.5
q-31 0 -53 -12.5t-22 -29.5q0 -6 1 -12.5t2 -12.5q0 -6 1 -12t1 -12q0 -25 -16.5 -42.5t-39.5 -17.5q-21 0 -34.5 14.5t-13.5 36.5q0 51 55.5 92t124.5 41q80 0 130 -40t50 -105q0 -81 -57.5 -122.5t-125.5 -58.5q-5 -2 -10.5 -3t-10.5 -2v1z" />
    <glyph glyph-name="four" unicode="4" horiz-adv-x="507" 
d="M479 566l-105 -366h94l-13 -42h-93l-35 -120l68 -4l-10 -34h-229l9 34l79 4l34 120h-255l17 59q108 95 198.5 213t146.5 252l123 1q-15 -26 -32.5 -51t-36.5 -51q-52 -68 -114.5 -135.5t-127.5 -127.5q-34 -33 -68 -62.5t-67 -56.5l228 1l67 232q25 23 47.5 48t44.5 51
q8 8 15.5 16.5t14.5 17.5v1z" />
    <glyph glyph-name="five" unicode="5" horiz-adv-x="507" 
d="M575 705l-66 -119h-281l-77 -220q29 33 60.5 48t72.5 15q79 0 126.5 -47.5t47.5 -126.5q0 -110 -86.5 -192t-202.5 -82q-73 0 -120 33.5t-47 86.5q0 26 16.5 43.5t38.5 17.5t38 -16t16 -38q0 -10 -2.5 -18.5t-5.5 -15.5q-3 -8 -5.5 -15t-2.5 -13q0 -13 21.5 -22t52.5 -9
q77 0 124.5 59t61.5 131q4 15 5.5 30.5t1.5 30.5q0 51 -28 85.5t-70 34.5q-30 0 -54.5 -10t-47.5 -32q-8 -7 -16 -16t-16 -19l-33 11l120 346h225q38 -1 54 2t28 15q4 4 8 9t9 12l34 1v0z" />
    <glyph glyph-name="six" unicode="6" horiz-adv-x="507" 
d="M167 313q10 15 20 28.5t20 24.5q26 29 53.5 42t60.5 13q60 0 95 -44.5t35 -119.5q0 -16 -2.5 -33t-7.5 -35q-22 -78 -85 -142.5t-143 -64.5q-66 0 -106 56.5t-40 150.5q0 29 3.5 60t11.5 61q14 62 41 122t63 108q37 49 78.5 83t84.5 49q17 7 34 10t34 3q55 0 91 -27
t36 -68q0 -22 -15 -38t-37 -16q-23 0 -37.5 17.5t-14.5 46.5q0 4 0.5 8t1.5 9q1 4 1.5 8t0.5 8q0 8 -10 12.5t-26 4.5q-64 0 -109 -60t-77 -133q-17 -40 -30.5 -78.5t-24.5 -66.5v1zM365 270q1 1 1 2.5v2.5q0 41 -19 67.5t-48 26.5q-64 0 -115 -80t-51 -180q0 -41 21.5 -68
t54.5 -27q51 0 84.5 46.5t51.5 102.5q9 29 14 57t6 49v1z" />
    <glyph glyph-name="seven" unicode="7" horiz-adv-x="507" 
d="M580 667l-9 -42l-22 -27l-71 -82q-3 -4 -6 -7.5t-5 -6.5q-81 -94 -151.5 -204t-91.5 -234q-1 -6 -2 -11l-2 -10q-10 -40 -22 -51.5t-41 -11.5q-27 0 -43 12t-16 34q0 45 42.5 117t101.5 150q16 21 32.5 41.5t32.5 40.5q54 65 103 120t78 86l-144 1q-51 -1 -82.5 -8.5
t-60.5 -30.5q-12 -10 -24.5 -23.5t-26.5 -31.5l-30 14l93 174q12 -4 24 -5.5t24 -2.5q15 -1 31 -1.5t33 -0.5l255 1v0z" />
    <glyph glyph-name="eight" unicode="8" horiz-adv-x="507" 
d="M355 366q47 -36 70 -78.5t23 -94.5q0 -14 -3 -28.5t-8 -29.5q-10 -26 -25.5 -50.5t-35.5 -42.5q-34 -31 -76.5 -45.5t-96.5 -14.5q-79 0 -130.5 44t-51.5 112q0 80 52.5 124t115.5 74q9 4 17.5 8t17.5 8q-35 29 -52.5 63t-17.5 74q0 83 60 139t148 56q69 0 115 -40.5
t46 -102.5q0 -55 -42 -99t-126 -77v1zM249 330q-1 -2 -2.5 -2.5t-3.5 -1.5q-56 -31 -103 -81.5t-47 -119.5q0 -50 31 -79t86 -29q67 0 112 42t45 105q0 49 -30 84t-66 63q-5 5 -11 9.5t-11 8.5v1zM327 387q53 23 89 66t36 104q0 41 -27 67t-70 26q-53 0 -90.5 -35.5
t-37.5 -85.5q0 -48 29.5 -80.5t64.5 -58.5q2 -1 3.5 -2t2.5 -2v1z" />
    <glyph glyph-name="nine" unicode="9" horiz-adv-x="507" 
d="M400 357q-27 -45 -66 -80t-95 -35q-57 0 -94 44t-37 111q0 15 2 30.5t5 30.5q19 85 82 155.5t152 70.5q71 0 113.5 -58t42.5 -153q0 -38 -7.5 -81t-22.5 -88q-40 -121 -128 -222t-210 -101q-52 0 -85 20.5t-33 54.5q0 22 16 36.5t38 14.5q21 0 36 -18.5t19 -50.5
q2 -16 7.5 -20t21.5 -4q66 0 111.5 60.5t76.5 133.5q17 42 30.5 81t24.5 67v1zM425 562q-1 38 -22.5 63.5t-52.5 25.5q-50 0 -84 -47t-52 -104q-9 -29 -13.5 -57t-4.5 -49q0 -45 21.5 -71.5t57.5 -26.5q58 0 104.5 78.5t46.5 176.5v5.5t-1 4.5v1z" />
    <glyph glyph-name="colon" unicode=":" horiz-adv-x="233" 
d="M123 49q0 -26 -18 -42.5t-44 -16.5q-22 0 -38.5 16.5t-16.5 38.5q0 29 16.5 45.5t43.5 16.5q23 0 40 -17.5t17 -41.5v1zM219 386q0 -26 -17.5 -43t-43.5 -17q-23 0 -39 17.5t-16 41.5q0 26 17 43t43 17q23 0 39.5 -18t16.5 -42v1z" />
    <glyph glyph-name="semicolon" unicode=";" horiz-adv-x="233" 
d="M-23 -142l-15 19q44 37 67 64t23 42v2v2q-1 3 -2.5 5.5t-4.5 4.5q0 1 -2.5 3t-6.5 5q-1 1 -2.5 2t-3.5 2q-12 8 -19 19.5t-7 23.5v0.5v0.5v0.5v0.5q2 25 15.5 40.5t37.5 15.5q26 0 43 -18t17 -47q0 -45 -31.5 -86.5t-68.5 -71.5q-10 -9 -20 -16t-19 -13h-1zM211 385
q0 -26 -17.5 -42.5t-43.5 -16.5q-23 0 -39 17t-16 42q0 26 17 42.5t43 16.5q23 0 39.5 -17.5t16.5 -42.5v1z" />
    <glyph glyph-name="less" unicode="&#x3c;" horiz-adv-x="500" 
d="M430 107v-62l-413 267v9l413 268v-94l-296 -194l296 -194v0z" />
    <glyph glyph-name="equal" unicode="=" horiz-adv-x="507" 
d="M87 307h395v-47h-395v47v0zM87 422h395v-47h-395v47v0z" />
    <glyph glyph-name="greater" unicode="&#x3e;" horiz-adv-x="500" 
d="M70 45v62l296 194l-296 194v94l413 -268v-9l-413 -267v0z" />
    <glyph glyph-name="question" unicode="?" horiz-adv-x="401" 
d="M151 48q0 -26 -16.5 -42t-42.5 -16q-23 0 -40 16t-17 40q0 26 16.5 43t41.5 17q24 0 41 -17t17 -42v1zM114 176l57 201q6 -2 10 -2h7h2h2q66 0 113.5 43t47.5 103q0 17 -3.5 31t-10.5 27q-2 2 -3 4.5t-3 4.5q-3 5 -6.5 9t-6.5 8q-5 5 -10 8t-9 3q-2 0 -4.5 -1.5
t-7.5 -6.5q-13 -13 -22 -20.5t-18 -11.5q-5 -2 -11 -3t-13 -1q-25 0 -40 14.5t-15 38.5q0 23 17.5 37t45.5 14q66 0 117.5 -59t51.5 -134q0 -38 -15.5 -73.5t-43.5 -63.5q-31 -30 -67.5 -43.5t-94.5 -15.5l-32 -111h-35v0z" />
    <glyph glyph-name="at" unicode="@" horiz-adv-x="800" 
d="M618 441l-43 -150q-2 -7 -4 -13.5t-4 -12.5q-4 -10 -7 -19.5t-5 -19.5q-1 -6 -1.5 -11.5t-0.5 -10.5q0 -13 6 -19.5t18 -6.5q6 0 14.5 2t17.5 6q6 3 12.5 6t11.5 7q57 37 88 98.5t34 127.5q1 4 1 9v9q0 45 -16.5 84t-48.5 67q-31 29 -69 41t-97 12q-152 0 -265 -118
t-113 -277q0 -110 63 -171.5t177 -61.5q63 0 123.5 18t118.5 42l15 -30q-67 -32 -137 -49t-145 -17q-137 0 -212 67t-75 191q0 170 138 306t310 136q127 0 199 -64t72 -177q0 -89 -43.5 -165t-117.5 -119q-25 -14 -49 -21.5t-45 -7.5q-23 0 -37.5 17t-14.5 43v4v3
q1 5 1.5 11t2.5 15q-20 -40 -50.5 -65t-63.5 -29q-4 -1 -7 -1h-6q-40 0 -68 34.5t-28 83.5q0 12 1.5 24.5t3.5 24.5q21 92 100.5 169t172.5 77q44 0 72.5 -17.5t28.5 -44.5q0 -12 -7 -21t-22 -17v1zM496 255l46 163q8 24 10.5 34t2.5 17v2v2q0 15 -10 23.5t-27 8.5
q-54 0 -95.5 -48.5t-63.5 -107.5q-10 -26 -15 -51t-5 -46q0 -33 14.5 -53.5t36.5 -20.5t47 18t59 58v1z" />
    <glyph glyph-name="A" unicode="A" horiz-adv-x="589" 
d="M460 678l29 -644l59 -4l-9 -30h-209l8 30l60 3l-7 180h-225q-6 -10 -15.5 -25.5t-20.5 -32.5q-3 -5 -5.5 -9.5t-5.5 -8.5q-12 -22 -21.5 -42t-9.5 -32q0 -19 13 -26.5t44 -7.5l7 1l-9 -30h-196l9 30q37 -1 62.5 24t44.5 55q6 8 10.5 16t9.5 16l284 468l-10 61l103 8v0z
M389 249l-9 319l-192 -319h201v0z" />
    <glyph glyph-name="B" unicode="B" horiz-adv-x="631" 
d="M397 358q71 -13 124 -50t53 -119q0 -55 -35 -102t-94 -70q-8 -3 -15.5 -5.5t-14.5 -4.5q-19 -5 -42 -6.5t-60 -1.5h-23.5h-22.5q-12 1 -23.5 1h-23.5h-230l9 30l52 3l172 600l-62 4l8 30h110h121q15 -1 31 -1.5t32 -2.5q60 -7 110 -36t50 -102q0 -75 -61.5 -120.5
t-164.5 -47.5v1zM234 347l-89 -312q7 -1 14.5 -1.5t14.5 -1.5q7 0 14.5 -0.5t14.5 -0.5q14 -1 28.5 -1.5t29.5 -0.5q70 0 105.5 10t60.5 37q24 26 37.5 61t13.5 73q0 84 -54.5 110t-125.5 26l-64 1v0zM316 633l-73 -254h59q79 -1 111 4t55 24q2 3 5 5.5t6 5.5q17 17 29.5 39
t17.5 46q1 7 2 14.5t1 14.5q0 53 -32.5 79t-97.5 26h-7h-7q-12 0 -27 -1.5t-42 -3.5v1z" />
    <glyph glyph-name="C" unicode="C" horiz-adv-x="616" 
d="M629 678l6 -204h-32q-1 2 -2 5.5t-2 6.5q-20 60 -59.5 110t-110.5 50q-91 0 -149 -79.5t-86 -175.5q-13 -46 -19.5 -90t-6.5 -79q0 -83 45.5 -134t118.5 -51q75 0 128 48t90 106l30 -16q-44 -80 -113.5 -135t-165.5 -55q-105 0 -171 69t-66 180q0 170 112.5 308.5
t251.5 138.5q22 0 39.5 -3.5t33.5 -8.5q7 -2 14.5 -4.5t14.5 -3.5q8 -2 15 -3t15 -1q14 0 27 4t25 10q5 1 9 3t8 3v1z" />
    <glyph glyph-name="D" unicode="D" horiz-adv-x="667" 
d="M169 667h129l117 5q108 -1 174.5 -75t66.5 -195q0 -25 -4 -51t-11 -53q-12 -42 -30.5 -82t-43.5 -74q-64 -89 -137.5 -116t-178.5 -27l-108 1h-153l9 30l52 3l172 600l-62 4l8 30v0zM317 637l-171 -598q3 -2 6.5 -2.5t7.5 -0.5q20 -3 41.5 -4t48.5 -1q51 0 81.5 6.5
t55.5 22.5q59 37 98 106.5t58 144.5q10 38 14.5 74t4.5 69q0 50 -21 94.5t-54 65.5q-20 13 -47.5 19t-65.5 6h-4.5h-4.5q-9 0 -19.5 -1t-28.5 -2v1z" />
    <glyph glyph-name="E" unicode="E" horiz-adv-x="606" 
d="M607 680l7 -220h-29q-7 54 -19.5 85.5t-35.5 52.5l-2.5 2.5l-2.5 2.5q-21 18 -47.5 23.5t-87.5 5.5h-10h-10q-11 0 -23 -1t-32 -3l-74 -257h43q60 -1 87.5 14t48.5 63l4 10l4 10l33 1l-72 -249h-32q3 12 5 19.5t2 14.5q1 4 1 7v7q0 37 -21 52.5t-70 15.5l-43 1l-87 -303
q30 -2 46 -3t29 -1h2h2q104 0 181 43t133 131l28 -11l-102 -209q-4 2 -8.5 3.5t-8.5 3.5q-18 6 -41 7.5t-72 1.5h-343l9 30l52 3l172 600l-62 3l8 30h342q22 -1 36.5 0t27.5 4q8 2 15.5 4t16.5 5v1z" />
    <glyph glyph-name="F" unicode="F" horiz-adv-x="561" 
d="M605 681l15 -220h-32q-22 101 -69 136t-148 35q-9 0 -22.5 -0.5t-33.5 -1.5l-76 -267q19 -2 30 -2h17q59 0 94.5 23.5t55.5 75.5l32 1l-68 -248h-32q2 10 3 21.5t1 22.5q0 37 -20.5 53.5t-65.5 16.5l-57 1l-85 -295l66 -3l-9 -30h-211l9 30l52 3l172 600l-62 4l8 30h314
q35 -1 53 -0.5t32 3.5q8 2 17 4.5t20 5.5v1z" />
    <glyph glyph-name="G" unicode="G" horiz-adv-x="630" 
d="M610 679l11 -205l-33 -3q-19 85 -61.5 131t-101.5 46q-88 0 -147 -78.5t-88 -173.5q-15 -46 -22 -90t-7 -79q0 -96 45.5 -149t127.5 -53q46 0 60.5 14.5t23.5 43.5q2 7 4.5 16t5.5 19l31 112l-59 4l8 30h193l-8 -30l-49 -4l-44 -155q-4 -15 -6.5 -27t-2.5 -19v-2v-2
q0 -2 0.5 -4.5t2.5 -7.5q-24 0 -47 -4.5t-46 -9.5q-24 -6 -47 -10.5t-47 -4.5q-107 0 -174.5 69.5t-67.5 181.5q0 171 110 308.5t246 137.5q17 0 33.5 -3.5t32.5 -7.5q4 -2 8 -3l8 -2q12 -3 24.5 -5t24.5 -2h1.5h0.5q10 0 22 4.5t34 15.5v1z" />
    <glyph glyph-name="H" unicode="H" horiz-adv-x="692" 
d="M760 667l-9 -30l-52 -4l-172 -600l62 -3l-8 -30h-208l8 30l53 3l86 302h-289l-87 -302l63 -3l-9 -30h-208l9 30l52 3l172 600l-62 4l8 30h208l-8 -30l-53 -4l-73 -256h289l74 256l-63 4l9 30h208v0z" />
    <glyph glyph-name="I" unicode="I" horiz-adv-x="356" 
d="M424 667l-9 -30l-75 -3l-172 -600l85 -4l-8 -30h-255l9 30l75 4l172 600l-85 3l8 30h255v0z" />
    <glyph glyph-name="J" unicode="J" horiz-adv-x="380" 
d="M460 667l-9 -30l-52 -3l-123 -427q-23 -84 -70.5 -153t-147.5 -69q-52 0 -81 21.5t-29 60.5q0 21 15 36t37 15q25 0 42 -21t17 -52v-4v-4q-1 -2 -1 -4v-4q0 -7 3.5 -9.5t11.5 -2.5q32 0 53 35t35 76q10 28 16.5 53.5t10.5 41.5l118 411l-66 3l8 30h212v0z" />
    <glyph glyph-name="K" unicode="K" horiz-adv-x="648" 
d="M729 667l-8 -30q-23 -4 -40.5 -8t-33.5 -11q-23 -11 -50 -32.5t-71 -61.5l-111 -101l119 -390l48 -3l-9 -30h-197l9 30l51 3l-95 324l-139 -124l-58 -200l63 -3l-9 -30h-208l9 30l52 3l172 600l-62 4l8 30h208l-8 -30l-53 -4l-98 -344l285 261q21 19 29.5 28.5t9.5 17.5
q1 1 1 2.5v3.5q0 15 -12 22t-26 10q-8 1 -15.5 1.5t-12.5 0.5l8 31h244v0z" />
    <glyph glyph-name="L" unicode="L" horiz-adv-x="585" 
d="M392 667l-8 -30l-68 -4l-172 -600q22 -2 35 -2.5t24 -0.5h6.5h7.5q106 0 174.5 43.5t128.5 125.5q1 1 2 2.5t2 2.5l29 -11l-101 -208q-9 4 -16 6.5t-14 3.5q-13 4 -29 4.5t-42 0.5h-22.5h-22.5h-23.5h-22.5h-270l9 30l52 3l172 600l-62 4l8 30h223v0z" />
    <glyph glyph-name="M" unicode="M" horiz-adv-x="760" 
d="M822 667l-9 -30l-57 -4l-156 -599l60 -4l-9 -30h-206l9 30l58 3l146 562l-321 -466h-28l-46 461l-142 -444q-7 -24 -10.5 -39t-3.5 -26q0 -24 19 -37t59 -15l-9 -29h-210l9 30q35 4 53.5 15.5t33.5 44.5q6 13 12.5 29.5t13.5 38.5l153 476l-73 3l8 30h162l44 -419
l290 419h150v0z" />
    <glyph glyph-name="N" unicode="N" horiz-adv-x="651" 
d="M740 667l-9 -30q-35 -8 -52.5 -20t-31.5 -48q-5 -12 -10 -28t-11 -37l-147 -512h-31l-207 576l-118 -411l-13 -52t-4 -28v-1.5v-0.5q0 -22 18 -32.5t58 -13.5l-8 -29h-213l9 30q49 4 73.5 30t43.5 96l109 379q8 25 11.5 42.5t3.5 24.5q0 18 -13 23.5t-28 7.5
q-2 0 -4.5 0.5t-4.5 0.5q-4 0 -8.5 0.5t-8.5 1.5l8 31h150l184 -524l107 373q7 22 10.5 35t4.5 17t1.5 8t0.5 8q0 25 -15.5 36.5t-55.5 15.5l8 31h193v0z" />
    <glyph glyph-name="O" unicode="O" horiz-adv-x="660" 
d="M652 427q0 -170 -114.5 -306.5t-254.5 -136.5q-95 0 -157 70t-62 179q0 173 114.5 310.5t258.5 137.5q89 0 152 -74.5t63 -180.5v1zM560 505q-4 62 -39 99.5t-88 37.5q-92 0 -154 -84.5t-93 -185.5q-16 -51 -23.5 -99.5t-7.5 -86.5q0 -79 34 -122t98 -43q90 0 150.5 82.5
t91.5 182.5q16 51 24 100t8 87v15.5t-1 15.5v1z" />
    <glyph glyph-name="P" unicode="P" horiz-adv-x="592" 
d="M169 667h126q17 -1 34.5 -0.5t35.5 1.5q17 1 34.5 1.5t34.5 0.5q87 0 143 -45t56 -115q0 -60 -39 -112t-98 -69q-3 -1 -5.5 -1.5t-4.5 -1.5q-28 -7 -58.5 -10.5t-72.5 -3.5l-130 1l-81 -280l66 -3l-9 -30h-211l9 30l52 3l172 600l-62 4l8 30v0zM317 636l-82 -285
q35 -3 53.5 -4t34.5 -1h5.5h4.5q47 0 79 8t55 24q24 18 41.5 48.5t23.5 63.5q1 7 1.5 13.5t0.5 13.5q0 61 -37.5 91t-112.5 30h-3.5h-2.5q-11 0 -24 -0.5t-37 -2.5v1z" />
    <glyph glyph-name="Q" unicode="Q" horiz-adv-x="658" 
d="M435 37q4 -8 9.5 -19.5t11.5 -22.5q10 -19 22.5 -35t27.5 -16q11 0 21 6t19 19l13 -35q-18 -26 -41 -40t-49 -14q-42 0 -69 29t-42 90q-12 -5 -22 -7.5t-19 -4.5q-9 -1 -18 -1.5t-20 -0.5q-94 0 -155 68.5t-61 175.5q0 173 112.5 313t250.5 140q101 0 163.5 -69.5
t62.5 -182.5q0 -23 -3 -47t-8 -47q-10 -43 -29 -85.5t-46 -82.5q-6 -10 -12.5 -18.5t-12.5 -16.5q-9 -13 -19 -24t-22 -22q-13 -12 -29 -24l-36 -27v1zM414 69q39 41 70 105.5t50 133.5q13 46 20 90.5t7 82.5q0 75 -35 117.5t-97 42.5q-68 0 -115 -41t-90 -137
q-26 -57 -45 -119t-24 -125q-1 -10 -1.5 -20.5t-0.5 -21.5q0 -72 35.5 -114.5t96.5 -42.5q12 0 20.5 0.5t15.5 2.5q7 1 14.5 3t17.5 6q-12 41 -27.5 55.5t-47.5 17.5l20 36q41 -1 68 -20t48 -53v1z" />
    <glyph glyph-name="R" unicode="R" horiz-adv-x="629" 
d="M169 667h157q88 -1 123.5 -3t60.5 -10q6 -2 12.5 -4.5t14.5 -5.5q44 -18 67 -54t23 -88q0 -70 -56.5 -117t-150.5 -54l83 -298l53 -3l-8 -30h-128l-90 327h-102l-84 -294l63 -3l-9 -30h-208l9 30l52 3l172 600l-62 4l8 30v0zM317 634l-78 -270q23 -2 38.5 -2.5t28.5 -1.5
h12h12q59 0 88.5 6.5t54.5 23.5q1 2 3 3.5t4 2.5q27 22 41.5 53.5t14.5 69.5q0 75 -48 95.5t-110 20.5h-2.5h-2.5q-11 0 -23 -0.5t-33 -1.5v1z" />
    <glyph glyph-name="S" unicode="S" horiz-adv-x="557" 
d="M555 674l9 -197l-32 -3q-1 1 -1.5 3t-1.5 4q-19 64 -62 116.5t-116 52.5q-52 0 -89.5 -32t-37.5 -79q0 -59 39 -91.5t88 -60.5q3 -2 6.5 -3.5t6.5 -3.5q53 -30 96.5 -68.5t43.5 -110.5q0 -91 -69 -154t-169 -63q-30 0 -55.5 6t-45.5 12q-21 6 -36 12t-25 6q-8 0 -20.5 -5
t-41.5 -21l-9 215h31q23 -83 68 -138t140 -55q59 0 102 40.5t43 95.5q0 61 -39.5 94t-88.5 60q-2 1 -4.5 2.5t-4.5 2.5q-51 29 -94 66t-43 107q0 83 60.5 140t147.5 57q24 0 45 -5t38 -11q17 -7 31.5 -12t24.5 -5h2.5h2.5q11 1 23.5 6.5t36.5 18.5v1z" />
    <glyph glyph-name="T" unicode="T" horiz-adv-x="538" 
d="M607 678l-8 -212l-29 -3q-7 67 -33.5 116.5t-103.5 53.5l-172 -599l69 -4l-9 -30h-226l8 30l64 3l173 601q-83 -4 -138.5 -55t-96.5 -117l-29 11l91 205q10 -4 19.5 -6t19.5 -4q14 -1 29 -1.5t30 -0.5l236 1q24 -1 39 -0.5t28 2.5q9 1 18 3t21 5v1z" />
    <glyph glyph-name="U" unicode="U" horiz-adv-x="636" 
d="M722 667l-10 -30q-1 -1 -2.5 -1.5t-2.5 -0.5q-31 -7 -45.5 -18t-25.5 -40l-6.5 -19.5t-7.5 -23.5l-18 -61l-75 -259q-28 -98 -86 -163.5t-168 -65.5q-82 0 -135.5 43t-53.5 110q0 32 8 63.5t17 62.5q3 9 6 17.5t5 17.5l96 335l-50 3l8 30h208l-8 -30l-65 -3l-100 -350
q-2 -10 -4.5 -18.5t-5.5 -17.5q-8 -28 -15 -56.5t-7 -57.5q0 -48 36 -78.5t94 -30.5q65 0 111 47t73 141l77 269q2 7 4.5 14.5t5.5 15.5q3 10 5.5 19.5t5.5 19.5q2 8 3 17t1 18q0 27 -18.5 36.5t-40.5 12.5q-3 0 -6.5 0.5t-6.5 0.5l9 31h190v0z" />
    <glyph glyph-name="V" unicode="V" horiz-adv-x="570" 
d="M688 667l-9 -30q-43 -6 -66 -29.5t-41 -56.5q-6 -10 -12 -20.5t-13 -21.5l-279 -457l10 -58l-101 -7l-23 647l-48 3l8 30h196l-9 -30l-53 -3l15 -532l251 419q3 4 7 10.5t8 13.5q3 4 5 8t5 9q5 10 9 20.5t4 18.5q0 17 -14.5 25.5t-48.5 9.5l9 31h190v0z" />
    <glyph glyph-name="W" unicode="W" horiz-adv-x="828" 
d="M946 667l-9 -30q-44 -10 -67 -35.5t-42 -59.5q-5 -9 -10.5 -18.5t-10.5 -19.5l-254 -453l5 -58l-92 -5l19 515l-253 -455l4 -55l-93 -5l19 646l-46 3l9 30h184l-9 -30l-50 -3l-20 -526l251 456l-3 81l95 25l-21 -555l225 405q21 36 27.5 50t7.5 24v1v2q0 20 -14 27
t-30 10q-4 0 -8 0.5t-8 1.5h-0.5h-1.5l9 31h187v0z" />
    <glyph glyph-name="X" unicode="X" horiz-adv-x="589" 
d="M682 667l-8 -30q-41 -6 -66.5 -20.5t-47.5 -36.5q-11 -11 -21.5 -23.5t-23.5 -26.5l-142 -162l113 -335l49 -3l-9 -30h-197l8 30l53 3l-88 274l-152 -175q-4 -5 -8.5 -10t-9.5 -10q-9 -9 -16 -19t-10 -20q0 -2 -0.5 -4t-0.5 -4q0 -16 12.5 -23.5t52.5 -12.5l-8 -29h-215
l9 30q44 7 71 25.5t51 45.5q10 11 20 23.5t22 26.5l166 192l-101 290l-49 4l8 30h202l-8 -30l-56 -4l76 -229l128 147q3 2 6.5 5.5l6.5 6.5q9 9 16.5 20t7.5 23q0 14 -14.5 21.5t-46.5 8.5l8 31h212v0z" />
    <glyph glyph-name="Y" unicode="Y" horiz-adv-x="564" 
d="M682 667l-8 -30q-2 -1 -3.5 -1.5t-3.5 -1.5q-18 -4 -31 -9.5t-25 -13.5q-15 -11 -32 -30t-43 -52l-183 -231l-76 -265l63 -3l-9 -30h-208l9 30l52 3l73 255l-106 346l-48 3l9 30h196l-8 -30l-55 -4l90 -301l171 213q17 20 23.5 31t6.5 19v1.5v0.5q0 19 -16 28t-51 11
l9 31h204v0z" />
    <glyph glyph-name="Z" unicode="Z" horiz-adv-x="545" 
d="M613 666l-10 -33l-511 -600h66q50 -1 74.5 1t44.5 8q5 2 10.5 4t11.5 4q53 22 92 59.5t75 79.5l1 1l1 1q4 4 7.5 8t6.5 8l25 -9l-101 -205q-17 3 -27.5 4.5t-19.5 2.5h-7.5h-8.5h-57h-315l10 33l516 600q-91 -1 -148.5 -9.5t-109.5 -44.5q-24 -17 -49 -42.5t-53 -60.5
l-26 13l100 187q11 -3 21.5 -5t21.5 -3q21 -2 42.5 -2.5t43.5 -0.5l273 1v0z" />
    <glyph glyph-name="bracketleft" unicode="[" horiz-adv-x="288" 
d="M377 707l-8 -27q-4 -1 -8.5 -1.5t-9.5 -0.5q-6 -1 -12 -1t-12 -1q-16 -1 -31.5 -5.5t-26.5 -15.5l-0.5 -0.5l-0.5 -0.5q-2 -3 -4.5 -5.5t-4.5 -6.5q-5 -10 -12 -32t-21 -72l-156 -543q-16 -57 -21 -77t-5 -30q0 -16 15 -22.5t33 -8.5q7 -1 14 -1.5t13 -0.5q4 0 7 -0.5
t6 -0.5l-7 -27h-168l252 880h168v0z" />
    <glyph glyph-name="backslash" unicode="\" horiz-adv-x="443" 
d="M141 707h37l163 -880h-37l-163 880v0z" />
    <glyph glyph-name="bracketright" unicode="]" horiz-adv-x="288" 
d="M-70 -173l8 27q70 7 91.5 21.5t34.5 55.5q3 13 7 28.5t10 35.5l156 544q17 56 21.5 76t4.5 30q0 15 -15 21.5t-33 8.5q-9 1 -16.5 2t-14.5 1q-2 0 -4.5 0.5t-4.5 0.5l7 28h168l-252 -880h-168v0z" />
    <glyph glyph-name="asciicircum" unicode="^" horiz-adv-x="500" 
d="M502 333h-62l-147 250l-147 -250h-95l221 367h9l221 -367v0z" />
    <glyph glyph-name="underscore" unicode="_" horiz-adv-x="500" 
d="M0 -72h500v-57h-500v57v0z" />
    <glyph glyph-name="grave" unicode="`" horiz-adv-x="500" 
d="M368 534l-6 -14l-114 41q-6 1 -13 3.5t-14 4.5q-17 7 -31.5 17.5t-14.5 30.5q0 17 10.5 28.5t26.5 11.5t28.5 -9t23.5 -20q2 -3 5 -5.5t5 -4.5l94 -84v0z" />
    <glyph glyph-name="a" unicode="a" horiz-adv-x="491" 
d="M423 81l10 -26q-5 -7 -9.5 -13t-9.5 -11q-18 -20 -37 -29t-39 -9q-27 0 -43 19t-16 50v5v5q1 5 2 11.5t3 16.5q-25 -49 -62.5 -78t-78.5 -32h-3.5h-3.5q-46 0 -79 39.5t-33 96.5q0 13 1.5 27t4.5 27q22 108 115 198.5t203 90.5q52 0 84.5 -19.5t32.5 -51.5
q0 -14 -8 -24.5t-26 -20.5l-50 -173q-2 -8 -4.5 -15.5t-5.5 -14.5q-2 -8 -4.5 -16.5t-4.5 -16.5q-3 -10 -4.5 -19.5t-1.5 -18.5q0 -13 6 -21.5t16 -8.5t19 6.5t16 13.5q2 3 5 6l5 5v1zM289 138l54 190q9 29 12 40t3 19v2v2q0 17 -11.5 27.5t-31.5 10.5q-62 0 -110.5 -56.5
t-73.5 -123.5q-12 -31 -18 -60.5t-6 -53.5q0 -39 16.5 -63t42.5 -24t54.5 21t68.5 68v1z" />
    <glyph glyph-name="b" unicode="b" horiz-adv-x="465" 
d="M195 399q6 7 11.5 13.5t11.5 12.5q23 23 47 34t51 11q53 0 87 -42t34 -106q0 -23 -4.5 -47.5t-12.5 -49.5q-30 -90 -103.5 -164t-163.5 -74q-52 0 -85 29t-33 75v6v6q1 15 7 38.5t25 88.5l94 329q1 3 2 6.5t3 7.5q1 6 3 11.5t3 11.5q1 5 1.5 9.5t0.5 9.5q0 11 -7.5 17
t-21.5 6h-4h-4q-5 -1 -10 -1.5t-14 -2.5l10 36l170 50q-7 -19 -12 -32.5t-9 -25.5q-1 -3 -2.5 -6.5t-2.5 -6.5q-3 -12 -7.5 -26t-9.5 -33l-55 -191v0zM184 361l-49 -169q-14 -53 -20 -78t-6 -38q0 -25 16 -41t42 -16q53 0 93 53t63 117q13 37 20 71.5t7 59.5q0 41 -19 66
t-51 25q-7 0 -13.5 -1t-12.5 -3q-15 -4 -31.5 -15.5t-38.5 -31.5v1z" />
    <glyph glyph-name="c" unicode="c" horiz-adv-x="429" 
d="M366 107l12 -30q-36 -39 -82.5 -63t-100.5 -24q-70 0 -116 47t-46 120q0 119 91 215.5t203 96.5q50 0 82 -20t32 -52q0 -19 -15 -34t-35 -15q-23 0 -39 15.5t-21 43.5q-3 17 -8 23t-15 6q-53 0 -94 -51t-64 -112q-11 -31 -17.5 -61t-6.5 -53q0 -54 28 -88t73 -34
q7 0 13.5 0.5t13.5 2.5q27 5 54 21t58 45v1z" />
    <glyph glyph-name="d" unicode="d" horiz-adv-x="501" 
d="M433 82l13 -29q-14 -23 -33.5 -38t-39.5 -22q-7 -2 -13.5 -3t-12.5 -1q-28 0 -43.5 18t-15.5 49v6.5v6.5q1 7 2.5 16t4.5 22q-30 -58 -69.5 -87.5t-86.5 -29.5q-49 0 -80 40t-31 104q0 25 5 53.5t15 57.5q28 84 91.5 154t147.5 70q23 0 39 -6t31 -21q5 -5 10 -11.5
t10 -13.5l47 163q1 3 2 7l2 8q1 1 1.5 2.5t0.5 3.5q2 6 3 11.5t1 10.5q0 11 -7 16t-21 5h-2h-3q-4 0 -9.5 -1t-15.5 -2l9 35l162 44q-7 -20 -12.5 -38.5t-11.5 -36.5q-1 -6 -3 -12.5t-4 -12.5l-122 -425q-13 -44 -20 -75.5t-7 -42.5q0 -13 5.5 -20.5t15.5 -7.5t21 8t24 24v1
zM302 157l36 122l13 51q5 15 7 25.5t2 14.5q0 27 -21 44.5t-53 17.5q-56 0 -94 -53.5t-58 -116.5q-10 -35 -15.5 -68t-5.5 -57q0 -40 19 -64t50 -24q12 0 25 5t25 15q18 13 36 35t34 52v1z" />
    <glyph glyph-name="e" unicode="e" horiz-adv-x="447" 
d="M371 128l15 -34q-50 -48 -96 -73t-91 -30q-6 0 -11.5 -0.5t-11.5 -0.5q-64 0 -105.5 45t-41.5 115q0 14 1.5 28t5.5 29q23 98 107 180t184 82q44 0 71 -23t27 -61q0 -68 -57.5 -114.5t-125.5 -78.5q-35 -16 -68 -29t-59 -24q11 -43 36.5 -65.5t64.5 -22.5q32 0 67.5 17.5
t87.5 58.5v1zM110 175q19 8 42 17.5t47 20.5q56 27 102.5 66t46.5 101q0 20 -15 33t-37 13q-55 0 -98 -49.5t-66 -109.5q-10 -25 -15.5 -49t-6.5 -44v1z" />
    <glyph glyph-name="f" unicode="f" horiz-adv-x="272" 
d="M312 460l-12 -44h-75l-84 -293q-9 -33 -13.5 -63.5t-5.5 -59.5h-102q4 8 7 16l6 16q2 4 3.5 8.5t2.5 8.5q6 15 11.5 34t13.5 46l81 287h-59l13 44h59l15 50q25 81 73.5 137.5t101.5 68.5q6 1 11.5 1.5t11.5 0.5q32 0 51.5 -15.5t19.5 -40.5q0 -14 -11.5 -25.5
t-25.5 -15.5q-2 0 -4.5 -0.5t-5.5 -0.5h-4t-4 1q-11 1 -21 6.5t-15 12.5q-1 2 -3 5.5t-4 7.5q-4 6 -8.5 11t-10.5 5q-21 0 -39 -42t-33 -92q-5 -20 -10 -39.5t-9 -36.5l78 1v0z" />
    <glyph glyph-name="g" unicode="g" horiz-adv-x="479" 
d="M492 482q-2 -8 -4.5 -14.5t-5.5 -13.5q-12 -33 -23.5 -66t-20.5 -67l-67 -231q-10 -39 -18 -63t-14 -40q-4 -8 -7 -15l-6 -14q-2 -4 -4.5 -8.5t-4.5 -8.5q-33 -60 -94.5 -95.5t-129.5 -35.5q-56 0 -91 19.5t-35 50.5q0 20 14.5 34.5t33.5 14.5q22 0 39 -17t24 -44
q0 -2 0.5 -4t0.5 -3q3 -11 7 -12.5t18 -1.5q71 0 107 50t56 110q6 17 10.5 34.5t9.5 33.5q-31 -44 -65 -64.5t-75 -20.5q-51 0 -84.5 42.5t-33.5 109.5q0 24 5 50t14 52q30 85 97 155t151 70q32 0 58 -11t47 -33l91 57v0zM319 188l36 124q8 29 11 41.5t3 20.5q0 26 -21 42.5
t-54 16.5q-55 0 -94.5 -52.5t-60.5 -115.5q-11 -33 -17 -64.5t-6 -55.5q0 -44 19.5 -70.5t53.5 -26.5q46 0 74.5 33t44.5 72q3 9 6 17.5t5 16.5v1z" />
    <glyph glyph-name="h" unicode="h" horiz-adv-x="528" 
d="M198 347q1 1 2.5 3t2.5 4q27 43 68.5 79t95.5 36q44 0 73 -28.5t29 -71.5q0 -24 -7 -47.5t-15 -46.5q-3 -8 -5.5 -15t-4.5 -14l-39 -113q-7 -25 -10 -36t-3 -18q0 -10 5.5 -16.5t14.5 -6.5q10 0 23 8.5t32 27.5l13 -30q-31 -34 -51.5 -49.5t-38.5 -19.5q-5 -2 -10 -2.5
t-11 -0.5q-29 0 -46.5 18.5t-17.5 49.5v2v2q1 16 7.5 39t26.5 80l40 114q8 23 11.5 33.5t4.5 17.5v4.5v4.5q0 24 -14 39.5t-36 15.5q-20 0 -42.5 -11t-45.5 -32q-7 -7 -14.5 -15.5t-15.5 -17.5q-22 -28 -43 -77.5t-36 -102.5q-13 -43 -22 -84t-12 -70h-98q3 6 6 12.5t6 12.5
q3 8 6 15.5t6 16.5q5 15 11 33.5t13 43.5l120 420q1 1 1.5 3t0.5 4q4 13 7.5 26.5t3.5 27.5q0 13 -8.5 18.5t-28.5 5.5h-1.5h-0.5q-4 0 -8.5 -0.5t-12.5 -1.5l10 35l174 48q-7 -16 -12 -28t-9 -23q-1 -4 -2.5 -8t-3.5 -8q-5 -16 -11 -35t-14 -48l-64 -223v0z" />
    <glyph glyph-name="i" unicode="i" horiz-adv-x="289" 
d="M243 471q1 -12 2 -18.5t1 -12.5v-1.5v-1.5q0 -23 -6.5 -45.5t-14.5 -44.5q-1 -5 -2.5 -9.5t-3.5 -8.5l-66 -188q-12 -37 -15.5 -50t-3.5 -21q0 -12 5.5 -19.5t13.5 -7.5q11 0 25.5 8.5t34.5 27.5l11 -33q-9 -11 -19 -19t-20 -15q-18 -12 -35 -18.5t-32 -6.5
q-28 0 -47 19.5t-19 50.5v2.5v2.5q1 13 5.5 30.5t16.5 53.5l59 171q1 2 2 4.5t2 5.5q1 4 2.5 7.5t2.5 7.5q1 3 1.5 6.5t0.5 6.5q0 11 -8.5 18.5t-20.5 7.5h-5h-5q-5 -1 -11 -2.5t-17 -4.5l11 41l155 56v0zM304 605q0 -23 -18 -40.5t-41 -17.5t-39.5 17.5t-16.5 41.5t18 40.5
t44 16.5q22 0 37.5 -17t15.5 -42v1z" />
    <glyph glyph-name="j" unicode="j" horiz-adv-x="247" 
d="M190 266l-67 -232q-24 -81 -70.5 -141.5t-96.5 -78.5q-10 -4 -19 -5.5t-18 -1.5q-27 0 -43 13t-16 36q0 20 15.5 35t37.5 15q19 0 31 -11.5t21 -26.5q1 -2 2 -3t1 -2q1 -1 2 -1.5t2 -0.5q11 0 22.5 21.5t24.5 65.5l108 377q4 13 5 19.5t1 11.5q0 12 -9 18.5t-26 6.5h-6
t-6 -1q-4 0 -9 -1t-13 -3l11 38l183 57q-6 -16 -12.5 -37t-14.5 -43q0 -3 -1 -5.5t-2 -5.5q-16 -50 -28 -89t-10 -26v1zM287 611q0 -26 -17.5 -42t-43.5 -16q-22 0 -37.5 16.5t-15.5 39.5q0 26 17 42t44 16q22 0 37.5 -16.5t15.5 -40.5v1z" />
    <glyph glyph-name="k" unicode="k" horiz-adv-x="485" 
d="M164 242q16 17 41.5 45.5t55.5 59.5q12 13 25.5 26t26.5 25q35 31 68.5 53t57.5 22q23 0 39 -15t16 -37t-16 -36.5t-39 -14.5q-11 0 -22 4t-21 12q-6 5 -10.5 8t-6.5 3q-8 0 -21.5 -9t-27.5 -22q-4 -3 -8.5 -7t-8.5 -8l-20.5 -20.5t-14.5 -16.5q3 -2 5.5 -3.5t5.5 -3.5
q25 -18 31.5 -47t9.5 -116q2 -52 8.5 -73t22.5 -21h2.5t3.5 1q9 2 19.5 11.5t24.5 28.5l11 -29q-13 -24 -30.5 -41t-36.5 -24q-7 -4 -14.5 -5.5t-14.5 -1.5q-40 0 -55.5 34t-15.5 122v20q0 48 -6 67.5t-21 19.5q-8 0 -20.5 -10t-25.5 -27q-3 -3 -5.5 -6.5t-4.5 -6.5
q-27 -37 -41.5 -80.5t-23.5 -87.5q-1 -9 -2.5 -18t-3.5 -17h-91q11 28 23.5 67.5t26.5 89.5l116 405q1 3 2.5 7t2.5 9q4 9 6.5 18.5t2.5 19.5q0 13 -7.5 19t-21.5 6h-2.5h-2.5q-4 0 -9 -1t-16 -3l10 37l166 46q-11 -29 -22.5 -64.5t-25.5 -83.5l-95 -330v0z" />
    <glyph glyph-name="l" unicode="l" horiz-adv-x="258" 
d="M201 97l14 -32q-16 -26 -36.5 -44t-41.5 -26q-10 -4 -19.5 -6.5t-18.5 -2.5q-31 0 -49 19.5t-18 53.5q0 24 6 47.5t13 46.5q2 8 4.5 16t4.5 16l111 385q3 11 5 20t2 15q0 13 -7.5 20.5t-20.5 7.5h-4h-4q-5 -1 -11.5 -2t-17.5 -4l10 37l175 56q-14 -41 -26.5 -82.5
t-24.5 -82.5l-107 -369q-13 -50 -19.5 -76t-6.5 -35q0 -11 6.5 -18t16.5 -7h3.5t3.5 1q11 1 24 11.5t33 33.5v1z" />
    <glyph glyph-name="m" unicode="m" horiz-adv-x="778" 
d="M164 471q28 -20 41.5 -43.5t13.5 -52.5q0 -9 -1 -19.5t-3 -24.5q5 9 10.5 18.5t11.5 18.5q24 38 59.5 69.5t80.5 31.5q38 0 65 -27t27 -65q0 -5 -1.5 -13t-3.5 -19q3 6 6.5 11.5t7.5 11.5q26 38 63.5 69.5t85.5 31.5q41 0 66 -27t25 -72q0 -15 -5.5 -37t-16.5 -54
l-47 -131l-3.5 -10.5t-3.5 -9.5t-4 -10.5t-3 -10.5q-2 -7 -3.5 -13.5t-1.5 -13.5q0 -13 5.5 -20t14.5 -7q11 0 24 8t32 28l13 -31q-26 -29 -45 -43.5t-37 -20.5q-7 -2 -14 -3t-14 -1q-27 0 -43.5 19.5t-16.5 53.5q0 14 3 29t8 30q3 9 6.5 18t6.5 18q4 9 7.5 18.5t6.5 18.5
l36 103q8 22 11 36t3 27q0 23 -12 36t-32 13q-57 0 -100 -69.5t-70 -152.5q-19 -55 -29.5 -106.5t-13.5 -81.5h-96q3 5 5.5 11.5t5.5 13.5l6 16l6 16q5 14 9.5 27.5t7.5 24.5l42 148q2 5 4 11.5t4 12.5q4 11 7 22t6 23q2 8 3 17t1 18q0 21 -12 33.5t-32 12.5q-12 0 -27 -7.5
t-30 -19.5q-17 -15 -33.5 -35t-29.5 -44q-4 -7 -7.5 -15.5t-7.5 -17.5q-11 -27 -21.5 -59t-19.5 -66q-11 -40 -19 -78t-12 -65h-97q3 5 6 12t6 15q2 7 5 14.5t6 14.5q5 16 10.5 31.5t8.5 28.5l46 159q8 25 10 37t2 20q0 15 -7 23.5t-18 8.5q-7 0 -17.5 -7t-24.5 -23l-15 28
l103 109v0z" />
    <glyph glyph-name="n" unicode="n" horiz-adv-x="559" 
d="M159 469q33 -21 46 -44t13 -58v-4v-4q0 -8 -1.5 -17t-3.5 -24q24 56 64 95t82 51q9 2 17.5 3.5t16.5 1.5q43 0 70 -27.5t27 -72.5v-3.5v-3.5q-1 -16 -6.5 -36.5t-21.5 -65.5l-45 -132q-6 -18 -9.5 -31.5t-3.5 -20.5q0 -13 6.5 -20.5t16.5 -7.5h2h2q9 2 20.5 10t31.5 28
l14 -30q-22 -26 -39.5 -40.5t-34.5 -19.5q-8 -3 -16 -4.5t-16 -1.5q-29 0 -48.5 21.5t-19.5 54.5q0 17 6 39t23 70l45 131q8 22 11 34t3 21q0 21 -13.5 34.5t-33.5 13.5q-13 0 -29 -6.5t-31 -18.5q-16 -12 -31.5 -29t-29.5 -37q-7 -10 -14 -25t-14 -33q-10 -23 -19 -51
t-17 -56q-13 -45 -22.5 -86.5t-12.5 -66.5h-98q3 6 7 14.5t8 17.5q2 5 4 9.5t4 9.5q5 14 9.5 26.5t7.5 22.5l42 149q1 2 2 4.5t1 5.5q6 17 10.5 34.5t6.5 35.5v2.5v2.5q-1 11 -6.5 20t-18.5 9q-11 0 -20.5 -6.5t-18.5 -14.5l-2.5 -2.5l-3.5 -3.5l-20 29l101 104v0z" />
    <glyph glyph-name="o" unicode="o" horiz-adv-x="495" 
d="M459 280q-5 -115 -85 -202.5t-178 -87.5q-73 0 -117.5 48.5t-44.5 130.5q0 115 80 208t179 93q73 0 120 -51t47 -131v-2v-2q-1 -2 -1 -3v-2v1zM375 341q0 40 -22 65t-57 25q-49 0 -82.5 -33t-59.5 -109q-19 -54 -29 -97t-10 -73q0 -43 22.5 -68t60.5 -25q35 0 63 18
t47 55q14 25 25.5 55t20.5 61q10 34 15.5 66.5t5.5 58.5v1z" />
    <glyph glyph-name="p" unicode="p" horiz-adv-x="513" 
d="M215 355q10 16 19 30t19 26q25 31 51.5 45t59.5 14q53 0 85 -43t32 -114q0 -25 -5 -52.5t-15 -55.5q-29 -81 -90.5 -148t-142.5 -67q-27 0 -51 9t-41 27l-29 -102q-1 -5 -3 -11.5t-3 -13.5q-3 -12 -5 -26t-5 -29q0 -4 -0.5 -8.5t-1.5 -8.5h-95q4 7 5.5 14t4.5 14
q2 6 4 12.5t4 12.5q6 17 11.5 36t12.5 42l90 314q8 25 12 45t4 27q0 10 -4.5 16t-11.5 6q-12 0 -21.5 -7t-17.5 -15l-4 -4l-4 -4q-2 -1 -3 -2.5t-3 -2.5l-19 32l118 111q24 -20 35.5 -43t11.5 -52v-1.5v-1.5q0 -4 -1 -9t-3 -13v1zM169 145q-1 -6 -3 -11.5t-4 -11.5
q-1 -5 -3 -10t-3 -10t-2 -10.5t-1 -10.5q0 -24 21 -41.5t49 -17.5q58 0 95 53.5t56 117.5q10 35 15 68t5 58q0 41 -18.5 66.5t-48.5 25.5q-36 0 -61.5 -30.5t-42.5 -67.5q-8 -18 -14 -34.5t-10 -30.5l-30 -103v0z" />
    <glyph glyph-name="q" unicode="q" horiz-adv-x="478" 
d="M496 487q-8 -20 -15 -37t-13 -34q-3 -10 -6.5 -19.5t-6.5 -20.5q-3 -10 -6.5 -20.5t-6.5 -22.5l-80 -277q-13 -45 -24.5 -90.5t-19.5 -92.5q-2 -11 -3.5 -22.5t-2.5 -23.5h-102q11 27 21 57t19 61l37 129q-5 -8 -9.5 -14.5t-9.5 -12.5q-25 -31 -53 -44t-65 -13
q-53 0 -87 42t-34 106q0 21 3 43.5t10 45.5q24 90 92 166t164 76q32 0 54 -9t38 -30l106 57v0zM325 205l32 114q2 4 3 8.5t2 9.5q2 9 2.5 18.5t0.5 19.5q0 28 -17.5 44.5t-47.5 16.5q-59 0 -100 -54t-62 -118q-10 -32 -15.5 -63t-5.5 -55q0 -45 20.5 -70.5t55.5 -25.5
q47 0 74 33.5t42 72.5q5 13 9 25t7 23v1z" />
    <glyph glyph-name="r" unicode="r" horiz-adv-x="382" 
d="M171 476q13 -13 21.5 -23t14.5 -19q8 -13 10.5 -27t2.5 -33v-10t-1 -10q-1 -12 -3.5 -25.5t-6.5 -33.5q7 14 17 35.5t24 44.5q21 37 49 68.5t57 31.5q21 0 35 -13t14 -33q0 -28 -17 -47t-43 -19q-6 0 -11.5 1t-10.5 3q-5 1 -10.5 2t-11.5 1q-12 0 -26 -15t-28 -41
q-15 -27 -30 -63.5t-28 -73.5q-18 -55 -31 -104.5t-16 -72.5h-99q4 8 9 19.5t10 24.5q3 10 7 20.5t7 21.5q1 3 2 6.5t2 6.5l41 132q15 46 20 67t5 36q0 14 -5.5 23t-14.5 9t-19.5 -8t-27.5 -25l-19 28l111 115v0z" />
    <glyph glyph-name="s" unicode="s" horiz-adv-x="381" 
d="M102 32q6 -3 10.5 -4.5t8.5 -2.5q4 0 8.5 -0.5t10.5 -0.5q49 0 77 22t28 60q0 30 -19 50t-44 38q-4 3 -8.5 6t-8.5 6q-31 22 -56 49t-25 73q0 64 50.5 102.5t133.5 38.5q48 0 77 -16.5t29 -44.5q0 -19 -13.5 -33.5t-33.5 -14.5q-27 0 -36.5 11.5t-14.5 25.5q-1 1 -1.5 2
t-0.5 3q-5 12 -12 22t-26 10q-37 0 -59.5 -20t-22.5 -52q0 -27 18 -46t43 -36q5 -4 11 -8l12 -8q32 -21 58 -49.5t26 -75.5q0 -66 -51 -107.5t-132 -41.5q-70 0 -111 21t-41 58q0 20 14.5 34.5t33.5 14.5q31 0 48 -22t19 -65v1z" />
    <glyph glyph-name="t" unicode="t" horiz-adv-x="275" 
d="M281 639l-51 -179h84l-13 -44h-84l-78 -271q-1 -3 -1.5 -5t-0.5 -4q-5 -15 -9 -30.5t-4 -31.5q0 -11 4.5 -17t14.5 -6q15 0 27.5 10t22.5 21q5 6 10 11.5t9 9.5l11 -36q-16 -21 -31.5 -35.5t-30.5 -23.5t-30.5 -13.5t-31.5 -4.5q-25 0 -41.5 18.5t-16.5 46.5
q0 12 1.5 23.5t4.5 22.5q3 14 6.5 27t7.5 26l6 20t6 19l64 223h-65l13 44h65l35 124l96 55v0z" />
    <glyph glyph-name="u" unicode="u" horiz-adv-x="540" 
d="M512 460q-5 -11 -8.5 -19.5t-6.5 -16.5l-2 -6l-2 -6q-5 -14 -10.5 -32t-14.5 -48l-52 -182q-7 -26 -10 -38t-3 -22v-2.5v-2.5q0 -14 6.5 -22.5t17.5 -8.5h3.5t3.5 1q8 1 18 8.5t28 23.5l13 -30q-19 -23 -34 -36.5t-29 -20.5q-10 -4 -20 -6t-22 -2q-28 0 -45 19.5
t-17 50.5v10.5t1 9.5q1 8 2.5 16t5.5 20q-23 -49 -69 -88.5t-104 -39.5q-44 0 -74.5 28t-30.5 71v8t1 7q1 14 6.5 33.5t20.5 64.5l41 120q6 16 8 24.5t2 15.5v1.5v0.5q0 11 -7 18t-18 7h-5t-4 -1q-6 0 -12.5 -2.5t-17.5 -7.5l-11 33l152 66q5 -13 8.5 -21t4.5 -16
q1 -5 1.5 -10.5t0.5 -11.5v-6.5v-6.5q-2 -18 -8 -41.5t-23 -72.5l-37 -113q-1 -5 -3 -10t-3 -9q-6 -14 -10 -28t-4 -29q0 -24 16 -40t40 -16q47 0 82 37.5t56 83.5q9 18 15.5 35.5t10.5 32.5l36 126q5 15 8.5 31.5t6.5 33.5q2 8 3.5 16.5t2.5 16.5l95 1v0z" />
    <glyph glyph-name="v" unicode="v" horiz-adv-x="437" 
d="M209 476q8 -21 11 -34t4 -24v-3.5v-3.5v-5.5v-5.5q-1 -15 -7 -34.5t-22 -60.5l-40 -105q-14 -38 -21.5 -65.5t-7.5 -42.5q0 -22 14 -38t34 -16q5 0 10.5 1t10.5 2q40 12 77.5 60t64.5 103q19 40 30 76.5t11 60.5q0 7 -2 10.5t-6 5.5q-2 2 -4 3t-4 3q-16 9 -24.5 26
t-8.5 39q0 23 14.5 38t36.5 15q23 0 36 -19.5t13 -53.5q0 -35 -11.5 -81.5t-32.5 -96.5q-38 -90 -101.5 -165t-139.5 -75q-43 0 -70 29t-27 75q0 28 9.5 57t21.5 58q3 6 5.5 11.5t4.5 11.5q15 35 28 69t13 65q0 11 -6.5 17.5t-17.5 6.5h-4t-4 -1q-6 0 -12 -2.5t-16 -8.5
l-11 32l151 66v0z" />
    <glyph glyph-name="w" unicode="w" horiz-adv-x="661" 
d="M478 460q-16 -37 -27 -65.5t-18 -53.5l-40 -139q-14 -49 -18.5 -66.5t-4.5 -29.5v-2.5v-2.5q0 -27 12.5 -43.5t32.5 -16.5h4t4 1q39 5 75 54t62 106q18 42 29 80t11 60v2.5t-1 2.5q-1 3 -4 6t-10 8q-15 12 -23 28t-8 35q0 22 15 38t34 16q23 0 37 -18t14 -49
q0 -34 -12 -84t-34 -103q-36 -88 -93.5 -161t-126.5 -73q-40 0 -66 25t-26 64v3.5v2.5q1 7 2.5 14t3.5 19q-28 -59 -74 -93.5t-97 -34.5q-37 0 -63 29t-26 69v4.5v5.5q1 19 7.5 42t23.5 70l38 106q7 18 10.5 30.5t3.5 18.5q0 9 -5.5 15t-13.5 6h-0.5h-0.5q-6 0 -13.5 -3
t-23.5 -11l-11 35l148 68q5 -16 8 -26.5t4 -19.5q1 -3 1 -7v-8v-8t-1 -8q-1 -13 -6.5 -30.5t-17.5 -52.5l-49 -138q-10 -30 -15 -49.5t-5 -32.5q0 -23 12.5 -39t30.5 -16q11 0 23 4.5t25 13.5q31 22 59 64.5t43 92.5l43 151q2 6 4 13l4 14q4 16 8.5 32.5t6.5 33.5l95 1v0z
" />
    <glyph glyph-name="x" unicode="x" horiz-adv-x="461" 
d="M272 252l32 -143q6 -27 16 -40t23 -13q2 0 4.5 0.5t4.5 0.5q10 3 20 11.5t23 25.5l14 -32q-18 -23 -32.5 -37t-27.5 -21q-10 -5 -20 -7t-21 -2q-38 0 -57.5 34t-28.5 76q-5 21 -8.5 41.5t-6.5 36.5q0 2 -0.5 3.5t-0.5 3.5q-8 -17 -19.5 -39t-26.5 -45q-29 -44 -66 -80
t-78 -36q-25 0 -42 13.5t-17 34.5t14 35.5t33 14.5q11 0 20.5 -4.5t17.5 -9.5q7 -5 13 -9.5t9 -4.5q11 0 26 15.5t31 38.5q6 8 12 17t11 19q17 26 30 50t19 34q-2 11 -5.5 30.5t-8.5 39.5q-7 31 -20 56.5t-33 25.5q-10 0 -18 -5t-15 -10q-1 -1 -2.5 -2t-2.5 -2
q-2 -1 -3.5 -2.5t-3.5 -2.5l-14 31l106 83q45 -26 60 -66t23 -86q1 -6 2.5 -12.5t2.5 -13.5q9 15 19.5 34.5t24.5 39.5q24 39 56 71.5t70 32.5q26 0 41 -13t15 -35q0 -21 -15 -35.5t-36 -14.5q-11 0 -21.5 4.5t-21.5 14.5q-4 3 -6 5t-4 2q-7 0 -22.5 -18.5t-33.5 -44.5
q-3 -5 -6.5 -10t-6.5 -10q-14 -20 -25 -39t-17 -31v1z" />
    <glyph glyph-name="y" unicode="y" horiz-adv-x="480" 
d="M492 460q-6 -12 -10.5 -21.5t-8.5 -18.5q-3 -7 -5.5 -14t-5.5 -15q-6 -15 -11.5 -33.5t-13.5 -44.5l-82 -287q-27 -92 -94.5 -150.5t-167.5 -58.5q-56 0 -87.5 18t-31.5 50q0 18 14.5 32t33.5 14q23 0 40 -17t21 -43q2 -14 6.5 -17t17.5 -3q72 0 108.5 52t57.5 114
q7 22 13 44t11 41q0 -1 -0.5 -1.5l-1.5 -1.5q-25 -41 -62.5 -75t-89.5 -34q-41 0 -69 29.5t-28 72.5q0 24 7.5 50t19.5 53q4 9 8 18.5t8 19.5q17 35 30.5 68t13.5 59q0 14 -7 21t-21 7q-6 0 -13 -1.5t-20 -6.5l-10 34l150 63q6 -14 9.5 -24t5.5 -20q0 -5 0.5 -10t0.5 -10
q0 -16 -7 -38.5t-28 -77.5l-50 -129q-8 -23 -13 -41t-5 -29q0 -22 14 -36.5t36 -14.5q43 0 76.5 37.5t55.5 82.5q11 22 19 43t13 38l32 115q5 13 9 27.5t7 29.5q2 10 3.5 19.5t2.5 19.5l99 1v0z" />
    <glyph glyph-name="z" unicode="z" horiz-adv-x="457" 
d="M407 116q-28 -64 -66.5 -95t-85.5 -31q-29 0 -53.5 10.5t-45.5 23.5q-17 9 -32 18t-30 13q-5 2 -9.5 2.5t-9.5 0.5q-3 0 -8 -0.5t-10 -1.5q-8 -2 -14.5 -5.5t-6.5 -10.5q0 -3 1.5 -5.5t3.5 -4.5l1 -1l1 -1q2 -2 4 -5t2 -7q0 -11 -7.5 -18.5t-18.5 -7.5q-10 0 -17 8.5
t-7 19.5q0 25 13 50.5t35 51.5q32 36 77 71.5t92 68.5q57 40 109.5 74.5t81.5 61.5q-20 -12 -36 -18.5t-31 -8.5q-6 -1 -11.5 -1.5t-11.5 -0.5q-18 0 -34 4.5t-32 10.5q-17 5 -33 9.5t-34 4.5q-27 0 -44 -14.5t-31 -32.5q-2 -3 -4 -5.5t-4 -4.5q-1 -2 -2.5 -4t-3.5 -4
l-25 20q32 58 73 89t87 31q27 0 51.5 -8t46.5 -17q21 -9 40 -17t34 -8q7 0 10.5 2.5t3.5 6.5q0 2 -1 4.5t-3 4.5l-0.5 1l-0.5 1q-2 3 -3.5 6t-1.5 6q0 8 7 13.5t16 5.5q11 0 17.5 -7t6.5 -20q0 -37 -59 -99t-162 -131l-92 -60q-18 -13 -30 -21.5t-22 -16.5q-3 -3 -6.5 -6
t-6.5 -6q-8 -7 -15.5 -15t-17.5 -19q16 10 28 16.5t24 9.5l14 2t15 1q22 0 43.5 -4.5t43.5 -9.5t43.5 -9.5t43.5 -4.5q19 0 31 3t23 14q6 6 13.5 16.5t16.5 25.5l26 -15v0z" />
    <glyph glyph-name="braceleft" unicode="{" horiz-adv-x="338" 
d="M58 303l8 27q45 1 64 10t33 47q4 12 8.5 28t10.5 37l22 87q4 15 8.5 29.5t8.5 27.5q22 71 56.5 90.5t127.5 19.5l11 1l-8 -28q-75 -2 -99.5 -42.5t-39.5 -97.5l-6 -24l-6 -24l-31 -106q-9 -32 -33 -51.5t-64 -26.5l-1 -3q23 -7 35.5 -25.5t12.5 -45.5q0 -36 -11.5 -75.5
t-25.5 -79.5q0 -1 -0.5 -2t-0.5 -2q-14 -39 -25 -77t-11 -73t18 -52t55 -17h2h3q2 1 4 1h5l-8 -29q-9 2 -19.5 3t-20.5 2h-2.5t-2.5 1q-37 3 -67.5 15t-30.5 63q0 34 9 69.5t21 72.5q3 6 5 12.5t4 12.5q15 43 27 84.5t12 77.5q0 32 -12 45t-46 17v1z" />
    <glyph glyph-name="bar" unicode="|" horiz-adv-x="500" 
d="M235 666h83v-833h-83v833v0z" />
    <glyph glyph-name="braceright" unicode="}" horiz-adv-x="338" 
d="M300 232l-8 -28q-45 -3 -64 -12t-33 -47q-4 -12 -8.5 -28t-10.5 -37l-22 -84q-4 -14 -7.5 -27t-6.5 -24q-22 -72 -56.5 -95t-130.5 -23h-11l8 28q74 2 98.5 41.5t39.5 95.5q3 11 6 23.5t7 25.5l31 109q9 30 33 49t64 26l1 5q-22 5 -35 23.5t-13 45.5q0 36 11 74t24 76
q1 1 1.5 2.5t0.5 2.5q14 40 25.5 79t11.5 75q0 35 -18 52.5t-55 17.5h-5t-9 -1l8 30q9 -3 19.5 -3.5t20.5 -1.5h4t4 -1q36 -2 65.5 -14t29.5 -64q0 -32 -8 -65t-18 -66q-4 -9 -7 -18l-6 -18q-15 -42 -27 -83.5t-12 -80.5q0 -31 12 -44.5t46 -16.5v1z" />
    <glyph glyph-name="asciitilde" unicode="~" horiz-adv-x="500" 
d="M497 376q-16 -30 -37 -53.5t-43 -37.5q-14 -10 -28.5 -15.5t-27.5 -5.5q-25 0 -48 7t-46 15q-24 8 -47 15t-48 7q-28 0 -49 -12.5t-40 -39.5l-26 19q5 6 11 13.5t12 15.5q24 31 54 56.5t71 25.5q22 0 42.5 -6.5t40.5 -13.5q2 -1 3.5 -1.5t3.5 -1.5q18 -7 37 -12.5
t39 -5.5q34 0 57 11.5t43 37.5l26 -18v0z" />
    <glyph glyph-name="glyph98" unicode="&#xa1;" horiz-adv-x="300" 
d="M179 388h30q-29 -90 -47 -182t-32 -185q-5 -28 -8.5 -50t-7.5 -38q-10 -44 -22.5 -55.5t-36.5 -11.5q-22 0 -36.5 15t-14.5 38q0 16 7 38.5t23 58.5q41 92 78.5 184t66.5 187v1zM169 493q0 25 16.5 42t41.5 17q24 0 40.5 -16t16.5 -41t-17 -41.5t-41 -16.5q-23 0 -40 16
t-17 39v1z" />
    <glyph glyph-name="cent" unicode="&#xa2;" horiz-adv-x="507" 
d="M416 674l-25 -89q56 -5 84.5 -24.5t28.5 -53.5q0 -22 -14 -36t-34 -14q-27 0 -38 18.5t-13 40.5q-1 5 -1 9v8q0 11 -7 14.5t-16 3.5l-105 -367q8 -2 13 -3t8 -1q36 0 64.5 21.5t50.5 47.5l2.5 2.5l2.5 2.5l17 -28q-31 -46 -74.5 -72t-99.5 -26l-37 -128h-36l39 138
q-52 20 -78.5 62t-26.5 105q0 101 68 183t165 95l26 91h36v0zM345 550q-54 -11 -96.5 -81t-46.5 -151v-6.5v-6.5q0 -36 10 -60t33 -44l100 349v0z" />
    <glyph glyph-name="sterling" unicode="&#xa3;" horiz-adv-x="507" 
d="M484 185q-26 -97 -69.5 -147.5t-99.5 -50.5q-32 0 -56 18.5t-45 41.5q-4 5 -8.5 9.5t-8.5 9.5q-3 2 -5 4.5t-4 4.5q-16 -19 -33 -34t-34 -26q-19 -12 -38.5 -18t-36.5 -6q-45 0 -69 24.5t-24 68.5q0 49 29.5 80t77.5 31q6 0 11.5 -0.5t11.5 -0.5q19 -3 42 -13.5t64 -33.5
q4 7 6 13t3 11q2 8 2.5 16t0.5 20q0 16 -1.5 32.5t-3.5 33.5q-1 14 -2.5 28.5t-1.5 28.5l-104 1l14 47h90q28 133 112.5 217.5t188.5 84.5q43 0 68 -15.5t25 -42.5q0 -24 -15 -39t-39 -15q-22 0 -37 13t-25 40q0 1 -0.5 2t-0.5 2q-4 8 -8 10.5t-14 2.5h-4.5t-5.5 -1
q-33 -4 -64 -32.5t-46 -70.5q-13 -38 -18.5 -77.5t-10.5 -79.5l128 1l-14 -47h-118q-4 -57 -19 -108t-50 -97q32 -17 59 -26t53 -11h6h6q35 0 61.5 24.5t42.5 70.5l31 1v0zM163 102q-26 23 -45.5 36t-38.5 17q-5 1 -10 1.5t-10 0.5q-28 0 -47 -20.5t-19 -50.5q0 -25 15 -42
t40 -17q26 0 55 19t60 55v1z" />
    <glyph glyph-name="Idieresis" unicode="&#xa4;" horiz-adv-x="667" 
d="M94 118l91 92q-27 32 -40.5 67.5t-13.5 74.5q0 33 8.5 61.5t25.5 56.5q4 6 8.5 12.5t9.5 12.5l-92 93l31 32l92 -92q12 9 24 16.5t24 13.5q23 12 47.5 17.5t51.5 5.5q30 0 56.5 -7t52.5 -23q9 -5 17.5 -11t17.5 -13l92 92l31 -31l-91 -91q7 -10 12.5 -18.5t10.5 -17.5
q15 -26 22 -52.5t7 -56.5q0 -24 -5 -46t-15 -44q-6 -13 -14.5 -25.5t-18.5 -26.5l93 -92l-31 -31l-93 93q-34 -29 -69 -42t-76 -13q-22 0 -43 4t-41 13q-15 6 -30 15t-30 20l-91 -90l-31 31v0zM360 532q-73 -1 -124 -53.5t-51 -126.5q0 -73 51.5 -125t123.5 -52t123.5 52
t51.5 125q0 75 -51 127t-124 52v1z" />
    <glyph glyph-name="ae" unicode="&#xa5;" horiz-adv-x="507" 
d="M231 331h-106l11 38h87l-56 265l-45 3l8 30h178l-8 -30l-52 -4l60 -301l144 213q2 2 4.5 5.5t4.5 6.5q7 10 13 20.5t6 22.5q0 17 -14 26t-47 10l8 31h193l-9 -30q-25 -7 -42.5 -15.5t-34.5 -24.5q-12 -11 -24.5 -27.5t-28.5 -40.5l-109 -160h101l-11 -38h-115
q-12 -18 -17 -25t-7 -11q-1 -2 -1.5 -3.5t-0.5 -2.5q-1 -4 -3 -11t-5 -19l129 1l-11 -38h-129l-54 -189l59 -3l-9 -30h-189l9 30l49 3l54 189h-127l11 38h127l8 28l-9 43v0z" />
    <glyph glyph-name="brokenbar" unicode="&#xa6;" 
 />
    <glyph glyph-name="section" unicode="&#xa7;" horiz-adv-x="531" 
d="M371 122q5 -6 8.5 -11t7.5 -10q11 -17 16.5 -35t5.5 -38q0 -85 -65.5 -143t-161.5 -58q-85 0 -138.5 38.5t-53.5 100.5q0 34 16 54.5t43 20.5q22 0 35.5 -14t13.5 -36q0 -12 -5 -23t-10 -20q-6 -9 -11 -16t-5 -11q0 -18 20.5 -30.5t44.5 -19.5q16 -4 31.5 -6.5t24.5 -2.5
q60 0 98.5 32.5t38.5 84.5q0 46 -32.5 68t-74.5 39q-3 2 -6.5 3.5t-7.5 2.5q-45 20 -83 48t-38 91q0 64 39 111t91 76q-25 21 -35 44.5t-10 59.5q0 77 64 131t155 54q72 0 120.5 -36.5t48.5 -90.5q0 -33 -18 -54.5t-47 -21.5q-19 0 -32 14.5t-13 36.5q0 11 4 22t12 25
q5 8 6.5 13.5t1.5 9.5q0 20 -24 32.5t-62 12.5q-55 0 -93 -32t-38 -79q0 -18 4 -30t17 -22q12 -10 33.5 -20t57.5 -25q60 -25 89 -61t29 -85q0 -61 -32.5 -110.5t-79.5 -84.5v1zM243 402q-40 -28 -60.5 -60t-20.5 -68q0 -26 13.5 -45t39.5 -30q23 -9 44.5 -19.5t43.5 -20.5
l22 -10l22 -10q18 16 32 36.5t22 41.5q5 12 7.5 24.5t2.5 23.5q0 48 -34.5 73t-75.5 41l-22 8l-22 8q-3 2 -7 3.5t-7 2.5v1z" />
    <glyph glyph-name="dieresis" unicode="&#xa8;" horiz-adv-x="500" 
d="M312 588q0 -23 -14.5 -39.5t-37.5 -16.5q-19 0 -34.5 15t-15.5 34q0 23 15 38t37 15q19 0 34 -14t16 -33v1zM476 587q0 -22 -13 -38.5t-36 -16.5q-21 0 -36 15t-15 35q0 22 15 37t37 15q19 0 33 -14t15 -34v1z" />
    <glyph glyph-name="copyright" unicode="&#xa9;" horiz-adv-x="773" 
d="M414 680q143 -1 244.5 -102.5t101.5 -244.5q0 -144 -101.5 -245t-244.5 -101q-144 0 -245.5 101t-101.5 245q0 143 101.5 244.5t245.5 101.5v1zM414 649q-130 -1 -222 -93t-92 -223t92 -223.5t222 -92.5t222 92.5t92 223.5t-92 223t-222 92v1zM567 543l7 -130h-29
q-2 3 -3.5 6.5t-3.5 7.5q-1 1 -1.5 3t-1.5 4q-15 31 -34.5 55.5t-64.5 24.5q-62 0 -108 -72.5t-46 -172.5q0 -46 28.5 -76t73.5 -30t78 28t55 65l26 -13q-33 -51 -74 -85t-106 -34q-69 0 -112.5 43t-43.5 112q0 101 71 182.5t159 81.5q11 0 21.5 -2.5t20.5 -4.5q2 -1 4 -1.5
t4 -1.5q8 -2 16.5 -3.5t16.5 -1.5t16.5 2.5t16.5 6.5q3 1 7 2.5t7 2.5v1z" />
    <glyph glyph-name="ellipsis" unicode="&#xaa;" horiz-adv-x="337" 
d="M345 333l-10 -33h-295l10 33h295v0zM349 454l8 -20q-3 -5 -5.5 -8.5t-5.5 -6.5q-12 -12 -23.5 -18t-24.5 -6q-15 0 -25.5 11t-10.5 27v6t1 6q-12 -15 -21.5 -25t-19.5 -16t-19.5 -8.5t-21.5 -2.5q-28 0 -47.5 23.5t-19.5 57.5q0 5 0.5 9.5t0.5 8.5q8 67 64.5 123
t124.5 56q32 0 51.5 -11.5t19.5 -31.5q0 -8 -5 -15t-15 -12l-29 -97q-1 -5 -2.5 -9.5t-2.5 -8.5q-4 -9 -6.5 -19t-2.5 -20q0 -7 2.5 -10.5t7.5 -3.5h2h2q3 1 7 4t10 9q1 2 2.5 3.5l3.5 3.5v1zM268 482l31 108q5 16 7 22t2 10v1.5v1.5q0 8 -6 13t-16 5q-36 0 -63.5 -32
t-42.5 -71q-6 -16 -9 -32t-3 -29q0 -21 8.5 -34t22.5 -13t30.5 12t38.5 37v1z" />
    <glyph glyph-name="ydieresis" unicode="&#xab;" horiz-adv-x="328" 
d="M198 392l-100 -158l14 -154h-28l-53 154l135 158h32v0zM320 392l-100 -158l14 -154h-26l-54 157l133 155h33v0z" />
    <glyph glyph-name="emdash" unicode="&#xac;" 
 />
    <glyph glyph-name="uni00AD" unicode="&#xad;" horiz-adv-x="500" 
 />
    <glyph glyph-name="registered" unicode="&#xae;" horiz-adv-x="773" 
d="M414 680q143 -1 244.5 -102.5t101.5 -244.5q0 -144 -101.5 -245t-244.5 -101q-144 0 -245.5 101t-101.5 245q0 143 101.5 244.5t245.5 101.5v1zM414 649q-130 -1 -222 -93t-92 -223t92 -223.5t222 -92.5t222 92.5t92 223.5t-92 223t-222 92v1zM311 535h103q56 -1 78.5 -2
t38.5 -6q4 -1 8 -2.5t9 -3.5q29 -11 45 -33.5t16 -52.5q0 -43 -33 -70.5t-94 -35.5l54 -168l35 -2l-7 -25h-88l-61 192h-56l-48 -165l40 -2l-8 -25h-140l7 25l33 2l100 347l-40 2l8 25v0zM411 508l-44 -152q12 -1 20.5 -1.5t15.5 -0.5h8h9q64 0 93 20.5t29 66.5
q0 36 -22.5 51.5t-74.5 15.5h-1.5h-1.5h-13t-18 -1v1z" />
    <glyph glyph-name="glyph263" unicode="&#xaf;" 
 />
    <glyph glyph-name="glyph264" unicode="&#xb0;" 
 />
    <glyph glyph-name="mu" unicode="&#xb1;" horiz-adv-x="507" 
d="M74 98h395v-48h-395v48v0zM74 365h171v174h51v-174h173v-48h-173v-175h-51v175h-171v48v0z" />
    <glyph glyph-name="uni00B2" unicode="&#xb2;" 
 />
    <glyph glyph-name="uni00B3" unicode="&#xb3;" 
 />
    <glyph glyph-name="acute" unicode="&#xb4;" horiz-adv-x="500" 
d="M279 533l94 86q3 2 6 5t7 6q10 10 22 18.5t27 8.5q16 0 26.5 -11.5t10.5 -28.5q0 -20 -15 -31t-32 -18q-7 -3 -13.5 -5t-12.5 -4l-112 -39l-8 13v0z" />
    <glyph glyph-name="oslash" unicode="&#xb5;" horiz-adv-x="540" 
d="M484 460q-4 -11 -7.5 -19.5t-6.5 -16.5q-1 -3 -2.5 -6t-2.5 -6q-4 -13 -9.5 -31.5t-14.5 -48.5l-53 -182q-7 -26 -9.5 -38t-3.5 -22v-2.5v-2.5q0 -14 6.5 -22t17.5 -8h3.5t3.5 1q8 1 18 8t28 24l14 -31q-20 -24 -35.5 -37.5t-29.5 -19.5q-10 -4 -19.5 -6t-20.5 -2
q-28 0 -45.5 19.5t-17.5 50.5v10.5t1 8.5q1 8 3 16.5t6 21.5q-24 -49 -69.5 -89t-104.5 -40q-28 0 -48.5 10t-39.5 34q-6 -21 -9 -33t-4 -24q-1 -5 -1 -10.5v-11.5q0 -9 1.5 -18t4.5 -18q2 -9 3.5 -18t1.5 -18q0 -29 -17.5 -48t-42.5 -19q-14 0 -22.5 8.5t-8.5 23.5
q0 12 4.5 30t10.5 37q1 4 2.5 8t2.5 8q5 14 9.5 26.5t7.5 22.5q4 14 8 27.5t8 27.5t8.5 28t8.5 28q9 27 18 55l18 56l40 120q6 16 8 24.5t2 15.5v1.5v0.5q0 11 -6.5 18t-17.5 7h-4.5t-4.5 -1q-6 0 -12.5 -2.5t-18.5 -7.5l-11 33l152 66q5 -13 8.5 -21t4.5 -16
q1 -5 1.5 -10.5t0.5 -11.5v-6.5v-6.5q-2 -18 -8 -41.5t-22 -72.5l-38 -113q-1 -5 -3 -10t-3 -9q-6 -14 -10 -28t-4 -29q0 -24 16 -40t40 -16q8 0 16.5 1.5t16.5 5.5q16 6 32.5 19.5t33.5 32.5q7 8 13 15.5t11 14.5q10 16 18 32.5t15 38.5q2 7 4.5 14t4.5 15l36 126
q5 15 8.5 31.5t6.5 33.5q1 8 2.5 16.5t2.5 16.5l95 1v0z" />
    <glyph glyph-name="paragraph" unicode="&#xb6;" horiz-adv-x="560" 
d="M552 627l-195 -680l69 -7l-9 -33h-304l10 33l77 7l107 371q-8 -2 -13.5 -2h-10.5h-2.5h-3.5q-64 0 -100.5 32t-36.5 90q0 57 20.5 109.5t52.5 80.5q3 2 5.5 4t5.5 4q25 19 59 24.5t112 5.5l236 1l-10 -34l-69 -6v0zM318 -53l195 680l-6 2t-5 1q-5 2 -10.5 2h-15.5h-15.5
t-10.5 -1q-3 -1 -6.5 -2t-7.5 -3l-195 -679q4 -2 7 -3t5 -2q4 -1 9 -1.5t13 -0.5q11 0 17 0.5t11 1.5q3 1 6.5 2t8.5 3v0zM395 627q-10 1 -16 1.5t-11 0.5q-43 0 -72.5 -22.5t-42.5 -66.5q-2 -7 -4.5 -14.5t-4.5 -15.5q-4 -11 -8 -23t-6 -25q-2 -9 -3.5 -19t-1.5 -20
q0 -35 18.5 -53t54.5 -18q3 0 7.5 0.5t11.5 1.5l78 273v0z" />
    <glyph glyph-name="glyph265" unicode="&#xb7;" 
 />
    <glyph glyph-name="glyph121" unicode="&#xb8;" horiz-adv-x="500" 
d="M211 0l-23 -63q40 -1 59.5 -14.5t19.5 -41.5q0 -30 -27.5 -49t-71.5 -19q-34 0 -56 11.5t-22 31.5q0 9 6.5 15.5t14.5 6.5q10 0 15 -5.5t9 -13.5l0.5 -0.5l0.5 -0.5q4 -8 10 -14.5t19 -6.5q20 0 34.5 13t14.5 32q0 15 -11 23t-31 8h-3h-3q-3 -1 -6.5 -1t-9.5 -1l32 89h29
v0z" />
    <glyph glyph-name="uni00B9" unicode="&#xb9;" 
 />
    <glyph glyph-name="Agrave" unicode="&#xba;" horiz-adv-x="337" 
d="M345 333l-10 -33h-295l10 33h295v0zM378 562q-3 -67 -50 -118t-106 -51q-43 0 -69.5 29t-26.5 76q0 67 47 120.5t106 53.5q47 0 73 -33.5t26 -77.5v1zM323 596q0 22 -11.5 35t-31.5 13q-28 0 -46.5 -18t-33.5 -60q-10 -31 -16 -55t-6 -41q0 -23 12 -36.5t34 -13.5
q33 0 54.5 31t32.5 69q6 21 9 41t3 34v1z" />
    <glyph glyph-name="Ydieresis" unicode="&#xbb;" horiz-adv-x="328" 
d="M10 80l100 158l-14 154h26l54 -157l-133 -155h-33v0zM132 80l100 158l-14 154h28l53 -154l-135 -158h-32v0z" />
    <glyph glyph-name="onequarter" unicode="&#xbc;" 
 />
    <glyph glyph-name="glyph243" unicode="&#xbd;" horiz-adv-x="806" 
d="M733 109l-61 -117q-6 3 -10.5 4.5t-9.5 1.5q-3 1 -6 1.5t-7 0.5h-28h-170l10 34q22 28 50.5 51.5t58.5 44.5q7 6 15 11.5t15 10.5q49 36 86 75t37 96q0 26 -17 43t-42 17q-5 0 -12.5 -1t-14.5 -3q-13 -4 -24 -11t-11 -19q0 -4 1.5 -9t4.5 -10q2 -5 3.5 -10t1.5 -10
q0 -17 -11 -27.5t-29 -10.5q-14 0 -24.5 10.5t-10.5 26.5q0 41 40 70.5t92 29.5q50 0 84 -31t34 -77q0 -51 -39 -85.5t-91 -65.5q-9 -6 -19 -11.5t-19 -11.5q-28 -17 -54.5 -34.5t-48.5 -38.5l83 1q37 -1 58.5 6t39.5 28q5 5 10 11.5t10 14.5l25 -6v0zM701 666l-491 -666
h-46l491 666h46v0zM328 681q-4 -15 -8.5 -29t-8.5 -28q-5 -15 -9 -29l-8 -28l-77 -270l68 -6l-7 -25h-210l7 25l84 6l74 262q3 10 4.5 16t2.5 8q2 7 3.5 13t1.5 9q0 9 -6.5 14t-19.5 5q-9 0 -21 -1.5t-41 -6.5l8 31q31 4 61.5 10.5t60.5 13.5q11 2 21 4.5t20 4.5v1z" />
    <glyph glyph-name="threequarters" unicode="&#xbe;" 
 />
    <glyph glyph-name="oe" unicode="&#xbf;" horiz-adv-x="401" 
d="M311 368l-58 -201h-8.5h-6.5h-2.5h-3.5q-65 0 -112.5 -43t-47.5 -103q0 -7 2 -18.5t7 -23.5q6 -20 17 -36t26 -16q5 0 12 6.5t17 14.5q9 9 20.5 15.5t26.5 6.5q25 0 39.5 -14t14.5 -38q0 -23 -17 -37t-46 -14q-65 0 -116.5 59t-51.5 132q0 39 15.5 74.5t43.5 63.5
q31 30 67.5 43t94.5 15l32 114h35v0zM273 495q0 25 17 41.5t43 16.5q23 0 40 -17t17 -40q0 -25 -17 -42.5t-41 -17.5q-25 0 -42 17t-17 41v1z" />
    <glyph glyph-name="currency" unicode="&#xc0;" horiz-adv-x="589" 
d="M460 678l29 -644l59 -4l-9 -30h-209l8 30l60 3l-7 180h-225q-6 -10 -15.5 -25.5t-20.5 -32.5q-3 -5 -5.5 -9.5t-5.5 -8.5q-12 -22 -21.5 -42t-9.5 -32q0 -19 13 -26.5t44 -7.5l7 1l-9 -30h-196l9 30q37 -1 62.5 24t44.5 55q6 8 10.5 16t9.5 16l284 468l-10 61l103 8v0z
M389 249l-9 319l-192 -319h201v0zM475 736l-6 -14l-114 41q-6 1 -13 3.5t-14 4.5q-17 7 -31.5 17.5t-14.5 30.5q0 17 10.5 28.5t26.5 11.5t28.5 -9t23.5 -20q2 -3 5 -5.5t5 -4.5l94 -84v0z" />
    <glyph glyph-name="breve" unicode="&#xc1;" horiz-adv-x="589" 
d="M460 678l29 -644l59 -4l-9 -30h-209l8 30l60 3l-7 180h-225q-6 -10 -15.5 -25.5t-20.5 -32.5q-3 -5 -5.5 -9.5t-5.5 -8.5q-12 -22 -21.5 -42t-9.5 -32q0 -19 13 -26.5t44 -7.5l7 1l-9 -30h-196l9 30q37 -1 62.5 24t44.5 55q6 8 10.5 16t9.5 16l284 468l-10 61l103 8v0z
M389 249l-9 319l-192 -319h201v0zM375 735l94 86q3 2 6 5t7 6q10 10 22 18.5t27 8.5q16 0 26.5 -11.5t10.5 -28.5q0 -20 -15 -31t-32 -18q-7 -3 -13.5 -5t-12.5 -4l-112 -39l-8 13v0z" />
    <glyph glyph-name="tilde" unicode="&#xc2;" horiz-adv-x="589" 
d="M460 678l29 -644l59 -4l-9 -30h-209l8 30l60 3l-7 180h-225q-6 -10 -15.5 -25.5t-20.5 -32.5q-3 -5 -5.5 -9.5t-5.5 -8.5q-12 -22 -21.5 -42t-9.5 -32q0 -19 13 -26.5t44 -7.5l7 1l-9 -30h-196l9 30q37 -1 62.5 24t44.5 55q6 8 10.5 16t9.5 16l284 468l-10 61l103 8v0z
M389 249l-9 319l-192 -319h201v0zM569 750l-5 -17l-121 41l-145 -41l-8 17l163 99l116 -99v0z" />
    <glyph glyph-name="guilsinglleft" unicode="&#xc3;" horiz-adv-x="589" 
d="M460 678l29 -644l59 -4l-9 -30h-209l8 30l60 3l-7 180h-225q-6 -10 -15.5 -25.5t-20.5 -32.5q-3 -5 -5.5 -9.5t-5.5 -8.5q-12 -22 -21.5 -42t-9.5 -32q0 -19 13 -26.5t44 -7.5l7 1l-9 -30h-196l9 30q37 -1 62.5 24t44.5 55q6 8 10.5 16t9.5 16l284 468l-10 61l103 8v0z
M389 249l-9 319l-192 -319h201v0zM580 826q-19 -40 -41.5 -58t-50.5 -18q-15 0 -30 3.5t-30 8.5q-15 4 -30 7.5t-30 3.5q-9 0 -16.5 -3.5t-14.5 -11.5q-3 -3 -6.5 -8t-7.5 -11l-21 11q1 1 2 3t2 5q19 37 39 52.5t51 15.5q15 0 29.5 -3.5t28.5 -7.5q2 -1 4 -1.5t4 -0.5
q12 -4 24 -6.5t25 -2.5q7 0 12.5 1.5t11.5 3.5q6 4 12.5 10t14.5 15l18 -8v0z" />
    <glyph glyph-name="Adieresis" unicode="&#xc4;" horiz-adv-x="589" 
d="M460 678l29 -644l59 -4l-9 -30h-209l8 30l60 3l-7 180h-225q-6 -10 -15.5 -25.5t-20.5 -32.5q-3 -5 -5.5 -9.5t-5.5 -8.5q-12 -22 -21.5 -42t-9.5 -32q0 -19 13 -26.5t44 -7.5l7 1l-9 -30h-196l9 30q37 -1 62.5 24t44.5 55q6 8 10.5 16t9.5 16l284 468l-10 61l103 8v0z
M389 249l-9 319l-192 -319h201v0zM410 794q0 -23 -14.5 -39.5t-37.5 -16.5q-19 0 -34.5 15t-15.5 34q0 23 15 38t37 15q19 0 34 -14t16 -33v1zM574 793q0 -22 -13 -38.5t-36 -16.5q-21 0 -36 15t-15 35q0 22 15 37t37 15q19 0 33 -14t15 -34v1z" />
    <glyph glyph-name="Aring" unicode="&#xc5;" horiz-adv-x="589" 
d="M460 678l29 -644l59 -4l-9 -30h-209l8 30l60 3l-7 180h-225q-6 -10 -15.5 -25.5t-20.5 -32.5q-3 -5 -5.5 -9.5t-5.5 -8.5q-12 -22 -21.5 -42t-9.5 -32q0 -19 13 -26.5t44 -7.5l7 1l-9 -30h-196l9 30q37 -1 62.5 24t44.5 55q6 8 10.5 16t9.5 16l284 468l-10 61l103 8v0z
M389 249l-9 319l-192 -319h201v0zM524 810q0 -37 -24.5 -60.5t-63.5 -23.5q-34 0 -57 25.5t-23 62.5q0 33 25 57t60 24t59 -25t24 -61v1zM484 815q-1 16 -14 27.5t-30 11.5q-18 0 -30.5 -12.5t-12.5 -32.5q0 -17 13 -30t29 -13q20 0 32.5 14.5t12.5 33.5v1z" />
    <glyph glyph-name="Oslash" unicode="&#xc6;" horiz-adv-x="944" 
d="M942 685l10 -223h-31q-18 103 -58 139t-135 36h-4h-4q-14 0 -31 -1t-49 -4l-75 -262h39q60 -1 89 12.5t52 56.5q3 5 6.5 12t6.5 14l30 1l-71 -246h-33q1 3 1.5 6.5t0.5 7.5q2 8 3 15.5t1 14.5q0 37 -22 54t-70 17l-43 1l-87 -302q13 -2 22 -3t18 -1h14h15q114 0 192 37.5
t144 133.5l29 -11l-106 -207q-5 3 -10 5l-10 4q-13 5 -29.5 6.5t-48.5 1.5h-396l8 30l65 3l51 180h-228l-69 -79q-24 -28 -32 -40.5t-8 -22.5v-0.5v-0.5q0 -19 15.5 -28t52.5 -13l-9 -29h-215l9 30q45 10 71 31t49 48q12 14 25 30t28 33l406 461l-27 33h281q64 -1 101.5 3.5
t65.5 14.5v1zM436 247l101 351l-308 -351h207v0z" />
    <glyph glyph-name="Ccedilla" unicode="&#xc7;" horiz-adv-x="616" 
d="M300 -15l-16 -47q40 -1 60 -15t20 -41q0 -29 -27.5 -48.5t-68.5 -19.5q-38 0 -60 12t-22 32q0 9 6.5 15t14.5 6q11 0 16.5 -6.5t9.5 -13.5q5 -8 10.5 -14.5t17.5 -6.5q20 0 34.5 13t14.5 31q0 16 -11 23.5t-32 7.5h-2h-2h-6.5t-9.5 -1l26 74q-94 10 -151.5 77.5
t-57.5 170.5q0 170 112.5 308.5t251.5 138.5q20 0 37.5 -4t33.5 -8q7 -3 15 -5t15 -4q8 -2 15.5 -3t15.5 -1q14 0 28 5l28 10q3 2 6.5 3.5t6.5 2.5l6 -204h-32q-1 3 -2.5 7t-2.5 8q-20 59 -59.5 108.5t-109.5 49.5q-91 0 -149 -79.5t-86 -175.5q-13 -46 -19.5 -90t-6.5 -79
q0 -83 45.5 -134t118.5 -51q75 0 128 48t90 106l30 -16q-45 -82 -114 -134.5t-166 -55.5v0z" />
    <glyph glyph-name="ring" unicode="&#xc8;" horiz-adv-x="606" 
d="M607 680l7 -220h-29q-7 54 -19.5 85.5t-35.5 52.5l-2.5 2.5l-2.5 2.5q-21 18 -47.5 23.5t-87.5 5.5h-10h-10q-11 0 -23 -1t-32 -3l-74 -257h43q60 -1 87.5 14t48.5 63l4 10l4 10l33 1l-72 -249h-32q3 12 5 19.5t2 14.5q1 4 1 7v7q0 37 -21 52.5t-70 15.5l-43 1l-87 -303
q30 -2 46 -3t29 -1h2h2q104 0 181 43t133 131l28 -11l-102 -209q-4 2 -8.5 3.5t-8.5 3.5q-18 6 -41 7.5t-72 1.5h-343l9 30l52 3l172 600l-62 3l8 30h342q22 -1 36.5 0t27.5 4q8 2 15.5 4t16.5 5v1zM463 736l-6 -14l-114 41q-6 1 -13 3.5t-14 4.5q-17 7 -31.5 17.5
t-14.5 30.5q0 17 10.5 28.5t26.5 11.5t28.5 -9t23.5 -20q2 -3 5 -5.5t5 -4.5l94 -84v0z" />
    <glyph glyph-name="Eacute" unicode="&#xc9;" horiz-adv-x="606" 
d="M607 680l7 -220h-29q-7 54 -19.5 85.5t-35.5 52.5l-2.5 2.5l-2.5 2.5q-21 18 -47.5 23.5t-87.5 5.5h-10h-10q-11 0 -23 -1t-32 -3l-74 -257h43q60 -1 87.5 14t48.5 63l4 10l4 10l33 1l-72 -249h-32q3 12 5 19.5t2 14.5q1 4 1 7v7q0 37 -21 52.5t-70 15.5l-43 1l-87 -303
q30 -2 46 -3t29 -1h2h2q104 0 181 43t133 131l28 -11l-102 -209q-4 2 -8.5 3.5t-8.5 3.5q-18 6 -41 7.5t-72 1.5h-343l9 30l52 3l172 600l-62 3l8 30h342q22 -1 36.5 0t27.5 4q8 2 15.5 4t16.5 5v1zM350 735l94 86q3 2 6 5t7 6q10 10 22 18.5t27 8.5q16 0 26.5 -11.5
t10.5 -28.5q0 -20 -15 -31t-32 -18q-7 -3 -13.5 -5t-12.5 -4l-112 -39l-8 13v0z" />
    <glyph glyph-name="macron" unicode="&#xca;" horiz-adv-x="606" 
d="M607 680l7 -220h-29q-7 54 -19.5 85.5t-35.5 52.5l-2.5 2.5l-2.5 2.5q-21 18 -47.5 23.5t-87.5 5.5h-10h-10q-11 0 -23 -1t-32 -3l-74 -257h43q60 -1 87.5 14t48.5 63l4 10l4 10l33 1l-72 -249h-32q3 12 5 19.5t2 14.5q1 4 1 7v7q0 37 -21 52.5t-70 15.5l-43 1l-87 -303
q30 -2 46 -3t29 -1h2h2q104 0 181 43t133 131l28 -11l-102 -209q-4 2 -8.5 3.5t-8.5 3.5q-18 6 -41 7.5t-72 1.5h-343l9 30l52 3l172 600l-62 3l8 30h342q22 -1 36.5 0t27.5 4q8 2 15.5 4t16.5 5v1zM564 750l-5 -17l-121 41l-145 -41l-8 17l163 99l116 -99v0z" />
    <glyph glyph-name="dotaccent" unicode="&#xcb;" horiz-adv-x="606" 
d="M607 680l7 -220h-29q-7 54 -19.5 85.5t-35.5 52.5l-2.5 2.5l-2.5 2.5q-21 18 -47.5 23.5t-87.5 5.5h-10h-10q-11 0 -23 -1t-32 -3l-74 -257h43q60 -1 87.5 14t48.5 63l4 10l4 10l33 1l-72 -249h-32q3 12 5 19.5t2 14.5q1 4 1 7v7q0 37 -21 52.5t-70 15.5l-43 1l-87 -303
q30 -2 46 -3t29 -1h2h2q104 0 181 43t133 131l28 -11l-102 -209q-4 2 -8.5 3.5t-8.5 3.5q-18 6 -41 7.5t-72 1.5h-343l9 30l52 3l172 600l-62 3l8 30h342q22 -1 36.5 0t27.5 4q8 2 15.5 4t16.5 5v1zM418 794q0 -23 -14.5 -39.5t-37.5 -16.5q-19 0 -34.5 15t-15.5 34
q0 23 15 38t37 15q19 0 34 -14t16 -33v1zM582 793q0 -22 -13 -38.5t-36 -16.5q-21 0 -36 15t-15 35q0 22 15 37t37 15q19 0 33 -14t15 -34v1z" />
    <glyph glyph-name="caron" unicode="&#xcc;" horiz-adv-x="356" 
d="M424 667l-9 -30l-75 -3l-172 -600l85 -4l-8 -30h-255l9 30l75 4l172 600l-85 3l8 30h255v0zM372 736l-6 -14l-114 41q-6 1 -13 3.5t-14 4.5q-17 7 -31.5 17.5t-14.5 30.5q0 17 10.5 28.5t26.5 11.5t28.5 -9t23.5 -20q2 -3 5 -5.5t5 -4.5l94 -84v0z" />
    <glyph glyph-name="cedilla" unicode="&#xcd;" horiz-adv-x="356" 
d="M424 667l-9 -30l-75 -3l-172 -600l85 -4l-8 -30h-255l9 30l75 4l172 600l-85 3l8 30h255v0zM278 735l94 86q3 2 6 5t7 6q10 10 22 18.5t27 8.5q16 0 26.5 -11.5t10.5 -28.5q0 -20 -15 -31t-32 -18q-7 -3 -13.5 -5t-12.5 -4l-112 -39l-8 13v0z" />
    <glyph glyph-name="hungarumlaut" unicode="&#xce;" horiz-adv-x="356" 
d="M424 667l-9 -30l-75 -3l-172 -600l85 -4l-8 -30h-255l9 30l75 4l172 600l-85 3l8 30h255v0zM453 750l-5 -17l-121 41l-145 -41l-8 17l163 99l116 -99v0z" />
    <glyph glyph-name="ogonek" unicode="&#xcf;" horiz-adv-x="356" 
d="M424 667l-9 -30l-75 -3l-172 -600l85 -4l-8 -30h-255l9 30l75 4l172 600l-85 3l8 30h255v0zM306 794q0 -23 -14.5 -39.5t-37.5 -16.5q-19 0 -34.5 15t-15.5 34q0 23 15 38t37 15q19 0 34 -14t16 -33v1zM470 793q0 -22 -13 -38.5t-36 -16.5q-21 0 -36 15t-15 35
q0 22 15 37t37 15q19 0 33 -14t15 -34v1z" />
    <glyph glyph-name="glyph232" unicode="&#xd0;" horiz-adv-x="667" 
d="M169 667h129l117 5q108 -1 174.5 -75t66.5 -195q0 -25 -4 -51t-11 -53q-12 -42 -30.5 -82t-43.5 -74q-64 -89 -137.5 -116t-178.5 -27l-108 1h-153l9 30l52 3l86 301h-57l12 40h57l74 259l-62 4l8 30v0zM317 637l-75 -263h108l-11 -40h-108l-85 -295q3 -2 6.5 -2.5
t7.5 -0.5q20 -3 41.5 -4t48.5 -1q51 0 81.5 6.5t55.5 22.5q59 37 98 106.5t58 144.5q10 38 14.5 74t4.5 69q0 50 -21 94.5t-54 65.5q-20 13 -47.5 19t-65.5 6h-4.5h-4.5q-9 0 -19.5 -1t-28.5 -2v1z" />
    <glyph glyph-name="Ntilde" unicode="&#xd1;" horiz-adv-x="651" 
d="M740 667l-9 -30q-35 -8 -52.5 -20t-31.5 -48q-5 -12 -10 -28t-11 -37l-147 -512h-31l-207 576l-118 -411l-13 -52t-4 -28v-1.5v-0.5q0 -22 18 -32.5t58 -13.5l-8 -29h-213l9 30q49 4 73.5 30t43.5 96l109 379q8 25 11.5 42.5t3.5 24.5q0 18 -13 23.5t-28 7.5
q-2 0 -4.5 0.5t-4.5 0.5q-4 0 -8.5 0.5t-8.5 1.5l8 31h150l184 -524l107 373q7 22 10.5 35t4.5 17t1.5 8t0.5 8q0 25 -15.5 36.5t-55.5 15.5l8 31h193v0zM610 826q-19 -40 -41.5 -58t-50.5 -18q-15 0 -30 3.5t-30 8.5q-15 4 -30 7.5t-30 3.5q-9 0 -16.5 -3.5t-14.5 -11.5
q-3 -3 -6.5 -8t-7.5 -11l-21 11q1 1 2 3t2 5q19 37 39 52.5t51 15.5q15 0 29.5 -3.5t28.5 -7.5q2 -1 4 -1.5t4 -0.5q12 -4 24 -6.5t25 -2.5q7 0 12.5 1.5t11.5 3.5q6 4 12.5 10t14.5 15l18 -8v0z" />
    <glyph glyph-name="scaron" unicode="&#xd2;" 
 />
    <glyph glyph-name="Lslash" unicode="&#xd3;" horiz-adv-x="660" 
d="M652 427q0 -170 -114.5 -306.5t-254.5 -136.5q-95 0 -157 70t-62 179q0 173 114.5 310.5t258.5 137.5q89 0 152 -74.5t63 -180.5v1zM560 505q-4 62 -39 99.5t-88 37.5q-92 0 -154 -84.5t-93 -185.5q-16 -51 -23.5 -99.5t-7.5 -86.5q0 -79 34 -122t98 -43q90 0 150.5 82.5
t91.5 182.5q16 51 24 100t8 87v15.5t-1 15.5v1zM424 735l94 86q3 2 6 5t7 6q10 10 22 18.5t27 8.5q16 0 26.5 -11.5t10.5 -28.5q0 -20 -15 -31t-32 -18q-7 -3 -13.5 -5t-12.5 -4l-112 -39l-8 13v0z" />
    <glyph glyph-name="lslash" unicode="&#xd4;" horiz-adv-x="660" 
d="M652 427q0 -170 -114.5 -306.5t-254.5 -136.5q-95 0 -157 70t-62 179q0 173 114.5 310.5t258.5 137.5q89 0 152 -74.5t63 -180.5v1zM560 505q-4 62 -39 99.5t-88 37.5q-92 0 -154 -84.5t-93 -185.5q-16 -51 -23.5 -99.5t-7.5 -86.5q0 -79 34 -122t98 -43q90 0 150.5 82.5
t91.5 182.5q16 51 24 100t8 87v15.5t-1 15.5v1zM605 750l-5 -17l-121 41l-145 -41l-8 17l163 99l116 -99v0z" />
    <glyph glyph-name="guilsinglright" unicode="&#xd5;" horiz-adv-x="660" 
d="M652 427q0 -170 -114.5 -306.5t-254.5 -136.5q-95 0 -157 70t-62 179q0 173 114.5 310.5t258.5 137.5q89 0 152 -74.5t63 -180.5v1zM560 505q-4 62 -39 99.5t-88 37.5q-92 0 -154 -84.5t-93 -185.5q-16 -51 -23.5 -99.5t-7.5 -86.5q0 -79 34 -122t98 -43q90 0 150.5 82.5
t91.5 182.5q16 51 24 100t8 87v15.5t-1 15.5v1zM615 826q-19 -40 -41.5 -58t-50.5 -18q-15 0 -30 3.5t-30 8.5q-15 4 -30 7.5t-30 3.5q-9 0 -16.5 -3.5t-14.5 -11.5q-3 -3 -6.5 -8t-7.5 -11l-21 11q1 1 2 3t2 5q19 37 39 52.5t51 15.5q15 0 29.5 -3.5t28.5 -7.5q2 -1 4 -1.5
t4 -0.5q12 -4 24 -6.5t25 -2.5q7 0 12.5 1.5t11.5 3.5q6 4 12.5 10t14.5 15l18 -8v0z" />
    <glyph glyph-name="Odieresis" unicode="&#xd6;" horiz-adv-x="660" 
d="M652 427q0 -170 -114.5 -306.5t-254.5 -136.5q-95 0 -157 70t-62 179q0 173 114.5 310.5t258.5 137.5q89 0 152 -74.5t63 -180.5v1zM560 505q-4 62 -39 99.5t-88 37.5q-92 0 -154 -84.5t-93 -185.5q-16 -51 -23.5 -99.5t-7.5 -86.5q0 -79 34 -122t98 -43q90 0 150.5 82.5
t91.5 182.5q16 51 24 100t8 87v15.5t-1 15.5v1zM445 794q0 -23 -14.5 -39.5t-37.5 -16.5q-19 0 -34.5 15t-15.5 34q0 23 15 38t37 15q19 0 34 -14t16 -33v1zM609 793q0 -22 -13 -38.5t-36 -16.5q-21 0 -36 15t-15 35q0 22 15 37t37 15q19 0 33 -14t15 -34v1z" />
    <glyph glyph-name="multiply" unicode="&#xd7;" 
 />
    <glyph glyph-name="plusminus" unicode="&#xd8;" horiz-adv-x="660" 
d="M132 48l-78 -91h-44l101 117q-22 34 -34.5 75t-12.5 84q0 173 114.5 310.5t258.5 137.5q39 0 75 -15.5t68 -47.5l77 90h43l-99 -115q26 -36 39 -78.5t13 -87.5q0 -169 -114.5 -306t-254.5 -137q-45 0 -83 16t-69 47v1zM172 94q19 -38 46.5 -55t68.5 -17q64 0 113.5 41.5
t90.5 129.5q12 25 21.5 50.5t17.5 50.5q15 48 23 94t8 86q0 14 -0.5 25.5t-2.5 22.5q0 4 -1 8.5t-2 8.5l-383 -445v0zM160 132l383 444q-16 30 -46 48.5t-64 18.5q-92 0 -153.5 -84.5t-92.5 -185.5q-16 -51 -24 -100t-8 -87v-14t1 -12q0 -6 1 -13t3 -16v1z" />
    <glyph glyph-name="Thorn" unicode="&#xd9;" horiz-adv-x="636" 
d="M722 667l-10 -30q-1 -1 -2.5 -1.5t-2.5 -0.5q-31 -7 -45.5 -18t-25.5 -40l-6.5 -19.5t-7.5 -23.5l-18 -61l-75 -259q-28 -98 -86 -163.5t-168 -65.5q-82 0 -135.5 43t-53.5 110q0 32 8 63.5t17 62.5q3 9 6 17.5t5 17.5l96 335l-50 3l8 30h208l-8 -30l-65 -3l-100 -350
q-2 -10 -4.5 -18.5t-5.5 -17.5q-8 -28 -15 -56.5t-7 -57.5q0 -48 36 -78.5t94 -30.5q65 0 111 47t73 141l77 269q2 7 4.5 14.5t5.5 15.5q3 10 5.5 19.5t5.5 19.5q2 8 3 17t1 18q0 27 -18.5 36.5t-40.5 12.5q-3 0 -6.5 0.5t-6.5 0.5l9 31h190v0zM512 737l-6 -14l-114 41
q-6 1 -13 3.5t-14 4.5q-17 7 -31.5 17.5t-14.5 30.5q0 17 10.5 28.5t26.5 11.5t28.5 -9t23.5 -20q2 -3 5 -5.5t5 -4.5l94 -84v0z" />
    <glyph glyph-name="Eth" unicode="&#xda;" horiz-adv-x="636" 
d="M722 667l-10 -30q-1 -1 -2.5 -1.5t-2.5 -0.5q-31 -7 -45.5 -18t-25.5 -40l-6.5 -19.5t-7.5 -23.5l-18 -61l-75 -259q-28 -98 -86 -163.5t-168 -65.5q-82 0 -135.5 43t-53.5 110q0 32 8 63.5t17 62.5q3 9 6 17.5t5 17.5l96 335l-50 3l8 30h208l-8 -30l-65 -3l-100 -350
q-2 -10 -4.5 -18.5t-5.5 -17.5q-8 -28 -15 -56.5t-7 -57.5q0 -48 36 -78.5t94 -30.5q65 0 111 47t73 141l77 269q2 7 4.5 14.5t5.5 15.5q3 10 5.5 19.5t5.5 19.5q2 8 3 17t1 18q0 27 -18.5 36.5t-40.5 12.5q-3 0 -6.5 0.5t-6.5 0.5l9 31h190v0zM419 736l94 86q3 2 6 5t7 6
q10 10 22 18.5t27 8.5q16 0 26.5 -11.5t10.5 -28.5q0 -20 -15 -31t-32 -18q-7 -3 -13.5 -5t-12.5 -4l-112 -39l-8 13v0z" />
    <glyph glyph-name="eth" unicode="&#xdb;" horiz-adv-x="636" 
d="M722 667l-10 -30q-1 -1 -2.5 -1.5t-2.5 -0.5q-31 -7 -45.5 -18t-25.5 -40l-6.5 -19.5t-7.5 -23.5l-18 -61l-75 -259q-28 -98 -86 -163.5t-168 -65.5q-82 0 -135.5 43t-53.5 110q0 32 8 63.5t17 62.5q3 9 6 17.5t5 17.5l96 335l-50 3l8 30h208l-8 -30l-65 -3l-100 -350
q-2 -10 -4.5 -18.5t-5.5 -17.5q-8 -28 -15 -56.5t-7 -57.5q0 -48 36 -78.5t94 -30.5q65 0 111 47t73 141l77 269q2 7 4.5 14.5t5.5 15.5q3 10 5.5 19.5t5.5 19.5q2 8 3 17t1 18q0 27 -18.5 36.5t-40.5 12.5q-3 0 -6.5 0.5t-6.5 0.5l9 31h190v0zM600 750l-5 -17l-121 41
l-145 -41l-8 17l163 99l116 -99v0z" />
    <glyph glyph-name="Udieresis" unicode="&#xdc;" horiz-adv-x="636" 
d="M722 667l-10 -30q-1 -1 -2.5 -1.5t-2.5 -0.5q-31 -7 -45.5 -18t-25.5 -40l-6.5 -19.5t-7.5 -23.5l-18 -61l-75 -259q-28 -98 -86 -163.5t-168 -65.5q-82 0 -135.5 43t-53.5 110q0 32 8 63.5t17 62.5q3 9 6 17.5t5 17.5l96 335l-50 3l8 30h208l-8 -30l-65 -3l-100 -350
q-2 -10 -4.5 -18.5t-5.5 -17.5q-8 -28 -15 -56.5t-7 -57.5q0 -48 36 -78.5t94 -30.5q65 0 111 47t73 141l77 269q2 7 4.5 14.5t5.5 15.5q3 10 5.5 19.5t5.5 19.5q2 8 3 17t1 18q0 27 -18.5 36.5t-40.5 12.5q-3 0 -6.5 0.5t-6.5 0.5l9 31h190v0zM447 794q0 -23 -14.5 -39.5
t-37.5 -16.5q-19 0 -34.5 15t-15.5 34q0 23 15 38t37 15q19 0 34 -14t16 -33v1zM611 793q0 -22 -13 -38.5t-36 -16.5q-21 0 -36 15t-15 35q0 22 15 37t37 15q19 0 33 -14t15 -34v1z" />
    <glyph glyph-name="Yacute" unicode="&#xdd;" 
 />
    <glyph glyph-name="glyph236" unicode="&#xde;" horiz-adv-x="592" 
d="M169 667h208l-8 -30l-53 -4l-28 -100q7 -1 13.5 -0.5t12.5 1.5q7 0 13.5 0.5t13.5 0.5q13 1 26.5 1.5t26.5 0.5q89 0 145 -45t56 -116q0 -59 -39.5 -111t-98.5 -70q-1 0 -2.5 -0.5t-2.5 -1.5q-29 -8 -60 -11t-75 -3l-131 1l-42 -147l66 -3l-9 -30h-211l9 30l52 3l172 600
l-62 4l8 30v0zM279 503l-82 -285q35 -3 53.5 -4t34.5 -1h5.5h4.5q47 0 79 8t55 24q24 17 41 47t23 63q2 7 2.5 14.5t0.5 14.5q0 61 -37.5 91t-112.5 30h-3.5h-2.5q-11 0 -24 -1t-37 -2v1z" />
    <glyph glyph-name="germandbls" unicode="&#xdf;" horiz-adv-x="557" 
d="M157 460q28 101 89.5 178t179.5 77q68 0 110.5 -35t42.5 -91q0 -75 -51.5 -112t-113.5 -56q-10 -3 -19.5 -5.5t-18.5 -5.5q-21 -5 -32 -13t-11 -16q0 -7 5.5 -13.5t15.5 -12.5q13 -8 30.5 -16t36.5 -19q32 -19 59.5 -50t27.5 -84q0 -79 -68 -139t-157 -60
q-60 0 -94.5 20.5t-34.5 57.5q0 20 14.5 35t35.5 15q20 0 35 -17t16 -42q2 -22 12 -29.5t38 -7.5q51 0 88 35.5t37 84.5q0 47 -26.5 71t-58.5 42q-3 2 -6 3.5t-6 2.5q-28 16 -50.5 35.5t-22.5 53.5q0 41 29.5 59t68.5 32q5 2 11 4l12 4q45 17 82.5 45t37.5 95q0 40 -24.5 68
t-60.5 28q-70 0 -105 -48.5t-54 -106.5q-5 -15 -9.5 -30t-8.5 -29l-134 -468h-130l10 35l52 7l108 378h-55l12 40h55v0z" />
    <glyph glyph-name="agrave" unicode="&#xe0;" horiz-adv-x="491" 
d="M423 81l10 -26q-5 -7 -9.5 -13t-9.5 -11q-18 -20 -37 -29t-39 -9q-27 0 -43 19t-16 50v5v5q1 5 2 11.5t3 16.5q-25 -49 -62.5 -78t-78.5 -32h-3.5h-3.5q-46 0 -79 39.5t-33 96.5q0 13 1.5 27t4.5 27q22 108 115 198.5t203 90.5q52 0 84.5 -19.5t32.5 -51.5
q0 -14 -8 -24.5t-26 -20.5l-50 -173q-2 -8 -4.5 -15.5t-5.5 -14.5q-2 -8 -4.5 -16.5t-4.5 -16.5q-3 -10 -4.5 -19.5t-1.5 -18.5q0 -13 6 -21.5t16 -8.5t19 6.5t16 13.5q2 3 5 6l5 5v1zM289 138l54 190q9 29 12 40t3 19v2v2q0 17 -11.5 27.5t-31.5 10.5q-62 0 -110.5 -56.5
t-73.5 -123.5q-12 -31 -18 -60.5t-6 -53.5q0 -39 16.5 -63t42.5 -24t54.5 21t68.5 68v1zM377 534l-6 -14l-114 41q-6 1 -13 3.5t-14 4.5q-17 7 -31.5 17.5t-14.5 30.5q0 17 10.5 28.5t26.5 11.5t28.5 -9t23.5 -20q2 -3 5 -5.5t5 -4.5l94 -84v0z" />
    <glyph glyph-name="aacute" unicode="&#xe1;" horiz-adv-x="491" 
d="M423 81l10 -26q-5 -7 -9.5 -13t-9.5 -11q-18 -20 -37 -29t-39 -9q-27 0 -43 19t-16 50v5v5q1 5 2 11.5t3 16.5q-25 -49 -62.5 -78t-78.5 -32h-3.5h-3.5q-46 0 -79 39.5t-33 96.5q0 13 1.5 27t4.5 27q22 108 115 198.5t203 90.5q52 0 84.5 -19.5t32.5 -51.5
q0 -14 -8 -24.5t-26 -20.5l-50 -173q-2 -8 -4.5 -15.5t-5.5 -14.5q-2 -8 -4.5 -16.5t-4.5 -16.5q-3 -10 -4.5 -19.5t-1.5 -18.5q0 -13 6 -21.5t16 -8.5t19 6.5t16 13.5q2 3 5 6l5 5v1zM289 138l54 190q9 29 12 40t3 19v2v2q0 17 -11.5 27.5t-31.5 10.5q-62 0 -110.5 -56.5
t-73.5 -123.5q-12 -31 -18 -60.5t-6 -53.5q0 -39 16.5 -63t42.5 -24t54.5 21t68.5 68v1zM281 533l94 86q3 2 6 5t7 6q10 10 22 18.5t27 8.5q16 0 26.5 -11.5t10.5 -28.5q0 -20 -15 -31t-32 -18q-7 -3 -13.5 -5t-12.5 -4l-112 -39l-8 13v0z" />
    <glyph glyph-name="acircumflex" unicode="&#xe2;" horiz-adv-x="491" 
d="M423 81l10 -26q-5 -7 -9.5 -13t-9.5 -11q-18 -20 -37 -29t-39 -9q-27 0 -43 19t-16 50v5v5q1 5 2 11.5t3 16.5q-25 -49 -62.5 -78t-78.5 -32h-3.5h-3.5q-46 0 -79 39.5t-33 96.5q0 13 1.5 27t4.5 27q22 108 115 198.5t203 90.5q52 0 84.5 -19.5t32.5 -51.5
q0 -14 -8 -24.5t-26 -20.5l-50 -173q-2 -8 -4.5 -15.5t-5.5 -14.5q-2 -8 -4.5 -16.5t-4.5 -16.5q-3 -10 -4.5 -19.5t-1.5 -18.5q0 -13 6 -21.5t16 -8.5t19 6.5t16 13.5q2 3 5 6l5 5v1zM289 138l54 190q9 29 12 40t3 19v2v2q0 17 -11.5 27.5t-31.5 10.5q-62 0 -110.5 -56.5
t-73.5 -123.5q-12 -31 -18 -60.5t-6 -53.5q0 -39 16.5 -63t42.5 -24t54.5 21t68.5 68v1zM471 543l-5 -17l-121 41l-145 -41l-8 17l163 99l116 -99v0z" />
    <glyph glyph-name="atilde" unicode="&#xe3;" horiz-adv-x="491" 
d="M423 81l10 -26q-5 -7 -9.5 -13t-9.5 -11q-18 -20 -37 -29t-39 -9q-27 0 -43 19t-16 50v5v5q1 5 2 11.5t3 16.5q-25 -49 -62.5 -78t-78.5 -32h-3.5h-3.5q-46 0 -79 39.5t-33 96.5q0 13 1.5 27t4.5 27q22 108 115 198.5t203 90.5q52 0 84.5 -19.5t32.5 -51.5
q0 -14 -8 -24.5t-26 -20.5l-50 -173q-2 -8 -4.5 -15.5t-5.5 -14.5q-2 -8 -4.5 -16.5t-4.5 -16.5q-3 -10 -4.5 -19.5t-1.5 -18.5q0 -13 6 -21.5t16 -8.5t19 6.5t16 13.5q2 3 5 6l5 5v1zM289 138l54 190q9 29 12 40t3 19v2v2q0 17 -11.5 27.5t-31.5 10.5q-62 0 -110.5 -56.5
t-73.5 -123.5q-12 -31 -18 -60.5t-6 -53.5q0 -39 16.5 -63t42.5 -24t54.5 21t68.5 68v1zM477 619q-19 -40 -41.5 -58t-50.5 -18q-15 0 -30 3.5t-30 8.5q-15 4 -30 7.5t-30 3.5q-9 0 -16.5 -3.5t-14.5 -11.5q-3 -3 -6.5 -8t-7.5 -11l-21 11q1 1 2 3t2 5q19 37 39 52.5
t51 15.5q15 0 29.5 -3.5t28.5 -7.5q2 -1 4 -1.5t4 -0.5q12 -4 24 -6.5t25 -2.5q7 0 12.5 1.5t11.5 3.5q6 4 12.5 10t14.5 15l18 -8v0z" />
    <glyph glyph-name="adieresis" unicode="&#xe4;" horiz-adv-x="491" 
d="M423 81l10 -26q-5 -7 -9.5 -13t-9.5 -11q-18 -20 -37 -29t-39 -9q-27 0 -43 19t-16 50v5v5q1 5 2 11.5t3 16.5q-25 -49 -62.5 -78t-78.5 -32h-3.5h-3.5q-46 0 -79 39.5t-33 96.5q0 13 1.5 27t4.5 27q22 108 115 198.5t203 90.5q52 0 84.5 -19.5t32.5 -51.5
q0 -14 -8 -24.5t-26 -20.5l-50 -173q-2 -8 -4.5 -15.5t-5.5 -14.5q-2 -8 -4.5 -16.5t-4.5 -16.5q-3 -10 -4.5 -19.5t-1.5 -18.5q0 -13 6 -21.5t16 -8.5t19 6.5t16 13.5q2 3 5 6l5 5v1zM289 138l54 190q9 29 12 40t3 19v2v2q0 17 -11.5 27.5t-31.5 10.5q-62 0 -110.5 -56.5
t-73.5 -123.5q-12 -31 -18 -60.5t-6 -53.5q0 -39 16.5 -63t42.5 -24t54.5 21t68.5 68v1zM318 588q0 -23 -14.5 -39.5t-37.5 -16.5q-19 0 -34.5 15t-15.5 34q0 23 15 38t37 15q19 0 34 -14t16 -33v1zM482 587q0 -22 -13 -38.5t-36 -16.5q-21 0 -36 15t-15 35q0 22 15 37
t37 15q19 0 33 -14t15 -34v1z" />
    <glyph glyph-name="aring" unicode="&#xe5;" horiz-adv-x="491" 
d="M423 81l10 -26q-5 -7 -9.5 -13t-9.5 -11q-18 -20 -37 -29t-39 -9q-27 0 -43 19t-16 50v5v5q1 5 2 11.5t3 16.5q-25 -49 -62.5 -78t-78.5 -32h-3.5h-3.5q-46 0 -79 39.5t-33 96.5q0 13 1.5 27t4.5 27q22 108 115 198.5t203 90.5q52 0 84.5 -19.5t32.5 -51.5
q0 -14 -8 -24.5t-26 -20.5l-50 -173q-2 -8 -4.5 -15.5t-5.5 -14.5q-2 -8 -4.5 -16.5t-4.5 -16.5q-3 -10 -4.5 -19.5t-1.5 -18.5q0 -13 6 -21.5t16 -8.5t19 6.5t16 13.5q2 3 5 6l5 5v1zM289 138l54 190q9 29 12 40t3 19v2v2q0 17 -11.5 27.5t-31.5 10.5q-62 0 -110.5 -56.5
t-73.5 -123.5q-12 -31 -18 -60.5t-6 -53.5q0 -39 16.5 -63t42.5 -24t54.5 21t68.5 68v1zM436 610q0 -37 -24.5 -60.5t-63.5 -23.5q-34 0 -57 25.5t-23 62.5q0 33 25 57t60 24t59 -25t24 -61v1zM396 615q-1 16 -14 27.5t-30 11.5q-18 0 -30.5 -12.5t-12.5 -32.5q0 -17 13 -30
t29 -13q20 0 32.5 14.5t12.5 33.5v1z" />
    <glyph glyph-name="Otilde" unicode="&#xe6;" horiz-adv-x="727" 
d="M458 413q30 20 52.5 32.5t44.5 17.5q11 3 22.5 4.5t23.5 1.5q47 0 74 -22.5t27 -61.5q0 -53 -50.5 -103t-144.5 -91l-113 -47q11 -48 38 -73t69 -25q5 0 10 0.5t10 0.5q27 5 57 22.5t73 53.5l14 -31q-22 -23 -45 -40.5t-46 -30.5q-29 -16 -57 -23.5t-56 -7.5
q-58 0 -95.5 29t-53.5 87q-47 -59 -88 -87.5t-79 -28.5q-53 0 -86 38.5t-33 100.5q0 12 1.5 25t3.5 25q22 109 117.5 200t205.5 91q41 0 66 -14t38 -44v1zM294 140l67 211q1 2 2 5l2 6q1 6 3 12t3 12q1 4 1.5 9t0.5 9q0 14 -10 21t-30 7q-72 0 -124.5 -60.5t-77.5 -132.5
q-10 -28 -15 -55t-5 -51q0 -37 16.5 -61t41.5 -24q15 0 31 6t32 18q15 12 31 29t31 38v1zM390 174l91 42q59 26 96.5 63.5t45.5 77.5q1 5 1.5 10.5t0.5 10.5q0 24 -13.5 38.5t-35.5 14.5q-67 0 -124 -78.5t-62 -179.5v1z" />
    <glyph glyph-name="ccedilla" unicode="&#xe7;" horiz-adv-x="429" 
d="M203 -10l-18 -53q41 -2 60 -15.5t19 -40.5q0 -30 -27.5 -49.5t-70.5 -19.5q-35 0 -57 12t-22 32q0 8 6.5 14.5t15.5 6.5q11 0 16 -6t10 -14v0v-1q5 -7 10.5 -13.5t17.5 -6.5q19 0 33.5 13.5t14.5 30.5q0 16 -10.5 24t-30.5 8h-3h-3q-3 -1 -6.5 -1t-9.5 -1l27 81
q-65 8 -103.5 53t-38.5 113q0 119 91 215.5t203 96.5q50 0 82 -20t32 -52q0 -19 -15 -34.5t-35 -15.5q-23 0 -39 16t-21 44q-3 17 -8 23t-15 6q-51 0 -92 -50.5t-65 -111.5q-12 -32 -18.5 -62t-6.5 -53q0 -54 28 -88t73 -34q7 0 13.5 0.5t13.5 2.5q27 5 54 21t58 45l12 -29
q-40 -43 -82.5 -63.5t-92.5 -23.5v0z" />
    <glyph glyph-name="egrave" unicode="&#xe8;" horiz-adv-x="447" 
d="M371 128l15 -34q-50 -48 -96 -73t-91 -30q-6 0 -11.5 -0.5t-11.5 -0.5q-64 0 -105.5 45t-41.5 115q0 14 1.5 28t5.5 29q23 98 107 180t184 82q44 0 71 -23t27 -61q0 -68 -57.5 -114.5t-125.5 -78.5q-35 -16 -68 -29t-59 -24q11 -43 36.5 -65.5t64.5 -22.5q32 0 67.5 17.5
t87.5 58.5v1zM110 175q19 8 42 17.5t47 20.5q56 27 102.5 66t46.5 101q0 20 -15 33t-37 13q-55 0 -98 -49.5t-66 -109.5q-10 -25 -15.5 -49t-6.5 -44v1zM335 534l-6 -14l-114 41q-6 1 -13 3.5t-14 4.5q-17 7 -31.5 17.5t-14.5 30.5q0 17 10.5 28.5t26.5 11.5t28.5 -9
t23.5 -20q2 -3 5 -5.5t5 -4.5l94 -84v0z" />
    <glyph glyph-name="eacute" unicode="&#xe9;" horiz-adv-x="447" 
d="M371 128l15 -34q-50 -48 -96 -73t-91 -30q-6 0 -11.5 -0.5t-11.5 -0.5q-64 0 -105.5 45t-41.5 115q0 14 1.5 28t5.5 29q23 98 107 180t184 82q44 0 71 -23t27 -61q0 -68 -57.5 -114.5t-125.5 -78.5q-35 -16 -68 -29t-59 -24q11 -43 36.5 -65.5t64.5 -22.5q32 0 67.5 17.5
t87.5 58.5v1zM110 175q19 8 42 17.5t47 20.5q56 27 102.5 66t46.5 101q0 20 -15 33t-37 13q-55 0 -98 -49.5t-66 -109.5q-10 -25 -15.5 -49t-6.5 -44v1zM260 533l94 86q3 2 6 5t7 6q10 10 22 18.5t27 8.5q16 0 26.5 -11.5t10.5 -28.5q0 -20 -15 -31t-32 -18q-7 -3 -13.5 -5
t-12.5 -4l-112 -39l-8 13v0z" />
    <glyph glyph-name="ecircumflex" unicode="&#xea;" horiz-adv-x="447" 
d="M371 128l15 -34q-50 -48 -96 -73t-91 -30q-6 0 -11.5 -0.5t-11.5 -0.5q-64 0 -105.5 45t-41.5 115q0 14 1.5 28t5.5 29q23 98 107 180t184 82q44 0 71 -23t27 -61q0 -68 -57.5 -114.5t-125.5 -78.5q-35 -16 -68 -29t-59 -24q11 -43 36.5 -65.5t64.5 -22.5q32 0 67.5 17.5
t87.5 58.5v1zM110 175q19 8 42 17.5t47 20.5q56 27 102.5 66t46.5 101q0 20 -15 33t-37 13q-55 0 -98 -49.5t-66 -109.5q-10 -25 -15.5 -49t-6.5 -44v1zM430 543l-5 -17l-121 41l-145 -41l-8 17l163 99l116 -99v0z" />
    <glyph glyph-name="edieresis" unicode="&#xeb;" horiz-adv-x="447" 
d="M371 128l15 -34q-50 -48 -96 -73t-91 -30q-6 0 -11.5 -0.5t-11.5 -0.5q-64 0 -105.5 45t-41.5 115q0 14 1.5 28t5.5 29q23 98 107 180t184 82q44 0 71 -23t27 -61q0 -68 -57.5 -114.5t-125.5 -78.5q-35 -16 -68 -29t-59 -24q11 -43 36.5 -65.5t64.5 -22.5q32 0 67.5 17.5
t87.5 58.5v1zM110 175q19 8 42 17.5t47 20.5q56 27 102.5 66t46.5 101q0 20 -15 33t-37 13q-55 0 -98 -49.5t-66 -109.5q-10 -25 -15.5 -49t-6.5 -44v1zM289 588q0 -23 -14.5 -39.5t-37.5 -16.5q-19 0 -34.5 15t-15.5 34q0 23 15 38t37 15q19 0 34 -14t16 -33v1zM453 587
q0 -22 -13 -38.5t-36 -16.5q-21 0 -36 15t-15 35q0 22 15 37t37 15q19 0 33 -14t15 -34v1z" />
    <glyph glyph-name="igrave" unicode="&#xec;" horiz-adv-x="291" 
d="M243 471q1 -12 2 -18.5t1 -12.5v-1.5v-1.5q0 -23 -6.5 -45.5t-14.5 -44.5q-1 -5 -2.5 -9.5t-3.5 -8.5l-66 -188q-12 -37 -15.5 -50t-3.5 -21q0 -12 5.5 -19.5t13.5 -7.5q11 0 25.5 8.5t34.5 27.5l11 -33q-9 -11 -19 -19t-20 -15q-18 -12 -35 -18.5t-32 -6.5
q-28 0 -47 19.5t-19 50.5v2.5v2.5q1 13 5.5 30.5t16.5 53.5l59 171q1 2 2 4.5t2 5.5q1 4 2.5 7.5t2.5 7.5q1 3 1.5 6.5t0.5 6.5q0 11 -8.5 18.5t-20.5 7.5h-5h-5q-5 -1 -11 -2.5t-17 -4.5l11 41l155 56v0zM275 540l-6 -14l-114 41q-6 1 -13 3.5t-14 4.5q-17 7 -31.5 17.5
t-14.5 30.5q0 17 10.5 28.5t26.5 11.5t28.5 -9t23.5 -20q2 -3 5 -5.5t5 -4.5l94 -84v0z" />
    <glyph glyph-name="iacute" unicode="&#xed;" horiz-adv-x="291" 
d="M243 471q1 -12 2 -18.5t1 -12.5v-1.5v-1.5q0 -23 -6.5 -45.5t-14.5 -44.5q-1 -5 -2.5 -9.5t-3.5 -8.5l-66 -188q-12 -37 -15.5 -50t-3.5 -21q0 -12 5.5 -19.5t13.5 -7.5q11 0 25.5 8.5t34.5 27.5l11 -33q-9 -11 -19 -19t-20 -15q-18 -12 -35 -18.5t-32 -6.5
q-28 0 -47 19.5t-19 50.5v2.5v2.5q1 13 5.5 30.5t16.5 53.5l59 171q1 2 2 4.5t2 5.5q1 4 2.5 7.5t2.5 7.5q1 3 1.5 6.5t0.5 6.5q0 11 -8.5 18.5t-20.5 7.5h-5h-5q-5 -1 -11 -2.5t-17 -4.5l11 41l155 56v0zM161 533l94 86q3 2 6 5t7 6q10 10 22 18.5t27 8.5q16 0 26.5 -11.5
t10.5 -28.5q0 -20 -15 -31t-32 -18q-7 -3 -13.5 -5t-12.5 -4l-112 -39l-8 13v0z" />
    <glyph glyph-name="icircumflex" unicode="&#xee;" horiz-adv-x="289" 
d="M243 471q1 -12 2 -18.5t1 -12.5v-1.5v-1.5q0 -23 -6.5 -45.5t-14.5 -44.5q-1 -5 -2.5 -9.5t-3.5 -8.5l-66 -188q-12 -37 -15.5 -50t-3.5 -21q0 -12 5.5 -19.5t13.5 -7.5q11 0 25.5 8.5t34.5 27.5l11 -33q-9 -11 -19 -19t-20 -15q-18 -12 -35 -18.5t-32 -6.5
q-28 0 -47 19.5t-19 50.5v2.5v2.5q1 13 5.5 30.5t16.5 53.5l59 171q1 2 2 4.5t2 5.5q1 4 2.5 7.5t2.5 7.5q1 3 1.5 6.5t0.5 6.5q0 11 -8.5 18.5t-20.5 7.5h-5h-5q-5 -1 -11 -2.5t-17 -4.5l11 41l155 56v0zM364 544l-5 -17l-121 41l-145 -41l-8 17l163 99l116 -99v0z" />
    <glyph glyph-name="idieresis" unicode="&#xef;" horiz-adv-x="291" 
d="M243 471q1 -12 2 -18.5t1 -12.5v-1.5v-1.5q0 -23 -6.5 -45.5t-14.5 -44.5q-1 -5 -2.5 -9.5t-3.5 -8.5l-66 -188q-12 -37 -15.5 -50t-3.5 -21q0 -12 5.5 -19.5t13.5 -7.5q11 0 25.5 8.5t34.5 27.5l11 -33q-9 -11 -19 -19t-20 -15q-18 -12 -35 -18.5t-32 -6.5
q-28 0 -47 19.5t-19 50.5v2.5v2.5q1 13 5.5 30.5t16.5 53.5l59 171q1 2 2 4.5t2 5.5q1 4 2.5 7.5t2.5 7.5q1 3 1.5 6.5t0.5 6.5q0 11 -8.5 18.5t-20.5 7.5h-5h-5q-5 -1 -11 -2.5t-17 -4.5l11 41l155 56v0zM197 589q0 -23 -14.5 -39.5t-37.5 -16.5q-19 0 -34.5 15t-15.5 34
q0 23 15 38t37 15q19 0 34 -14t16 -33v1zM361 588q0 -22 -13 -38.5t-36 -16.5q-21 0 -36 15t-15 35q0 22 15 37t37 15q19 0 33 -14t15 -34v1z" />
    <glyph glyph-name="glyph233" unicode="&#xf0;" horiz-adv-x="494" 
d="M198 530l-14 32l116 51q-8 7 -17 14t-19 14q-13 9 -28 18t-34 19l19 28q38 -13 71 -29.5t64 -39.5l130 58l13 -32l-113 -49q18 -22 31 -40.5t23 -37.5q18 -34 25 -70.5t7 -85.5q0 -166 -79.5 -278t-196.5 -112q-73 0 -117.5 48.5t-44.5 130.5q0 114 80 207.5t178 93.5
q8 0 14.5 -0.5t13.5 -1.5q14 -2 28.5 -7t33.5 -14q-3 27 -8 47.5t-15 39.5q-6 12 -15 25t-20 27l-126 -56v0zM375 341q0 40 -22 65t-57 25q-49 0 -82.5 -33t-59.5 -109q-19 -54 -29 -97t-10 -73q0 -43 22.5 -68t60.5 -25q35 0 63 18t47 55q14 25 25.5 55t20.5 61
q10 34 15.5 66.5t5.5 58.5v1z" />
    <glyph glyph-name="ntilde" unicode="&#xf1;" horiz-adv-x="559" 
d="M159 469q33 -21 46 -44t13 -58v-4v-4q0 -8 -1.5 -17t-3.5 -24q24 56 64 95t82 51q9 2 17.5 3.5t16.5 1.5q43 0 70 -27.5t27 -72.5v-3.5v-3.5q-1 -16 -6.5 -36.5t-21.5 -65.5l-45 -132q-6 -18 -9.5 -31.5t-3.5 -20.5q0 -13 6.5 -20.5t16.5 -7.5h2h2q9 2 20.5 10t31.5 28
l14 -30q-22 -26 -39.5 -40.5t-34.5 -19.5q-8 -3 -16 -4.5t-16 -1.5q-29 0 -48.5 21.5t-19.5 54.5q0 17 6 39t23 70l45 131q8 22 11 34t3 21q0 21 -13.5 34.5t-33.5 13.5q-13 0 -29 -6.5t-31 -18.5q-16 -12 -31.5 -29t-29.5 -37q-7 -10 -14 -25t-14 -33q-10 -23 -19 -51
t-17 -56q-13 -45 -22.5 -86.5t-12.5 -66.5h-98q3 6 7 14.5t8 17.5q2 5 4 9.5t4 9.5q5 14 9.5 26.5t7.5 22.5l42 149q1 2 2 4.5t1 5.5q6 17 10.5 34.5t6.5 35.5v2.5v2.5q-1 11 -6.5 20t-18.5 9q-11 0 -20.5 -6.5t-18.5 -14.5l-2.5 -2.5l-3.5 -3.5l-20 29l101 104v0zM491 619
q-19 -40 -41.5 -58t-50.5 -18q-15 0 -30 3.5t-30 8.5q-15 4 -30 7.5t-30 3.5q-9 0 -16.5 -3.5t-14.5 -11.5q-3 -3 -6.5 -8t-7.5 -11l-21 11q1 1 2 3t2 5q19 37 39 52.5t51 15.5q15 0 29.5 -3.5t28.5 -7.5q2 -1 4 -1.5t4 -0.5q12 -4 24 -6.5t25 -2.5q7 0 12.5 1.5t11.5 3.5
q6 4 12.5 10t14.5 15l18 -8v0z" />
    <glyph glyph-name="ograve" unicode="&#xf2;" horiz-adv-x="495" 
d="M459 280q-5 -115 -85 -202.5t-178 -87.5q-73 0 -117.5 48.5t-44.5 130.5q0 115 80 208t179 93q73 0 120 -51t47 -131v-2v-2q-1 -2 -1 -3v-2v1zM375 341q0 40 -22 65t-57 25q-49 0 -82.5 -33t-59.5 -109q-19 -54 -29 -97t-10 -73q0 -43 22.5 -68t60.5 -25q35 0 63 18
t47 55q14 25 25.5 55t20.5 61q10 34 15.5 66.5t5.5 58.5v1zM372 534l-6 -14l-114 41q-6 1 -13 3.5t-14 4.5q-17 7 -31.5 17.5t-14.5 30.5q0 17 10.5 28.5t26.5 11.5t28.5 -9t23.5 -20q2 -3 5 -5.5t5 -4.5l94 -84v0z" />
    <glyph glyph-name="oacute" unicode="&#xf3;" horiz-adv-x="495" 
d="M459 280q-5 -115 -85 -202.5t-178 -87.5q-73 0 -117.5 48.5t-44.5 130.5q0 115 80 208t179 93q73 0 120 -51t47 -131v-2v-2q-1 -2 -1 -3v-2v1zM375 341q0 40 -22 65t-57 25q-49 0 -82.5 -33t-59.5 -109q-19 -54 -29 -97t-10 -73q0 -43 22.5 -68t60.5 -25q35 0 63 18
t47 55q14 25 25.5 55t20.5 61q10 34 15.5 66.5t5.5 58.5v1zM277 533l94 86q3 2 6 5t7 6q10 10 22 18.5t27 8.5q16 0 26.5 -11.5t10.5 -28.5q0 -20 -15 -31t-32 -18q-7 -3 -13.5 -5t-12.5 -4l-112 -39l-8 13v0z" />
    <glyph glyph-name="ocircumflex" unicode="&#xf4;" horiz-adv-x="495" 
d="M459 280q-5 -115 -85 -202.5t-178 -87.5q-73 0 -117.5 48.5t-44.5 130.5q0 115 80 208t179 93q73 0 120 -51t47 -131v-2v-2q-1 -2 -1 -3v-2v1zM375 341q0 40 -22 65t-57 25q-49 0 -82.5 -33t-59.5 -109q-19 -54 -29 -97t-10 -73q0 -43 22.5 -68t60.5 -25q35 0 63 18
t47 55q14 25 25.5 55t20.5 61q10 34 15.5 66.5t5.5 58.5v1zM467 543l-5 -17l-121 41l-145 -41l-8 17l163 99l116 -99v0z" />
    <glyph glyph-name="otilde" unicode="&#xf5;" horiz-adv-x="495" 
d="M459 280q-5 -115 -85 -202.5t-178 -87.5q-73 0 -117.5 48.5t-44.5 130.5q0 115 80 208t179 93q73 0 120 -51t47 -131v-2v-2q-1 -2 -1 -3v-2v1zM375 341q0 40 -22 65t-57 25q-49 0 -82.5 -33t-59.5 -109q-19 -54 -29 -97t-10 -73q0 -43 22.5 -68t60.5 -25q35 0 63 18
t47 55q14 25 25.5 55t20.5 61q10 34 15.5 66.5t5.5 58.5v1zM472 619q-19 -40 -41.5 -58t-50.5 -18q-15 0 -30 3.5t-30 8.5q-15 4 -30 7.5t-30 3.5q-9 0 -16.5 -3.5t-14.5 -11.5q-3 -3 -6.5 -8t-7.5 -11l-21 11q1 1 2 3t2 5q19 37 39 52.5t51 15.5q15 0 29.5 -3.5t28.5 -7.5
q2 -1 4 -1.5t4 -0.5q12 -4 24 -6.5t25 -2.5q7 0 12.5 1.5t11.5 3.5q6 4 12.5 10t14.5 15l18 -8v0z" />
    <glyph glyph-name="odieresis" unicode="&#xf6;" horiz-adv-x="495" 
d="M459 280q-5 -115 -85 -202.5t-178 -87.5q-73 0 -117.5 48.5t-44.5 130.5q0 115 80 208t179 93q73 0 120 -51t47 -131v-2v-2q-1 -2 -1 -3v-2v1zM375 341q0 40 -22 65t-57 25q-49 0 -82.5 -33t-59.5 -109q-19 -54 -29 -97t-10 -73q0 -43 22.5 -68t60.5 -25q35 0 63 18
t47 55q14 25 25.5 55t20.5 61q10 34 15.5 66.5t5.5 58.5v1zM313 588q0 -23 -14.5 -39.5t-37.5 -16.5q-19 0 -34.5 15t-15.5 34q0 23 15 38t37 15q19 0 34 -14t16 -33v1zM477 587q0 -22 -13 -38.5t-36 -16.5q-21 0 -36 15t-15 35q0 22 15 37t37 15q19 0 33 -14t15 -34v1z" />
    <glyph glyph-name="Aacute" unicode="&#xf7;" 
 />
    <glyph glyph-name="OE" unicode="&#xf8;" horiz-adv-x="495" 
d="M99 20l-48 -62h-36l63 82q-22 27 -33 58t-11 71q0 116 80 208t180 92q18 0 32 -2t28 -7q8 -4 16 -8.5t17 -10.5l49 65h38l-64 -83q25 -29 37.5 -62t12.5 -72q0 -115 -81 -207t-182 -92q-27 0 -48 5.5t-42 18.5q-2 1 -4 2.5t-4 2.5v1zM131 61q14 -20 29 -27.5t39 -7.5
q35 0 62.5 18t46.5 55q14 25 26 56t21 63q9 33 14.5 65t5.5 57v6t-1 6q0 4 -1 8.5t-2 10.5l-240 -310v0zM119 93l238 310q-13 15 -27 21.5t-34 6.5q-49 0 -82 -33t-60 -109q-19 -54 -28.5 -97t-9.5 -75v-3.5v-3.5q0 -4 0.5 -8t2.5 -10v1z" />
    <glyph glyph-name="ugrave" unicode="&#xf9;" horiz-adv-x="540" 
d="M512 460q-5 -11 -8.5 -19.5t-6.5 -16.5l-2 -6l-2 -6q-5 -14 -10.5 -32t-14.5 -48l-52 -182q-7 -26 -10 -38t-3 -22v-2.5v-2.5q0 -14 6.5 -22.5t17.5 -8.5h3.5t3.5 1q8 1 18 8.5t28 23.5l13 -30q-19 -23 -34 -36.5t-29 -20.5q-10 -4 -20 -6t-22 -2q-28 0 -45 19.5
t-17 50.5v10.5t1 9.5q1 8 2.5 16t5.5 20q-23 -49 -69 -88.5t-104 -39.5q-44 0 -74.5 28t-30.5 71v8t1 7q1 14 6.5 33.5t20.5 64.5l41 120q6 16 8 24.5t2 15.5v1.5v0.5q0 11 -7 18t-18 7h-5t-4 -1q-6 0 -12.5 -2.5t-17.5 -7.5l-11 33l152 66q5 -13 8.5 -21t4.5 -16
q1 -5 1.5 -10.5t0.5 -11.5v-6.5v-6.5q-2 -18 -8 -41.5t-23 -72.5l-37 -113q-1 -5 -3 -10t-3 -9q-6 -14 -10 -28t-4 -29q0 -24 16 -40t40 -16q47 0 82 37.5t56 83.5q9 18 15.5 35.5t10.5 32.5l36 126q5 15 8.5 31.5t6.5 33.5q2 8 3.5 16.5t2.5 16.5l95 1v0zM381 534l-6 -14
l-114 41q-6 1 -13 3.5t-14 4.5q-17 7 -31.5 17.5t-14.5 30.5q0 17 10.5 28.5t26.5 11.5t28.5 -9t23.5 -20q2 -3 5 -5.5t5 -4.5l94 -84v0z" />
    <glyph glyph-name="uacute" unicode="&#xfa;" horiz-adv-x="540" 
d="M512 460q-5 -11 -8.5 -19.5t-6.5 -16.5l-2 -6l-2 -6q-5 -14 -10.5 -32t-14.5 -48l-52 -182q-7 -26 -10 -38t-3 -22v-2.5v-2.5q0 -14 6.5 -22.5t17.5 -8.5h3.5t3.5 1q8 1 18 8.5t28 23.5l13 -30q-19 -23 -34 -36.5t-29 -20.5q-10 -4 -20 -6t-22 -2q-28 0 -45 19.5
t-17 50.5v10.5t1 9.5q1 8 2.5 16t5.5 20q-23 -49 -69 -88.5t-104 -39.5q-44 0 -74.5 28t-30.5 71v8t1 7q1 14 6.5 33.5t20.5 64.5l41 120q6 16 8 24.5t2 15.5v1.5v0.5q0 11 -7 18t-18 7h-5t-4 -1q-6 0 -12.5 -2.5t-17.5 -7.5l-11 33l152 66q5 -13 8.5 -21t4.5 -16
q1 -5 1.5 -10.5t0.5 -11.5v-6.5v-6.5q-2 -18 -8 -41.5t-23 -72.5l-37 -113q-1 -5 -3 -10t-3 -9q-6 -14 -10 -28t-4 -29q0 -24 16 -40t40 -16q47 0 82 37.5t56 83.5q9 18 15.5 35.5t10.5 32.5l36 126q5 15 8.5 31.5t6.5 33.5q2 8 3.5 16.5t2.5 16.5l95 1v0zM306 533l94 86
q3 2 6 5t7 6q10 10 22 18.5t27 8.5q16 0 26.5 -11.5t10.5 -28.5q0 -20 -15 -31t-32 -18q-7 -3 -13.5 -5t-12.5 -4l-112 -39l-8 13v0z" />
    <glyph glyph-name="ucircumflex" unicode="&#xfb;" horiz-adv-x="540" 
d="M512 460q-5 -11 -8.5 -19.5t-6.5 -16.5l-2 -6l-2 -6q-5 -14 -10.5 -32t-14.5 -48l-52 -182q-7 -26 -10 -38t-3 -22v-2.5v-2.5q0 -14 6.5 -22.5t17.5 -8.5h3.5t3.5 1q8 1 18 8.5t28 23.5l13 -30q-19 -23 -34 -36.5t-29 -20.5q-10 -4 -20 -6t-22 -2q-28 0 -45 19.5
t-17 50.5v10.5t1 9.5q1 8 2.5 16t5.5 20q-23 -49 -69 -88.5t-104 -39.5q-44 0 -74.5 28t-30.5 71v8t1 7q1 14 6.5 33.5t20.5 64.5l41 120q6 16 8 24.5t2 15.5v1.5v0.5q0 11 -7 18t-18 7h-5t-4 -1q-6 0 -12.5 -2.5t-17.5 -7.5l-11 33l152 66q5 -13 8.5 -21t4.5 -16
q1 -5 1.5 -10.5t0.5 -11.5v-6.5v-6.5q-2 -18 -8 -41.5t-23 -72.5l-37 -113q-1 -5 -3 -10t-3 -9q-6 -14 -10 -28t-4 -29q0 -24 16 -40t40 -16q47 0 82 37.5t56 83.5q9 18 15.5 35.5t10.5 32.5l36 126q5 15 8.5 31.5t6.5 33.5q2 8 3.5 16.5t2.5 16.5l95 1v0zM489 543l-5 -17
l-121 41l-145 -41l-8 17l163 99l116 -99v0z" />
    <glyph glyph-name="udieresis" unicode="&#xfc;" horiz-adv-x="540" 
d="M512 460q-5 -11 -8.5 -19.5t-6.5 -16.5l-2 -6l-2 -6q-5 -14 -10.5 -32t-14.5 -48l-52 -182q-7 -26 -10 -38t-3 -22v-2.5v-2.5q0 -14 6.5 -22.5t17.5 -8.5h3.5t3.5 1q8 1 18 8.5t28 23.5l13 -30q-19 -23 -34 -36.5t-29 -20.5q-10 -4 -20 -6t-22 -2q-28 0 -45 19.5
t-17 50.5v10.5t1 9.5q1 8 2.5 16t5.5 20q-23 -49 -69 -88.5t-104 -39.5q-44 0 -74.5 28t-30.5 71v8t1 7q1 14 6.5 33.5t20.5 64.5l41 120q6 16 8 24.5t2 15.5v1.5v0.5q0 11 -7 18t-18 7h-5t-4 -1q-6 0 -12.5 -2.5t-17.5 -7.5l-11 33l152 66q5 -13 8.5 -21t4.5 -16
q1 -5 1.5 -10.5t0.5 -11.5v-6.5v-6.5q-2 -18 -8 -41.5t-23 -72.5l-37 -113q-1 -5 -3 -10t-3 -9q-6 -14 -10 -28t-4 -29q0 -24 16 -40t40 -16q47 0 82 37.5t56 83.5q9 18 15.5 35.5t10.5 32.5l36 126q5 15 8.5 31.5t6.5 33.5q2 8 3.5 16.5t2.5 16.5l95 1v0zM322 588
q0 -23 -14.5 -39.5t-37.5 -16.5q-19 0 -34.5 15t-15.5 34q0 23 15 38t37 15q19 0 34 -14t16 -33v1zM486 587q0 -22 -13 -38.5t-36 -16.5q-21 0 -36 15t-15 35q0 22 15 37t37 15q19 0 33 -14t15 -34v1z" />
    <glyph glyph-name="yacute" unicode="&#xfd;" 
 />
    <glyph glyph-name="glyph237" unicode="&#xfe;" horiz-adv-x="487" 
d="M143 672l174 48q-7 -17 -12 -28.5t-9 -22.5q-1 -4 -2.5 -8t-2.5 -8q-5 -15 -11 -34t-14 -49l-50 -172q27 37 57 54.5t65 17.5q53 0 85 -43t32 -114q0 -25 -5 -52.5t-15 -55.5q-29 -81 -90.5 -148t-142.5 -67q-27 0 -51 9t-41 27l-29 -102q-2 -7 -4.5 -18t-4.5 -24
q-1 -7 -2.5 -13.5t-2.5 -13.5l-2 -14l-2 -14h-95q2 1 2.5 2.5t0.5 3.5l6 16l6 16q6 20 12.5 42.5t14.5 50.5l171 596q1 3 2 7t3 9q3 11 5.5 22.5t2.5 22.5q0 13 -8.5 18.5t-28.5 5.5h-2.5h-2.5h-7.5t-10.5 -1l9 34v0zM173 249l-30 -104q-1 -6 -3 -11.5t-4 -11.5
q-1 -2 -1.5 -4.5t-1.5 -4.5q-2 -8 -4 -15.5t-2 -15.5q0 -25 21 -42.5t49 -17.5q58 0 95 53.5t56 117.5q10 35 15 68t5 58q0 41 -18.5 66.5t-48.5 25.5q-36 0 -62 -30.5t-43 -67.5q-7 -18 -13 -34.5t-10 -30.5v1z" />
    <glyph glyph-name="Egrave" unicode="&#xff;" horiz-adv-x="480" 
d="M492 460q-6 -12 -10.5 -21.5t-8.5 -18.5q-3 -7 -5.5 -14t-5.5 -15q-6 -15 -11.5 -33.5t-13.5 -44.5l-82 -287q-27 -92 -94.5 -150.5t-167.5 -58.5q-56 0 -87.5 18t-31.5 50q0 18 14.5 32t33.5 14q23 0 40 -17t21 -43q2 -14 6.5 -17t17.5 -3q72 0 108.5 52t57.5 114
q7 22 13 44t11 41q0 -1 -0.5 -1.5l-1.5 -1.5q-25 -41 -62.5 -75t-89.5 -34q-41 0 -69 29.5t-28 72.5q0 24 7.5 50t19.5 53q4 9 8 18.5t8 19.5q17 35 30.5 68t13.5 59q0 14 -7 21t-21 7q-6 0 -13 -1.5t-20 -6.5l-10 34l150 63q6 -14 9.5 -24t5.5 -20q0 -5 0.5 -10t0.5 -10
q0 -16 -7 -38.5t-28 -77.5l-50 -129q-8 -23 -13 -41t-5 -29q0 -22 14 -36.5t36 -14.5q43 0 76.5 37.5t55.5 82.5q11 22 19 43t13 38l32 115q5 13 9 27.5t7 29.5q2 10 3.5 19.5t2.5 19.5l99 1v0zM292 588q0 -23 -14.5 -39.5t-37.5 -16.5q-19 0 -34.5 15t-15.5 34q0 23 15 38
t37 15q19 0 34 -14t16 -33v1zM456 587q0 -22 -13 -38.5t-36 -16.5q-21 0 -36 15t-15 35q0 22 15 37t37 15q19 0 33 -14t15 -34v1z" />
    <glyph glyph-name="Abreve" unicode="&#x102;" 
 />
    <glyph glyph-name="abreve" unicode="&#x103;" 
 />
    <glyph glyph-name="Aogonek" unicode="&#x104;" 
 />
    <glyph glyph-name="aogonek" unicode="&#x105;" 
 />
    <glyph glyph-name="Cacute" unicode="&#x106;" 
 />
    <glyph glyph-name="cacute" unicode="&#x107;" 
 />
    <glyph glyph-name="Ccaron" unicode="&#x10c;" 
 />
    <glyph glyph-name="ccaron" unicode="&#x10d;" 
 />
    <glyph glyph-name="Dcaron" unicode="&#x10e;" 
 />
    <glyph glyph-name="dcaron" unicode="&#x10f;" 
 />
    <glyph glyph-name="Dcroat" unicode="&#x110;" 
 />
    <glyph glyph-name="dcroat" unicode="&#x111;" 
 />
    <glyph glyph-name="Eogonek" unicode="&#x118;" 
 />
    <glyph glyph-name="eogonek" unicode="&#x119;" 
 />
    <glyph glyph-name="Ecaron" unicode="&#x11a;" 
 />
    <glyph glyph-name="ecaron" unicode="&#x11b;" 
 />
    <glyph glyph-name="Gbreve" unicode="&#x11e;" 
 />
    <glyph glyph-name="gbreve" unicode="&#x11f;" 
 />
    <glyph glyph-name="Idotaccent" unicode="&#x130;" 
 />
    <glyph glyph-name="thorn" unicode="&#x131;" horiz-adv-x="289" 
d="M243 471q1 -12 2 -18.5t1 -12.5v-1.5v-1.5q0 -23 -6.5 -45.5t-14.5 -44.5q-1 -5 -2.5 -9.5t-3.5 -8.5l-66 -188q-12 -37 -15.5 -50t-3.5 -21q0 -12 5.5 -19.5t13.5 -7.5q11 0 25.5 8.5t34.5 27.5l11 -33q-9 -11 -19 -19t-20 -15q-18 -12 -35 -18.5t-32 -6.5
q-28 0 -47 19.5t-19 50.5v2.5v2.5q1 13 5.5 30.5t16.5 53.5l59 171q1 2 2 4.5t2 5.5q1 4 2.5 7.5t2.5 7.5q1 3 1.5 6.5t0.5 6.5q0 11 -8.5 18.5t-20.5 7.5h-5h-5q-5 -1 -11 -2.5t-17 -4.5l11 41l155 56v0z" />
    <glyph glyph-name="Lacute" unicode="&#x139;" 
 />
    <glyph glyph-name="lacute" unicode="&#x13a;" 
 />
    <glyph glyph-name="Lcaron" unicode="&#x13d;" 
 />
    <glyph glyph-name="lcaron" unicode="&#x13e;" 
 />
    <glyph glyph-name="Ldot" unicode="&#x13f;" 
 />
    <glyph glyph-name="ldot" unicode="&#x140;" 
 />
    <glyph glyph-name="glyph225" unicode="&#x141;" horiz-adv-x="603" 
d="M410 667l-8 -30l-68 -4l-61 -213l119 47l-12 -48l-121 -48l-97 -338q22 -2 35 -2.5t24 -0.5h6.5h7.5q106 0 174.5 43.5t128.5 125.5q1 1 2 2.5t2 2.5l29 -11l-101 -208q-9 4 -16 6.5t-14 3.5q-13 4 -29 4.5t-42 0.5h-22.5h-22.5h-23.5h-22.5h-270l9 30l52 3l85 296
l-70 -27l14 48l70 27l73 256l-62 4l8 30h223v0z" />
    <glyph glyph-name="glyph226" unicode="&#x142;" horiz-adv-x="291" 
d="M220 97l14 -32q-16 -26 -36.5 -44t-41.5 -26q-10 -4 -19.5 -6.5t-18.5 -2.5q-31 0 -49 19.5t-18 53.5q0 24 6 47.5t13 46.5q2 8 4.5 16t4.5 16l54 187l-63 -24l14 47l63 25l43 150q3 11 5 20t2 15q0 13 -7.5 20.5t-20.5 7.5h-4h-4q-5 -1 -11.5 -2t-17.5 -4l10 37l175 56
q-14 -41 -26.5 -82.5t-24.5 -82.5l-29 -99l62 25l-14 -48l-61 -23l-65 -224q-14 -51 -20 -76.5t-6 -34.5q0 -11 6.5 -18t16.5 -7h3.5t3.5 1q11 1 24 11.5t33 33.5v1z" />
    <glyph glyph-name="Nacute" unicode="&#x143;" 
 />
    <glyph glyph-name="nacute" unicode="&#x144;" 
 />
    <glyph glyph-name="Ncaron" unicode="&#x147;" 
 />
    <glyph glyph-name="ncaron" unicode="&#x148;" 
 />
    <glyph glyph-name="Ohungarumlaut" unicode="&#x150;" 
 />
    <glyph glyph-name="ohungarumlaut" unicode="&#x151;" 
 />
    <glyph glyph-name="fi" unicode="&#x152;" horiz-adv-x="1033" 
d="M1031 688l11 -221l-31 -5q-10 59 -26 94.5t-42 54.5q-1 1 -2 1.5t-2 1.5q-20 15 -44.5 19.5t-73.5 4.5q-29 0 -50 -1t-41 -3l-75 -262h33q65 -1 98.5 15.5t58.5 78.5l32 1l-70 -246h-33q3 14 4.5 22.5t1.5 15.5v2v2q0 38 -21.5 55.5t-65.5 17.5l-48 1l-86 -301
q13 -2 22.5 -3t18.5 -1h14h15q115 0 191 40t143 133l28 -12l-105 -207q-8 3 -14 5.5t-12 4.5q-12 3 -27.5 3.5t-47.5 0.5h-330l13 46q-8 -8 -15.5 -13.5t-15.5 -10.5q-30 -20 -62.5 -28.5t-72.5 -8.5q-106 0 -170.5 75t-64.5 198q0 163 117 293t262 130q45 0 83.5 -13.5
t76.5 -42.5q6 -4 11.5 -9t11.5 -10l17 61h265q22 -1 42 0t39 6q10 2 19.5 5.5t19.5 8.5v1zM522 234l55 193q9 31 13 49.5t4 33.5q0 57 -44 98t-104 41q-69 0 -122 -43t-94 -135q-13 -27 -23.5 -56.5t-19.5 -59.5q-12 -43 -18.5 -85t-6.5 -76q0 -89 36.5 -134t109.5 -45
q38 0 69.5 13t60.5 40q6 6 12 11.5t10 11.5q12 12 20 26t16 33q6 15 12 35.5t14 47.5v1z" />
    <glyph glyph-name="fl" unicode="&#x153;" horiz-adv-x="769" 
d="M444 369q44 42 84.5 66.5t80.5 31.5q8 1 17 2t18 1q47 0 75 -22.5t28 -60.5q0 -55 -50 -104t-153 -93l-107 -45q7 -45 35 -71.5t68 -26.5q8 0 16.5 1t16.5 3q26 6 54.5 23.5t65.5 49.5l14 -30q-23 -25 -48.5 -44t-51.5 -33q-27 -13 -52.5 -20t-48.5 -7q-52 0 -85.5 20.5
t-52.5 64.5l-19 -19t-19 -17q-31 -25 -63 -37t-68 -12q-72 0 -118 49.5t-46 126.5q0 119 82.5 213t186.5 94q51 0 85 -25.5t55 -79.5v1zM381 341q0 40 -20 69t-64 29q-43 0 -76 -32.5t-59 -102.5q-3 -7 -5 -14.5t-5 -14.5q-15 -46 -24 -89.5t-9 -72.5q0 -43 22 -67.5
t60 -24.5q30 0 56.5 16.5t43.5 44.5t32 64.5t26 74.5q9 32 15 62.5t7 56.5v1zM432 176l97 44q47 20 81.5 51t49.5 64q4 11 6.5 21t2.5 20q0 26 -13.5 41t-37.5 15q-10 0 -20.5 -2.5t-21.5 -6.5q-28 -13 -55 -40t-49 -66q-11 -18 -18 -34.5t-12 -31.5q-5 -18 -7.5 -36.5
t-2.5 -39.5v1z" />
    <glyph glyph-name="Racute" unicode="&#x154;" 
 />
    <glyph glyph-name="racute" unicode="&#x155;" 
 />
    <glyph glyph-name="Rcaron" unicode="&#x158;" 
 />
    <glyph glyph-name="rcaron" unicode="&#x159;" 
 />
    <glyph glyph-name="Sacute" unicode="&#x15a;" 
 />
    <glyph glyph-name="sacute" unicode="&#x15b;" 
 />
    <glyph glyph-name="Scedilla" unicode="&#x15e;" 
 />
    <glyph glyph-name="scedilla" unicode="&#x15f;" 
 />
    <glyph glyph-name="glyph227" unicode="&#x160;" horiz-adv-x="557" 
d="M555 674l9 -197l-32 -3q-1 1 -1.5 3t-1.5 4q-19 64 -62 116.5t-116 52.5q-52 0 -89.5 -32t-37.5 -79q0 -59 39 -91.5t88 -60.5q3 -2 6.5 -3.5t6.5 -3.5q53 -30 96.5 -68.5t43.5 -110.5q0 -91 -69 -154t-169 -63q-30 0 -55.5 6t-45.5 12q-21 6 -36 12t-25 6q-8 0 -20.5 -5
t-41.5 -21l-9 215h31q23 -83 68 -138t140 -55q59 0 102 40.5t43 95.5q0 61 -39.5 94t-88.5 60q-2 1 -4.5 2.5t-4.5 2.5q-51 29 -94 66t-43 107q0 83 60.5 140t147.5 57q24 0 45 -5t38 -11q17 -7 31.5 -12t24.5 -5h2.5h2.5q11 1 23.5 6.5t36.5 18.5v1zM279 831l5 18l121 -42
l145 42l8 -18l-163 -98l-116 98v0z" />
    <glyph glyph-name="glyph228" unicode="&#x161;" horiz-adv-x="379" 
d="M102 32q6 -3 10.5 -4.5t8.5 -2.5q4 0 8.5 -0.5t10.5 -0.5q49 0 77 22t28 60q0 30 -19 50t-44 38q-4 3 -8.5 6t-8.5 6q-31 22 -56 49t-25 73q0 64 50.5 102.5t133.5 38.5q48 0 77 -16.5t29 -44.5q0 -19 -13.5 -33.5t-33.5 -14.5q-27 0 -36.5 11.5t-14.5 25.5q-1 1 -1.5 2
t-0.5 3q-5 12 -12 22t-26 10q-37 0 -59.5 -20t-22.5 -52q0 -27 18 -46t43 -36q5 -4 11 -8l12 -8q32 -21 58 -49.5t26 -75.5q0 -66 -51 -107.5t-132 -41.5q-70 0 -111 21t-41 58q0 20 14.5 34.5t33.5 14.5q31 0 48 -22t19 -65v1zM151 624l5 18l121 -42l145 42l8 -18l-163 -98
l-116 98v0z" />
    <glyph glyph-name="uni0162" unicode="&#x162;" 
 />
    <glyph glyph-name="uni0163" unicode="&#x163;" 
 />
    <glyph glyph-name="Tcaron" unicode="&#x164;" 
 />
    <glyph glyph-name="tcaron" unicode="&#x165;" 
 />
    <glyph glyph-name="Uring" unicode="&#x16e;" 
 />
    <glyph glyph-name="uring" unicode="&#x16f;" 
 />
    <glyph glyph-name="Uhungarumlaut" unicode="&#x170;" 
 />
    <glyph glyph-name="uhungarumlaut" unicode="&#x171;" 
 />
    <glyph glyph-name="Iacute" unicode="&#x178;" horiz-adv-x="564" 
d="M682 667l-8 -30q-2 -1 -3.5 -1.5t-3.5 -1.5q-18 -4 -31 -9.5t-25 -13.5q-15 -11 -32 -30t-43 -52l-183 -231l-76 -265l63 -3l-9 -30h-208l9 30l52 3l73 255l-106 346l-48 3l9 30h196l-8 -30l-55 -4l90 -301l171 213q17 20 23.5 31t6.5 19v1.5v0.5q0 19 -16 28t-51 11
l9 31h204v0zM418 794q0 -23 -14.5 -39.5t-37.5 -16.5q-19 0 -34.5 15t-15.5 34q0 23 15 38t37 15q19 0 34 -14t16 -33v1zM582 793q0 -22 -13 -38.5t-36 -16.5q-21 0 -36 15t-15 35q0 22 15 37t37 15q19 0 33 -14t15 -34v1z" />
    <glyph glyph-name="Zacute" unicode="&#x179;" 
 />
    <glyph glyph-name="zacute" unicode="&#x17a;" 
 />
    <glyph glyph-name="Zdotaccent" unicode="&#x17b;" 
 />
    <glyph glyph-name="zdotaccent" unicode="&#x17c;" 
 />
    <glyph glyph-name="Zcaron" unicode="&#x17d;" 
 />
    <glyph glyph-name="zcaron" unicode="&#x17e;" 
 />
    <glyph glyph-name="quotedblright" unicode="&#x192;" horiz-adv-x="507" 
d="M485 465l-15 -45h-100l-114 -329q-34 -99 -92 -171t-175 -72q-48 0 -76.5 18t-28.5 48q0 21 14 35t35 14q27 0 39 -12t19 -27q1 -2 2 -4.5t2 -4.5q5 -12 11.5 -20.5t20.5 -8.5q45 0 74.5 39t48.5 85q11 26 19 50.5t14 42.5l109 317h-92l14 45h93q8 17 17 37.5t19 41.5
q29 58 72 106.5t110 48.5q32 0 58 -19t26 -43q0 -18 -12 -29t-32 -11q-19 0 -34 10t-23 28q-3 8 -5.5 12.5t-4.5 6.5t-3.5 2.5t-3.5 0.5q-7 0 -15 -6t-16 -16q-12 -17 -23.5 -41t-22.5 -50q-9 -22 -16.5 -43t-12.5 -37l100 1v0z" />
    <glyph glyph-name="uni02BA" unicode="&#x2ba;" horiz-adv-x="500" 
d="M206 531l75 87q2 2 4 4.5t5 5.5q9 12 20 21.5t26 9.5q14 0 24 -11t10 -26q0 -17 -12 -27t-27 -17q-5 -3 -10.5 -5.5t-10.5 -4.5l-95 -48l-9 11v0zM355 531l75 87q2 2 4 4.5t5 5.5q9 12 20 21.5t26 9.5q14 0 24 -11t10 -26q0 -17 -12 -27t-27 -17q-5 -3 -10.5 -5.5
t-10.5 -4.5l-95 -48l-9 11v0z" />
    <glyph glyph-name="arrowright" unicode="&#x2c6;" horiz-adv-x="500" 
d="M481 619q-19 -40 -41.5 -58t-50.5 -18q-15 0 -30 3.5t-30 8.5q-15 4 -30 7.5t-30 3.5q-9 0 -16.5 -3.5t-14.5 -11.5q-3 -3 -6.5 -8t-7.5 -11l-21 11q1 1 2 3t2 5q19 37 39 52.5t51 15.5q15 0 29.5 -3.5t28.5 -7.5q2 -1 4 -1.5t4 -0.5q12 -4 24 -6.5t25 -2.5q7 0 12.5 1.5
t11.5 3.5q6 4 12.5 10t14.5 15l18 -8v0z" />
    <glyph glyph-name="glyph224" unicode="&#x2c7;" horiz-adv-x="500" 
d="M218 625l5 18l121 -42l145 42l8 -18l-163 -98l-116 98v0z" />
    <glyph glyph-name="house" unicode="&#x2c9;" horiz-adv-x="500" 
d="M484 606l-15 -53h-255l15 53h255v0z" />
    <glyph glyph-name="endash" unicode="&#x2d8;" horiz-adv-x="500" 
d="M465 646q-14 -56 -44.5 -85t-74.5 -29q-49 0 -75.5 27.5t-31.5 85.5l24 1q9 -28 30.5 -41t55.5 -13q32 0 54.5 12.5t39.5 40.5l22 1v0z" />
    <glyph glyph-name="sfthyphen" unicode="&#x2d9;" horiz-adv-x="500" 
d="M408 590q0 -26 -15.5 -42t-39.5 -16q-20 0 -36 15.5t-16 35.5q0 25 15.5 41t39.5 16q20 0 36 -15.5t16 -35.5v1z" />
    <glyph glyph-name="filledbox" unicode="&#x2da;" horiz-adv-x="500" 
d="M441 610q0 -37 -24.5 -60.5t-63.5 -23.5q-34 0 -57 25.5t-23 62.5q0 33 25 57t60 24t59 -25t24 -61v1zM401 615q-1 16 -14 27.5t-30 11.5q-18 0 -30.5 -12.5t-12.5 -32.5q0 -17 13 -30t29 -13q20 0 32.5 14.5t12.5 33.5v1z" />
    <glyph glyph-name="glyph223" unicode="&#x2db;" horiz-adv-x="500" 
d="M381 0q-8 -7 -15.5 -14.5t-13.5 -14.5q-12 -15 -18 -30t-6 -28q0 -17 12 -27.5t33 -10.5q12 0 24 4t25 12l6 -18q-7 -5 -14.5 -9.5t-14.5 -7.5q-12 -6 -25.5 -8.5t-28.5 -2.5q-33 0 -52.5 14.5t-19.5 39.5q0 11 4 23.5t11 24.5q8 14 20 27.5t27 25.5h46v0z" />
    <glyph glyph-name="onehalf" unicode="&#x2dc;" horiz-adv-x="500" 
d="M476 544l-5 -17l-121 41l-145 -41l-8 17l163 99l116 -99v0z" />
    <glyph glyph-name="Gamma" unicode="&#x393;" 
 />
    <glyph glyph-name="Theta" unicode="&#x398;" 
 />
    <glyph glyph-name="exclamdown" unicode="&#x3a3;" 
 />
    <glyph glyph-name="Phi" unicode="&#x3a6;" 
 />
    <glyph glyph-name="Atilde" unicode="&#x3a9;" 
 />
    <glyph glyph-name="alpha" unicode="&#x3b1;" 
 />
    <glyph glyph-name="delta" unicode="&#x3b4;" 
 />
    <glyph glyph-name="epsilon" unicode="&#x3b5;" 
 />
    <glyph glyph-name="guillemotleft" unicode="&#x3c0;" 
 />
    <glyph glyph-name="sigma" unicode="&#x3c3;" 
 />
    <glyph glyph-name="tau" unicode="&#x3c4;" 
 />
    <glyph glyph-name="phi" unicode="&#x3c6;" 
 />
    <glyph glyph-name="glyph259" unicode="&#x2013;" horiz-adv-x="507" 
d="M475 265l-20 -71h-426l20 71h426v0z" />
    <glyph glyph-name="periodcentered" unicode="&#x2014;" horiz-adv-x="626" 
d="M615 265l-20 -71h-586l20 71h586v0z" />
    <glyph glyph-name="underscoredbl" unicode="&#x2017;" 
 />
    <glyph glyph-name="Acircumflex" unicode="&#x2018;" horiz-adv-x="234" 
d="M276 687l15 -21q-47 -39 -69 -65.5t-22 -44.5v-0.5v-1.5q1 -4 8.5 -9.5t16.5 -12.5t16.5 -17t7.5 -25q0 -25 -15 -41t-39 -16q-25 0 -42 18.5t-17 46.5q0 46 31.5 87t68.5 72q10 8 20.5 15.5t19.5 13.5v1z" />
    <glyph glyph-name="Ecircumflex" unicode="&#x2019;" horiz-adv-x="234" 
d="M145 434l-15 19q47 39 68.5 65t21.5 44q0 3 -1.5 6t-5.5 4q-16 11 -28.5 23t-12.5 34q0 26 15 41.5t39 15.5q26 0 42.5 -18.5t16.5 -46.5q0 -46 -32 -88.5t-70 -73.5q-10 -7 -19.5 -13.5t-18.5 -12.5v1z" />
    <glyph glyph-name="Ugrave" unicode="&#x201a;" 
 />
    <glyph glyph-name="quotedblbase" unicode="&#x201c;" horiz-adv-x="401" 
d="M277 687l15 -21q-47 -39 -69 -65.5t-22 -44.5v-0.5v-1.5q1 -4 8.5 -9.5t16.5 -12.5t16.5 -17t7.5 -25q0 -25 -15 -41t-39 -16q-25 0 -42 18.5t-17 46.5q0 46 31.5 87t68.5 72q10 8 20.5 15.5t19.5 13.5v1zM444 687l14 -21q-46 -39 -68 -65.5t-22 -44.5q0 -1 0.5 -2
l1.5 -3q2 -4 8.5 -8t13.5 -9q9 -8 16.5 -18t7.5 -26q0 -25 -15 -41t-39 -16q-25 0 -41.5 18.5t-16.5 46.5q0 46 31.5 87t68.5 72q10 8 20.5 15.5t19.5 13.5v1z" />
    <glyph glyph-name="perthousand" unicode="&#x201d;" horiz-adv-x="401" 
d="M145 434l-15 19q47 39 68.5 65t21.5 44q0 3 -1.5 6t-5.5 4q-16 11 -28.5 23t-12.5 34q0 26 15 41.5t39 15.5q26 0 42.5 -18.5t16.5 -46.5q0 -46 -32 -88.5t-70 -73.5q-10 -7 -19.5 -13.5t-18.5 -12.5v1zM311 434l-14 19q47 39 68.5 65t21.5 44q0 3 -2 6t-5 4
q-16 10 -28.5 22.5t-12.5 34.5q0 26 15 41.5t39 15.5q26 0 42.5 -18.5t16.5 -46.5q0 -45 -32 -87.5t-70 -73.5q-10 -8 -20 -14.5t-19 -12.5v1z" />
    <glyph glyph-name="dotlessi" unicode="&#x201e;" horiz-adv-x="401" 
d="M-20 -142l-15 19q47 40 68.5 66t21.5 44q0 1 -0.5 2t-0.5 2q-3 5 -9.5 9t-13.5 10q-9 8 -16.5 18t-7.5 25q0 26 15 41.5t39 15.5q26 0 42.5 -18.5t16.5 -46.5q0 -45 -31.5 -86.5t-68.5 -71.5q-10 -9 -20 -16t-19 -13h-1zM146 -142l-14 19q47 40 68.5 66t21.5 44
q0 3 -2 5.5t-5 4.5q-16 9 -28.5 21.5t-12.5 34.5q0 26 15 41.5t39 15.5q26 0 42.5 -18.5t16.5 -46.5q0 -45 -32 -87t-70 -73q-10 -8 -20 -14.5t-19 -12.5v0z" />
    <glyph glyph-name="dagger" unicode="&#x2020;" horiz-adv-x="507" 
d="M557 527l-27 -96l-193 30l-144 -634h-106l212 634l-209 -30l29 100l190 -36l30 212h95l-88 -212l211 32v0z" />
    <glyph glyph-name="Uacute" unicode="&#x2021;" horiz-adv-x="507" 
d="M557 527l-27 -96l-193 30l-24 -133l-59 -159l209 30l-27 -96l-192 32l-62 -308h-95l119 308l-211 -36l29 100l192 -30l32 159l51 133l-209 -30l29 100l190 -36l30 212h95l-87 -212l210 32v0z" />
    <glyph glyph-name="glyph262" unicode="&#x2022;" horiz-adv-x="600" 
d="M198 286q0 39 28 67t68 28q41 0 69.5 -28t28.5 -68t-28.5 -68t-69.5 -28q-40 0 -68 28t-28 68v1z" />
    <glyph glyph-name="fraction" unicode="&#x2026;" horiz-adv-x="700" 
d="M123 49q0 -26 -18 -42.5t-44 -16.5q-22 0 -38.5 16.5t-16.5 38.5q0 29 16.5 45.5t43.5 16.5q23 0 40 -17.5t17 -41.5v1zM356 49q0 -26 -17.5 -42.5t-44.5 -16.5q-22 0 -38.5 16.5t-16.5 38.5q0 29 16.5 45.5t43.5 16.5q23 0 40 -17.5t17 -41.5v1zM589 49
q0 -26 -17.5 -42.5t-43.5 -16.5q-22 0 -38.5 16.5t-16.5 38.5q0 29 16 45.5t44 16.5q23 0 39.5 -17.5t16.5 -41.5v1z" />
    <glyph glyph-name="circumflex" unicode="&#x2030;" horiz-adv-x="1020" 
d="M668 196q-8 -85 -58.5 -145.5t-110.5 -60.5q-44 0 -72.5 35.5t-28.5 90.5q0 18 3.5 38t10.5 41q18 56 58.5 103t97.5 47q44 0 72.5 -37t28.5 -95v-8.5t-1 -9.5v1zM608 271q0 21 -10.5 33.5t-29.5 12.5q-20 0 -34 -12t-27 -41l-4 -10l-4 -10q-19 -51 -30 -96.5t-11 -75.5
q0 -27 11 -42t30 -15q33 0 55.5 42t35.5 93q9 36 13.5 69t4.5 51v1zM968 196q-8 -85 -58.5 -145.5t-110.5 -60.5q-44 0 -72.5 35.5t-28.5 90.5q0 18 3.5 38t10.5 41q18 56 58.5 103t97.5 47q44 0 72.5 -37t28.5 -95v-8.5t-1 -9.5v1zM908 271q0 21 -10.5 33.5t-29.5 12.5
q-20 0 -34 -12t-27 -41l-4 -10l-4 -10q-19 -51 -30 -96.5t-11 -75.5q0 -27 11 -42t30 -15q33 0 55 42t35 92q10 37 14.5 70.5t4.5 50.5v1zM656 667l-491 -667h-46l491 667h46v0zM379 537q-6 -81 -55.5 -144.5t-108.5 -65.5h-1.5h-1.5q-46 0 -74 33.5t-28 90.5q0 86 53 155.5
t118 69.5q45 0 67 -33t28 -72q2 -9 2.5 -18t0.5 -17v1zM315 607q0 19 -10 31t-27 12q-29 0 -51.5 -41.5t-36.5 -92.5q-9 -32 -14 -62.5t-5 -49.5q0 -25 10.5 -38.5t29.5 -13.5q30 0 51 41t34 90q10 39 14.5 73.5t4.5 49.5v1z" />
    <glyph glyph-name="Igrave" unicode="&#x2039;" horiz-adv-x="204" 
d="M196 392l-100 -158l14 -154h-26l-53 157l132 155h33v0z" />
    <glyph glyph-name="Oacute" unicode="&#x203a;" horiz-adv-x="204" 
d="M10 80l100 158l-14 154h26l53 -157l-132 -155h-33v0z" />
    <glyph glyph-name="exclamdbl" unicode="&#x203c;" 
 />
    <glyph glyph-name="uni207F" unicode="&#x207f;" 
 />
    <glyph glyph-name="franc" unicode="&#x20a3;" 
 />
    <glyph glyph-name="peseta" unicode="&#x20a7;" 
 />
    <glyph glyph-name="trademark" unicode="&#x2122;" horiz-adv-x="855" 
d="M446 674l-5 -126l-23 -2q-6 51 -22 72t-53 23l-100 -329l41 -2l-7 -23h-141l7 23l38 2l100 330q-27 -3 -49 -13t-43 -32q-10 -10 -20 -23t-21 -29l-23 8l56 121q6 -3 9.5 -4t6.5 -2q5 -2 13 -2h31l139 1q14 -1 23 -0.5t18 1.5q5 1 11 2t14 3v1zM919 667l-7 -23l-34 -2
l-90 -330l36 -2l-7 -23h-129l7 23l34 2l81 295l-180 -248h-21l-26 246l-79 -234q-4 -14 -6 -22t-2 -13q0 -13 11 -19t36 -8l-7 -22h-131l7 23q22 2 33 8t20 25q3 7 6 16t7 20l89 263l-43 2l7 23h101l25 -229l168 229h94v0z" />
    <glyph glyph-name="arrowleft" unicode="&#x2190;" 
 />
    <glyph glyph-name="arrowup" unicode="&#x2191;" 
 />
    <glyph glyph-name="glyph257" unicode="&#x2192;" horiz-adv-x="500" 
 />
    <glyph glyph-name="arrowdown" unicode="&#x2193;" 
 />
    <glyph glyph-name="arrowboth" unicode="&#x2194;" 
 />
    <glyph glyph-name="arrowupdn" unicode="&#x2195;" 
 />
    <glyph glyph-name="arrowupdnbse" unicode="&#x21a8;" 
 />
    <glyph glyph-name="questiondown" unicode="&#x2202;" 
 />
    <glyph glyph-name="quoteright" unicode="&#x2206;" 
 />
    <glyph glyph-name="florin" unicode="&#x220f;" 
 />
    <glyph glyph-name="minus" unicode="&#x2212;" 
 />
    <glyph glyph-name="Icircumflex" unicode="&#x2215;" horiz-adv-x="139" 
d="M367 667l-491 -667h-46l491 667h46v0z" />
    <glyph glyph-name="Ucircumflex" unicode="&#x2219;" horiz-adv-x="233" 
d="M175 232q0 -26 -18 -43t-44 -17q-22 0 -38.5 17t-16.5 42q0 26 17 42.5t43 16.5q23 0 40 -17.5t17 -41.5v1z" />
    <glyph glyph-name="quotedblleft" unicode="&#x221a;" 
 />
    <glyph glyph-name="yen" unicode="&#x221e;" 
 />
    <glyph glyph-name="orthogonal" unicode="&#x221f;" 
 />
    <glyph glyph-name="intersection" unicode="&#x2229;" 
 />
    <glyph glyph-name="guillemotright" unicode="&#x222b;" 
 />
    <glyph glyph-name="quoteleft" unicode="&#x2248;" 
 />
    <glyph glyph-name="AE" unicode="&#x2260;" 
 />
    <glyph glyph-name="equivalence" unicode="&#x2261;" 
 />
    <glyph glyph-name="ordfeminine" unicode="&#x2264;" 
 />
    <glyph glyph-name="ordmasculine" unicode="&#x2265;" 
 />
    <glyph glyph-name="glyph258" unicode="&#x2302;" 
 />
    <glyph glyph-name="revlogicalnot" unicode="&#x2310;" 
 />
    <glyph glyph-name="integraltp" unicode="&#x2320;" 
 />
    <glyph glyph-name="integralbt" unicode="&#x2321;" 
 />
    <glyph glyph-name="SF100000" unicode="&#x2500;" 
 />
    <glyph glyph-name="SF110000" unicode="&#x2502;" 
 />
    <glyph glyph-name="SF010000" unicode="&#x250c;" 
 />
    <glyph glyph-name="SF030000" unicode="&#x2510;" 
 />
    <glyph glyph-name="SF020000" unicode="&#x2514;" 
 />
    <glyph glyph-name="SF040000" unicode="&#x2518;" 
 />
    <glyph glyph-name="SF080000" unicode="&#x251c;" 
 />
    <glyph glyph-name="SF090000" unicode="&#x2524;" 
 />
    <glyph glyph-name="SF060000" unicode="&#x252c;" 
 />
    <glyph glyph-name="SF070000" unicode="&#x2534;" 
 />
    <glyph glyph-name="SF050000" unicode="&#x253c;" 
 />
    <glyph glyph-name="SF430000" unicode="&#x2550;" 
 />
    <glyph glyph-name="SF240000" unicode="&#x2551;" 
 />
    <glyph glyph-name="SF510000" unicode="&#x2552;" 
 />
    <glyph glyph-name="SF520000" unicode="&#x2553;" 
 />
    <glyph glyph-name="SF390000" unicode="&#x2554;" 
 />
    <glyph glyph-name="SF220000" unicode="&#x2555;" 
 />
    <glyph glyph-name="SF210000" unicode="&#x2556;" 
 />
    <glyph glyph-name="SF250000" unicode="&#x2557;" 
 />
    <glyph glyph-name="SF500000" unicode="&#x2558;" 
 />
    <glyph glyph-name="SF490000" unicode="&#x2559;" 
 />
    <glyph glyph-name="SF380000" unicode="&#x255a;" 
 />
    <glyph glyph-name="SF280000" unicode="&#x255b;" 
 />
    <glyph glyph-name="SF270000" unicode="&#x255c;" 
 />
    <glyph glyph-name="SF260000" unicode="&#x255d;" 
 />
    <glyph glyph-name="SF360000" unicode="&#x255e;" 
 />
    <glyph glyph-name="SF370000" unicode="&#x255f;" 
 />
    <glyph glyph-name="SF420000" unicode="&#x2560;" 
 />
    <glyph glyph-name="SF190000" unicode="&#x2561;" 
 />
    <glyph glyph-name="SF200000" unicode="&#x2562;" 
 />
    <glyph glyph-name="SF230000" unicode="&#x2563;" 
 />
    <glyph glyph-name="SF470000" unicode="&#x2564;" 
 />
    <glyph glyph-name="SF480000" unicode="&#x2565;" 
 />
    <glyph glyph-name="SF410000" unicode="&#x2566;" 
 />
    <glyph glyph-name="SF450000" unicode="&#x2567;" 
 />
    <glyph glyph-name="SF460000" unicode="&#x2568;" 
 />
    <glyph glyph-name="SF400000" unicode="&#x2569;" 
 />
    <glyph glyph-name="SF540000" unicode="&#x256a;" 
 />
    <glyph glyph-name="SF530000" unicode="&#x256b;" 
 />
    <glyph glyph-name="SF440000" unicode="&#x256c;" 
 />
    <glyph glyph-name="upblock" unicode="&#x2580;" 
 />
    <glyph glyph-name="dnblock" unicode="&#x2584;" 
 />
    <glyph glyph-name="block" unicode="&#x2588;" 
 />
    <glyph glyph-name="lfblock" unicode="&#x258c;" 
 />
    <glyph glyph-name="rtblock" unicode="&#x2590;" 
 />
    <glyph glyph-name="ltshade" unicode="&#x2591;" 
 />
    <glyph glyph-name="shade" unicode="&#x2592;" 
 />
    <glyph glyph-name="dkshade" unicode="&#x2593;" 
 />
    <glyph glyph-name="glyph261" unicode="&#x25a0;" horiz-adv-x="500" 
 />
    <glyph glyph-name="filledrect" unicode="&#x25ac;" 
 />
    <glyph glyph-name="triagup" unicode="&#x25b2;" 
 />
    <glyph glyph-name="triagrt" unicode="&#x25ba;" 
 />
    <glyph glyph-name="triagdn" unicode="&#x25bc;" 
 />
    <glyph glyph-name="triaglf" unicode="&#x25c4;" 
 />
    <glyph glyph-name="Edieresis" unicode="&#x25ca;" 
 />
    <glyph glyph-name="circle" unicode="&#x25cb;" 
 />
    <glyph glyph-name="invbullet" unicode="&#x25d8;" 
 />
    <glyph glyph-name="invcircle" unicode="&#x25d9;" 
 />
    <glyph glyph-name="smileface" unicode="&#x263a;" 
 />
    <glyph glyph-name="invsmileface" unicode="&#x263b;" 
 />
    <glyph glyph-name="sun" unicode="&#x263c;" 
 />
    <glyph glyph-name="female" unicode="&#x2640;" 
 />
    <glyph glyph-name="male" unicode="&#x2642;" 
 />
    <glyph glyph-name="spade" unicode="&#x2660;" 
 />
    <glyph glyph-name="club" unicode="&#x2663;" 
 />
    <glyph glyph-name="heart" unicode="&#x2665;" 
 />
    <glyph glyph-name="diamond" unicode="&#x2666;" 
 />
    <glyph glyph-name="musicalnote" unicode="&#x266a;" 
 />
    <glyph glyph-name="musicalnotedbl" unicode="&#x266b;" 
 />
    <glyph glyph-name="Scaron" unicode="&#xf000;" 
 />
    <glyph glyph-name="Ocircumflex" unicode="&#xf001;" horiz-adv-x="522" 
d="M225 416l-84 -292q-9 -33 -13.5 -64t-5.5 -60h-102q4 9 7.5 17.5t6.5 16.5q1 4 2.5 8t2.5 8q6 15 11.5 34t13.5 46l81 286h-59l13 44h59q6 18 12.5 38t14.5 41q26 67 72 123t123 56q49 0 80.5 -26.5t31.5 -67.5q0 -22 -13.5 -36.5t-33.5 -14.5q-24 0 -32 15.5t-13 34.5
t-13 34.5t-32 15.5q-41 0 -64 -38t-36 -83q-7 -26 -12 -51t-9 -42l112 1l129 11q2 -12 3 -18.5t1 -12.5v-1.5v-1.5q0 -24 -6.5 -46.5t-14.5 -43.5q-1 -5 -2.5 -9.5t-3.5 -8.5l-66 -188q-12 -37 -15.5 -50t-3.5 -21q0 -12 5.5 -19.5t13.5 -7.5q11 0 25.5 8.5t33.5 27.5
l12 -33q-9 -11 -19 -19t-20 -15q-18 -12 -35 -18.5t-32 -6.5q-28 0 -47 19.5t-19 50.5v3.5v3.5q1 13 5.5 29.5t16.5 52.5l70 205q1 2 2 5.5t2 6.5v0.5v0.5l4 12t2 13q0 15 -10 20.5t-39 5.5l-113 1v0z" />
    <glyph glyph-name="Ograve" unicode="&#xf002;" horiz-adv-x="521" 
d="M312 460l-12 -44h-75l-84 -293q-9 -33 -13.5 -63.5t-5.5 -59.5h-102q4 8 7 16l6 16q2 4 3.5 8.5t2.5 8.5q6 15 11.5 34t13.5 46l81 287h-59l13 44h59q6 20 14 43.5t19 48.5q25 61 68 112t109 51q13 0 25 -2.5t24 -6.5h1.5t1.5 -1q11 -3 22.5 -5.5t23.5 -3.5l95 24
q-14 -41 -26.5 -82.5t-24.5 -82.5l-107 -369q-13 -51 -19.5 -76t-6.5 -35q0 -11 6.5 -18t16.5 -7q3 0 6 0.5t6 1.5q11 3 22.5 13t29.5 31l14 -31q-16 -26 -36 -44t-41 -26q-10 -4 -20 -6.5t-19 -2.5q-31 0 -49 19.5t-18 53.5q0 11 1.5 21.5t3.5 20.5q2 13 6 26l8 26
q2 8 4.5 16t4.5 16l98 339q6 20 8.5 33t3.5 24v4v4q0 38 -20.5 60t-54.5 22q-25 0 -42 -9.5t-29 -31.5q-16 -31 -26 -64.5t-18 -67.5q-1 -3 -1.5 -6.5t-1.5 -6.5q-1 -6 -2.5 -12.5t-3.5 -13.5l78 1v0z" />
    <glyph glyph-name="degree" horiz-adv-x="376" 
d="M274 667q56 -1 95 -40t39 -95q0 -55 -39 -94t-95 -39q-55 0 -94 39t-39 94q0 56 39 95t94 39v1zM274 620q-36 -1 -61 -26.5t-25 -61.5t25 -61t61 -25t61.5 25t25.5 61t-25.5 61.5t-61.5 25.5v1z" />
    <glyph glyph-name="bullet" horiz-adv-x="600" 
d="M198 286q0 39 28 67t68 28q41 0 69.5 -28t28.5 -68t-28.5 -68t-69.5 -28q-40 0 -68 28t-28 68v1z" />
    <glyph glyph-name="daggerdbl" horiz-adv-x="507" 
d="M475 265l-20 -71h-426l20 71h426v0z" />
    </font>
</defs>
</svg>
