<svg width="111" height="111" viewBox="0 0 111 111" fill="none" xmlns="http://www.w3.org/2000/svg">
<path d="M31.2559 64.4145L31.3519 66.3359C31.3519 67.008 32.312 66.7683 32.6001 66.4797L34.0403 65.0389C34.2323 64.8469 34.5204 64.7986 34.0403 64.7986C33.5602 64.7986 33.7522 64.7986 33.7522 65.0866C33.7763 65.4224 33.7763 65.7598 33.7522 66.0956C33.6562 66.8643 33.2722 68.113 34.4724 68.2091C35.6725 68.3051 35.7206 67.633 36.1526 67.008C36.5847 66.3837 36.2486 66.912 36.2486 66.8643C36.2486 66.816 36.2966 66.7683 36.0086 66.8643C35.7206 66.9603 35.6725 66.8643 35.7206 67.008C35.7686 67.1523 35.6725 67.2484 35.6725 67.2966L35.5285 67.729L34.7124 69.6981C34.4244 70.3708 35.4805 70.3225 35.8166 70.0827L37.1128 69.0737L37.3048 68.8817C37.4968 68.7857 37.4008 68.7374 37.0648 68.7857C36.7287 68.8334 37.0648 69.1698 37.0168 69.2658C36.8027 70.1732 36.4634 71.0462 36.0086 71.8598C35.7206 72.3882 36.4887 72.4365 36.7767 72.3882C37.2254 72.3033 37.6224 72.0441 37.8809 71.6678L38.0729 71.3315L38.1689 71.1872C38.313 71.0912 38.2169 71.0434 37.8329 71.1395V71.3792C37.7793 71.4669 37.7465 71.5657 37.7369 71.6678C37.4774 72.1801 37.1889 72.6774 36.8727 73.1569L35.8646 74.742C35.6725 75.03 36.0566 75.2703 36.2966 75.3186C36.4738 75.338 36.653 75.3081 36.8141 75.232C36.9752 75.1554 37.1118 75.0356 37.2088 74.8863L38.601 72.6762C38.889 72.1962 39.3691 71.5718 39.2731 70.9469C39.2414 70.8059 39.1796 70.6733 39.092 70.5578C39.0044 70.4429 38.8932 70.348 38.7656 70.2792C38.6381 70.2109 38.4974 70.171 38.353 70.1621C38.2086 70.1527 38.064 70.1749 37.9289 70.2265C37.6006 70.3264 37.3032 70.5084 37.0648 70.7548C36.9688 70.8991 36.6807 71.4275 36.5367 71.4758L37.3528 72.0041C37.6984 71.3576 37.9875 70.6827 38.2169 69.9862C38.361 69.4578 38.649 68.7857 38.361 68.2573C37.5928 66.816 35.5765 68.9294 34.9044 69.4578L36.0086 69.8424C36.3447 69.0737 36.6807 68.3051 36.9687 67.5364C37.2568 66.7683 37.2568 66.432 36.7287 66.0956C36.5015 65.9957 36.2512 65.9613 36.0055 65.9952C35.7598 66.029 35.5282 66.13 35.3365 66.2876C35.0176 66.5202 34.7686 66.836 34.6164 67.2006C34.5684 67.3444 34.3283 67.3444 34.7604 67.2484C35.1925 67.1523 35.0004 67.2484 35.0004 66.9603C35.0249 66.6212 35.073 66.2838 35.1445 65.9513C35.1925 65.4712 35.3365 64.5105 34.9524 64.0782C34.5684 63.6459 33.7042 63.9339 33.3202 64.2702C32.6609 64.8413 32.0357 65.4507 31.4479 66.0956L32.7441 66.1916V64.2702C32.6961 63.5976 31.3039 63.7902 31.3039 64.4145H31.2559Z" fill="#1E1D1C"/>
<path d="M32.8879 76.1826L25.7348 76.3752C21.7021 76.4712 16.7574 76.5189 13.2528 76.6632C9.74827 76.8075 10.8524 77.4319 14.357 77.8642C19.3327 78.4476 24.3596 78.4476 29.3353 77.8642L39.2729 76.7593C40.6161 76.6677 41.9406 76.3929 43.2095 75.9428C44.8898 75.4145 42.2974 75.5582 39.3209 75.7508L32.8879 76.1826Z" fill="#1E1D1C"/>
<path d="M77.8234 100.201L74.4146 100.537C72.3023 100.729 69.3741 100.873 66.0613 100.921C59.4363 100.921 51.323 100.969 45.5141 101.258C39.7052 101.546 41.6255 102.074 47.3864 102.41C50.2188 102.602 54.0594 102.747 58.2841 102.794C62.5088 102.843 67.3095 102.843 72.0142 102.314L78.1115 101.45L82.5759 100.729L88.1931 99.9605C90.3803 99.7024 92.5465 99.2851 94.6738 98.7112C97.4105 97.9908 93.2336 98.3754 88.2891 98.9515C83.344 99.5282 77.8234 100.201 77.8234 100.201Z" fill="#1E1D1C"/>
<path d="M23.2389 55.2874C23.7549 57.4746 24.1555 59.6874 24.4391 61.9162C24.4871 62.2526 25.0152 62.2526 25.2553 62.2043C25.4953 62.1566 25.8794 61.8685 25.8314 61.5322C25.5478 59.3027 25.1472 57.09 24.6312 54.9031C24.4871 54.2787 23.0949 54.663 23.2389 55.2874Z" fill="#1E1D1C"/>
<path d="M39.3693 69.4576C39.3301 69.3316 39.2981 69.2034 39.2733 69.0735C39.1948 68.7583 39.0821 68.4519 38.9373 68.1611C38.4575 67.1211 37.7715 66.1898 36.921 65.4228L36.1528 64.7507L35.1927 64.078C34.481 63.6468 33.702 63.3382 32.8883 63.165C32.0414 62.9541 31.1647 62.8892 30.2959 62.973C29.8385 62.9869 29.3856 63.0673 28.9517 63.2133L28.7117 63.3093H28.6637L28.5677 63.069V62.973H28.5197C28.4014 62.6272 28.3052 62.2742 28.2316 61.9163H25.9273L24.487 62.0606C23.856 62.1155 23.2391 62.2781 22.6627 62.5406C22.3747 62.6849 22.4707 62.8292 22.8068 62.877C23.3782 62.9874 23.9551 63.0679 24.535 63.1173L25.8792 63.2616L26.6474 63.3576H26.9834V63.5013C26.9834 63.5535 27.0002 63.604 27.0314 63.6456V63.7899C27.0794 63.886 27.0794 63.982 27.1274 64.078L27.2235 64.27C27.2715 64.366 27.2715 64.462 27.3195 64.5581L27.4635 65.1347C27.5203 65.5554 27.6004 65.9722 27.7035 66.3835L28.5677 65.6148C28.7316 65.4566 28.9082 65.3123 29.0957 65.183L29.1918 65.0864H29.4318C29.7309 65.0115 30.0362 64.9632 30.3439 64.9427C31.0535 64.911 31.764 64.9754 32.4563 65.1347C33.1779 65.2896 33.8732 65.5487 34.5206 65.9034C35.1846 66.3291 35.811 66.8114 36.3929 67.3442C37.2019 68.0285 37.801 68.9276 38.1211 69.9382C38.18 70.1575 38.2122 70.3834 38.2172 70.6109C38.2723 70.8146 38.3045 71.0238 38.3132 71.2353C38.3521 71.6021 38.3681 71.9712 38.3612 72.3397C38.2932 72.8215 38.1258 73.2838 37.8696 73.6973C37.6134 74.1107 37.2739 74.4665 36.873 74.7418C36.2969 75.1741 35.8168 75.3661 35.3847 75.6542L33.7045 76.5189C32.9843 76.9035 33.1764 76.9995 33.9445 76.9035C35.1494 76.7065 36.306 76.283 37.353 75.6542C38.041 75.1974 38.6156 74.5897 39.0333 73.8771C39.3593 73.2039 39.5237 72.4635 39.5134 71.7154C39.5149 71.2014 39.4828 70.688 39.4173 70.1786C39.3693 70.0343 39.3693 69.8422 39.3213 69.7462L39.3693 69.4576Z" fill="#1E1D1C"/>
<path d="M36.4412 18.2044L24.9674 13.4009C24.9674 13.4009 21.1748 11.9118 19.3505 13.8812C17.5263 15.8507 16.6141 18.6367 15.846 21.2786C12.8806 31.7166 10.5243 42.3183 8.78889 53.03C8.69277 53.4407 8.69277 53.8681 8.78889 54.2789C8.98092 54.9033 9.60502 55.1435 10.1331 55.3357C15.99 57.2572 19.6386 58.2656 25.9276 58.794C25.9756 56.6328 24.7754 53.7025 24.8714 51.9251C24.9674 50.1479 26.7437 46.4011 28.616 45.3923C33.0327 42.9906 35.8171 45.7286 36.9213 48.6587C38.5535 52.8858 36.4892 54.1828 34.3289 58.6502C34.0888 59.2263 33.2247 60.5234 33.7528 60.5717C36.2081 60.8292 38.6347 61.3115 41.0019 62.0124C43.0662 62.6851 45.6586 62.8294 47.3869 60.9557C49.1152 59.0826 49.1632 56.1045 49.5473 53.5103C49.9313 50.9164 49.7393 51.5889 50.0753 50.0518C52.3797 52.3575 53.3879 53.8465 56.5564 54.7112C59.7248 55.5761 61.8372 53.7985 63.1337 52.2134C66.1579 48.4186 66.9743 44.3356 65.7261 40.5408C65.2804 39.4239 64.565 38.4353 63.6431 37.6639C62.7213 36.8925 61.6224 36.3625 60.4452 36.1216C55.2121 35.3049 55.8365 37.1303 53.1478 37.7067C54.348 33.1914 54.3 33.0473 55.5002 28.532C55.7405 27.6193 55.9803 26.6586 55.6445 25.89C55.3576 25.4443 54.9607 25.0803 54.492 24.8333C50.7172 22.5679 46.7094 20.7158 42.5382 19.3092C43.5943 22.2874 43.7864 26.0342 42.1061 29.1084C40.4258 32.1827 36.4892 34.008 34.2809 32.0866C32.0725 30.1652 30.9203 26.6106 32.2165 23.8245C33.5128 21.0385 34.2329 20.2219 36.4412 18.2044Z" fill="#FF7561"/>
<path d="M50.3629 30.5974C50.3155 30.4766 50.2507 30.3634 50.1709 30.2611C50.0278 29.9286 49.8334 29.6206 49.5948 29.3484C49.226 28.8738 48.7485 28.4948 48.2026 28.2437C47.8391 28.0851 47.4469 28.0033 47.0504 28.0035C46.6176 28.0012 46.1902 28.0999 45.8022 28.2917C45.0984 28.6585 44.4901 29.1849 44.0259 29.8288C43.577 30.4192 43.2059 31.065 42.9218 31.7502C42.3595 32.9706 42.0648 34.2973 42.0576 35.6411C42.1056 36.8419 42.3937 37.1782 42.5857 36.9861C42.7777 36.7939 42.9698 36.0734 43.3538 35.1127C43.765 33.9016 44.3126 32.7413 44.9861 31.6541C45.3605 31.0532 45.8308 30.5178 46.3783 30.069C46.5676 29.8725 46.8182 29.7464 47.0887 29.7115C47.3592 29.6766 47.6335 29.7349 47.8665 29.8769C48.4594 30.1689 48.9462 30.6392 49.2587 31.2218C49.5183 31.6782 49.7275 32.1613 49.8828 32.6629C50.0252 33.3256 50.0897 34.0027 50.0749 34.6804C49.9825 35.4992 50.0312 36.3278 50.2189 37.1302C50.3629 37.7066 50.5069 37.5625 50.651 37.0821C50.8628 36.3278 51.0074 35.5563 51.083 34.7765C51.1523 33.825 51.0713 32.8686 50.843 31.9423C50.7379 31.4763 50.5767 31.0246 50.3629 30.5974Z" fill="#1E1D1C"/>
<path d="M50.0271 36.2175C50.6032 34.0559 50.6032 32.1345 49.9311 31.9424C49.259 31.7502 48.2989 33.2873 47.6748 35.4489C47.0507 37.6105 47.1467 39.5319 47.7708 39.724C48.3949 39.9162 49.4511 38.3791 50.0271 36.2175Z" fill="#1E1D1C"/>
<path d="M49.5956 37.6587C49.9317 36.4578 49.9317 35.4491 49.6436 35.353C49.3556 35.2569 48.7795 36.1216 48.4434 37.2744C48.1074 38.4273 48.1074 39.484 48.4434 39.6281C48.7795 39.7722 49.3076 38.8595 49.5956 37.6587Z" fill="white"/>
<path d="M40.7137 49.7155C40.8383 50.0286 40.9826 50.3335 41.1458 50.6282C41.5456 51.3784 42.0831 52.0465 42.73 52.5977C43.5672 53.2645 44.5307 53.7547 45.5625 54.0387C46.4689 54.2921 47.4056 54.4214 48.3469 54.423C49.163 54.375 49.451 54.1828 49.355 53.9426C48.9739 53.5838 48.5133 53.3204 48.0108 53.1741L45.4664 52.0693C44.4939 51.6482 43.6009 51.0633 42.826 50.34C42.178 49.7081 41.6565 48.9581 41.2898 48.1304C41.0673 47.6684 40.8904 47.1857 40.7617 46.6894C40.6809 46.412 40.5847 46.1394 40.4737 45.8727C40.3992 45.7669 40.335 45.6543 40.2816 45.5365L40.1376 45.3444C40.0896 45.2963 40.0416 45.2002 40.0896 45.1522C40.1376 45.1042 40.3296 45.1042 40.3777 45.2483C40.4257 45.3924 40.3777 45.3924 40.4737 45.3924C40.491 45.3729 40.5042 45.3501 40.5125 45.3253C40.5207 45.3005 40.5238 45.2743 40.5217 45.2483C40.5464 45.2017 40.5551 45.1481 40.5465 45.0961C40.5378 45.0439 40.5122 44.9962 40.4737 44.9601C40.4168 44.8715 40.3325 44.8039 40.2336 44.7679H39.9936C39.8976 44.7679 39.7536 44.912 39.7055 44.9601C39.619 45.0514 39.568 45.1707 39.5615 45.2963V45.5845C39.5615 45.7286 39.6095 45.8727 39.6095 46.0169C39.6095 46.1609 39.7055 46.5933 39.8016 46.9295C39.9429 47.5791 40.1191 48.2204 40.3296 48.8509C40.4353 49.1486 40.5636 49.4377 40.7137 49.7155Z" fill="#1E1D1C"/>
<path d="M21.6074 54.3749L21.8475 65.4711C21.8475 65.8074 23.2397 65.5671 23.2397 65.0865L22.9996 54.0386C22.9996 53.7024 21.6074 53.9426 21.6074 54.3749Z" fill="#1E1D1C"/>
<path d="M35.4327 72.0039C35.4191 72.2182 35.3704 72.4291 35.2887 72.6283C35.0717 73.1816 34.7261 73.6756 34.2805 74.0691C33.5658 74.6602 32.7019 75.0426 31.7841 75.1741C30.5343 75.4072 29.2608 75.4877 27.9915 75.4144C26.5513 75.3661 25.0151 75.3184 23.4308 75.1741L21.0305 74.9821L20.0223 74.8861C19.9743 73.3004 19.9263 71.7153 19.9263 70.1303C19.8783 69.3139 19.8783 68.4969 19.8303 67.7288C19.8373 67.3275 19.8212 66.9268 19.7823 66.5278V66.3835L21.5105 66.2874L23.6709 66.0954H24.823L24.9191 66.2397C24.9221 66.2763 24.9393 66.3108 24.9671 66.3357C24.9671 66.3835 25.0151 66.4317 25.0151 66.5278C25.0926 66.6987 25.1568 66.8752 25.2071 67.0561C25.3031 67.3924 25.3991 67.5362 25.4471 67.4885C25.4952 67.4402 25.5912 67.2481 25.6392 66.9118C25.6251 66.3602 25.5444 65.8118 25.3991 65.279C24.439 65.2307 23.6229 65.1347 22.5187 65.1347L20.7904 65.0387H18.246C18.246 66.7681 18.198 68.6412 18.15 70.6109V74.8378C18.1431 75.2068 18.1591 75.5759 18.198 75.9428V76.7592H18.8221L20.7904 76.9512L22.3267 77.0955L25.4471 77.2875H28.6156C29.7158 77.2997 30.8129 77.1704 31.8801 76.9035C33.1364 76.6715 34.3015 76.0887 35.2407 75.2218C36.0651 74.4365 36.5768 73.3781 36.6809 72.2437C36.8195 71.3019 36.7035 70.3401 36.3448 69.4576C36.0329 68.7294 35.594 68.0629 35.0486 67.4885C34.1725 66.6105 33.0791 65.9805 31.8801 65.6631C31.0403 65.4122 30.1621 65.3145 29.2877 65.375C28.1073 65.4533 26.9667 65.834 25.9752 66.4795C24.9763 67.1777 24.1943 68.1434 23.7189 69.2656C23.4308 69.9382 23.4308 70.2263 23.5268 70.1785C23.7691 69.8711 23.9935 69.5508 24.199 69.2178C24.7183 68.5374 25.3518 67.9519 26.0712 67.4885C26.9824 66.8602 28.0412 66.4795 29.1437 66.3835C30.3358 66.2841 31.5322 66.5172 32.6003 67.0561C33.5558 67.524 34.356 68.2577 34.9046 69.1696C35.2719 69.8167 35.4855 70.5399 35.5287 71.283C35.5287 71.5716 35.4807 71.8114 35.4807 71.9557C35.4667 71.9734 35.4505 71.9895 35.4327 72.0039Z" fill="#1E1D1C"/>
<path d="M23.335 62.3488C23.0971 62.9105 23.0466 63.5337 23.1909 64.1259C23.2389 64.3185 23.671 64.2702 23.767 64.2219C24.0394 64.1775 24.3004 64.0793 24.5352 63.9339L25.5913 63.0215L26.0714 62.5891L26.3594 62.3488L26.5035 62.2528H26.4074L25.8794 62.3971H25.6873C25.9754 62.4448 25.5913 63.5976 25.5433 63.7419L25.1112 65.6633C25.0152 66.0956 26.3114 65.7116 26.4555 65.519L28.0877 63.3095L26.7435 63.5015C26.7687 64.4006 26.7206 65.3003 26.5995 66.1916C26.5515 66.624 27.8477 66.2399 27.9917 65.9513C28.3155 65.3158 28.7743 64.7581 29.3359 64.3185C29.5759 64.1742 29.5279 64.0299 29.2879 63.9822C28.9305 63.9744 28.5792 64.0749 28.2797 64.2702C27.5627 64.7542 26.9838 65.4163 26.5995 66.1916L27.9917 65.9513C28.0875 65.0261 28.1356 64.0959 28.1357 63.1652C28.1357 62.9732 27.6076 63.0215 27.5596 63.0692C27.2761 63.0631 27.001 63.1663 26.7915 63.3578L25.1593 65.5673L26.5035 65.423L26.9835 63.3578C27.0315 63.0692 27.1276 62.7812 27.1756 62.4448C27.2236 62.1085 27.1756 62.0125 26.9835 61.9165C26.7915 61.8204 26.0234 61.8687 25.6873 62.0125L24.8712 62.6851L23.239 64.0299L24.5832 63.8379C24.4624 63.2757 24.5126 62.6901 24.7272 62.1568C24.8232 61.9165 24.2471 61.9647 24.1511 62.0125C24.0551 62.0608 23.431 62.1568 23.335 62.3971V62.3488Z" fill="#1E1D1C"/>
<path d="M64.4292 9.8943C62.4612 8.93359 52.8116 13.545 46.2346 16.5232C39.6576 19.5013 54.1078 21.855 57.9002 23.9686C61.693 26.0821 59.9648 21.5668 59.2927 20.2699L58.6206 18.9249C90.2095 20.3179 94.4342 43.615 94.4342 43.615L96.4505 46.8334C96.5565 46.9984 96.7152 47.1225 96.9011 47.1853C97.087 47.248 97.2885 47.2456 97.4728 47.1786C97.657 47.1115 97.813 46.9838 97.9151 46.8163C98.0172 46.6488 98.0594 46.4516 98.0344 46.257C96.8823 36.842 93.0899 28.9643 85.9365 22.9599C81.9999 19.6935 74.3187 12.2961 61.693 13.593C61.693 13.593 66.3495 10.855 64.4292 9.8943Z" fill="white"/>
<path d="M95.9222 39.5319V39.7241C95.9705 39.8682 96.0183 40.1084 96.1143 40.3486C96.2103 40.5887 96.2586 41.021 96.3546 41.4053C96.4506 41.7896 96.5466 42.318 96.6904 42.8463C96.8347 43.3748 96.8824 43.9992 97.0267 44.6717L97.1704 45.7285C97.1793 45.9238 97.2115 46.1174 97.2665 46.3049V46.401H97.1227C97.1227 46.3882 97.1177 46.376 97.1083 46.367C97.0994 46.358 97.0872 46.3529 97.0744 46.3529V46.2569L96.6904 45.6324L95.2024 43.2307C95.1697 43.1216 95.1536 43.0082 95.1541 42.8944L95.0104 42.4141C94.9144 42.1258 94.8661 41.8376 94.7701 41.5014C94.674 41.1651 94.3383 40.2525 94.098 39.628C93.5724 38.286 92.9463 36.9854 92.2259 35.7372C90.6375 32.9616 88.6479 30.4364 86.3207 28.2437C85.6969 27.6192 85.0248 27.0908 84.3527 26.5144C83.6773 25.9638 82.9719 25.4506 82.2404 24.9773C80.758 23.9245 79.1829 23.0081 77.5357 22.2393C74.1513 20.6309 70.5671 19.4838 66.878 18.8288L64.0453 18.3484L61.2131 18.0602L59.1968 17.9161L57.8043 17.82H57.0362V18.0602L57.2282 18.3964L58.4764 20.7982C58.6573 21.1899 58.8177 21.5907 58.9565 21.9991C59.0919 22.3724 59.1885 22.7587 59.2445 23.1519C59.2928 23.6323 59.2445 23.4882 59.2445 23.5362C59.1968 23.5362 59.1968 23.5362 59.1968 23.4882H59.0525L58.8127 23.3921L58.2844 23.1039L57.5646 22.7677C55.8257 22.0677 54.0462 21.4741 52.2356 20.9903C50.5736 20.5207 48.9389 19.9595 47.3389 19.3091L46.2347 18.7807C45.9561 18.6207 45.6982 18.4271 45.4666 18.2043V18.1082H45.5146C45.723 17.8596 45.9858 17.6624 46.2827 17.5318L47.3389 17.0034L48.491 16.475L50.6994 15.3702L54.972 13.4008C58.8127 11.6715 61.4529 10.6628 62.8931 10.3265C63.3193 10.2359 63.7539 10.1876 64.1896 10.1824C64.3333 10.1824 64.3333 10.1344 64.0453 9.99029C63.4764 9.86375 62.8864 9.86375 62.317 9.99029C61.2403 10.1528 60.1803 10.41 59.1485 10.7589C56.6521 11.5754 53.3878 12.8724 49.5472 14.5056L46.5227 15.8025C45.9601 16.0358 45.4146 16.3087 44.8905 16.6192C44.5609 16.8665 44.2835 17.1767 44.0743 17.5318C43.983 17.7559 43.9441 17.998 43.9608 18.2395C43.9774 18.4809 44.0491 18.7154 44.1704 18.9248C44.3917 19.2434 44.6681 19.5199 44.9865 19.7414L45.8506 20.3178L47.6269 21.1345C48.8751 21.6148 50.1233 22.0471 51.4195 22.4314L55.3081 23.7284C55.9323 23.9685 56.6044 24.2087 57.1805 24.4969L58.1884 25.0253L58.8127 25.2655H59.2445C59.4943 25.3026 59.749 25.2831 59.9899 25.2082C60.2313 25.1334 60.4522 25.0052 60.637 24.8332C60.8729 24.6011 61.025 24.2968 61.0688 23.9685C61.1077 23.8776 61.1238 23.7788 61.1171 23.6803V23.1519C61.1121 22.9405 61.0799 22.7306 61.0211 22.5275C60.8668 21.7132 60.6087 20.9221 60.253 20.1738L60.157 19.9816H61.2609C64.38 20.274 67.4657 20.8529 70.4783 21.7109C73.5968 22.5684 76.596 23.8108 79.4077 25.4096C85.2008 28.7215 89.7778 33.8065 92.4657 39.9162L93.2821 41.9818L93.5702 42.9425C93.6251 43.0805 93.6573 43.2265 93.6662 43.3748C93.7045 43.4311 93.7211 43.4992 93.7139 43.5669C93.7622 43.663 93.7622 43.759 93.8099 43.8551C93.8582 43.9512 94.6263 45.2001 95.0581 45.8246C95.2624 46.1117 95.4388 46.4173 95.5865 46.7372L95.8745 47.1695C96.0532 47.4091 96.2824 47.606 96.5466 47.746C96.8102 47.8781 97.1083 47.9259 97.4002 47.8829C97.6921 47.84 97.9641 47.7083 98.1789 47.5058C98.4064 47.3185 98.5735 47.0677 98.659 46.7853C98.6834 46.5297 98.6834 46.2723 98.659 46.0167C98.5146 45.3442 98.4669 44.7197 98.3226 44.0473C97.8797 41.6235 97.2209 39.2443 96.3546 36.938C94.9521 33.1747 92.887 29.6932 90.2574 26.6585C89.2073 25.439 88.0679 24.2991 86.8491 23.248L85.2169 21.855L83.7283 20.6061C82.035 19.1846 80.2196 17.9147 78.3038 16.8113C75.6786 15.265 72.8026 14.1919 69.8062 13.641C68.5069 13.3995 67.191 13.255 65.8696 13.2086H63.9015L62.9414 13.3047H62.0773L62.2693 13.2086C62.8376 12.7909 63.3826 12.3418 63.9015 11.8636C64.239 11.5864 64.517 11.2431 64.7174 10.8549C64.7779 10.744 64.7962 10.6153 64.7701 10.492C64.7435 10.3686 64.6735 10.2589 64.5736 10.1824C64.2856 10.0383 64.2373 10.0864 64.4293 10.2304C64.6214 10.3746 64.8617 11.3833 59.9649 14.0733L60.1087 14.1693H60.541L61.5489 14.0733L63.6612 13.9772H66.3019L67.07 14.0733C69.3761 14.296 71.6393 14.846 73.7911 15.7065C76.1498 16.6277 78.377 17.8551 80.4161 19.3571C81.4723 20.0777 82.4802 20.8943 83.4886 21.7109L86.369 24.2087C88.1289 25.7715 89.7074 27.5278 91.0738 29.4445C92.1827 31.0283 93.1617 32.6989 94.0019 34.4402C94.386 35.1607 94.6263 35.8813 94.9144 36.5057C95.0753 37.0449 95.2673 37.5742 95.4905 38.0909L95.9222 39.5319Z" fill="#1E1D1C"/>
<path d="M92.2253 43.9992L92.4656 44.0953L93.0894 44.4315C93.8731 44.9563 94.5163 45.6656 94.962 46.4971C95.7351 47.8318 96.0076 49.3987 95.7301 50.9163C95.5114 51.8392 95.1024 52.7062 94.5296 53.4621L94.0018 54.0386L93.7138 54.3268L93.4735 54.5189L93.1377 54.8071L92.2253 55.2875L91.0254 55.768L88.529 56.7287L88.8647 56.9685L89.009 57.065L89.2488 57.2088L90.2572 57.7854L92.3696 58.9864L95.5381 60.8113L97.9862 62.2526L99.2344 62.973C99.4736 63.0885 99.6861 63.2522 99.8587 63.4536C99.8587 63.5014 99.9065 63.4536 99.8587 63.5974C99.8105 63.7417 99.6667 64.174 99.4747 64.7024C99.2826 65.2308 98.6105 66.6721 98.2265 67.6805L95.5858 73.9254L90.0169 87.2792L89.6812 87.9996C89.5851 88.1916 89.4408 88.3837 89.3931 88.528L89.2488 88.432L88.529 88.0473L86.9444 87.1349L85.3122 86.1742L84.8804 85.8862L84.6401 85.7896L84.352 85.6459L84.1123 85.5016H84.0163L84.16 85.3578L84.4003 84.9732L84.6884 84.5891C85.0269 84.0636 85.3011 83.4991 85.5042 82.9075C86.0287 81.6809 86.259 80.3484 86.1763 79.0169C86.1053 78.2355 85.8589 77.4807 85.4565 76.8075C85.1118 76.1992 84.6556 75.6614 84.1123 75.2219C83.1899 74.3588 82.0926 73.7039 80.8955 73.3004C80.3022 73.0396 79.6695 72.8775 79.0235 72.8204H77.3912L76.8629 72.9164C75.5492 73.2555 74.3637 73.9737 73.4546 74.9821C72.6127 75.904 71.9889 77.004 71.6303 78.2005C71.5215 78.4631 71.4411 78.7372 71.39 79.0169V79.209V79.305H71.2463L68.9896 78.4403C67.5494 77.8642 66.1575 77.2398 64.861 76.6149L61.0204 74.7418L60.1085 74.2612L59.8205 74.1174H59.7722C59.6762 74.0691 59.6762 73.9254 59.7245 73.7811C59.775 73.5929 59.856 73.4142 59.9642 73.2527L60.2523 72.6761L60.7806 71.6676L61.8368 69.794L62.4129 68.7855L62.7009 68.2572V68.0168C62.8014 67.8337 62.8819 67.6406 62.9407 67.4402L63.4208 67.8726L63.9969 68.3532C64.2322 68.5718 64.4897 68.765 64.765 68.9293C65.588 69.5298 66.516 69.9699 67.5017 70.2263C68.0533 70.344 68.62 70.3767 69.1817 70.3223C69.5657 70.2746 69.6617 70.2263 69.614 70.1303C69.5657 70.0343 68.6056 69.8422 67.3097 69.1696C66.5426 68.7733 65.845 68.2538 65.245 67.6328C64.3165 66.6305 63.4507 65.5715 62.6526 64.4621L61.3567 66.5278L61.0204 67.1044L60.6846 67.5362L60.1085 68.4969C59.6762 69.1219 59.1961 69.7462 58.7643 70.4666L58.1399 71.5716L57.8042 72.1L57.4678 72.7244C57.1554 73.2633 57.051 73.8982 57.1748 74.5092C57.2986 75.1203 57.6421 75.6642 58.1399 76.0388L58.4763 76.2791L58.716 76.4229L59.6284 76.9512L63.5168 79.113L67.7897 81.1787L70.0458 82.1871L72.0621 82.9558L73.1183 83.3881L73.6466 83.5802L74.1267 83.7245C74.1744 83.3398 74.1744 82.9075 74.2227 82.4757C74.2311 82.0256 74.2627 81.5766 74.3187 81.1304L74.4148 80.506C74.407 80.3917 74.4236 80.2773 74.4625 80.1697C74.4741 80.0886 74.4902 80.0087 74.5108 79.9294C74.553 79.7307 74.6173 79.5375 74.7028 79.3533C74.9231 78.624 75.3 77.9519 75.8067 77.3836C76.2479 76.8702 76.8335 76.5017 77.4872 76.3269L77.9673 76.2308H78.3991C78.7604 76.2647 79.1156 76.3452 79.4553 76.4712C80.2201 76.7542 80.9332 77.1599 81.5676 77.6722L82.288 78.4886C82.4506 78.6928 82.5355 78.9481 82.5278 79.209C82.5821 79.5608 82.5655 79.9205 82.48 80.2657C82.4417 80.6831 82.328 81.0899 82.1437 81.4667C82.0066 81.8674 81.8296 82.2537 81.6159 82.6194L81.4239 82.8598L81.2318 83.1478L81.0875 83.2921L80.7995 83.5802L80.1274 84.1085L79.5513 84.6369L79.4075 84.7329L79.3115 84.8772L79.2155 85.0692L79.1195 85.3095C79.1084 85.3906 79.0923 85.4705 79.0712 85.5498V85.8379C79.0845 86.1626 79.1739 86.48 79.3321 86.7636C79.4908 87.0478 79.7139 87.2898 79.9836 87.4713C80.7601 88.0018 81.5793 88.468 82.4317 88.8643L82.7681 89.0081H82.8641L83.0078 89.1041L83.6322 89.4887L86.2246 91.0255L87.6648 91.7941L87.9046 91.8902L88.2409 92.0345C88.4646 92.1571 88.7082 92.2387 88.9608 92.2748H89.6812C89.7289 92.2748 89.7772 92.2265 89.8249 92.2748H90.0169L90.3533 92.1788C90.8294 92.0522 91.2718 91.8225 91.6492 91.5061L92.2253 90.9777L92.4173 90.6414L92.6093 90.4494C92.9357 89.8927 93.2248 89.315 93.4735 88.72L94.6256 85.8862L96.9783 80.122L101.731 68.3532L102.883 65.3751C103.241 64.6286 103.374 63.7939 103.267 62.973C103.206 62.473 103.025 61.9951 102.739 61.58C102.515 61.2076 102.221 60.8818 101.875 60.6193C101.375 60.2413 100.845 59.9039 100.291 59.6108L98.8503 58.8421L96.0659 57.3531L95.8261 57.2088H95.6341L95.4421 57.1128L95.2017 57.0167C95.3011 56.9807 95.3854 56.9135 95.4421 56.8247L95.5858 56.7287L95.6818 56.6327L95.7778 56.5367L95.9221 56.3924C96.6508 55.6659 97.2514 54.8213 97.6981 53.8945C98.5861 52.1459 98.857 50.1483 98.4663 48.2263C98.1299 46.4265 97.2602 44.7695 95.9699 43.4708C94.7433 42.2473 93.1327 41.484 91.4094 41.3093C90.5819 41.2361 89.7489 41.3342 88.9608 41.5975C88.2248 41.8681 87.53 42.2399 86.8967 42.7023C85.7889 43.6121 84.9026 44.7619 84.3043 46.0647C83.8037 47.2407 83.4957 48.4896 83.3919 49.7635C83.3442 50.3549 83.3442 50.9493 83.3919 51.5407H83.2481L83.1038 51.3967L82.8158 51.2045L82.1437 50.7722L81.8079 50.532L81.2318 50.1957L80.0796 49.5233C78.6305 48.7247 77.1404 48.0032 75.6147 47.3617L73.5506 46.5931L72.9263 46.401L72.2064 46.1608L71.5343 45.9206H71.486V46.0167L71.39 46.1608L71.198 46.449L68.7976 49.7635L66.8773 53.6063L65.8211 55.672L65.245 56.7287L64.957 57.2571L64.861 57.5451L64.765 57.6411C64.765 57.6894 64.7172 57.7371 64.765 57.7854H66.5415L68.2215 57.9292H68.8936L69.422 58.0257L70.4781 58.2178C71.1525 58.3837 71.8113 58.6085 72.4462 58.8899C73.0556 59.1729 73.6083 59.5636 74.0784 60.0432C74.5813 60.4933 74.947 61.076 75.1346 61.7243C75.381 62.4496 75.4792 63.2178 75.4226 63.982C75.3805 64.8378 75.1512 65.6742 74.7505 66.4318C74.3221 67.3414 73.6594 68.1206 72.8302 68.6895C72.0854 69.1774 71.2546 69.5192 70.3821 69.6979C69.8538 69.794 69.614 69.8422 69.6617 69.89C69.71 69.9383 69.806 69.9865 69.9498 69.9865C70.2001 70.0554 70.4615 70.0715 70.7179 70.0343C71.6015 70.0642 72.4784 69.8661 73.2626 69.4576C73.837 69.1646 74.3565 68.775 74.7988 68.3049C75.3172 67.7804 75.754 67.1816 76.0947 66.5278C76.4544 65.7547 76.6814 64.9266 76.7668 64.078C76.8906 63.1456 76.8251 62.1982 76.5748 61.2919C76.2674 60.274 75.6857 59.36 74.8948 58.6501C74.1212 57.9014 73.1843 57.342 72.1581 57.0167C71.1874 56.6216 70.1718 56.3469 69.1339 56.2003H67.8375L70.5742 51.0124L71.8701 49.139L72.2064 48.6586L72.3024 48.5626H72.4945L73.0223 48.7547L74.0784 49.139L76.143 50.0517C77.4584 50.6724 78.7404 51.3619 79.9836 52.1172L80.4154 52.4054L80.5597 52.5014L80.7518 52.5975L81.0875 52.8857L81.8556 53.3661L82.6721 53.9425L85.6962 56.2003L85.5525 52.8857V51.2045C85.5447 50.9633 85.5608 50.7219 85.6002 50.484V49.8595C85.6868 48.9649 85.9138 48.0895 86.2723 47.2656C86.7635 45.9468 87.7198 44.8534 88.9608 44.1914C89.6701 43.7757 90.5031 43.6227 91.3134 43.759L91.9855 43.9032L92.2253 43.9992Z" fill="#1E1D1C"/>
<path d="M83.2004 56.5846C83.242 56.4919 83.2742 56.3953 83.2964 56.2965C83.3208 55.9924 83.3208 55.6877 83.2964 55.3837C83.186 54.3958 82.7053 53.4863 81.9522 52.8379C81.4793 52.4416 80.9221 52.1579 80.3233 52.0082C79.725 51.8584 79.1 51.8464 78.4956 51.9732C77.9418 52.0852 77.4078 52.2796 76.9117 52.5497C76.4605 52.8199 76.0553 53.1604 75.7112 53.5584C75.4898 53.851 75.3566 54.2011 75.3271 54.5671C75.3271 54.7593 75.4232 54.8073 75.5675 54.8073C75.9998 54.553 76.4488 54.3283 76.9117 54.1348C77.7053 53.8251 78.5578 53.6939 79.4081 53.7505C79.8432 53.8055 80.2655 53.9354 80.6563 54.1348C81.0381 54.4033 81.3778 54.727 81.6641 55.0955C81.89 55.4707 81.991 55.908 81.9522 56.3443C81.9428 56.7067 81.8257 57.058 81.6164 57.3532C81.3428 57.7595 81.0203 58.1302 80.6563 58.4582C80.1623 58.8567 79.7955 59.3906 79.6001 59.995C79.2638 60.7637 80.2239 60.0911 81.2801 59.2264C81.8467 58.7874 82.3479 58.2701 82.7686 57.6896C82.9029 57.4437 83.0156 57.1867 83.1044 56.9209C83.1604 56.8171 83.1932 56.7022 83.2004 56.5846Z" fill="#1E1D1C"/>
<path d="M79.2157 56.0078C80.4639 55.0473 81.1838 53.8945 80.7997 53.3661C80.4156 52.8377 79.1197 53.1739 77.8715 54.1346C76.6233 55.0954 75.903 56.2481 76.287 56.7765C76.6711 57.3048 77.9676 56.9685 79.2157 56.0078Z" fill="#1E1D1C"/>
<path d="M78.9266 55.1434C79.839 54.615 80.4151 53.9426 80.2708 53.6543C80.1271 53.3661 79.2147 53.5103 78.3028 53.9906C77.3904 54.471 76.8143 55.1915 76.9586 55.4797C77.1023 55.7681 78.0148 55.6238 78.9266 55.1434Z" fill="white"/>
<path d="M71.4385 81.2747C71.6333 83.9409 72.0995 86.5811 72.831 89.1524C73.023 89.7767 74.4149 89.3927 74.2229 88.7683C73.492 86.1965 73.0252 83.5569 72.831 80.8901C72.831 80.5543 72.2549 80.5543 72.0146 80.6503C71.8614 80.672 71.7204 80.7458 71.6155 80.8596C71.5106 80.9734 71.4485 81.1199 71.4385 81.2747Z" fill="#1E1D1C"/>
<path d="M67.5008 80.4578L69.0854 87.5191C69.1814 87.9514 70.5733 87.5674 70.4773 87.135L68.8933 80.0738C68.7973 79.6414 67.4048 80.0255 67.5008 80.4578Z" fill="#1E1D1C"/>
<path d="M60.6362 99.2396C60.7877 99.5121 60.9648 99.7696 61.1646 100.008C61.7013 100.613 62.3545 101.103 63.0849 101.45C64.1649 101.957 65.3487 102.203 66.5414 102.17C67.8856 102.122 69.2776 101.882 70.6701 101.69L75.2305 100.921L77.6792 100.537L77.9672 100.441H78.399C78.8036 100.371 79.1649 100.147 79.4074 99.8162C79.5257 99.6603 79.6122 99.4821 79.6616 99.2923C79.711 99.103 79.7227 98.9055 79.6955 98.7112C79.7027 98.613 79.686 98.5142 79.6472 98.4232V98.1351L79.5512 97.8471C79.1671 96.2137 78.7353 94.5804 78.3513 92.9953C77.9672 91.4102 77.3911 89.3445 76.9111 87.6151L74.7504 87.9997L73.4545 88.24L70.9581 88.7201L69.7099 88.9604C69.9547 89.9544 70.2588 90.9329 70.6218 91.8903C70.8138 92.3226 70.9581 92.5146 71.0059 92.4669C71.0541 92.4186 71.1019 92.1306 71.0541 91.6022C71.0408 91.2964 71.0092 90.9917 70.9581 90.6898C70.9659 90.5122 70.9498 90.3346 70.9098 90.1615C70.9176 90.0155 70.9015 89.8695 70.8621 89.7291H71.774L73.1665 89.6325L74.7027 89.4405L75.5186 89.3445H75.8066V89.6325L75.9026 89.9211C75.9598 90.3257 76.0397 90.7264 76.1429 91.1222C76.335 91.9386 76.4787 92.8032 76.6707 93.6679C76.8628 94.5326 77.1031 95.445 77.2951 96.4057C77.435 96.8631 77.5476 97.3282 77.6309 97.7988C77.6792 98.0391 77.7752 98.2789 77.8229 98.5192V98.6635L75.9509 98.9515L72.8784 99.5282L69.8059 100.104C68.8103 100.335 67.7996 100.495 66.7812 100.585C65.7456 100.753 64.6838 100.637 63.7087 100.249C62.874 99.9195 62.1669 99.33 61.6924 98.5675C61.3011 97.9192 61.1801 97.1422 61.3566 96.4057C61.5575 95.7603 61.9022 95.1692 62.3645 94.6764C63.1526 93.911 64.105 93.336 65.1489 92.9953C65.9326 92.7394 66.7351 92.5468 67.5493 92.4186C68.6465 92.1378 69.7976 92.145 70.891 92.4397C71.9843 92.7339 72.9828 93.3061 73.7903 94.1003C74.3186 94.6764 74.5107 94.9167 74.5107 94.7724C74.3997 94.3528 74.2032 93.9604 73.9346 93.6196C73.3041 92.8354 72.4982 92.2105 71.5819 91.7943C70.9886 91.5334 70.3559 91.3708 69.7099 91.3142C69.0228 91.2332 68.328 91.2492 67.6453 91.3619C66.9638 91.4552 66.2895 91.5994 65.629 91.7943C64.9369 91.953 64.262 92.1783 63.6127 92.4669C62.9867 92.7494 62.4045 93.1218 61.8844 93.5719C61.3871 94.012 60.9653 94.5315 60.6362 95.1087C60.0934 96.0367 59.938 97.1411 60.2044 98.1829C60.2611 98.4676 60.3576 98.7429 60.4925 98.9998L60.6362 99.2396Z" fill="#1E1D1C"/>
<path d="M60.4457 91.9863C60.5983 91.7599 60.7753 91.5501 60.9735 91.362C61.1755 91.1311 61.4003 90.9219 61.6456 90.7376C61.8898 90.5184 62.1884 90.3691 62.5097 90.3052C63.4399 90.0988 64.4 90.0666 65.3424 90.2092L66.1583 90.3052L66.5423 90.4013H67.0224L67.4548 90.5933C67.6468 90.7376 67.7905 90.9296 67.9348 90.8819C68.1396 90.9307 68.3533 90.9307 68.5587 90.8819H68.6069L68.799 90.7376C68.9499 90.5783 69.0504 90.378 69.087 90.1615C69.1664 89.637 69.1986 89.1064 69.183 88.5759V88.4321H69.7108L71.0073 88.1918C71.5001 88.1818 71.988 88.0841 72.4475 87.9038C72.6396 87.8077 72.5435 87.6634 72.2555 87.5191C71.7349 87.2977 71.1849 87.1523 70.6232 87.0868H68.4149L67.7905 87.2311C67.5769 87.2511 67.3671 87.2994 67.1667 87.3754C67.225 87.6218 67.3049 87.8632 67.4065 88.0958V88.6719H67.3587C67.3105 88.7202 67.2627 88.6241 67.2627 88.6241H67.2144L66.9747 88.5281L66.4946 88.4321L65.5345 88.2878C64.8463 88.2323 64.1547 88.2484 63.4699 88.3361C62.7339 88.416 62.0185 88.6275 61.3575 88.9605C61.09 89.137 60.8336 89.3296 60.5894 89.5366L60.1093 90.1615C59.8069 90.5062 59.5338 90.8752 59.2935 91.266C58.9222 91.9109 58.6469 92.6068 58.4771 93.3317C58.2934 94.2175 58.2773 95.1299 58.4294 96.0218C58.5204 96.559 58.7335 97.0685 59.0532 97.5108C59.3906 97.9204 59.8413 98.2212 60.3497 98.3755C60.6854 98.4715 60.8297 98.4233 60.8297 98.3272L60.4934 97.9909C59.9234 97.4381 59.5521 96.7116 59.4372 95.9257C59.3085 94.9872 59.4073 94.0315 59.7253 93.1396C59.8496 92.8416 59.9939 92.553 60.1576 92.2749L60.4457 91.9863Z" fill="#1E1D1C"/>
<path d="M60.6367 97.1744C60.5878 96.1316 60.6361 95.0859 60.7804 94.052C60.8764 93.5236 61.0684 92.2266 61.6445 92.0345L60.8764 91.9385C60.8825 92.599 61.0646 93.2456 61.4048 93.8117C61.6445 94.1963 62.7007 93.956 62.7967 93.5236C63.1808 92.1788 63.5648 90.8335 64.0449 89.4888L62.653 89.7768L63.4211 92.8032C63.5171 93.2833 64.6693 92.8032 64.813 92.5146C65.1971 91.4579 65.5811 90.4012 65.9175 89.3445L64.525 89.6325C64.9573 90.4972 65.3414 91.3142 65.7255 92.2266C66.1095 93.1396 66.9736 92.2749 67.1174 91.9385C67.2617 91.6022 67.9338 90.0171 68.3178 89.0564L66.9254 89.3445C67.1668 90.3396 67.7645 91.2115 68.6059 91.7942C68.8939 92.0345 69.9501 91.8425 69.9501 91.3619C69.8863 90.1764 69.9185 88.9876 70.0461 87.8077L68.6536 88.0957C69.1248 88.8611 69.3746 89.7424 69.374 90.6415C69.374 91.0256 70.7182 90.7375 70.766 90.3535L70.958 88.8161C71.0063 88.5758 70.958 87.9037 71.246 87.7111L70.766 87.9514C70.3342 88.0474 70.5262 87.9037 70.6222 88.0957L70.8142 88.2877L71.15 88.7201C71.3115 88.8278 71.4969 88.8927 71.69 88.9099C71.8832 88.9265 72.0774 88.8944 72.2545 88.8161C72.4465 88.7684 72.9743 88.6241 72.8783 88.336C72.7823 88.0474 72.2545 88.1917 72.1102 88.24C72.6863 88.0474 72.4465 88.2877 72.3505 88.0957L72.1584 87.8554L71.8221 87.423C71.6351 87.3143 71.4253 87.2488 71.2094 87.2321C70.993 87.2155 70.7759 87.2482 70.5739 87.327C70.358 87.3903 70.161 87.5074 70.0017 87.6667C69.8424 87.826 69.7253 88.0236 69.6621 88.24C69.5161 89.0015 69.4195 89.7713 69.374 90.5455L70.766 90.2574C70.7732 89.3722 70.5229 88.5047 70.0461 87.7594C69.8541 87.3753 68.7496 87.6151 68.7019 88.0474C68.5332 89.2729 68.4849 90.5116 68.5576 91.7465L69.9018 91.3142C69.1159 90.7381 68.5554 89.9056 68.3178 88.9604C68.1735 88.4798 67.0214 88.9121 66.9254 89.2484C66.8293 89.5848 66.1572 91.1699 65.7255 92.1306L67.1174 91.8425C66.7333 90.9778 66.3493 90.1131 65.9175 89.2484C65.4851 88.3838 64.6693 89.1524 64.525 89.5365C64.3812 89.9211 63.8052 91.6505 63.4211 92.7072L64.813 92.4186L64.0449 89.4405C63.9489 88.9604 62.7967 89.3927 62.653 89.6808C62.1729 91.0256 61.7888 92.3709 61.4048 93.7156L62.7967 93.4753C62.4615 92.8904 62.2795 92.2288 62.2689 91.5539C62.2689 91.2659 61.5968 91.4102 61.5008 91.4102C61.0118 91.5412 60.5712 91.8103 60.2304 92.185C59.8902 92.5596 59.6643 93.0241 59.5805 93.5236C59.2525 94.8417 59.1387 96.2043 59.2442 97.5585C59.2925 97.9431 60.6844 97.7028 60.6367 97.1744Z" fill="#1E1D1C"/>
<path d="M24.1986 38.4753L20.79 37.9469C22.3263 47.9382 24.4386 58.1696 31.7838 65.7592C35.3363 69.41 42.2014 77.5757 54.9234 77.5757C54.9234 77.5757 49.9786 79.8335 51.8029 80.9868C53.6272 82.1395 63.7088 78.5847 70.5736 76.231C77.4389 73.8772 63.3247 70.1304 59.7722 67.6806C56.2196 65.2309 57.4195 69.8424 57.9479 71.2354L58.524 72.6285C27.223 67.9687 24.1986 38.4753 24.1986 38.4753Z" fill="white"/>
<path d="M58.4763 70.5626L58.2359 69.6502C58.1882 69.3616 58.0922 68.9775 58.0439 68.5452V67.9208C58.0922 67.8725 58.0922 67.8725 58.0922 67.8248V67.7288H58.332L59.1484 68.1611L59.6284 68.4969L60.2045 68.7855C60.5725 69.0219 60.9577 69.2306 61.3567 69.4099L66.7813 71.8114L69.806 73.3004C70.2806 73.5818 70.7307 73.9032 71.1502 74.2611L71.39 74.5014L71.486 74.6935V74.79L71.3423 74.8861L71.0059 75.0781L70.2378 75.4144L68.3175 76.0388L64.3809 77.3358C61.6448 78.2005 58.812 79.1129 55.8839 79.7856C55.1777 79.9832 54.4542 80.1119 53.7233 80.1697H52.5232C52.5712 80.1219 52.6192 80.0254 52.7152 79.9776L52.9072 79.8333L53.0512 79.6896L53.2913 79.5453C54.0556 79.0358 54.8582 78.5862 55.6918 78.2005L58.812 76.8075L55.5475 76.6632H53.9154L52.1871 76.5672L50.5548 76.3268L49.0186 76.0388C46.9536 75.5637 44.9545 74.8378 43.0657 73.8771C41.1701 72.8631 39.3844 71.656 37.7368 70.2746C36.0917 68.8854 34.5364 67.3936 33.0801 65.8074L31.9759 64.6541C31.6399 64.27 31.2558 63.886 30.9678 63.5013L29.9596 62.3009L29.0955 61.0038C27.9622 59.3344 26.9821 57.5656 26.167 55.7197C24.6679 52.2419 23.5259 48.6207 22.7585 44.9118C22.3264 43.1346 22.0384 41.6454 21.7984 40.3485C21.7622 40.0233 21.698 39.7019 21.6063 39.3878V39.0996L21.6066 39.1008C21.5587 38.9569 21.5587 38.9569 21.5108 38.813L21.5103 38.7153H23.4786C23.7177 38.7454 23.9596 38.7454 24.1987 38.7153C24.2947 38.6192 23.5746 38.4271 22.2304 38.1389L21.0302 37.8987H20.7422V38.331C20.7977 38.5999 20.8298 38.8732 20.8382 39.1476C20.9822 40.2044 21.1262 41.3572 21.3183 42.6542C21.7644 45.8525 22.4382 49.0149 23.3346 52.1171C24.5013 56.1648 26.3524 59.9832 28.8074 63.4053C29.1915 63.886 29.5276 64.366 29.9116 64.7984C30.2861 65.269 30.6868 65.718 31.1118 66.1437C31.8799 67.0561 32.6961 67.9208 33.5602 68.7855C35.3521 70.6486 37.3308 72.3231 39.4651 73.7811C41.7226 75.3262 44.1984 76.5239 46.8103 77.3358L48.8746 77.8642C49.5467 77.9602 50.2668 78.1522 50.9389 78.2005L51.803 78.3443H51.707L51.323 78.7289L51.0829 78.9209L50.9869 79.0647L50.8429 79.2572C50.6659 79.4859 50.5508 79.7562 50.5087 80.042C50.4667 80.3284 50.4991 80.6203 50.6029 80.89C50.7301 81.1581 50.9178 81.3934 51.151 81.5766C51.3842 81.7597 51.6567 81.8868 51.9471 81.9468C52.337 82.0583 52.7421 82.1066 53.1473 82.0911L54.1554 81.9951C55.4186 81.7969 56.6692 81.5244 57.9002 81.1787C59.1001 80.8901 60.3005 80.506 61.5005 80.1219C63.9008 79.401 66.2535 78.5846 68.6539 77.7199L70.4299 77.0955L71.3423 76.7592C71.6969 76.6215 72.0349 76.4439 72.3502 76.2308C72.5383 76.0671 72.7148 75.8906 72.8785 75.7025C73.0522 75.4827 73.1527 75.2141 73.1666 74.9338C73.2065 74.6424 73.1732 74.3449 73.0705 74.0691C72.9651 73.8626 72.8363 73.6695 72.6865 73.493C72.1975 72.9619 71.6309 72.5084 71.0059 72.1477C69.4603 71.3313 67.8741 70.5937 66.2535 69.9382C64.7172 69.3139 63.2287 68.6895 61.8845 68.0651C61.2091 67.7809 60.5658 67.4269 59.9642 67.0078C59.6157 66.7942 59.2455 66.6171 58.8603 66.4795L58.4763 66.3357H58.0439C57.7603 66.3296 57.4856 66.4329 57.2758 66.6238C56.9212 67.0184 56.7324 67.5345 56.748 68.0651C56.7541 68.4508 56.7857 68.836 56.844 69.2178C56.94 69.6019 56.9878 69.9382 57.0838 70.2746C57.1265 70.4577 57.1909 70.6353 57.2758 70.8029V71.0432L57.3718 71.2353L57.5161 71.6193L57.6121 71.8596C57.6121 71.8596 57.6599 71.8596 57.6121 71.9079H57.4678L56.3156 71.7153L54.5875 71.3313L52.8592 70.9472L51.275 70.4666L50.5068 70.2263L49.7387 69.9865L48.2985 69.4576L46.9543 68.8815C43.9186 67.5584 41.0763 65.829 38.505 63.7417C36.6713 62.2215 34.9837 60.5326 33.4642 58.6978C32.3395 57.3481 31.3128 55.9195 30.3917 54.4228C29.5276 53.0778 28.9035 51.8289 28.2314 50.532C26.7232 47.5371 25.5171 44.3993 24.6308 41.1651C24.1027 39.0996 23.9587 38.283 23.9107 38.5232C23.9865 39.702 24.1469 40.8739 24.3908 42.0297C24.9791 44.6432 25.7984 47.1991 26.8391 49.6673C27.5112 51.1084 28.2794 52.6455 29.1435 54.2307C30.0897 55.814 31.1318 57.3381 32.264 58.7938C33.4582 60.309 34.7577 61.7375 36.1526 63.069L37.2568 64.0297L37.7849 64.5103L38.3609 64.9427L39.5131 65.8551L40.6653 66.6238C43.5593 68.6085 46.7083 70.1919 50.0268 71.3313C51.515 71.7636 52.9072 72.196 54.1554 72.484C54.7379 72.6527 55.3315 72.7815 55.9316 72.8686L57.9479 73.2527L59.1001 73.4447L59.5802 73.5407L59.4364 73.0607C59.1961 72.484 59.0041 71.9557 58.812 71.5716C58.62 71.187 58.524 70.5626 58.4763 70.5626Z" fill="#1E1D1C"/>
</svg>
