<svg width="205" height="44" viewBox="0 0 205 44" fill="none" xmlns="http://www.w3.org/2000/svg">
<g clip-path="url(#clip0_784:49)">
<path d="M80.9884 24.8832L77.4749 15.5412C77.3315 15.1592 76.7836 15.1592 76.6399 15.5412L73.127 24.8838C73.1021 24.9502 73.0938 25.0215 73.1029 25.0918C73.1119 25.162 73.1381 25.2291 73.1791 25.2872C73.2202 25.3453 73.2748 25.3928 73.3385 25.4256C73.4021 25.4584 73.4729 25.4755 73.5447 25.4755H80.5707C80.6426 25.4754 80.7133 25.4583 80.7769 25.4255C80.8406 25.3927 80.8952 25.3452 80.9362 25.287C80.9772 25.2289 81.0033 25.1618 81.0124 25.0915C81.0214 25.0212 81.0131 24.9499 80.9881 24.8835L80.9884 24.8832ZM82.6114 30.1341H71.5043C71.4134 30.1341 71.3247 30.1616 71.2501 30.2128C71.1755 30.264 71.1186 30.3364 71.087 30.4205L68.9003 36.2333C68.8686 36.3173 68.8117 36.3898 68.7371 36.441C68.6625 36.4921 68.5738 36.5196 68.4829 36.5196H63.6688C63.596 36.5196 63.5243 36.502 63.46 36.4683C63.3958 36.4346 63.3408 36.3859 63.3001 36.3265C63.2593 36.267 63.2339 36.1986 63.2262 36.1272C63.2184 36.0559 63.2285 35.9837 63.2556 35.9171L74.3392 8.68234C74.3724 8.60099 74.4296 8.53131 74.5032 8.48226C74.5769 8.43321 74.6638 8.40704 74.7527 8.40713H79.3624C79.544 8.40713 79.7076 8.51604 79.7756 8.68234L90.8589 35.9168C90.8861 35.9834 90.8963 36.0557 90.8886 36.1271C90.8809 36.1986 90.8556 36.2671 90.8148 36.3266C90.774 36.3862 90.719 36.4349 90.6547 36.4686C90.5903 36.5023 90.5186 36.5199 90.4457 36.5199H85.6325C85.5416 36.5199 85.4528 36.4924 85.3782 36.4411C85.3036 36.3899 85.2467 36.3174 85.2151 36.2333L83.0281 30.4205C82.9965 30.3364 82.9396 30.264 82.865 30.2128C82.7904 30.1616 82.7017 30.1341 82.6108 30.1341H82.6114ZM93.1145 17.9651H97.232C97.3501 17.9651 97.4633 18.0114 97.5468 18.0938C97.6303 18.1761 97.6772 18.2878 97.6772 18.4043V36.0804C97.6772 36.1969 97.6303 36.3086 97.5468 36.391C97.4633 36.4733 97.3501 36.5196 97.232 36.5196H93.1145C92.9964 36.5196 92.8831 36.4733 92.7996 36.391C92.7162 36.3086 92.6692 36.1969 92.6692 36.0804V18.404C92.6692 18.2875 92.7162 18.1758 92.7996 18.0935C92.8831 18.0111 92.9964 17.9648 93.1145 17.9648V17.9651ZM112.694 22.2649C112.694 22.3813 112.647 22.493 112.564 22.5754C112.48 22.6578 112.367 22.704 112.249 22.704H112.124C110.088 22.704 108.595 23.1859 107.645 24.1498C106.695 25.1136 106.22 26.7069 106.22 28.9291V36.0804C106.22 36.1969 106.173 36.3086 106.09 36.391C106.006 36.4733 105.893 36.5196 105.775 36.5196H101.698C101.58 36.5196 101.467 36.4733 101.383 36.391C101.3 36.3086 101.253 36.1969 101.253 36.0804V18.404C101.253 18.2875 101.3 18.1758 101.383 18.0935C101.467 18.0111 101.58 17.9648 101.698 17.9648H105.734C105.852 17.9648 105.966 18.0111 106.049 18.0935C106.133 18.1758 106.179 18.2875 106.179 18.404V21.9004H106.261C106.75 20.4546 107.523 19.3441 108.582 18.5671C109.64 17.7909 110.943 17.4024 112.49 17.4024H112.694V22.2646V22.2649ZM123.953 22.1015C123.835 22.1015 123.721 22.1478 123.638 22.2301C123.554 22.3125 123.507 22.4242 123.507 22.5407V29.8929C123.507 30.6427 123.656 31.1782 123.955 31.4994C124.253 31.8205 124.769 31.9813 125.502 31.9813H125.912C126.03 31.9813 126.143 32.0275 126.227 32.1099C126.31 32.1923 126.357 32.304 126.357 32.4204V36.1203C126.357 36.2367 126.31 36.3484 126.227 36.4308C126.143 36.5132 126.03 36.5594 125.912 36.5594H124.158C122.34 36.5594 120.942 36.0977 119.965 35.174C118.987 34.2503 118.499 32.8786 118.499 31.0576V22.5407C118.499 22.4242 118.452 22.3125 118.368 22.2301C118.285 22.1478 118.172 22.1015 118.054 22.1015H115.483C115.365 22.1015 115.252 22.0552 115.169 21.9729C115.085 21.8905 115.038 21.7788 115.038 21.6623V18.404C115.038 18.2875 115.085 18.1758 115.169 18.0935C115.252 18.0111 115.365 17.9648 115.483 17.9648H118.054C118.172 17.9648 118.285 17.9186 118.369 17.8362C118.452 17.7539 118.499 17.6422 118.499 17.5257V10.9742C118.499 10.8577 118.546 10.746 118.629 10.6637C118.713 10.5813 118.826 10.535 118.944 10.535H123.062C123.18 10.535 123.293 10.5813 123.377 10.6637C123.46 10.746 123.507 10.8577 123.507 10.9742V17.5257C123.507 17.6422 123.554 17.7539 123.637 17.8362C123.721 17.9186 123.834 17.9648 123.952 17.9648H126.93C127.048 17.9648 127.161 18.0111 127.245 18.0935C127.328 18.1758 127.375 18.2875 127.375 18.404V21.6626C127.375 21.7791 127.328 21.8908 127.245 21.9732C127.161 22.0555 127.048 22.1018 126.93 22.1018H123.953V22.1015ZM142.807 31.0174C143.744 30.0536 144.212 28.7953 144.212 27.2421C144.212 25.6898 143.744 24.4308 142.807 23.467C141.871 22.5032 140.642 22.0213 139.122 22.0213C137.602 22.0213 136.374 22.5032 135.437 23.467C134.501 24.4308 134.033 25.6898 134.033 27.2421C134.033 28.7953 134.501 30.0536 135.437 31.0174C136.374 31.9813 137.602 32.4632 139.122 32.4632C140.642 32.4632 141.871 31.9813 142.807 31.0174ZM133.3 35.9572C131.915 35.181 130.823 34.0494 130.022 32.5636C129.221 31.0778 128.821 29.3041 128.821 27.2421C128.821 25.1809 129.221 23.4067 130.022 21.9209C130.823 20.435 131.915 19.3043 133.3 18.5273C134.684 17.7508 136.204 17.3626 137.86 17.3626C139.326 17.3626 140.581 17.6437 141.627 18.2058C142.671 18.7679 143.505 19.5581 144.13 20.5755H144.212V18.404C144.212 18.2875 144.259 18.1758 144.342 18.0935C144.426 18.0111 144.539 17.9648 144.657 17.9648H148.734C148.852 17.9648 148.965 18.0111 149.049 18.0935C149.132 18.1758 149.179 18.2875 149.179 18.404V36.0801C149.179 36.1966 149.132 36.3083 149.049 36.3907C148.965 36.473 148.852 36.5193 148.734 36.5193H144.657C144.539 36.5193 144.426 36.473 144.342 36.3907C144.259 36.3083 144.212 36.1966 144.212 36.0801V33.9089H144.13C143.505 34.9269 142.671 35.7162 141.626 36.2784C140.581 36.8405 139.326 37.1216 137.86 37.1216C136.204 37.1216 134.684 36.7333 133.3 35.9572V35.9572ZM166.134 31.0174C167.071 30.0536 167.539 28.7953 167.539 27.2421C167.539 25.6898 167.071 24.4308 166.134 23.467C165.198 22.5032 163.97 22.0213 162.45 22.0213C160.929 22.0213 159.701 22.5032 158.765 23.467C157.829 24.4308 157.36 25.6898 157.36 27.2421C157.36 28.7953 157.829 30.0536 158.765 31.0174C159.701 31.9813 160.929 32.4632 162.45 32.4632C163.97 32.4632 165.198 31.9813 166.134 31.0174ZM159.946 36.2784C158.901 35.7162 158.066 34.9269 157.442 33.9089H157.36V36.0801C157.36 36.1966 157.313 36.3083 157.23 36.3907C157.146 36.473 157.033 36.5193 156.915 36.5193H152.797C152.679 36.5193 152.566 36.473 152.482 36.3907C152.399 36.3083 152.352 36.1966 152.352 36.0801V8.84542C152.352 8.72894 152.399 8.61724 152.482 8.53488C152.566 8.45252 152.679 8.40625 152.797 8.40625H156.915C157.033 8.40625 157.146 8.45252 157.23 8.53488C157.313 8.61724 157.36 8.72894 157.36 8.84542V20.5752H157.442C158.066 19.5578 158.901 18.7679 159.946 18.2058C160.99 17.6434 162.246 17.3623 163.712 17.3623C165.367 17.3623 166.888 17.7505 168.272 18.527C169.656 19.304 170.749 20.4347 171.55 21.9203C172.35 23.407 172.751 25.1812 172.751 27.2424C172.751 29.3044 172.35 31.0778 171.55 32.5639C170.749 34.0497 169.657 35.1813 168.272 35.9572C166.888 36.7336 165.368 37.1221 163.712 37.1221C162.246 37.1221 160.991 36.8411 159.946 36.2787L159.946 36.2784ZM179.689 36.5196H175.571C175.453 36.5196 175.34 36.4733 175.256 36.391C175.173 36.3086 175.126 36.1969 175.126 36.0804V8.84629C175.126 8.72982 175.173 8.61812 175.256 8.53576C175.34 8.4534 175.453 8.40713 175.571 8.40713H179.689C179.807 8.40713 179.92 8.4534 180.003 8.53576C180.087 8.61812 180.134 8.72982 180.134 8.84629V36.0804C180.134 36.1969 180.087 36.3086 180.003 36.391C179.92 36.4733 179.807 36.5196 179.689 36.5196V36.5196ZM189.401 22.2625C188.718 22.7878 188.257 23.5461 188.019 24.538C187.953 24.8114 188.17 25.0738 188.455 25.0738H196.291C196.563 25.0738 196.776 24.8337 196.732 24.569C196.576 23.6307 196.168 22.8826 195.509 22.3228C194.735 21.667 193.723 21.3391 192.475 21.3391C191.226 21.3391 190.201 21.6468 189.401 22.2625V22.2625ZM199.438 19.9531C201.039 21.6805 201.84 24.1237 201.84 27.2825V27.8071C201.84 27.9236 201.793 28.0353 201.709 28.1177C201.626 28.2 201.513 28.2463 201.395 28.2463H188.303C188.238 28.2464 188.174 28.2606 188.115 28.2878C188.056 28.315 188.003 28.3546 187.961 28.4039C187.919 28.4531 187.889 28.5108 187.872 28.5729C187.855 28.6349 187.852 28.7 187.863 28.7633C188.072 29.9368 188.598 30.869 189.442 31.5597C190.405 32.3502 191.62 32.7445 193.086 32.7445C194.978 32.7445 196.73 32.0161 198.34 30.559C198.537 30.3809 198.849 30.4187 199.002 30.6351L201.003 33.4692C201.066 33.5573 201.094 33.6651 201.081 33.7721C201.069 33.8791 201.017 33.9778 200.935 34.0494C199.953 34.8978 198.86 35.6137 197.687 36.1782C196.384 36.8071 194.85 37.1221 193.086 37.1221C191.05 37.1221 189.272 36.7134 187.752 35.8972C186.231 35.0809 185.051 33.9297 184.21 32.4433C183.368 30.9574 182.948 29.2374 182.948 27.2825C182.948 25.3285 183.355 23.6017 184.169 22.1018C184.983 20.6028 186.123 19.4381 187.589 18.6078C189.055 17.7783 190.765 17.3629 192.72 17.3629C195.596 17.3629 197.836 18.2266 199.438 19.9531V19.9531ZM98.2151 11.4303C98.2151 13.0869 96.8536 14.4298 95.1738 14.4298C93.4938 14.4298 92.1323 13.0869 92.1323 11.4301C92.1323 9.77323 93.4941 8.43026 95.1738 8.43026C96.8536 8.43026 98.2151 9.77323 98.2151 11.4301" fill="white"/>
<path d="M23.4491 0.485786L3.87065 8.47656C2.7819 8.92099 2.79318 10.4467 3.88876 10.875L23.5488 18.5651C25.2762 19.2408 27.1999 19.2408 28.9273 18.5651L48.5876 10.8747C49.6829 10.4467 49.6948 8.92129 48.6054 8.47685L29.0276 0.485493C27.2414 -0.243537 25.235 -0.243537 23.4488 0.485493" fill="#FCB400"/>
<path d="M27.9824 22.764V41.9752C27.9824 42.8887 28.9165 43.5146 29.7776 43.1779L51.6849 34.7905C51.9292 34.6949 52.1388 34.5292 52.2865 34.3147C52.4342 34.1003 52.5131 33.847 52.5131 33.5877V14.3769C52.5131 13.4631 51.579 12.8374 50.7179 13.1741L28.8106 21.5616C28.5663 21.6572 28.3567 21.823 28.2091 22.0374C28.0614 22.2519 27.9824 22.5051 27.9824 22.7643" fill="#18BFFF"/>
<path d="M22.8666 23.7554L16.365 26.8518L15.7049 27.1666L1.9804 33.653C1.11071 34.067 0 33.4417 0 32.4884V14.4574C0 14.1125 0.179281 13.8147 0.419708 13.5908C0.518342 13.4939 0.630242 13.4111 0.752149 13.3448C1.07984 13.1507 1.54763 13.0989 1.94538 13.2541L22.7574 21.388C23.8153 21.802 23.8984 23.2641 22.8666 23.7557" fill="#F82B60"/>
<path d="M22.8669 23.7554L16.3653 26.8518L0.419922 13.5905C0.518575 13.4937 0.630475 13.411 0.752364 13.3448C1.08006 13.1507 1.54785 13.0989 1.94559 13.2541L22.7576 21.388C23.8155 21.802 23.8986 23.2641 22.8669 23.7557" fill="black" fill-opacity="0.25"/>
</g>
<defs>
<clipPath id="clip0_784:49">
<rect width="205" height="44" fill="white"/>
</clipPath>
</defs>
</svg>
