<svg width="141" height="30" viewBox="0 0 141 30" fill="none" xmlns="http://www.w3.org/2000/svg">
<g clip-path="url(#clip0_784:49)">
<path d="M55.704 16.9657L53.2874 10.5962C53.1888 10.3357 52.812 10.3357 52.7131 10.5962L50.297 16.9661C50.2798 17.0114 50.2741 17.0601 50.2803 17.108C50.2866 17.1559 50.3046 17.2016 50.3328 17.2412C50.361 17.2808 50.3986 17.3132 50.4424 17.3355C50.4862 17.3579 50.5348 17.3696 50.5842 17.3695H55.4168C55.4662 17.3695 55.5148 17.3578 55.5586 17.3355C55.6024 17.3131 55.64 17.2807 55.6682 17.2411C55.6964 17.2014 55.7143 17.1557 55.7205 17.1078C55.7267 17.0599 55.721 17.0112 55.7038 16.9659L55.704 16.9657ZM56.8204 20.5459H49.1808C49.1183 20.5459 49.0573 20.5646 49.006 20.5995C48.9547 20.6344 48.9155 20.6838 48.8938 20.7411L47.3898 24.7044C47.368 24.7617 47.3289 24.8111 47.2775 24.846C47.2262 24.8809 47.1652 24.8996 47.1027 24.8996H43.7915C43.7415 24.8996 43.6922 24.8876 43.648 24.8647C43.6038 24.8417 43.566 24.8085 43.5379 24.768C43.5099 24.7274 43.4924 24.6808 43.4871 24.6321C43.4818 24.5835 43.4887 24.5343 43.5073 24.4888L51.1307 5.91969C51.1536 5.86422 51.1928 5.81671 51.2435 5.78327C51.2942 5.74983 51.354 5.73199 51.4151 5.73204H54.5857C54.7106 5.73204 54.8231 5.8063 54.8698 5.91969L62.493 24.4886C62.5117 24.5341 62.5188 24.5833 62.5135 24.632C62.5082 24.6808 62.4907 24.7275 62.4627 24.7681C62.4346 24.8087 62.3968 24.8419 62.3526 24.8649C62.3083 24.8879 62.259 24.8999 62.2089 24.8998H58.8983C58.8357 24.8998 58.7747 24.8811 58.7234 24.8461C58.6721 24.8112 58.6329 24.7617 58.6112 24.7044L57.107 20.7411C57.0852 20.6838 57.0461 20.6344 56.9948 20.5995C56.9435 20.5646 56.8825 20.5459 56.8199 20.5459H56.8204ZM64.0444 12.2489H66.8765C66.9577 12.2489 67.0356 12.2804 67.093 12.3366C67.1504 12.3927 67.1827 12.4689 67.1827 12.5483V24.6002C67.1827 24.6796 67.1504 24.7558 67.093 24.8119C67.0356 24.8681 66.9577 24.8996 66.8765 24.8996H64.0444C63.9632 24.8996 63.8853 24.8681 63.8279 24.8119C63.7704 24.7558 63.7382 24.6796 63.7382 24.6002V12.5481C63.7382 12.4687 63.7704 12.3925 63.8279 12.3364C63.8853 12.2802 63.9632 12.2487 64.0444 12.2487V12.2489ZM77.5114 15.1805C77.5114 15.2599 77.4791 15.3361 77.4217 15.3922C77.3643 15.4484 77.2864 15.4799 77.2051 15.4799H77.1194C75.7191 15.4799 74.692 15.8085 74.0387 16.4657C73.385 17.1228 73.0587 18.2091 73.0587 19.7243V24.6002C73.0587 24.6796 73.0265 24.7558 72.969 24.8119C72.9116 24.8681 72.8337 24.8996 72.7525 24.8996H69.9482C69.867 24.8996 69.7891 24.8681 69.7317 24.8119C69.6742 24.7558 69.642 24.6796 69.642 24.6002V12.5481C69.642 12.4687 69.6742 12.3925 69.7317 12.3364C69.7891 12.2802 69.867 12.2487 69.9482 12.2487H72.7243C72.8055 12.2487 72.8834 12.2802 72.9409 12.3364C72.9983 12.3925 73.0306 12.4687 73.0306 12.5481V14.932H73.0867C73.4227 13.9462 73.9548 13.1891 74.6832 12.6593C75.411 12.1301 76.3073 11.8652 77.3713 11.8652H77.5114V15.1803V15.1805ZM85.255 15.0691C85.1738 15.0691 85.0959 15.1007 85.0385 15.1568C84.9811 15.213 84.9488 15.2891 84.9488 15.3685V20.3814C84.9488 20.8927 85.0509 21.2578 85.2567 21.4767C85.4618 21.6957 85.8167 21.8053 86.3207 21.8053H86.6027C86.6839 21.8053 86.7618 21.8369 86.8192 21.893C86.8766 21.9492 86.9089 22.0253 86.9089 22.1048V24.6274C86.9089 24.7068 86.8766 24.7829 86.8192 24.8391C86.7618 24.8952 86.6839 24.9268 86.6027 24.9268H85.3965C84.1456 24.9268 83.1843 24.612 82.5122 23.9822C81.8399 23.3524 81.5039 22.4172 81.5039 21.1755V15.3685C81.5039 15.2891 81.4716 15.213 81.4142 15.1568C81.3567 15.1007 81.2788 15.0691 81.1976 15.0691H79.4298C79.3486 15.0691 79.2707 15.0376 79.2133 14.9814C79.1559 14.9253 79.1236 14.8491 79.1236 14.7697V12.5481C79.1236 12.4687 79.1559 12.3925 79.2133 12.3364C79.2707 12.2802 79.3486 12.2487 79.4298 12.2487H81.1978C81.279 12.2487 81.3569 12.2171 81.4144 12.161C81.4718 12.1048 81.5041 12.0287 81.5041 11.9492V7.48232C81.5041 7.40291 81.5363 7.32674 81.5938 7.27059C81.6512 7.21444 81.7291 7.18289 81.8103 7.18289H84.6424C84.7236 7.18289 84.8015 7.21444 84.8589 7.27059C84.9163 7.32674 84.9486 7.40291 84.9486 7.48232V11.9492C84.9486 12.0287 84.9808 12.1048 85.0383 12.161C85.0957 12.2171 85.1736 12.2487 85.2548 12.2487H87.3027C87.3839 12.2487 87.4618 12.2802 87.5192 12.3364C87.5767 12.3925 87.6089 12.4687 87.6089 12.5481V14.7699C87.6089 14.8493 87.5767 14.9255 87.5192 14.9816C87.4618 15.0378 87.3839 15.0693 87.3027 15.0693H85.255V15.0691ZM98.2232 21.1482C98.8673 20.491 99.1893 19.633 99.1893 18.5741C99.1893 17.5157 98.8673 16.6573 98.2232 16.0001C97.5791 15.343 96.7341 15.0144 95.6886 15.0144C94.6429 15.0144 93.7986 15.343 93.1542 16.0001C92.5103 16.6573 92.1882 17.5157 92.1882 18.5741C92.1882 19.633 92.5103 20.491 93.1542 21.1482C93.7986 21.8053 94.6429 22.1339 95.6886 22.1339C96.7341 22.1339 97.5791 21.8053 98.2232 21.1482ZM91.6841 24.5162C90.7319 23.987 89.9802 23.2154 89.4298 22.2024C88.8788 21.1893 88.6036 19.98 88.6036 18.5741C88.6036 17.1687 88.8788 15.959 89.4298 14.9459C89.9802 13.9329 90.7319 13.1619 91.6841 12.6321C92.6363 12.1027 93.6816 11.838 94.8206 11.838C95.8287 11.838 96.6921 12.0297 97.4113 12.413C98.1295 12.7962 98.7036 13.335 99.1334 14.0287H99.1893V12.5481C99.1893 12.4687 99.2216 12.3925 99.279 12.3364C99.3364 12.2802 99.4143 12.2487 99.4955 12.2487H102.3C102.381 12.2487 102.459 12.2802 102.516 12.3364C102.574 12.3925 102.606 12.4687 102.606 12.5481V24.6C102.606 24.6794 102.574 24.7556 102.516 24.8117C102.459 24.8679 102.381 24.8994 102.3 24.8994H99.4955C99.4143 24.8994 99.3364 24.8679 99.279 24.8117C99.2216 24.7556 99.1893 24.6794 99.1893 24.6V23.1196H99.1334C98.7036 23.8137 98.1295 24.3519 97.4111 24.7352C96.6921 25.1184 95.8289 25.3101 94.8206 25.3101C93.6816 25.3101 92.6363 25.0454 91.6841 24.5162V24.5162ZM114.268 21.1482C114.912 20.491 115.234 19.633 115.234 18.5741C115.234 17.5157 114.912 16.6573 114.268 16.0001C113.624 15.343 112.779 15.0144 111.733 15.0144C110.688 15.0144 109.843 15.343 109.199 16.0001C108.555 16.6573 108.233 17.5157 108.233 18.5741C108.233 19.633 108.555 20.491 109.199 21.1482C109.843 21.8053 110.688 22.1339 111.733 22.1339C112.779 22.1339 113.624 21.8053 114.268 21.1482ZM110.011 24.7352C109.292 24.3519 108.718 23.8137 108.289 23.1196H108.233V24.6C108.233 24.6794 108.201 24.7556 108.143 24.8117C108.086 24.8679 108.008 24.8994 107.927 24.8994H105.095C105.013 24.8994 104.935 24.8679 104.878 24.8117C104.821 24.7556 104.788 24.6794 104.788 24.6V6.03088C104.788 5.95146 104.821 5.8753 104.878 5.81915C104.935 5.76299 105.013 5.73145 105.095 5.73145H107.927C108.008 5.73145 108.086 5.76299 108.143 5.81915C108.201 5.8753 108.233 5.95146 108.233 6.03088V14.0285H108.289C108.718 13.3348 109.292 12.7962 110.011 12.413C110.73 12.0295 111.593 11.8378 112.602 11.8378C113.74 11.8378 114.786 12.1025 115.738 12.6319C116.69 13.1617 117.442 13.9327 117.992 14.9455C118.543 15.9592 118.819 17.1689 118.819 18.5743C118.819 19.9802 118.543 21.1893 117.993 22.2026C117.442 23.2156 116.691 23.9872 115.738 24.5162C114.786 25.0456 113.741 25.3105 112.602 25.3105C111.594 25.3105 110.73 25.1188 110.011 24.7354L110.011 24.7352ZM123.59 24.8996H120.758C120.677 24.8996 120.599 24.8681 120.542 24.8119C120.484 24.7558 120.452 24.6796 120.452 24.6002V6.03148C120.452 5.95206 120.484 5.8759 120.542 5.81975C120.599 5.76359 120.677 5.73204 120.758 5.73204H123.59C123.672 5.73204 123.75 5.76359 123.807 5.81975C123.864 5.8759 123.897 5.95206 123.897 6.03148V24.6002C123.897 24.6796 123.864 24.7558 123.807 24.8119C123.75 24.8681 123.672 24.8996 123.59 24.8996V24.8996ZM130.271 15.1789C129.801 15.537 129.484 16.054 129.32 16.7304C129.275 16.9168 129.424 17.0957 129.62 17.0957H135.01C135.197 17.0957 135.344 16.932 135.313 16.7515C135.206 16.1117 134.925 15.6017 134.472 15.22C133.94 14.7729 133.244 14.5493 132.385 14.5493C131.526 14.5493 130.821 14.7591 130.271 15.1789V15.1789ZM137.174 13.6043C138.275 14.7821 138.826 16.4479 138.826 18.6016V18.9593C138.826 19.0387 138.794 19.1149 138.737 19.1711C138.679 19.2272 138.601 19.2588 138.52 19.2588H129.516C129.471 19.2588 129.427 19.2685 129.386 19.2871C129.345 19.3056 129.309 19.3326 129.281 19.3662C129.252 19.3998 129.231 19.4391 129.219 19.4814C129.207 19.5237 129.205 19.5681 129.213 19.6113C129.357 20.4114 129.719 21.047 130.299 21.5179C130.961 22.0568 131.797 22.3257 132.805 22.3257C134.107 22.3257 135.311 21.8291 136.419 20.8356C136.555 20.7142 136.769 20.7399 136.874 20.8875L138.251 22.8198C138.294 22.8799 138.313 22.9534 138.304 23.0264C138.296 23.0993 138.26 23.1666 138.204 23.2154C137.528 23.7939 136.777 24.2819 135.97 24.6669C135.073 25.0957 134.019 25.3105 132.805 25.3105C131.405 25.3105 130.182 25.0318 129.137 24.4752C128.091 23.9187 127.279 23.1338 126.7 22.1203C126.121 21.1072 125.832 19.9345 125.832 18.6016C125.832 17.2693 126.112 16.092 126.672 15.0693C127.232 14.0473 128.016 13.2532 129.025 12.687C130.033 12.1215 131.209 11.8382 132.553 11.8382C134.532 11.8382 136.072 12.4271 137.174 13.6043V13.6043ZM67.5526 7.79333C67.5526 8.92278 66.6162 9.83845 65.4609 9.83845C64.3053 9.83845 63.3689 8.92278 63.3689 7.79313C63.3689 6.66348 64.3055 5.74781 65.4609 5.74781C66.6162 5.74781 67.5526 6.66348 67.5526 7.79313" fill="#C4C4C4"/>
<path d="M16.1288 0.331251L2.66266 5.7795C1.91382 6.08253 1.92157 7.12275 2.67512 7.4148L16.1974 12.658C17.3855 13.1188 18.7086 13.1188 19.8967 12.658L33.4192 7.4146C34.1726 7.12275 34.1807 6.08273 33.4315 5.7797L19.9657 0.331052C18.7372 -0.166015 17.3571 -0.166015 16.1286 0.331052" fill="#66696A"/>
<path d="M19.2461 15.521V28.6195C19.2461 29.2423 19.8886 29.6691 20.4808 29.4395L35.5488 23.7208C35.7168 23.6557 35.861 23.5427 35.9626 23.3964C36.0641 23.2502 36.1184 23.0775 36.1184 22.9008V9.80243C36.1184 9.17942 35.4759 8.75283 34.8836 8.98239L19.8157 14.7011C19.6477 14.7663 19.5035 14.8793 19.402 15.0255C19.3004 15.1718 19.2461 15.3444 19.2461 15.5212" fill="#C4C4C4"/>
<path d="M15.7278 16.1969L11.256 18.3081L10.8019 18.5227L1.36213 22.9453C0.763953 23.2275 0 22.8012 0 22.1512V9.85733C0 9.62218 0.12331 9.41917 0.288677 9.26646C0.356518 9.2004 0.433483 9.14396 0.517332 9.09877C0.74272 8.96643 1.06447 8.93109 1.33804 9.03689L15.6527 14.5828C16.3803 14.865 16.4374 15.8619 15.7278 16.1971" fill="#575554"/>
<path d="M15.7282 16.1969L11.2563 18.3081L0.289062 9.26626C0.356917 9.20027 0.433882 9.1439 0.517718 9.09877C0.743106 8.96643 1.06486 8.93109 1.33843 9.03689L15.653 14.5828C16.3807 14.865 16.4378 15.8619 15.7282 16.1971" fill="black" fill-opacity="0.25"/>
</g>
<defs>
<clipPath id="clip0_784:49">
<rect width="141" height="30" fill="white"/>
</clipPath>
</defs>
</svg>
