<svg width="136" height="21" viewBox="0 0 136 21" fill="none" xmlns="http://www.w3.org/2000/svg">
<path d="M9.38271 21C13.9531 21 17.233 18.6426 17.7976 13.9819H14.3026C13.9262 16.7187 12.0443 18.0735 9.38271 18.0735C5.83395 18.0735 3.76384 15.4994 3.76384 11.1368V10.92C3.76384 6.58452 5.96837 3.92903 9.35583 3.92903C12.1249 3.92903 13.5498 5.25677 13.9531 7.83097H17.5825C17.1524 3.27871 13.738 1.05677 9.32894 1.05677C3.97892 1.05677 0 5.12129 0 10.9471V11.1639C0 17.1252 3.36057 21 9.38271 21Z" fill="white"/>
<path d="M19.5508 20.729H22.8038V12.3832C22.8038 10.1342 24.2824 8.99613 26.1106 8.99613C28.0463 8.99613 28.9066 9.97161 28.9066 12.1123V20.729H32.1596V11.8142C32.1596 7.91226 30.1702 6.25935 27.3473 6.25935C25.0352 6.25935 23.4759 7.42452 22.8038 8.80645V0H19.5508V20.729Z" fill="white"/>
<path d="M38.5151 21C40.6658 21 41.9025 20.2142 42.8166 18.9948V20.729H46.0159V11.4348C46.0159 7.56 43.5425 6.25935 40.397 6.25935C37.2515 6.25935 34.6437 7.64129 34.3749 10.9471H37.5204C37.6817 9.53806 38.5151 8.72516 40.2088 8.72516C42.1176 8.72516 42.7628 9.67355 42.7628 11.5703V12.3019H41.0153C36.9827 12.3019 33.8103 13.4942 33.8103 16.8C33.8103 19.7535 35.9342 21 38.5151 21ZM39.2947 18.6426C37.6817 18.6426 37.0364 17.8568 37.0364 16.6645C37.0364 14.9303 38.6226 14.3613 41.096 14.3613H42.7628V15.7703C42.7628 17.5858 41.2842 18.6426 39.2947 18.6426Z" fill="white"/>
<path d="M48.7497 20.729H52.0027V6.55742H48.7497V20.729ZM50.3359 4.2271C51.4113 4.2271 52.2716 3.41419 52.2716 2.35742C52.2716 1.27355 51.4113 0.460646 50.3359 0.460646C49.2605 0.460646 48.4002 1.27355 48.4002 2.35742C48.4002 3.41419 49.2605 4.2271 50.3359 4.2271Z" fill="white"/>
<path d="M59.6779 20.9729C60.6726 20.9729 61.3716 20.8103 61.8824 20.6206V18.0194C61.4254 18.209 60.9414 18.2903 60.2962 18.2903C59.2746 18.2903 58.6831 17.7213 58.6831 16.4748V9.02323H61.7748V6.55742H58.6831V3.44129H55.4301V6.55742H53.5482V9.02323H55.4301V16.7729C55.4301 19.4555 56.8819 20.9729 59.6779 20.9729Z" fill="white"/>
<path d="M63.7412 20.729H66.9942V13.3587C66.9942 10.351 68.7149 9.42968 71.5646 9.40258V6.34065C69.1988 6.36774 67.8814 7.42452 66.9942 9.2129V6.55742H63.7412V20.729Z" fill="white"/>
<path d="M76.772 21C78.9228 21 80.1595 20.2142 81.0736 18.9948V20.729H84.2728V11.4348C84.2728 7.56 81.7994 6.25935 78.6539 6.25935C75.5085 6.25935 72.9007 7.64129 72.6318 10.9471H75.7773C75.9386 9.53806 76.772 8.72516 78.4658 8.72516C80.3746 8.72516 81.0198 9.67355 81.0198 11.5703V12.3019H79.2723C75.2396 12.3019 72.0672 13.4942 72.0672 16.8C72.0672 19.7535 74.1911 21 76.772 21ZM77.5517 18.6426C75.9386 18.6426 75.2934 17.8568 75.2934 16.6645C75.2934 14.9303 76.8796 14.3613 79.3529 14.3613H81.0198V15.7703C81.0198 17.5858 79.5411 18.6426 77.5517 18.6426Z" fill="white"/>
<path d="M92.5255 20.729H96.1012V12.8981H98.3864L103.414 20.729H107.285L101.881 12.3561C104.274 11.7329 106.156 10.1884 106.156 7.15355V7.04516C106.156 3.08903 103.199 1.35484 98.9778 1.35484H92.5255V20.729ZM96.1012 10.3239V4.14581H98.9778C101.263 4.14581 102.634 4.90452 102.634 7.12645V7.23484C102.634 9.29419 101.371 10.3239 98.9778 10.3239H96.1012Z" fill="white"/>
<path d="M112.35 21C114.501 21 115.737 20.2142 116.651 18.9948V20.729H119.851V11.4348C119.851 7.56 117.377 6.25935 114.232 6.25935C111.086 6.25935 108.479 7.64129 108.21 10.9471H111.355C111.517 9.53806 112.35 8.72516 114.044 8.72516C115.953 8.72516 116.598 9.67355 116.598 11.5703V12.3019H114.85C110.818 12.3019 107.645 13.4942 107.645 16.8C107.645 19.7535 109.769 21 112.35 21ZM113.13 18.6426C111.517 18.6426 110.871 17.8568 110.871 16.6645C110.871 14.9303 112.458 14.3613 114.931 14.3613H116.598V15.7703C116.598 17.5858 115.119 18.6426 113.13 18.6426Z" fill="white"/>
<path d="M128.795 18.4529C126.322 18.4529 124.897 16.6374 124.897 13.7381V13.5213C124.897 10.5948 126.375 8.83355 128.795 8.83355C131.215 8.83355 132.666 10.6219 132.666 13.5484V13.7381C132.666 16.6374 131.215 18.4529 128.795 18.4529ZM128.768 21C132.908 21 136 18.1277 136 13.711V13.4942C136 9.15871 132.908 6.25935 128.795 6.25935C124.655 6.25935 121.563 9.18581 121.563 13.5755V13.7923C121.563 18.1006 124.628 21 128.768 21Z" fill="white"/>
</svg>
