<svg width="116" height="116" viewBox="0 0 116 116" fill="none" xmlns="http://www.w3.org/2000/svg">
<path d="M72.369 87.6276L72.6404 87.7361L73.2923 87.9536L74.3241 88.225L75.791 88.4971C77.0745 88.6467 78.3737 88.6102 79.6474 88.388C81.2342 88.0847 82.7585 87.5157 84.1557 86.7043C85.6991 85.7803 87.0464 84.5623 88.1206 83.1193C89.2284 81.5951 90.0056 79.8556 90.4017 78.0136C90.7723 76.2423 90.7909 74.4147 90.4562 72.6364C90.1529 71.0408 89.5242 69.5247 88.6095 68.182C88.0771 67.3265 87.3967 66.5719 86.5998 65.9554C86.1109 65.6294 85.9479 65.6294 86.0024 65.9008C86.0564 66.1723 87.3602 67.8566 88.229 70.3547C88.6704 71.7971 88.8723 73.3016 88.827 74.8091C88.7945 76.5827 88.3677 78.3268 87.5777 79.9148L87.2517 80.5667L86.8713 81.1641C86.6543 81.5985 86.3284 81.9245 86.0564 82.3589C85.3998 83.1147 84.6725 83.806 83.8837 84.4231C83.4887 84.7259 83.0711 84.9979 82.6344 85.238L81.9285 85.6179L81.6025 85.7809L81.2227 85.8894C80.2633 86.2931 79.2611 86.5848 78.2351 86.7588C76.4104 87.0012 74.555 86.8342 72.8034 86.2699C71.4798 85.7983 70.2485 85.0994 69.1639 84.2056C67.7881 83.099 66.6902 81.685 65.9594 80.0778L65.6334 79.2629L65.4159 78.557C65.2472 78.136 65.1196 77.6992 65.036 77.2532C64.9142 76.8072 64.8232 76.3536 64.7646 75.8954L64.6016 75.0805C64.5471 74.7545 64.5471 74.4831 64.4926 74.1026C64.4386 73.7227 64.4386 73.1793 64.3296 73.2338C64.2211 73.2883 64.1127 73.7227 64.0042 74.3746C63.9561 74.7528 63.9381 75.1339 63.9497 75.5149C63.9427 76.0044 63.9607 76.494 64.0042 76.9817C64.126 78.1406 64.4189 79.2756 64.8731 80.3492C65.3469 81.5214 65.9872 82.6188 66.7743 83.6082C67.5277 84.5026 68.385 85.3053 69.3269 85.9984C70.0055 86.4903 70.7334 86.909 71.4995 87.2477L72.1515 87.5192L72.369 87.6276Z" fill="#1E1D1C"/>
<path d="M31.9026 81.3809L32.1199 81.1095C32.2612 80.8427 32.4247 80.5886 32.6087 80.3491C33.294 79.4141 34.1182 78.59 35.053 77.905C36.4258 76.8819 37.999 76.1598 39.6699 75.7862L40.4304 75.6778L41.1365 75.5693H42.7117C43.8034 75.6099 44.8832 75.8112 45.9164 76.1667C47.0099 76.546 48.0365 77.0959 48.9581 77.7965C49.95 78.4716 50.8144 79.3179 51.5111 80.2946C52.2304 81.2725 52.7981 82.3524 53.1949 83.4997C53.5257 84.6689 53.7261 85.8713 53.7924 87.0846C53.7799 88.2992 53.597 89.5056 53.2492 90.6696C52.9056 91.7815 52.4122 92.8411 51.7826 93.8196C51.1418 94.7215 50.394 95.5422 49.5556 96.2643C48.7609 96.9481 47.8853 97.5316 46.9484 98.002C45.6881 98.5814 44.3537 98.9833 42.9833 99.1974C42.2228 99.3603 42.0056 99.4688 42.3858 99.5773L43.3092 99.7402H44.9387C46.732 99.5135 48.4452 98.8615 49.9358 97.839C52.1174 96.4337 53.8071 94.3834 54.7701 91.9729C56.0635 88.8351 56.109 85.3214 54.8974 82.1512C53.6858 78.9809 51.3085 76.3929 48.252 74.9174C46.5818 74.1141 44.7617 73.6704 42.9092 73.6141C41.0567 73.5579 39.213 73.8908 37.4973 74.5914C35.884 75.1946 34.4202 76.14 33.2062 77.3615C32.1432 78.3614 31.2612 79.5377 30.599 80.838C30.0312 81.9748 29.6114 83.1795 29.3497 84.423C29.1476 85.4786 29.0747 86.5545 29.1325 87.6275C29.2201 89.3176 29.6255 90.9764 30.3274 92.5163C30.8081 93.6183 31.4486 94.6432 32.2285 95.5579C33.2918 96.8037 34.5821 97.8355 36.0307 98.5994C37.5382 99.3255 39.1917 99.6973 40.8649 99.6857C41.8969 99.6857 42.2772 99.5773 42.1685 99.5233L41.6796 99.3603L40.539 99.1974L39.7786 99.0344L38.9638 98.7624C38.6409 98.7026 38.3293 98.593 38.0404 98.437L37.5516 98.274L37.0627 98.002C35.627 97.2897 34.3517 96.2916 33.3148 95.0689C32.1675 93.7512 31.332 92.1915 30.8706 90.5066C30.4324 89.0091 30.303 87.4384 30.4903 85.8893C30.6056 84.7525 30.8799 83.6371 31.3051 82.5763L31.7397 81.7069L31.8483 81.49L31.9026 81.3809Z" fill="#1E1D1C"/>
<path d="M38.3115 93.6567L38.1486 93.4937L37.6597 93.1677C37.0727 92.7478 36.5589 92.2339 36.1388 91.647C35.4432 90.6766 34.9912 89.5532 34.821 88.3717C34.6508 87.1897 34.7675 85.9844 35.1611 84.8575C35.6352 83.4643 36.5264 82.2504 37.714 81.381C38.9408 80.5133 40.3945 80.022 41.8964 79.9693C42.6508 79.9664 43.4014 80.0766 44.1234 80.2946C44.8136 80.5139 45.4713 80.8242 46.0789 81.218C47.2221 81.9523 48.1426 82.9858 48.7404 84.2056C49.1404 84.977 49.4328 85.7994 49.6094 86.6497C49.7724 87.1386 49.881 87.3016 49.9897 87.0847C50.1625 86.5227 50.218 85.9305 50.1526 85.3464C50.0622 84.1708 49.6895 83.034 49.0663 82.0329C48.1529 80.5574 46.806 79.4003 45.2098 78.7199C43.2129 77.8639 40.9721 77.767 38.909 78.4479C37.77 78.8325 36.7181 79.4386 35.814 80.2308C34.9097 81.0231 34.1711 81.9865 33.6402 83.0653C33.1054 84.1992 32.8145 85.4334 32.7864 86.6868C32.7584 87.9408 32.9937 89.1866 33.4773 90.3437C34.3372 92.3279 35.8518 93.9577 37.7683 94.9605C38.5052 95.3277 39.2923 95.584 40.104 95.7209C40.8204 95.852 41.5487 95.9065 42.2767 95.8839C43.3843 95.8015 44.469 95.526 45.4813 95.069C46.2164 94.7442 46.8948 94.304 47.4911 93.7657C48.3397 93.0935 49.0265 92.2397 49.5008 91.2671C49.9738 90.2672 50.1975 89.1675 50.1526 88.062C49.9897 86.6497 49.881 87.0302 49.6638 88.225C49.477 88.9784 49.2036 89.7075 48.849 90.3977C48.3773 91.3112 47.7314 92.1226 46.9479 92.7878C46.1134 93.5024 45.1299 94.0221 44.0691 94.3086C43.1135 94.5632 42.1187 94.6369 41.136 94.5261C40.4208 94.4716 39.7214 94.2871 39.0719 93.9826L38.5288 93.7112L38.3115 93.6567Z" fill="#1E1D1C"/>
<path d="M77.0398 78.72H76.4418C75.8786 78.727 75.316 78.6904 74.7581 78.611C73.2373 78.394 71.0646 78.122 68.6205 77.9051C67.1635 77.6192 65.6619 77.6563 64.2206 78.0136C63.4318 78.2949 62.683 78.6782 61.9934 79.1544C61.4157 79.5633 60.8705 80.0175 60.3642 80.5122C59.3254 81.3694 58.3626 82.3148 57.4854 83.3368C56.6667 84.295 55.9731 85.354 55.4213 86.4868C55.0578 87.1979 54.8363 87.9727 54.7695 88.7685C54.7695 89.2029 54.8782 89.3659 55.1498 89.2574C55.4213 89.1484 56.4534 87.8451 57.8656 86.4328C59.2779 85.0205 59.4954 84.966 60.4727 84.1517L62.1564 82.9024L63.8407 81.6531C64.3349 81.3294 64.8888 81.1079 65.4699 81.0011C66.1654 80.8503 66.8811 80.8138 67.5881 80.8927C69.2179 81.0011 70.9562 81.0551 72.6944 81.0551H75.1385C75.9036 81.0423 76.6663 80.9692 77.4197 80.8382C78.1058 80.6845 78.7653 80.4281 79.3749 80.0778C79.9189 79.7211 80.3667 79.2362 80.6787 78.6655C80.967 78.191 81.1178 77.6453 81.1131 77.0902C81.1676 76.6755 81.1676 76.2556 81.1131 75.8409C81.0047 75.1165 80.8962 74.5191 80.7872 74.0487C80.6416 73.2315 80.3661 72.4432 79.9728 71.713C79.7681 71.3824 79.5315 71.0733 79.2664 70.7897C78.9271 70.415 78.4967 70.1343 78.0171 69.9748C77.8471 69.8965 77.661 69.8593 77.4742 69.8663C77.3652 69.9202 77.3112 69.9202 77.3112 70.0293C77.3112 70.1377 77.5281 70.3547 77.7456 70.6267C78.0867 71.0443 78.3448 71.5239 78.506 72.039C78.7577 72.7657 78.9573 73.5104 79.1034 74.2656C79.2745 75.0689 79.3476 75.8896 79.3209 76.7103C79.3163 77.241 79.1011 77.7491 78.7235 78.122C78.3883 78.3749 77.9968 78.5425 77.5827 78.611L77.0398 78.72Z" fill="#1E1D1C"/>
<path d="M53.7384 78.394C54.4445 80.7296 54.3358 83.2822 55.042 85.6179C55.2049 86.0523 56.5085 85.6179 56.6171 85.238C57.0339 83.8512 57.3426 82.4348 57.5406 81.0011C57.7306 79.543 58.0579 78.1063 58.5184 76.7102L56.943 77.0356C56.943 78.6654 56.7801 80.2946 56.6715 81.9244L56.5085 84.3686C56.5085 84.966 56.3456 85.9984 56.9974 86.2698C57.2136 86.3382 57.442 86.3585 57.667 86.3307C57.892 86.3023 58.1083 86.2263 58.3009 86.1068C58.6587 85.9282 58.9319 85.6161 59.0613 85.238C59.2202 84.7763 59.3472 84.3042 59.4417 83.8257C59.8216 82.4673 60.1476 81.0556 60.4736 79.6433C60.7995 78.231 61.071 76.9817 61.506 75.7324L59.9846 76.0583C60.0119 76.5826 60.0119 77.1087 59.9846 77.6336C59.9846 78.4479 59.9307 79.2628 59.8762 80.0777C59.8216 80.8926 59.8216 81.653 59.8216 82.4673C59.7677 82.9911 59.7677 83.5189 59.8216 84.0426C59.9307 84.5315 61.18 84.0426 61.343 83.8257C61.6469 83.3605 61.8673 82.8455 61.9943 82.3043C62.2663 81.49 62.4833 80.6751 62.7008 79.8602C62.9177 79.0453 63.4066 77.1447 63.6241 75.7324L62.1034 76.1668C62.0488 76.1123 62.1034 76.3843 62.1034 76.4382V77.0901C62.1034 77.7421 62.0488 78.3395 62.0488 78.9914C62.0488 79.6433 61.9943 80.1862 61.9404 80.7836C61.8841 81.1188 61.941 81.4628 62.1034 81.7615C62.3203 82.1419 63.841 81.5985 63.5696 81.218C63.2982 80.8381 63.5696 81.0011 63.5157 80.8926V80.2407C63.5696 79.5888 63.5696 78.9914 63.6241 78.3395C63.6786 77.6876 63.6786 77.1447 63.6786 76.5473C63.7239 76.2172 63.6862 75.8814 63.5696 75.5694C63.3527 75.2434 62.1034 75.6239 62.0488 76.0038C61.8313 77.3076 61.506 78.6654 61.18 79.9693C60.854 81.2725 60.745 81.5985 60.4736 82.4134C60.3309 82.9232 60.1308 83.415 59.8762 83.8796L61.3969 83.6082C61.343 83.103 61.343 82.5926 61.3969 82.0874C61.3969 81.2725 61.4514 80.4576 61.4514 79.6433C61.4514 78.8284 61.5599 78.068 61.5599 77.2531C61.5959 76.7097 61.5779 76.1639 61.506 75.6239C61.4514 75.1889 60.0937 75.6779 59.9846 76.0038C59.4423 77.6029 59.0067 79.2356 58.6814 80.8926C58.4639 81.8699 58.1924 82.7933 57.9751 83.7166L57.6492 84.8575C57.6393 85.0251 57.6026 85.1904 57.5406 85.3464C57.4862 85.4549 57.2689 85.7809 57.5406 85.7263L58.1379 85.5634C58.3554 85.6179 58.1924 85.5634 58.1924 85.4549C58.1797 85.3633 58.1617 85.2728 58.1379 85.1835C58.0932 85.0245 58.0753 84.8592 58.084 84.6945V83.7166L58.2469 81.1641C58.3554 79.6433 58.5184 78.122 58.5184 76.6012C58.4639 76.1668 57.0517 76.6012 56.943 76.9272C56.5263 78.3319 56.2176 79.7663 56.0197 81.218C55.8033 82.6715 55.4765 84.1058 55.042 85.5094L56.6171 85.1835C55.9111 82.8478 56.0197 80.2946 55.3135 77.959C55.1506 77.5246 53.5754 77.959 53.7384 78.394Z" fill="#1E1D1C"/>
<path d="M67.9695 76.4382C67.915 76.0037 67.8065 75.6238 67.752 75.1888L66.1773 75.6238C66.2857 76.0582 66.3403 76.6011 66.5032 77.0901C66.7318 77.8568 67.1001 78.5749 67.5896 79.2082C67.915 79.6432 68.9474 79.1543 69.1104 78.8283C69.5314 77.8754 69.8238 76.8708 69.9792 75.8407C70.1654 74.8368 70.2744 73.82 70.3052 72.7992L68.7299 73.1791C69.5993 75.1888 69.5448 77.4705 70.3597 79.4803C70.5766 79.9692 71.8259 79.5342 71.935 79.1543C72.3537 78.0192 72.6095 76.8302 72.6953 75.6238C72.8485 74.4348 72.9215 73.2371 72.9123 72.0388L71.337 72.4733C72.2064 74.646 71.9889 77.1446 72.8583 79.3173C73.0752 79.8062 74.27 79.3173 74.433 78.9913C74.6244 78.5244 74.7346 78.0285 74.759 77.5245C74.868 76.7641 74.868 75.9492 74.922 75.1349C74.9765 74.32 75.1395 72.4733 74.868 71.2239L73.2927 71.6584C73.6726 72.7992 73.7272 74.2115 73.9447 75.4063C74.1616 76.6011 74.1616 76.9271 74.3246 77.6335C74.3965 78.1306 74.5624 78.6103 74.8135 79.0453C75.031 79.3712 76.2803 79.0453 76.3343 78.6108C76.6602 76.1667 76.7687 73.6681 77.0407 71.2239L75.4654 71.5499C75.7369 72.8532 75.7369 74.2655 75.8999 75.6238C75.937 76.4074 76.0275 77.1875 76.1713 77.9589C76.2003 78.5093 76.3488 79.047 76.6057 79.5342C76.8232 80.0231 78.1271 79.6432 78.181 79.1543C78.2355 76.2752 77.8011 73.4511 77.855 70.6265C77.855 70.2461 76.3343 70.5175 76.2803 71.061C76.2873 72.4298 76.4329 73.7951 76.7148 75.1349C76.8777 75.8953 76.9862 76.7102 77.2037 77.4705C77.2977 77.9954 77.5012 78.4954 77.8011 78.9368C78.0725 79.3173 79.3219 78.8829 79.3219 78.4479V73.6681L77.7466 74.1025C77.8707 75.223 78.3248 76.2815 79.0504 77.1446C79.3219 77.4705 80.6257 77.1446 80.5712 76.6557C80.3856 74.5839 79.8914 72.5516 79.1044 70.6265C78.8874 70.1921 77.4751 70.572 77.5291 71.061C77.6404 72.4564 78.0087 73.8189 78.6154 75.0804C78.8329 75.5148 80.2997 75.1888 80.1907 74.6999L79.8108 72.8532C79.7018 72.4733 79.7018 71.8759 79.4303 71.6038C79.1589 71.3324 77.5836 71.5499 77.6921 72.2558C77.8011 72.9622 77.9096 72.3648 78.018 72.4187H78.0725C78.2663 72.446 78.464 72.4309 78.6514 72.3747C78.8387 72.3184 79.0121 72.2221 79.1589 72.0928C79.4303 71.9298 79.3764 71.7129 79.0504 71.6584H78.9959L79.2673 71.8213V71.7129L78.8329 72.0928H77.9641C78.1271 72.2018 78.2355 73.2336 78.29 73.4511L78.6154 75.0259L80.1907 74.6459C79.5904 73.363 79.2221 71.9837 79.1044 70.572L77.5291 71.0064C78.3225 72.9297 78.8173 74.9632 78.9959 77.0355L80.5167 76.4927C79.8247 75.683 79.4065 74.6755 79.3219 73.6135C79.3219 73.1791 77.7466 73.5596 77.7466 74.0485V78.8283L79.2673 78.2849C79.0075 77.8487 78.8236 77.3714 78.7245 76.8726C78.5615 76.1122 78.3985 75.2979 78.29 74.483C78.0082 73.1983 77.8626 71.8875 77.855 70.572L76.2803 71.0064C76.2258 73.831 76.6602 76.6556 76.6057 79.4803L78.181 79.0998C77.9368 78.6265 77.7895 78.1097 77.7466 77.579C77.5836 76.7641 77.5291 75.9492 77.4206 75.1349C77.3748 73.7707 77.2478 72.41 77.0407 71.061C76.9862 70.6265 75.5194 71.0064 75.5194 71.3869C75.194 73.8311 75.0849 76.3297 74.759 78.8283L76.2803 78.3939C76.0408 77.9804 75.9097 77.5135 75.8999 77.0355C75.7369 76.3297 75.6284 75.5693 75.4654 74.8089C75.3767 73.5799 75.1766 72.3619 74.868 71.1694C74.705 70.6805 73.1837 71.1155 73.2927 71.6038C73.4012 72.0928 73.4012 74.157 73.3467 75.4063C73.3449 76.1876 73.2904 76.9677 73.1837 77.742C73.153 78.2275 73.0433 78.7042 72.8583 79.1543L74.433 78.8283C73.5642 76.6556 73.7817 74.157 72.9123 71.9843C72.6953 71.4954 71.337 71.9298 71.337 72.4187C71.348 73.5996 71.2749 74.7793 71.1201 75.9492C71.0284 77.1202 70.7726 78.2721 70.3597 79.3712L71.935 79.0453C71.1201 77.0355 71.174 74.7544 70.3052 72.7447C70.1422 72.2558 68.7299 72.6902 68.7299 73.1252C68.7142 74.1495 68.5866 75.1697 68.35 76.1667C68.2125 77.1359 67.9567 78.0842 67.5896 78.9913L69.1104 78.6108C68.5994 77.9508 68.2293 77.1927 68.024 76.3842C67.915 75.9492 67.861 75.5148 67.752 75.1349C67.6435 74.7544 66.0682 75.0804 66.1773 75.5693C66.2857 76.0583 66.3403 76.3842 66.3942 76.7641C66.4487 77.1446 68.024 76.8726 67.9695 76.3842V76.4382Z" fill="#1E1D1C"/>
<path d="M90.6187 63.2391C90.6187 63.2391 67.4796 70.409 55.0956 76.0037C42.7113 81.5984 65.253 77.6874 85.187 68.7798C105.122 59.8716 104.089 61.8813 109.738 58.1333C115.388 54.3855 90.6187 63.2391 90.6187 63.2391Z" fill="#1E1D1C"/>
<path d="M35.6499 65.1403C35.6499 65.1403 38.8003 48.5193 38.8003 39.0138C38.8003 29.5083 33.097 44.6628 32.934 59.9261C32.7711 75.1888 31.3588 73.8855 32.3908 78.6108C33.4229 83.3366 35.6499 65.1403 35.6499 65.1403Z" fill="#1E1D1C"/>
<path d="M29.2954 49.0083L15.3359 69.2683L111.259 57.2101L29.2954 49.0083Z" fill="#E8B23B"/>
<path d="M53.0859 29.2913L36.8994 36.2438L111.26 57.2101L53.0859 29.2913Z" fill="#F0CD80"/>
<path d="M108.001 65.5749L96.8655 69.9202C96.7025 69.9747 96.2136 70.1377 96.3766 70.3546C96.5395 70.5721 97.246 70.3007 97.4089 70.2462L108.544 65.9008C108.707 65.8463 109.196 65.6839 109.033 65.4664C108.87 65.2489 108.163 65.5209 108.001 65.5749Z" fill="#E8B23B"/>
<path d="M34.0214 17.939C34.7849 17.939 35.5171 17.6357 36.057 17.0958C36.5969 16.5559 36.9002 15.8237 36.9002 15.0602C36.9002 14.2967 36.5969 13.5645 36.057 13.0246C35.5171 12.4847 34.7849 12.1814 34.0214 12.1814C33.2579 12.1814 32.5256 12.4847 31.9858 13.0246C31.4459 13.5645 31.1426 14.2967 31.1426 15.0602C31.1426 15.8237 31.4459 16.5559 31.9858 17.0958C32.5256 17.6357 33.2579 17.939 34.0214 17.939Z" fill="#E8B23B"/>
<path d="M34.0215 18.2105C33.3984 18.2105 32.7893 18.0258 32.2712 17.6796C31.7531 17.3335 31.3493 16.8415 31.1109 16.2658C30.8725 15.6901 30.8101 15.0567 30.9316 14.4456C31.0532 13.8344 31.3532 13.2731 31.7938 12.8325C32.2344 12.3919 32.7957 12.0919 33.4068 11.9703C34.018 11.8488 34.6514 11.9112 35.2271 12.1496C35.8027 12.388 36.2947 12.7918 36.6409 13.3099C36.9871 13.828 37.1718 14.4371 37.1718 15.0602C37.1718 15.8957 36.8399 16.697 36.2491 17.2878C35.6583 17.8787 34.857 18.2105 34.0215 18.2105ZM34.0215 12.4529C33.6771 12.4456 33.3347 12.5079 33.015 12.6363C32.6954 12.7648 32.405 12.9565 32.1614 13.2001C31.9178 13.4437 31.726 13.734 31.5976 14.0537C31.4692 14.3734 31.4068 14.7158 31.4142 15.0602C31.4142 15.7516 31.6889 16.4148 32.1779 16.9037C32.6668 17.3927 33.33 17.6674 34.0215 17.6674C34.7129 17.6674 35.3761 17.3927 35.8651 16.9037C36.354 16.4148 36.6287 15.7516 36.6287 15.0602C36.6361 14.7158 36.5737 14.3734 36.4453 14.0537C36.3169 13.734 36.1251 13.4437 35.8815 13.2001C35.6379 12.9565 35.3476 12.7648 35.0279 12.6363C34.7082 12.5079 34.3659 12.4456 34.0215 12.4529Z" fill="#E8B23B"/>
<path d="M99.5271 95.5579C101.837 95.5579 103.709 93.6856 103.709 91.3755C103.709 89.0654 101.837 87.1931 99.5271 87.1931C97.217 87.1931 95.3447 89.0654 95.3447 91.3755C95.3447 93.6856 97.217 95.5579 99.5271 95.5579Z" fill="#E8B23B"/>
<path d="M99.5273 95.8294C98.6463 95.8294 97.7849 95.5684 97.0524 95.0789C96.3199 94.5893 95.7492 93.8939 95.4122 93.0802C95.0752 92.2659 94.987 91.3703 95.1587 90.5067C95.3304 89.6425 95.755 88.8491 96.3779 88.2261C97.0008 87.6032 97.7942 87.1792 98.6584 87.007C99.5221 86.8353 100.418 86.9235 101.231 87.2604C102.046 87.5974 102.741 88.1687 103.231 88.9013C103.72 89.6332 103.981 90.4945 103.981 91.3756C103.981 92.557 103.512 93.6898 102.677 94.525C101.841 95.3602 100.708 95.8294 99.5273 95.8294ZM99.5273 87.4646C98.7536 87.4646 97.9972 87.6943 97.3546 88.1241C96.7114 88.5533 96.2103 89.1646 95.9139 89.8792C95.6181 90.5937 95.5404 91.3796 95.6917 92.1383C95.8425 92.8969 96.2149 93.5941 96.7618 94.141C97.3088 94.6879 98.0053 95.0603 98.764 95.2111C99.5226 95.3619 100.309 95.2848 101.024 94.9884C101.738 94.6926 102.349 94.1915 102.779 93.5482C103.209 92.905 103.438 92.1493 103.438 91.3756C103.438 90.3385 103.026 89.3438 102.293 88.6101C101.559 87.877 100.564 87.4646 99.5273 87.4646Z" fill="#E8B23B"/>
<path d="M19.9525 39.6114C20.4414 39.0139 21.2018 37.8733 22.0166 37.7103C22.8313 37.5474 23.6461 38.4707 23.9177 39.2855C24.0719 40.0531 24.4282 40.7656 24.9497 41.3496C25.2572 41.5609 25.615 41.6872 25.987 41.7158C26.3589 41.7444 26.7319 41.6742 27.068 41.5125C27.6804 41.2667 28.2352 40.8969 28.6976 40.4261C28.9148 40.2632 28.9148 40.2632 28.7519 40.3719C28.5889 40.4805 28.5889 40.4805 28.7519 40.5348C28.9148 40.5891 29.0235 40.752 29.0778 40.8607L29.7839 41.8384C30.49 42.7618 32.4997 42.9247 33.0973 41.7298C33.2059 41.4582 32.5541 41.5125 32.4455 41.5668C32.2677 41.5581 32.0906 41.5931 31.9295 41.6689C31.7685 41.7447 31.6286 41.8588 31.522 42.0014C31.3591 42.2729 31.522 42.2729 32.1196 41.8927L31.7937 41.7841L31.4134 41.5125C31.1418 41.2409 30.9789 40.8064 30.7073 40.5348C30.5569 40.2566 30.3262 40.03 30.0452 39.8847C29.7643 39.7394 29.4461 39.682 29.1321 39.7201C28.4138 39.8277 27.738 40.128 27.1767 40.5891L26.7421 40.9693L26.5792 41.1323C26.7421 41.0237 26.7421 40.9693 26.5792 40.915C26.279 40.608 26.023 40.2607 25.8188 39.883C25.4929 39.1225 25.4385 38.2535 24.8411 37.656C24.5549 37.4047 24.2161 37.2206 23.8496 37.1173C23.483 37.0138 23.098 36.9938 22.7227 37.0585C20.7673 37.1671 19.518 38.4165 18.3773 39.883C18.2144 40.1546 18.9748 40.1002 19.0291 40.1002C19.385 40.0515 19.7121 39.8783 19.9525 39.6114Z" fill="#E8B23B"/>
<path d="M8.16624 47.5418H7.4058L7.56872 48.0306L8.98097 46.9443C9.36121 46.6727 9.95867 45.9666 10.3932 46.3468C10.8277 46.727 11.208 47.7047 11.5882 48.3022C12.7832 50.0403 15.2817 49.2256 16.6397 48.1393C17.0875 47.8356 17.4899 47.4699 17.8347 47.0529L17.9433 46.9443C18.0519 46.89 17.9976 46.8357 17.889 46.8899C17.7803 46.9443 17.726 46.727 17.889 46.9443L18.2692 47.2702C18.7037 47.8134 19.0839 48.4652 19.7901 48.6824C20.1726 48.7929 20.5767 48.806 20.9656 48.7207C21.3545 48.6353 21.716 48.4541 22.017 48.1936C22.6146 47.759 23.1034 46.6727 23.8638 46.5098C24.4726 46.4938 25.0795 46.5857 25.6563 46.7813C26.191 46.9071 26.7368 46.9798 27.2858 46.9986C27.8162 47.0425 28.3497 46.9679 28.8477 46.78C29.3456 46.5921 29.7955 46.2957 30.1646 45.9122C30.3819 45.6407 29.9473 45.4777 29.7301 45.4777C29.5356 45.4604 29.3399 45.4909 29.16 45.5666C28.9801 45.6424 28.8215 45.761 28.6981 45.9122C28.1005 46.564 26.7427 45.9666 26.0365 45.8036C25.0493 45.533 24.0009 45.5901 23.0491 45.9666C22.18 46.2925 21.7455 46.9986 21.0937 47.6504C20.4419 48.3022 20.7134 47.922 20.8764 47.922C21.0393 47.922 20.7134 47.759 20.6048 47.7047C20.3411 47.4591 20.1043 47.186 19.8987 46.8899C19.7277 46.6226 19.4958 46.3996 19.222 46.2391C18.9482 46.0786 18.6403 45.9852 18.3235 45.9666C17.2371 46.0209 16.6397 46.7813 15.8793 47.4875C15.1188 48.1936 14.0868 48.8997 13.272 47.922C12.4573 46.9443 12.5659 46.5098 12.0771 45.9122C10.3932 44.0112 7.56872 46.8357 6.26512 47.8134C6.04785 48.0306 6.10219 48.3022 6.4281 48.3565H7.18853C7.38713 48.3921 7.59088 48.3864 7.78715 48.3397C7.98342 48.293 8.16792 48.2063 8.32916 48.0849C8.49214 47.8677 8.49214 47.5961 8.16624 47.5418Z" fill="#E8B23B"/>
<path d="M5.99306 53.8968C9.3882 54.0141 12.7871 53.8323 16.1504 53.3537C16.4219 53.2993 17.0194 53.1364 17.0737 52.8105C17.1281 52.4846 16.5849 52.4846 16.3676 52.5389C13.1322 53.0203 9.85934 53.2021 6.59057 53.082C6.40062 53.0581 6.20777 53.0802 6.02821 53.1464C5.84858 53.2125 5.68752 53.3209 5.55852 53.4623C5.34125 53.7882 5.72147 53.8968 5.99306 53.8968Z" fill="#E8B23B"/>
<path d="M7.73151 74.972L8.65487 73.9941L9.19804 73.5597H9.03512C8.81785 73.5597 8.76351 73.5597 8.92649 73.6681C9.08941 73.7766 9.08941 73.9396 9.14375 73.9941C9.2757 74.3131 9.47511 74.599 9.72828 74.834C9.98139 75.0683 10.2824 75.2452 10.6103 75.3519C11.3624 75.5062 12.1443 75.4105 12.8373 75.0805C13.1566 74.9517 13.4508 74.7678 13.7064 74.537C14.0008 74.2847 14.3091 74.0492 14.6297 73.8311C14.7927 73.7766 14.7384 73.7766 14.9556 73.9396L15.3359 74.2116L16.205 74.863C16.5108 75.0335 16.8532 75.1274 17.2031 75.1367C17.5531 75.146 17.9001 75.0712 18.2147 74.9175C18.9751 74.646 19.2467 74.0486 19.7899 73.5052C20.3331 72.9623 21.1478 73.5597 21.6367 74.0486C22.1255 74.537 23.2662 74.4285 23.9723 73.9941C24.6784 73.5597 24.5698 73.5052 25.0586 73.6136C25.5069 73.7157 25.9083 73.9639 26.1993 74.3201C26.4708 74.646 27.9374 74.1026 27.6658 73.7766C27.4048 73.4773 27.0774 73.2424 26.7096 73.0916C26.3418 72.9408 25.9439 72.8776 25.5475 72.9078C25.1033 72.9002 24.6615 72.9739 24.2439 73.1253C24.1352 73.1792 22.9403 73.6681 22.9946 73.7766L23.3205 73.6681L23.2118 73.5597L22.9946 73.2882L22.56 72.9623C22.1953 72.7471 21.7869 72.6172 21.365 72.5818C20.4613 72.5458 19.5689 72.7929 18.8122 73.2882C18.5013 73.5173 18.2267 73.7917 17.9974 74.1026L17.5629 74.5915C17.5086 74.3746 18.1604 74.7545 17.9431 74.4285L17.6172 74.2655C16.9654 73.8311 16.4765 73.2337 15.6618 73.1253C14.8021 73.1009 13.9596 73.3689 13.2718 73.8856C12.9845 74.1849 12.6551 74.4413 12.2941 74.646C11.9139 74.863 11.3707 74.537 11.0992 74.2116C10.8276 73.8856 10.6646 73.3422 10.3387 73.0707C10.1612 72.9402 9.95355 72.8567 9.73506 72.8283C9.51658 72.7999 9.2945 72.8271 9.08941 72.9078C7.94878 73.1792 7.02536 74.2116 6.31927 75.0259C5.61314 75.8408 6.53654 75.3519 6.69946 75.298C7.0789 75.3043 7.44696 75.1686 7.73151 74.9175V74.972Z" fill="#E8B23B"/>
</svg>
