<svg width="91" height="91" viewBox="0 0 91 91" fill="none" xmlns="http://www.w3.org/2000/svg">
<path d="M8.15332 62.2686C8.15332 62.5061 8.2476 62.7336 8.4154 62.9015C8.5832 63.0694 8.8108 63.1635 9.04812 63.1635C9.28545 63.1635 9.51304 63.0694 9.68085 62.9015C9.8487 62.7336 9.94297 62.5061 9.94297 62.2686C9.94297 62.0315 9.8487 61.804 9.68085 61.6361C9.51304 61.4682 9.28545 61.374 9.04812 61.374C8.81416 61.3845 8.59253 61.4819 8.42696 61.6475C8.26134 61.8131 8.16369 62.0347 8.15332 62.2686Z" fill="#F79F92"/>
<path d="M9.04733 63.3765C8.75349 63.3765 8.47171 63.2601 8.26396 63.0521C8.05616 62.8446 7.93945 62.5625 7.93945 62.2686C7.93945 61.9751 8.05616 61.693 8.26396 61.4855C8.47171 61.2776 8.75349 61.1611 9.04733 61.1611C9.34117 61.1611 9.62295 61.2776 9.8307 61.4855C10.0385 61.693 10.1552 61.9751 10.1552 62.2686C10.1612 62.416 10.1367 62.5625 10.0831 62.7C10.0296 62.8369 9.94818 62.9616 9.84408 63.0658C9.73998 63.1695 9.61544 63.251 9.47831 63.3047C9.34117 63.3583 9.19443 63.3829 9.04733 63.3765ZM9.04733 61.587C8.91247 61.587 8.78066 61.6271 8.66854 61.7021C8.55643 61.7768 8.46907 61.8832 8.41743 62.0079C8.36583 62.1326 8.35236 62.2695 8.37866 62.4019C8.40496 62.5339 8.46989 62.6554 8.56526 62.7509C8.66058 62.8465 8.78207 62.9111 8.91433 62.9375C9.04656 62.9639 9.18365 62.9502 9.30823 62.8988C9.43281 62.8469 9.53928 62.7596 9.61421 62.6476C9.68911 62.5352 9.7291 62.4037 9.7291 62.2686C9.7291 62.088 9.65726 61.9146 9.5294 61.7868C9.40155 61.6589 9.22815 61.587 9.04733 61.587Z" fill="#F79F92"/>
<path d="M75.3926 10.7097C76.6166 10.7097 77.6085 9.71768 77.6085 8.49396C77.6085 7.27023 76.6166 6.2782 75.3926 6.2782C74.1691 6.2782 73.1768 7.27023 73.1768 8.49396C73.1768 9.71768 74.1691 10.7097 75.3926 10.7097Z" fill="#F79F92"/>
<path d="M75.3926 10.9228C74.9003 10.9313 74.4166 10.7924 74.0039 10.5241C73.5908 10.2558 73.2677 9.87029 73.0753 9.41702C72.8828 8.96375 72.8305 8.46334 72.9242 7.98C73.0184 7.49665 73.2545 7.05239 73.6026 6.70422C73.9511 6.35601 74.3952 6.11978 74.8784 6.02577C75.3621 5.93182 75.8621 5.98432 76.3158 6.17665C76.769 6.36893 77.1543 6.6923 77.4228 7.10517C77.6908 7.51808 77.83 8.0017 77.8214 8.49401C77.8214 9.1382 77.5657 9.75595 77.1102 10.2115C76.6543 10.667 76.0369 10.9228 75.3926 10.9228ZM75.3926 6.4487C74.8575 6.45984 74.3484 6.68025 73.9739 7.06263C73.5994 7.44501 73.3897 7.95889 73.3897 8.49401C73.3897 9.02518 73.6008 9.53455 73.9766 9.91015C74.352 10.2857 74.8616 10.4967 75.3926 10.4967C75.9236 10.4967 76.4332 10.2857 76.8085 9.91015C77.1844 9.53455 77.3955 9.02518 77.3955 8.49401C77.3955 7.95889 77.1857 7.44501 76.8113 7.06263C76.4368 6.68025 75.9277 6.45984 75.3926 6.4487Z" fill="#FFD809"/>
<path d="M29.7989 84.3839C29.7989 84.3839 26.5605 84.3839 22.3847 84.256L15.78 84.0003L9.5588 83.7446C5.89428 83.6168 7.04479 84.256 10.6241 84.8953C15.7196 85.7384 20.8918 86.0242 26.0492 85.7475L36.3184 85.1082C37.7026 85.0946 39.0786 84.8939 40.409 84.5117C42.156 84.0854 39.5142 84.1282 36.4036 84.2133L31.9721 84.3411L29.7989 84.3839Z" fill="#1E1D1C"/>
<path d="M72.7074 85.1082C72.7074 85.1082 69.7249 85.0654 65.8474 85.1505C61.9699 85.236 57.2825 85.449 53.9164 85.8325C47.1837 86.642 58.5182 87.5369 69.2986 86.5141C74.7103 86.0027 77.1819 85.9604 78.7585 85.9176C80.0343 85.919 81.3065 85.7756 82.5509 85.4917C84.1698 85.1505 81.741 85.0231 78.8435 85.0231L72.7074 85.1082Z" fill="#1E1D1C"/>
<path d="M32.2703 26.5609C31.0772 27.3705 29.671 27.8818 28.2649 27.4983C27.6083 27.3334 26.9998 27.016 26.489 26.5718C25.9781 26.1275 25.5792 25.569 25.3247 24.9416C25.0831 24.1261 24.9681 23.2782 24.9839 22.4276C24.9413 21.4902 24.9413 20.5101 24.8986 19.5727L24.6856 13.9907L24.4299 7.64168L22.5977 8.153L24.5578 11.1784C24.856 11.6897 26.0065 11.2636 26.3048 10.9227L29.8415 6.70424L28.0518 6.9599L29.0319 14.8855C29.0745 15.3968 30.6085 14.8429 30.7789 14.5873L35.3383 7.68431L35.9774 6.70424L34.2304 6.9599V9.77221C34.2304 10.241 35.5513 9.81485 35.6792 9.72962L42.6674 5.29811L41.2612 5.12766C35.9693 11.3481 31.2756 18.0534 27.2423 25.1547C27.0718 25.4956 27.8814 25.4956 28.0092 25.453C28.2167 25.445 28.4198 25.3912 28.604 25.2954C28.7882 25.1997 28.9488 25.0643 29.0745 24.8991C33.0699 17.8712 37.721 11.237 42.9656 5.08503C43.1787 4.82937 42.923 4.70156 42.7099 4.65892C42.3099 4.6319 41.9105 4.72067 41.5595 4.91459L34.5713 9.34611L36.0627 9.26088V6.49121C36.0627 5.93725 34.4435 6.49121 34.273 6.74687L29.7563 13.6498L29.1171 14.6298L30.8641 14.3742L29.9267 6.49121C29.8841 6.19291 29.2876 6.27813 29.1171 6.27813C28.7521 6.33664 28.4117 6.4994 28.1371 6.74687L24.6004 10.9653L26.39 10.6671L24.4299 7.64168C24.1316 7.17298 22.5977 7.55645 22.5977 8.153L23.0664 20.8084C23.109 22.5981 22.896 24.7712 23.9186 26.3052C24.3616 26.9242 24.9343 27.4392 25.5965 27.8145C26.2588 28.1898 26.9949 28.4163 27.7536 28.4784C29.8882 28.6392 32.0085 28.0183 33.7191 26.7313C34.0173 26.5183 33.8895 26.2626 33.5486 26.22C33.0943 26.1616 32.6352 26.284 32.2703 26.5609Z" fill="#1E1D1C"/>
<path d="M35.2528 34.8274V25.9218C35.2528 25.4105 33.3779 25.7087 33.3779 26.4331C33.3779 29.3732 33.3779 32.356 33.4205 35.3387C33.4205 35.8501 35.2954 35.5092 35.2528 34.8274Z" fill="#1E1D1C"/>
<path d="M23.7053 46.1193C23.5774 48.5909 23.4922 51.0197 23.4922 53.4912C23.4922 55.9623 23.62 57.3687 23.6626 59.3289C23.7479 63.7174 23.407 68.2342 24.2166 72.5808C24.3278 73.3961 24.5725 74.1883 24.941 74.924C25.3671 75.6912 25.9636 75.8618 26.7732 76.1175C28.8185 76.6712 31.7161 76.4155 32.3552 74.0295C32.5314 73.2296 32.6454 72.4179 32.6961 71.6007C32.824 70.8336 32.9092 70.0664 33.037 69.2998L33.5483 65.3367C33.804 63.3766 34.0171 61.4164 34.1875 59.4567C34.4857 56.0479 34.4858 52.5962 34.5284 49.1874V47.5257C34.5284 47.1845 32.6961 47.483 32.6961 48.0367C32.6535 51.4883 32.6535 54.8972 32.4404 58.3488C32.1848 62.482 31.6309 66.5725 31.0343 70.7057L30.7786 72.7937C30.7025 73.5017 30.5598 74.2006 30.3525 74.8817C30.211 75.1533 30.0064 75.3872 29.756 75.5633C29.9264 75.4782 29.7986 75.5633 29.6281 75.5633L28.9038 75.4782C28.1794 75.3504 27.3272 75.2225 26.8585 74.5832C26.4786 73.8975 26.2327 73.1454 26.1341 72.3674C25.2818 68.2769 25.5801 64.0158 25.5375 59.8826C25.4949 57.7095 25.4097 55.5788 25.3671 53.4485C25.3245 51.3177 25.4097 48.2073 25.5375 45.6079C25.5801 45.3097 23.7479 45.5228 23.7053 46.1193Z" fill="#1E1D1C"/>
<path d="M23.4072 25.2826C23.5777 28.521 23.6629 31.802 23.7055 35.0405C23.7055 35.4666 25.5804 35.1683 25.5378 34.5717C25.4952 31.2907 25.41 28.0523 25.2821 24.7713C25.2821 24.3878 23.4072 24.686 23.4072 25.2826Z" fill="#1E1D1C"/>
<path d="M30.5658 76.6284L57.6662 68.6177L65.3789 66.3168C65.8899 66.1889 66.5719 65.7203 66.4013 65.081C66.2311 64.4422 65.4212 64.3566 64.9098 64.5273L37.8522 72.538L30.0971 74.7966C29.5857 74.9668 28.9465 75.4354 29.117 76.0319C29.2874 76.6289 30.0971 76.7563 30.5658 76.6284Z" fill="#1E1D1C"/>
<path d="M67.4667 64.9959C68.404 57.6668 69.086 50.2953 69.5547 42.8809C70.0233 35.4667 70.1935 28.1376 70.1935 20.7233C70.1371 18.3939 70.1371 16.0504 70.1935 13.6926C70.1935 12.9682 69.2562 12.9256 68.7448 13.0534C59.6689 15.8231 50.7632 19.1467 41.9428 22.513L34.5711 25.3679C34.1876 25.5383 33.6337 26.0497 33.9746 26.5184C34.3155 26.9871 35.1677 26.8167 35.6364 26.6462C44.2864 23.28 52.9362 19.9137 61.7141 16.931L69.1283 14.5448L67.6796 13.9482C67.5945 19.5302 67.7224 25.1122 67.5945 30.6943C67.4239 38.0659 66.998 45.4376 66.316 52.7664C65.9752 56.9424 65.5065 61.1184 64.9528 65.2516C64.8249 66.4019 67.3388 66.0187 67.4667 64.9959Z" fill="#1E1D1C"/>
<path d="M26.0489 26.6462H26.3898L26.8159 26.7741L27.6256 27.2002C27.8991 27.3072 28.1571 27.4505 28.3925 27.6263C28.4778 27.6263 28.4778 27.6689 28.4351 27.6263H28.5204L28.7334 27.7541L29.0743 28.0524C29.4152 28.308 29.9691 28.1802 30.31 28.0524C30.6509 27.9245 31.1196 27.5836 30.8213 27.328C29.7534 26.5189 28.5145 25.965 27.1994 25.7088C26.9749 25.6367 26.7315 25.6519 26.5177 25.7514C26.2808 25.7889 26.0594 25.8923 25.8785 26.0496C25.8194 26.0934 25.7727 26.1517 25.7428 26.219C25.7129 26.2862 25.7009 26.36 25.708 26.4332C25.7507 26.561 25.9211 26.6036 26.0489 26.6462Z" fill="#1E1D1C"/>
<path d="M42.1133 5.29821V7.727C42.1133 7.85486 42.5394 7.76964 42.582 7.76964L47.5674 7.08786L47.0559 7.00264L47.525 10.028C47.5674 10.2411 48.2917 10.028 48.3773 9.98539L54.9393 7.68441L54.1294 7.59919L46.8007 13.7351L45.7778 14.6299C45.6072 14.7578 45.8206 14.8004 45.9485 14.843C46.2005 14.8523 46.4508 14.7934 46.6728 14.6726L57.0273 9.34621L58.476 8.57922L57.4959 8.66444V10.9654C57.4959 11.0933 57.7939 11.0933 57.8367 11.0933L63.6743 10.4967L63.3336 10.4115V12.0307C63.3336 12.1159 63.5037 12.1159 63.5465 12.1159H67.424L67.2111 11.9881L65.8902 14.6726C65.8047 14.8856 66.3161 14.8004 66.4016 14.8004C66.4867 14.8004 67.0404 14.6726 67.126 14.4595L68.4041 11.775C68.4892 11.6472 68.2762 11.6046 68.1911 11.6046H64.3559L64.5693 11.6898V10.0706C64.5693 9.94276 64.2709 9.98539 64.2281 9.98539L58.3481 10.5393L58.7317 10.6672V8.32355C58.7317 8.06789 57.8367 8.36619 57.7516 8.40877L47.4395 13.7351L45.9908 14.4595L46.8858 14.5447L54.2149 8.36619L55.2801 7.51397C55.6209 7.21567 54.5557 7.34353 54.4706 7.38612L47.9509 9.6871H48.7604L48.2917 6.66176C48.2917 6.5339 47.8658 6.57654 47.8231 6.61912L42.8377 7.3009L43.349 7.38612V4.95733C43.349 4.74425 42.1133 4.9147 42.1133 5.29821Z" fill="#1E1D1C"/>
<path d="M30.1399 26.3053C36.3326 20.7659 42.4828 15.1839 48.5901 9.55927C48.6215 9.5266 48.6438 9.48625 48.6543 9.44225C48.6647 9.39829 48.6634 9.35229 48.6506 9.30898C48.6374 9.26566 48.6133 9.22653 48.5801 9.19568C48.5473 9.16479 48.5064 9.14322 48.4627 9.13317C48.3066 9.1025 48.1465 9.10568 47.9918 9.14245C47.8375 9.17921 47.6928 9.24869 47.5677 9.3462C41.4743 14.9708 35.2957 20.5528 29.1598 26.0922C28.9468 26.3053 29.032 26.4757 29.2877 26.5609C29.4397 26.5964 29.5983 26.5914 29.7478 26.5466C29.8973 26.5017 30.0324 26.4185 30.1399 26.3053Z" fill="#1E1D1C"/>
<path d="M33.1652 25.4957C41.0624 21.6608 48.9172 17.7832 56.7291 13.863L63.4189 10.4967C63.5468 10.4115 63.7597 10.3263 63.5468 10.1985C63.3334 10.0706 62.8647 10.2411 62.6946 10.3689C54.8968 14.2891 47.0562 18.2093 39.2159 22.0443L32.4834 25.3253C32.313 25.4105 32.0999 25.5383 32.313 25.6662C32.6078 25.6979 32.9053 25.6384 33.1652 25.4957Z" fill="#1E1D1C"/>
<path d="M38.7474 64.3566C45.6502 62.5671 52.5535 60.8199 59.4563 59.2433C59.712 59.1582 60.0528 58.9452 59.9677 58.6468C59.8822 58.3487 59.4563 58.3487 59.2433 58.4338C52.3119 59.9963 45.4089 61.7007 38.5344 63.5471C37.7674 63.7177 37.9804 64.57 38.7474 64.3566Z" fill="#F79F92"/>
<path d="M38.7477 69.0863C40.2549 69.3684 41.8131 69.1436 43.1792 68.4475L44.1593 67.851C44.4575 67.6376 44.7984 67.254 45.1819 67.4246C45.5654 67.5952 46.1191 68.2341 46.7161 68.4047C48.2927 68.7883 49.4006 67.0411 50.5081 66.2744C50.6646 66.1383 50.848 66.0378 51.0463 65.9791C51.2452 65.9204 51.4536 65.9045 51.6588 65.9331C52.0096 66.0523 52.3404 66.2252 52.6388 66.4445C53.1666 66.7931 53.8004 66.9437 54.4283 66.8709C54.599 66.8281 55.1527 66.7003 55.1527 66.4873C55.1527 66.2744 54.8119 66.2744 54.6413 66.3167C54.4711 66.3595 53.406 65.7202 52.9369 65.5072C52.2762 65.2811 51.5614 65.2661 50.8916 65.4645C50.1723 65.6952 49.5162 66.0887 48.9743 66.6152L47.9942 67.4674L47.5683 67.851C47.6534 67.8082 47.3549 67.6803 47.2698 67.6376C47.1848 67.5952 46.4176 66.8709 45.7784 66.7853C45.0873 66.7421 44.4003 66.9209 43.8184 67.2968C43.2305 67.7713 42.5682 68.1458 41.8583 68.4047C41.114 68.6458 40.3174 68.6754 39.5573 68.4898C39.2164 68.4475 38.1086 68.9584 38.7477 69.0863Z" fill="#F79F92"/>
<path d="M40.1113 28.0522C47.0141 25.7939 53.8746 23.4077 60.6496 20.8084L66.4445 18.55C66.5723 18.5074 66.9559 18.3796 66.828 18.1666C66.7002 17.9535 66.1464 18.1666 66.0186 18.2091C59.2291 20.9078 52.4114 23.4219 45.5654 25.7513L39.6425 27.7114C39.5147 27.7966 39.1738 27.9244 39.3016 28.0948C39.4295 28.2653 39.9834 28.0948 40.1113 28.0522Z" fill="#F79F92"/>
<path d="M38.662 58.093C38.662 58.093 38.0229 59.3288 44.0736 58.093C48.7441 57.1839 53.3018 55.7693 57.6667 53.8743C61.2885 52.2977 61.2457 50.2952 61.5442 43.7331C61.8422 37.171 64.1859 25.4957 61.5442 26.2627C58.902 27.0297 39.2586 32.2282 39.3864 36.8727C39.3864 36.8727 39.8551 46.375 39.3864 51.7012C38.9177 57.0274 38.662 58.093 38.662 58.093Z" fill="#F7E4BB"/>
<path d="M39.9833 58.8597C39.2163 58.8597 38.705 58.7319 38.5345 58.4766C38.4834 58.4111 38.4489 58.3342 38.434 58.2527C38.4192 58.1708 38.4244 58.0867 38.4493 58.0075C38.4919 57.8796 38.7902 56.5588 39.1737 51.6589C39.5572 46.7585 39.1737 37.0006 39.1737 36.8727C39.0885 33.89 46.0764 30.3959 60.6069 26.3053L61.5018 26.0922C61.6352 26.0348 61.7817 26.0163 61.925 26.0389C62.0683 26.0616 62.2021 26.1244 62.3113 26.2201C63.5043 27.2001 62.9506 32.1003 62.3541 37.2563C62.0983 39.5146 61.8426 41.8582 61.7576 43.7757V44.4149C61.5018 50.4654 61.4168 52.5111 57.7945 54.0877C53.4119 55.9727 48.841 57.3869 44.1592 58.306C42.7851 58.6067 41.3883 58.7924 39.9833 58.8597ZM38.8754 58.1781C38.9606 58.2632 39.6424 58.7319 44.0313 57.8373C48.6863 56.921 53.229 55.5068 57.5816 53.6186C60.9476 52.1698 61.0332 50.3803 61.2889 44.3297V43.7331C61.374 41.8582 61.6297 39.472 61.8854 37.2136C62.4391 32.6117 62.9933 27.3706 62.0133 26.5609C61.9632 26.4994 61.8931 26.4572 61.8153 26.4416C61.7375 26.4261 61.657 26.4381 61.5869 26.4757L60.6919 26.7314C43.1791 31.6742 39.5572 34.9979 39.5998 36.8727C39.5998 36.958 40.0685 46.4601 39.5998 51.7012C39.1311 56.9423 38.8754 58.093 38.8754 58.1354V58.1781Z" fill="#F7E4BB"/>
<path d="M23.1947 38.3641C23.1604 37.7001 23.2902 37.0378 23.5726 36.4358C23.855 35.8338 24.2813 35.3107 24.8139 34.9126C24.9263 34.8167 25.0567 34.7443 25.1974 34.6996L25.5383 34.5291C25.5383 34.6143 25.4105 34.4865 25.4531 34.5718L25.5383 34.657L25.7514 34.8274C25.8886 34.965 26.0036 35.1232 26.0922 35.2961C26.5114 35.9184 26.8146 36.6113 26.9871 37.3414C27.2268 38.1857 27.2992 39.0686 27.2001 39.9407C27.2001 40.1111 28.3932 39.9833 28.4359 39.5998C28.6457 37.7909 28.1412 35.9716 27.0297 34.5291C26.8995 34.3529 26.7232 34.2159 26.5203 34.1332C26.3173 34.0506 26.0955 34.0253 25.8792 34.0604C25.3523 34.1269 24.8447 34.3009 24.3878 34.5718C23.6634 34.9344 23.0573 35.4961 22.6408 36.191C22.1398 36.9296 21.8998 37.8144 21.959 38.705C21.959 38.918 23.2373 38.705 23.1947 38.3641Z" fill="#1E1D1C"/>
<path d="M31.6735 38.6198C31.7932 38.0045 32.0724 37.4315 32.4831 36.958C32.8666 36.5745 33.4206 36.1058 33.9745 36.191C34.2067 36.2689 34.4187 36.3972 34.5955 36.5666C34.7723 36.736 34.9095 36.9424 34.9972 37.171C35.2041 37.7648 35.347 38.3791 35.4233 39.0033C35.5082 39.5961 35.5509 40.1941 35.5511 40.7929C35.5085 41.0912 35.8494 41.1764 36.1051 41.1764C36.3607 41.1764 36.7868 41.006 36.7868 40.7077C36.7881 40.0522 36.7454 39.3974 36.659 38.7476C36.5801 38.014 36.3935 37.2961 36.1051 36.6171C35.9546 36.2673 35.7132 35.9643 35.406 35.7395C35.0987 35.5147 34.7369 35.3763 34.358 35.3388C33.876 35.3366 33.3983 35.4296 32.9523 35.6125C32.5062 35.7952 32.1006 36.0642 31.7588 36.404C31.072 37.0181 30.6076 37.8421 30.4378 38.7476C30.3526 39.3442 31.5883 39.1311 31.6735 38.6198Z" fill="#1E1D1C"/>
<path d="M24.0889 36.6598C24.0889 37.9381 24.6854 39.0033 25.3672 39.0033C26.049 39.0033 26.6455 37.9381 26.6455 36.6598C26.6455 35.3815 26.049 34.3162 25.3672 34.3162C24.6854 34.3162 24.0889 35.3388 24.0889 36.6598Z" fill="#1E1D1C"/>
<path d="M25.3674 39.2163C24.5577 39.2163 23.876 38.0658 23.876 36.6597C23.876 35.2535 24.5577 34.103 25.3674 34.103C26.177 34.103 26.8587 35.2109 26.8587 36.6597C26.8587 38.1084 26.177 39.2163 25.3674 39.2163ZM25.3674 34.5291C24.856 34.5291 24.3021 35.3813 24.3021 36.6597C24.3021 37.938 24.856 38.7902 25.3674 38.7902C25.8787 38.7902 26.4326 37.938 26.4326 36.6597C26.4326 35.3813 25.8787 34.5291 25.3674 34.5291Z" fill="#1E1D1C"/>
<path d="M33.0801 38.4067C33.0801 39.685 33.6766 40.7503 34.3584 40.7503C35.0402 40.7503 35.6367 39.685 35.6367 38.4067C35.6367 37.1284 35.0402 36.0631 34.3584 36.0631C33.6766 36.0631 33.0801 37.1284 33.0801 38.4067Z" fill="#1E1D1C"/>
<path d="M34.3586 40.9634C33.549 40.9634 32.8672 39.8555 32.8672 38.4067C32.8672 36.958 33.549 35.8501 34.3586 35.8501C35.1682 35.8501 35.8499 36.958 35.8499 38.4067C35.8499 39.8555 35.2108 40.9634 34.3586 40.9634ZM34.3586 36.2762C33.8473 36.2762 33.2933 37.1284 33.2933 38.4067C33.2933 39.6851 33.8473 40.5373 34.3586 40.5373C34.8699 40.5373 35.4238 39.6851 35.4238 38.4067C35.4238 37.1284 34.8699 36.2762 34.3586 36.2762Z" fill="#1E1D1C"/>
<path d="M18.3792 38.4067C18.0178 39.6036 17.7611 40.8298 17.6122 42.0712C17.5696 42.3695 17.5696 42.7104 17.527 43.0086C17.4844 43.3069 17.4418 43.5626 17.6548 43.7756C18.1218 44.1095 18.6215 44.395 19.1462 44.6279C21.2093 45.7188 23.5024 46.303 25.8361 46.3321C25.9892 46.3299 26.1376 46.2794 26.2601 46.1875C26.3826 46.0955 26.4728 45.9672 26.5178 45.8212C26.84 44.3993 27.2673 43.0035 27.7961 41.6451C27.8369 41.5688 27.8506 41.481 27.8351 41.3959C27.8197 41.3108 27.7759 41.2335 27.7109 41.1764C25.2849 39.3493 22.5392 37.9909 19.6149 37.171C19.4576 37.1164 19.2872 37.1116 19.1271 37.1574C18.967 37.2031 18.8248 37.2972 18.7201 37.4266C18.5496 37.6397 18.5922 37.9806 18.8905 38.0232C21.7276 38.8242 24.3878 40.1543 26.7309 41.9434L26.6457 41.4746C26.0555 42.9105 25.5851 44.3927 25.2395 45.9063L25.9213 45.3948C23.3045 45.2932 20.7673 44.4671 18.5922 43.0086L18.7627 43.3495C18.8382 41.7318 19.1101 40.1293 19.5723 38.5771C19.7853 37.8528 18.5496 37.8528 18.3792 38.4067Z" fill="#1E1D1C"/>
<path d="M29.7144 42.5399C29.5013 44.1592 29.3309 45.7784 29.2457 47.3977C29.203 47.5256 29.3309 47.6107 29.4587 47.6107C32.4083 48.0229 35.3879 48.1794 38.3644 48.0793C38.6627 48.0793 39.1314 47.9943 39.2592 47.6958C39.9443 45.4603 40.4851 43.183 40.8784 40.8781C40.921 40.6651 40.6654 40.6224 40.5376 40.6224L35.126 40.9633C33.4641 41.0912 31.8449 41.1764 30.2683 41.7729C30.0979 41.8582 29.757 42.0286 29.9274 42.2416C30.0979 42.4547 30.5666 42.3269 30.7371 42.2416C32.1858 41.6877 33.7624 41.6877 35.2538 41.6025L40.0262 41.3042L39.6427 41.0485C39.2494 43.3534 38.7086 45.6305 38.0235 47.8664L38.8757 47.4401C35.9845 47.5192 33.0916 47.3623 30.2257 46.9714L30.4814 47.2271C30.5531 45.601 30.7095 43.9794 30.9501 42.3695C30.9927 41.9008 29.757 42.1138 29.7144 42.5399Z" fill="#1E1D1C"/>
<path d="M41.5594 42.4974C43.8604 40.1111 46.1613 37.7249 48.6329 35.5092C49.8686 34.4013 51.1044 33.3361 52.3825 32.3134C52.8089 32.0151 53.4054 31.3333 53.8312 31.7594C54.2576 32.1855 54.0869 33.2508 53.8312 33.8047L55.4078 33.3786H55.4506C55.7063 32.9952 55.2376 32.7821 54.9392 32.7395C54.7044 32.7311 54.471 32.7767 54.2567 32.8727C54.0428 32.9688 53.8535 33.1127 53.7034 33.2934C53.6433 33.3744 53.6019 33.4676 53.5824 33.5665C53.5623 33.6654 53.5651 33.7674 53.5896 33.8652C53.6137 33.963 53.6597 34.0542 53.7239 34.1322C53.7876 34.2102 53.8681 34.2729 53.9591 34.3161C54.3427 34.6144 55.3655 34.3587 55.5357 33.89C55.7063 33.4213 56.26 32.2282 55.7914 31.376C55.3227 30.5237 54.4705 30.3959 53.6611 30.4811C52.8512 30.5663 51.9139 31.1629 51.1467 31.7594L48.7607 33.6769C45.6927 36.3188 42.8804 39.2589 40.0681 42.1565C39.7698 42.4548 39.855 42.753 40.2385 42.8809C40.4731 42.9354 40.7177 42.9288 40.949 42.8616C41.1803 42.7945 41.3905 42.6691 41.5594 42.4974Z" fill="#1E1D1C"/>
<path d="M25.9639 53.5763C26.0181 53.8743 26.1188 54.1619 26.2621 54.4285C26.3527 54.585 26.4832 54.7152 26.6404 54.8053C26.7976 54.8949 26.9759 54.9413 27.157 54.94C27.7323 54.9554 28.2982 54.7916 28.7762 54.4708L29.2875 54.13H29.3301L29.4579 54.0449L29.5858 53.9599C29.5858 53.9171 29.7136 53.8743 29.6284 53.9171C29.5432 53.9599 30.0545 53.6614 29.7988 53.5763C29.4904 53.5462 29.1798 53.6054 28.904 53.7465L28.4353 54.0449L28.0518 54.3007L27.8813 54.4708H27.8387C27.7535 54.5136 27.7535 54.5136 27.8387 54.5136H27.924C27.4126 54.3857 27.2848 53.7465 27.1996 53.3206L26.9865 53.2355L26.5178 53.3206C26.3799 53.3515 26.2496 53.4093 26.1343 53.4912C26.0491 53.5335 25.9639 53.5763 25.9639 53.6614V53.5763Z" fill="#1E1D1C"/>
<path d="M52.8513 69.0012L51.4877 77.0974C51.3598 77.9069 53.2349 77.6512 53.3628 76.9268L54.7264 68.831C54.8542 68.0211 52.9792 68.2768 52.8513 69.0012Z" fill="#1E1D1C"/>
<path d="M39.3016 82.2531L39.1738 82.4237L38.8329 82.9351C38.6677 83.2564 38.5527 83.6012 38.492 83.9575C38.4322 84.4739 38.5366 84.9958 38.7903 85.449C39.1076 85.9609 39.5879 86.3508 40.1538 86.5569C40.6786 86.8026 41.2399 86.961 41.8157 87.0256C42.9235 87.1962 44.1166 87.4091 45.4376 87.4942H47.4827L48.5483 87.4091L49.102 87.3241L49.6135 87.2385L51.7014 86.8126C52.1073 86.6948 52.5059 86.5528 52.8945 86.3863C53.2944 86.1279 53.6416 85.7953 53.9173 85.4062C54.355 84.7128 54.6184 83.9234 54.684 83.1053C54.754 82.4119 54.7827 81.7144 54.7695 81.0173C54.7695 80.3357 54.684 79.6541 54.6417 79.0576C54.5921 78.7614 54.5634 78.4625 54.5561 78.1626V77.9497C54.5561 77.8218 54.5138 77.694 54.5138 77.5661C54.461 77.3132 54.3436 77.0784 54.1725 76.8841C54.0128 76.7444 53.8236 76.6425 53.6188 76.5861H51.19C50.7637 76.6284 50.5935 76.7139 50.6363 76.799C50.9261 76.9669 51.2433 77.082 51.5736 77.1398L52.5109 77.3532L53.0651 77.4383C53.2125 77.4651 53.3476 77.5397 53.4482 77.6512C53.4887 77.7145 53.5042 77.7904 53.491 77.8642V77.992C53.4564 78.0575 53.4418 78.1317 53.4482 78.2054V79.1855C53.4482 79.8243 53.4482 80.5063 53.4059 81.2307C53.3513 81.9605 53.2516 82.6862 53.1074 83.4038C53.0605 83.7305 52.9454 84.0435 52.7689 84.3224C52.5928 84.6018 52.3598 84.8402 52.085 85.0231L51.0194 85.3211L49.6985 85.5769C48.7985 85.7534 47.8872 85.8671 46.9717 85.9177L44.1592 85.7898L42.6679 85.6619L41.2617 85.4918C40.8103 85.4121 40.3857 85.222 40.026 84.9376C39.8943 84.8243 39.7967 84.6769 39.744 84.5112C39.6914 84.3456 39.6857 84.1686 39.7277 84.0003C39.7919 83.6113 39.9531 83.245 40.1965 82.9351L41.006 82.0401C41.9399 81.1588 43.1091 80.5669 44.3723 80.3357C45.1903 80.2047 46.0285 80.2929 46.8011 80.5914C47.115 80.7065 47.404 80.8799 47.6533 81.1028L47.8663 81.3586L47.9941 81.5287L48.122 81.6993C48.263 81.9501 48.4195 82.1921 48.5906 82.4237H48.8463V82.2959C48.8959 81.9569 48.9246 81.6156 48.9314 81.273C48.9378 80.9036 48.9237 80.5336 48.8891 80.1651C48.88 79.8088 48.8518 79.4535 48.804 79.0999C48.7612 78.6313 48.804 78.3756 48.7185 78.3756C48.6334 78.3756 48.5906 78.5462 48.5055 78.9298L48.3777 79.5686C48.3845 79.7119 48.3704 79.8557 48.3349 79.9949V80.2079C48.2926 80.3357 48.2926 80.4636 48.2498 80.5914V80.6765H48.207L48.0792 80.4208C47.9941 80.3357 47.9518 80.2506 47.8663 80.2079H47.7812C47.7812 80.1651 47.7812 80.1651 47.6961 80.1228L47.2697 79.8671C46.7033 79.6205 46.0972 79.4762 45.4802 79.4407C44.3066 79.3333 43.1262 79.5549 42.0713 80.08C41.3114 80.4636 40.6087 80.9513 39.9834 81.5287L39.4294 82.0829L39.3016 82.2531Z" fill="#1E1D1C"/>
<path d="M35.2107 84.5968L34.6142 84.7246L33.8898 84.8952H30.3531C29.291 84.8525 28.2353 84.7096 27.1999 84.4689C26.6792 84.3551 26.1771 84.1691 25.7085 83.9152C25.5393 83.821 25.3936 83.6899 25.2824 83.5316C25.2009 83.4042 25.1566 83.2568 25.1546 83.1053C25.1942 82.8969 25.2661 82.6953 25.3676 82.5088C25.4956 82.2763 25.6532 82.0615 25.8364 81.8695C26.2163 81.4218 26.6616 81.0341 27.1573 80.7192C28.1232 80.0832 29.2409 79.7155 30.3957 79.6541C30.9024 79.6172 31.411 79.6896 31.8871 79.867L32.1854 80.0372H32.3132L32.3984 80.1227L32.7393 80.4208C32.858 80.5641 32.9582 80.7215 33.0376 80.8894L33.3785 81.4008L34.1029 82.6794C34.1455 82.5938 34.1455 82.4664 34.1881 82.3386C34.2307 82.2107 34.2307 82.2958 34.2307 82.253C34.2307 82.2107 34.2733 82.168 34.2733 82.1252C34.2733 82.0829 34.3159 81.9123 34.3159 81.8272C34.3159 81.7416 34.4438 81.1028 34.4863 80.762C34.529 80.4208 34.5716 79.9098 34.5716 79.4835V78.9297C34.5716 78.8442 34.529 78.8019 34.529 78.7163V78.5885C34.529 78.2054 34.4863 77.9497 34.4863 77.7363C34.4863 77.5233 34.4011 77.2253 34.2733 77.3955C34.042 77.7863 33.8968 78.2222 33.8472 78.674C33.8193 78.9629 33.7622 79.2487 33.6768 79.5262L33.5489 79.8243L33.4637 79.6964L33.3359 79.4835C33.271 79.3433 33.1848 79.2136 33.0802 79.0999C32.8665 78.9047 32.6217 78.7459 32.3558 78.6312C31.65 78.3005 30.8765 78.1403 30.0975 78.1626C29.2799 78.1699 28.4708 78.3287 27.7113 78.6312C26.8748 78.9375 26.0966 79.3843 25.4103 79.9521C24.5934 80.5559 23.9713 81.3854 23.6206 82.3386C23.5254 82.6412 23.4963 82.961 23.5354 83.2759C23.5433 83.4351 23.5719 83.5926 23.6206 83.7445C23.6579 83.9211 23.7151 84.0926 23.7911 84.256C24.1476 84.7424 24.6151 85.1368 25.1546 85.4062C26.0419 85.8193 26.9928 86.0787 27.9669 86.1733C28.9044 86.2584 29.8418 86.3012 30.7792 86.3012C31.6489 86.278 32.5166 86.2065 33.3785 86.0882C34.1488 85.984 34.9059 85.7984 35.6369 85.534C36.9578 85.0231 38.0656 84.4261 38.79 83.5739C39.1332 83.1712 39.3679 82.6871 39.4718 82.168C39.5072 81.9427 39.5215 81.7143 39.5144 81.4864C39.5215 81.3007 39.5072 81.1146 39.4718 80.9322C39.4718 80.2078 39.4292 79.6113 39.4292 79.0999C39.4292 78.5885 39.3866 78.1198 39.3866 77.694C39.384 77.2781 39.2818 76.869 39.0883 76.5009C38.9713 76.298 38.8039 76.1288 38.6024 76.0091C38.4009 75.8899 38.172 75.8244 37.9378 75.8189C37.4515 75.803 36.9651 75.8462 36.4891 75.9468C35.9351 75.9895 35.7221 76.0318 35.8073 76.1174C36.0939 76.2238 36.3964 76.2816 36.7021 76.2875L37.5543 76.3731C37.823 76.4163 38.0741 76.5342 38.2787 76.7139C38.3802 76.829 38.4556 76.965 38.4998 77.112C38.5439 77.259 38.5557 77.4141 38.5344 77.5661V80.4635C38.5344 80.7192 38.577 80.975 38.577 81.1879V81.8695C38.5082 82.2103 38.3707 82.5333 38.1729 82.8191C37.9751 83.1048 37.7211 83.3473 37.4265 83.5316C36.9377 83.8674 36.4078 84.1395 35.8499 84.341L35.2107 84.5968Z" fill="#1E1D1C"/>
<path d="M25.3672 36.0632C25.3672 36.6171 25.6229 37.0432 25.9637 37.0432C26.3046 37.0432 26.6029 36.6171 26.6029 36.0632C26.6029 35.5092 26.3046 35.0831 25.9637 35.0831C25.6229 35.0831 25.3672 35.5092 25.3672 36.0632Z" fill="white"/>
<path d="M34.4863 38.279C34.4863 38.7903 34.7846 39.2165 35.0829 39.2165C35.3812 39.2165 35.7221 38.7903 35.7221 38.279C35.7221 37.7677 35.4238 37.299 35.0829 37.299C34.742 37.299 34.4863 37.7251 34.4863 38.279Z" fill="white"/>
<path d="M36.1913 73.8587L36.0635 76.5009C36.0635 76.6283 36.3617 76.6711 36.4044 76.7139C36.6349 76.7275 36.8661 76.6989 37.0861 76.6283C37.3229 76.591 37.5444 76.4877 37.7253 76.3303C37.8307 76.2607 37.9066 76.1542 37.9383 76.0318L38.0236 73.3473C38.0236 73.2195 37.7679 73.1771 37.6827 73.1771C37.4547 73.1485 37.2235 73.163 37.0009 73.2195C36.7766 73.2932 36.5621 73.3933 36.3617 73.5179C36.3088 73.5575 36.2659 73.6089 36.2363 73.6681C36.2067 73.7272 36.1913 73.7928 36.1913 73.8587Z" fill="#1E1D1C"/>
<path d="M41.688 85.5342L41.5602 82.381L40.3244 82.7218C40.8206 83.7201 41.3755 84.6874 41.9863 85.6197C42.1993 85.9177 43.222 85.662 43.222 85.3212V81.6566L41.9863 81.9974C42.5794 83.645 43.3062 85.2411 44.1594 86.7699C44.3299 87.0684 45.3951 86.8127 45.3951 86.4291L45.1395 80.8472L43.9037 81.188L47.2699 86.557C47.4405 86.8555 48.4206 86.5998 48.5057 86.3013C48.7186 85.3212 48.4629 84.3839 48.2927 83.4038L47.6534 80.293L46.4604 80.6343C47.4305 82.3269 48.5575 83.9248 49.8265 85.4063C49.9971 85.6197 51.1051 85.364 51.0195 85.0232C50.9345 84.6819 50.423 83.063 50.1673 82.0402C49.9121 81.0174 49.5708 80.0801 49.6987 79.0577L48.4629 79.3129C49.2337 81.0979 50.2997 82.7405 51.6165 84.171C51.8294 84.3839 52.8518 84.1282 52.8095 83.7874C52.724 81.5716 51.9996 79.5263 51.318 77.4807L50.0822 77.8642C51.136 78.6764 52.0938 79.6055 52.9374 80.6343C53.1075 80.8895 54.0453 80.5915 54.1304 80.3358C54.3369 79.3125 54.2632 78.2528 53.9174 77.2677C53.7896 76.9269 52.5538 77.3105 52.6816 77.6085C53.0288 78.534 53.103 79.54 52.8946 80.5064L54.0876 80.2079C53.2481 79.1905 52.3058 78.2623 51.2752 77.4383C51.0623 77.2677 49.9544 77.4807 50.0822 77.8219C50.7643 79.8671 51.4886 81.9124 51.5737 84.0854L52.7667 83.7019C51.4609 82.3287 50.4203 80.7248 49.6987 78.9721C49.5708 78.6741 48.5057 78.9721 48.4629 79.2706C48.4006 80.2662 48.5307 81.2644 48.8465 82.2108C49.1449 83.2332 49.4857 84.2984 49.7842 85.364L50.9772 84.9804C49.736 83.5167 48.624 81.9488 47.6534 80.293C47.4833 79.995 46.3753 80.293 46.4604 80.6343L47.0142 83.5317C47.1848 84.5118 47.4833 85.4918 47.2699 86.4719L48.5057 86.2162L45.1395 80.8472C44.9264 80.5915 43.8612 80.8472 43.9037 81.188L44.1594 86.7699L45.3951 86.4291C44.5419 84.9003 43.8151 83.3042 43.222 81.6566C43.0942 81.3159 41.9863 81.6566 41.9863 81.9974V85.6197L43.222 85.3212C42.602 84.3798 42.0467 83.3979 41.5602 82.381C41.3897 82.083 40.2819 82.3387 40.3244 82.7218L40.4523 85.8754C40.4949 86.1307 41.7306 85.9177 41.688 85.5342Z" fill="#1E1D1C"/>
<path d="M19.9135 38.6625C21.6605 36.4893 23.3224 34.2309 24.8989 31.9726C24.9687 31.899 25.0185 31.8089 25.0438 31.7108C25.069 31.6126 25.0689 31.5096 25.0433 31.4116C25.0177 31.3135 24.9676 31.2236 24.8976 31.1502C24.8276 31.0769 24.7401 31.0227 24.6433 30.9925C24.4147 30.9075 24.1655 30.8946 23.9293 30.9556C23.6931 31.0165 23.4813 31.1484 23.3224 31.3334C21.7457 33.6344 20.0839 35.8502 18.3369 38.0659C18.2767 38.1395 18.235 38.2264 18.2152 38.3194C18.1954 38.4124 18.1982 38.5088 18.2232 38.6005C18.2482 38.6923 18.2947 38.7767 18.359 38.8467C18.4233 38.9168 18.5034 38.9705 18.5925 39.0033C18.8212 39.0884 19.0704 39.1013 19.3066 39.0403C19.5427 38.9794 19.7546 38.8475 19.9135 38.6625Z" fill="#1E1D1C"/>
<path d="M25.0688 81.8696C25.3192 83.0457 25.878 84.1341 26.688 85.0232C26.9863 85.3212 28.0516 85.1506 27.8811 84.5968C27.4848 83.1249 27.2983 81.6043 27.3272 80.0801L26.0915 80.293C26.8985 82.1089 27.9138 83.8252 29.1169 85.4063C29.4151 85.7898 30.3952 85.4918 30.31 84.9804L29.4151 79.5686L28.222 79.995C29.2451 81.9092 30.4282 83.7337 31.7587 85.449C32.057 85.8326 33.0796 85.5769 32.9518 85.0232L31.7587 80.0377L30.5656 80.4636L33.6762 85.1506C33.9319 85.5341 34.9545 85.1933 34.8693 84.6819C34.5679 83.1299 34.1404 81.6052 33.591 80.1228L32.4405 80.5487C33.3026 81.9087 34.3657 83.1295 35.5937 84.171C35.8493 84.3839 36.872 84.1282 36.7016 83.6595C36.0624 81.9974 35.338 80.3785 34.6136 78.802L33.4205 79.2278C34.4389 80.7635 35.5941 82.204 36.872 83.5317C37.1703 83.8297 38.1929 83.6595 38.0651 83.1053C37.5173 80.9464 36.6559 78.8789 35.5084 76.9697L34.358 77.5234C35.5085 78.887 36.6589 80.293 37.7668 81.6994C38.0225 82.0402 39.1304 81.7845 38.9599 81.2731L37.1703 76.6712L36.0198 77.0975C36.5904 77.7746 37.2176 78.4016 37.8946 78.9721C38.2355 79.2706 39.0025 78.9298 38.9599 78.4607V77.5662C38.9173 77.012 37.6816 77.3105 37.7242 77.8642L37.8095 78.802L38.8747 78.2905C38.254 77.7618 37.6835 77.1772 37.1703 76.5433C36.9146 76.2453 35.8067 76.501 35.9772 76.9697L37.7668 81.6143L38.9173 81.188C37.8094 79.7393 36.7015 78.3756 35.5511 76.9697C35.2102 76.5861 34.0597 76.9697 34.4006 77.5234C35.5044 79.3639 36.3233 81.3609 36.8294 83.4466L38.0225 83.0203C36.7546 81.6839 35.6001 80.2443 34.571 78.7164C34.3154 78.3329 33.1649 78.6741 33.3779 79.1428C34.1023 80.7193 34.8267 82.3387 35.4658 83.9576L36.5311 83.4889C35.3708 82.4929 34.3656 81.3299 33.5484 80.0377C33.3353 79.6542 32.1848 79.995 32.3553 80.4636C32.9047 81.946 33.3322 83.4712 33.6336 85.0232L34.7841 84.5968L31.7161 79.9099C31.4604 79.5263 30.3952 79.8671 30.523 80.3358L31.7161 85.364L32.8666 84.9376C31.5593 83.215 30.3909 81.3914 29.3725 79.4835C29.1169 79.0577 28.0942 79.3985 28.1794 79.9099L29.0742 85.3212L30.2673 84.8953C29.1021 83.3651 28.1156 81.7067 27.3272 79.9522C27.1141 79.5263 26.0915 79.6965 26.0915 80.2079C26.0651 81.8022 26.2514 83.3929 26.6454 84.9376L27.8385 84.5118C27.0505 83.6859 26.5178 82.6503 26.3046 81.5288C26.1767 80.975 24.941 81.3158 25.0688 81.8696Z" fill="#1E1D1C"/>
</svg>
