<svg width="224" height="44" viewBox="0 0 224 44" fill="none" xmlns="http://www.w3.org/2000/svg">
<g clip-path="url(#clip0_776:120)">
<path d="M23.2815 34.7366C31.6434 34.7366 38.1066 28.5158 38.1066 20.8421C38.1066 13.6528 32.0346 9.26336 28.0129 9.26336C22.4127 9.26336 17.9236 13.1332 17.2841 18.8782C17.1656 19.942 16.3096 20.8343 15.2233 20.8267C13.4175 20.8139 10.7918 20.7987 9.12977 20.8044C8.41419 20.8068 7.82282 20.2351 7.85808 19.5308C8.10873 14.5482 9.80073 9.88941 13.0269 6.31074C16.6117 2.33417 21.8324 0 28.0129 0C38.3972 0 48.2002 9.29133 48.2002 20.8421C48.2002 33.6318 37.4389 44 23.5024 44C13.5635 44 3.55327 37.604 0.0582524 28.6619C0.0456808 28.6288 0.0426307 28.5929 0.0494384 28.5582C0.0962627 28.2936 0.188534 28.0519 0.279428 27.814C0.411638 27.4679 0.541093 27.1295 0.522364 26.7398L0.461768 25.4942C0.447846 25.1927 0.525394 24.894 0.684503 24.6362C0.843612 24.3783 1.07706 24.1732 1.35501 24.0468L1.86016 23.8151C2.14317 23.6861 2.39068 23.4921 2.5819 23.2493C2.77313 23.0065 2.9025 22.7219 2.95916 22.4196C3.12855 21.5062 3.94274 20.8421 4.89327 20.8421C6.37788 20.8421 7.66858 21.8142 8.15335 23.1961C10.4871 29.8478 14.1973 34.7366 23.2815 34.7366Z" fill="#FB6970"/>
<path d="M208.134 15.3687C206.282 15.3687 205.712 14.2812 205.712 13.0532C205.712 11.7552 206.175 10.7378 208.134 10.7378C210.092 10.7378 210.555 11.7552 210.555 13.0532C210.555 14.2809 210.056 15.3687 208.134 15.3687ZM174.331 30.4281V21.4124L171.727 21.3996V20.3502C171.727 19.207 172.671 18.2819 173.831 18.2876L174.331 18.2903V14.4661L178.497 13.3085V18.2898H182.272V19.3496C182.272 19.6205 182.218 19.8888 182.113 20.1391C182.007 20.3894 181.853 20.6168 181.659 20.8084C181.464 20.9999 181.234 21.1518 180.98 21.2554C180.726 21.359 180.454 21.4122 180.179 21.4121H178.497V29.9017C178.497 31.2087 179.249 31.6677 180.218 31.8255C181.359 32.0113 182.308 32.825 182.308 33.9638V35.5147C178.363 35.5147 174.331 35.3433 174.331 30.4281H174.331ZM92.1364 17.9014C87.9698 17.796 82.8417 20.392 82.8417 26.8823C82.8417 33.2669 87.9698 35.7928 92.1364 35.6877C96.4098 35.7928 101.502 33.2669 101.502 26.8823C101.502 20.392 96.4098 17.796 92.1364 17.9014V17.9014ZM92.1672 32.501C89.1402 32.501 86.9926 30.3284 86.9926 26.7503C86.9926 23.3471 89.1415 21.1055 92.1686 21.1055C95.1954 21.1055 97.3204 23.3427 97.3204 26.7454C97.3204 30.3238 95.194 32.501 92.1669 32.501H92.1672ZM112.447 17.9399C116.079 17.9399 119.854 18.9221 119.854 25.9384V35.3403H117.531C116.375 35.3403 115.438 34.4169 115.438 33.2777V25.5878C115.438 22.2552 114.191 20.9922 112.019 20.9922C110.808 20.9922 109.242 21.9043 108.493 22.6409V33.278C108.493 33.549 108.439 33.8173 108.334 34.0676C108.229 34.3179 108.074 34.5453 107.88 34.7368C107.686 34.9283 107.455 35.0802 107.201 35.1838C106.947 35.2874 106.675 35.3407 106.4 35.3406H104.291V18.3609H106.641C107.046 18.3608 107.439 18.496 107.756 18.7445C108.073 18.9929 108.295 19.34 108.387 19.729C109.455 18.5714 110.844 17.9399 112.447 17.9399ZM124.616 18.3308C125.047 18.3306 125.468 18.4621 125.821 18.7072C126.174 18.9522 126.442 19.2989 126.587 19.6997L130.4 30.2233L134.213 19.6999C134.358 19.2991 134.626 18.9525 134.979 18.7074C135.332 18.4623 135.753 18.3309 136.185 18.3311H139.196L132.986 33.998C132.833 34.3848 132.564 34.7169 132.216 34.951C131.868 35.1851 131.457 35.3102 131.036 35.3102H128.37L121.604 18.3308H124.616ZM155.66 34.4853C154.342 35.0114 151.669 35.7124 148.892 35.7124C144.013 35.7124 140.276 32.9412 140.276 26.6968C140.276 21.0838 143.898 18.0825 148.315 18.0825C153.765 18.0825 156.09 21.6865 155.847 26.5925C155.797 27.6061 154.901 28.3454 153.871 28.3454H144.476C144.69 31.0818 146.719 32.52 149.39 32.52C150.439 32.52 151.542 32.4675 152.863 32.2245C154.264 31.9664 155.66 32.9488 155.66 34.353V34.4853ZM152.076 25.4688C152.362 22.7837 150.522 21.3103 148.315 21.3103C146.107 21.3103 144.618 22.9429 144.476 25.4686H152.076V25.4688ZM161.397 18.3661C161.783 18.366 162.159 18.4939 162.463 18.7293C162.767 18.9647 162.981 19.294 163.073 19.6644C164.497 18.6116 166.278 17.9451 167.524 17.9451C167.631 17.9451 168.308 17.9451 169.376 18.0855V19.9061C169.376 20.8847 168.518 21.6286 167.524 21.6286C166.385 21.6286 164.711 22.0496 163.393 22.7865V35.3455H159.156V18.3658H161.397V18.3661ZM210.27 33.2324V18.3156H208.162C207.006 18.3156 206.068 19.239 206.068 20.3781V35.2947H208.177C209.333 35.2947 210.27 34.3712 210.27 33.2324V33.2324ZM216.001 30.4639V21.448H213.188V20.3882C213.188 19.2491 214.125 18.3256 215.281 18.3256H216.001V14.502L220.167 13.3441V18.3256H223.942V19.3854C223.942 20.5245 223.005 21.448 221.848 21.448H220.167V29.9378C220.167 31.2445 220.919 31.7035 221.888 31.8613C223.028 32.0474 223.978 32.8608 223.978 33.9997V35.5505C220.033 35.5505 216.001 35.3794 216.001 30.4639V30.4639ZM62.0195 23.3748C62.046 15.4357 68.1232 10.9996 73.955 10.9996C77.1942 10.9996 80.1645 11.6873 82.6071 13.406L81.6188 14.7415C80.9578 15.6351 79.7045 15.9901 78.6606 15.5835C77.1873 15.0096 75.7996 14.8885 74.7659 14.8885C69.9943 14.8885 66.3954 17.9087 66.3698 23.3745C66.3954 28.84 69.9943 31.904 74.7659 31.904C75.7996 31.904 77.1873 31.7828 78.6606 31.2089C79.7045 30.8023 80.9578 31.1144 81.6188 32.0077L82.6071 33.3435C80.1645 35.0622 77.1945 35.7499 73.955 35.7499C68.1232 35.7499 62.046 31.3135 62.0195 23.3748ZM187.475 11.1237C188.631 11.1237 189.568 12.0472 189.568 13.1863V22.6422L198.138 12.0339C198.333 11.7736 198.587 11.5621 198.88 11.4164C199.173 11.2707 199.496 11.1948 199.824 11.1949H203.63L193.941 23.2474L203.631 35.295H199.824C199.496 35.295 199.172 35.2191 198.88 35.0734C198.587 34.9277 198.333 34.7162 198.138 34.456L189.568 23.8506V33.2324C189.568 34.3715 188.631 35.295 187.475 35.295H185.259V11.1237H187.475Z" fill="white"/>
</g>
<defs>
<clipPath id="clip0_776:120">
<rect width="224" height="44" fill="white"/>
</clipPath>
</defs>
</svg>
