<svg width="30" height="44" viewBox="0 0 30 44" fill="none" xmlns="http://www.w3.org/2000/svg">
<path d="M7.50143 43.9999C11.6406 43.9999 14.9999 40.7146 14.9999 36.6666V29.3333H7.50143C3.36226 29.3333 0.00292969 32.6186 0.00292969 36.6666C0.00292969 40.7146 3.36226 43.9999 7.50143 43.9999Z" fill="#C4C4C4"/>
<path d="M0.00292969 22.0001C0.00292969 17.9521 3.36226 14.6667 7.50143 14.6667H14.9999V29.3334H7.50143C3.36226 29.3334 0.00292969 26.0481 0.00292969 22.0001Z" fill="#7E7C7C"/>
<path d="M0.00390625 7.33333C0.00390625 3.28533 3.36324 0 7.50241 0H15.0009V14.6667H7.50241C3.36324 14.6667 0.00390625 11.3813 0.00390625 7.33333Z" fill="#908F8E"/>
<path d="M15 0H22.4985C26.6377 0 29.997 3.28533 29.997 7.33333C29.997 11.3813 26.6377 14.6667 22.4985 14.6667H15V0Z" fill="#575554"/>
<path d="M29.997 22.0001C29.997 26.0481 26.6377 29.3334 22.4985 29.3334C18.3593 29.3334 15 26.0481 15 22.0001C15 17.9521 18.3593 14.6667 22.4985 14.6667C26.6377 14.6667 29.997 17.9521 29.997 22.0001Z" fill="#66696A"/>
</svg>
