<svg width="42" height="63" viewBox="0 0 42 63" fill="none" xmlns="http://www.w3.org/2000/svg">
<path d="M10.5018 63C16.2966 63 20.9997 58.296 20.9997 52.5V42H10.5018C4.70697 42 0.00390625 46.704 0.00390625 52.5C0.00390625 58.296 4.70697 63 10.5018 63Z" fill="#0ACF83"/>
<path d="M0.00390625 31.5C0.00390625 25.704 4.70697 21 10.5018 21H20.9997V42H10.5018C4.70697 42 0.00390625 37.296 0.00390625 31.5Z" fill="#A259FF"/>
<path d="M0.00390625 10.5C0.00390625 4.704 4.70697 0 10.5018 0H20.9997V21H10.5018C4.70697 21 0.00390625 16.296 0.00390625 10.5Z" fill="#F24E1E"/>
<path d="M21 0H31.4979C37.2927 0 41.9958 4.704 41.9958 10.5C41.9958 16.296 37.2927 21 31.4979 21H21V0Z" fill="#FF7262"/>
<path d="M41.9958 31.5C41.9958 37.296 37.2927 42 31.4979 42C25.7031 42 21 37.296 21 31.5C21 25.704 25.7031 21 31.4979 21C37.2927 21 41.9958 25.704 41.9958 31.5Z" fill="#1ABCFE"/>
</svg>
