<svg width="137" height="65" viewBox="0 0 137 65" fill="none" xmlns="http://www.w3.org/2000/svg">
<path d="M8.43283 25.5912C10.8778 24.4018 13.5845 23.8387 16.3039 23.9463C21.564 24.1234 24.4558 26.7743 24.5708 31.9622C24.6984 37.3967 24.6601 42.7871 24.641 48.2153C24.641 50.4233 24.0537 50.9358 21.8513 50.9358H18.7999C16.8529 50.9358 16.2464 50.3474 16.2081 48.4051V33.8538C16.2081 31.6015 15.1357 30.6778 12.8376 30.7664C12.4354 30.7727 12.0396 30.8107 11.6438 30.8803C8.63072 31.4877 8.45837 31.7028 8.45837 34.7459V47.7155C8.45837 50.4866 7.97959 50.9548 5.22184 50.9548H2.16407C0.727739 50.9548 0.0957551 50.2841 0 48.8163V14.5512C0 12.0459 0.536229 11.5208 3.02586 11.5208H5.71977C7.80723 11.5208 8.45198 12.1028 8.49028 14.1906C8.54774 17.3223 8.49028 20.454 8.49028 23.5793C8.43283 24.1551 8.43283 24.7751 8.43283 25.5912ZM53.4186 38.2888C53.2334 39.7313 53.1313 41.5787 52.7419 43.3818C52.1355 47.4435 48.95 50.6574 44.8644 51.328C42.0684 51.9227 39.1766 51.8848 36.3997 51.2205C32.8823 50.5499 30.0735 47.9116 29.2181 44.4636C27.9477 40.1172 27.9477 35.4988 29.2181 31.146C30.565 26.5782 34.0888 24.1298 39.2532 23.9526C41.1172 23.8514 42.9813 23.9716 44.8198 24.2943C49.6905 25.2622 52.4546 28.5331 53.0802 33.8791C53.2334 35.233 53.2781 36.5427 53.4186 38.2888ZM44.9091 38.3964C44.8134 36.9096 44.7623 35.891 44.6666 34.8914C44.6091 34.3663 44.5006 33.8475 44.341 33.3414C44.0346 31.6585 42.4833 30.4754 40.7661 30.6083C39.0872 30.4817 37.5807 31.6332 37.2806 33.2781C36.5146 36.2833 36.5146 39.4276 37.2806 42.4264C37.5934 44.0967 39.1638 45.2418 40.8683 45.052C42.4833 45.1595 43.926 44.065 44.2388 42.4897C44.5389 41.1358 44.7623 39.7692 44.9155 38.39V38.3964H44.9091ZM107.316 34.2397C107.686 31.4497 107.061 30.5893 104.348 30.7158C102.132 30.8993 99.9364 31.2219 97.7659 31.6838C95.9274 32.0128 94.5805 31.5509 94.3251 30.1338C93.9102 27.7992 94.0698 25.7937 95.9594 25.2306C100.332 23.8071 105.018 23.573 109.512 24.56C113.597 25.528 115.576 28.2041 115.576 32.5758V48.0445C115.576 49.2149 115.576 50.417 114.172 50.8725C112.614 51.4356 110.859 50.9611 109.812 49.6831L109.378 49.0631C106.99 50.9548 103.977 51.9101 100.919 51.7329C94.2805 51.4925 90.4694 45.2228 93.3548 39.2568C94.7018 36.4161 97.3957 35.5241 100.179 35.0812C102.579 34.7269 104.96 34.5055 107.316 34.2397ZM107.444 38.7949C105.835 39.0354 104.418 39.1682 103.045 39.4656C101.609 39.649 100.53 40.8448 100.498 42.2746C100.198 43.7107 100.964 45.1659 102.33 45.7353C103.677 46.2541 106.543 45.7353 107.201 44.8242C107.329 44.6471 107.399 44.4383 107.405 44.2232C107.444 42.4644 107.444 40.7182 107.444 38.776V38.7949ZM59.1894 24.8826V21.4283C59.0681 20.3717 59.7576 19.3848 60.7981 19.1317C62.1706 18.6762 63.5686 18.2903 64.9858 17.9676C66.0072 17.6323 67.1115 18.1764 67.4499 19.1886C67.5393 19.4607 67.5712 19.7454 67.5329 20.0301C67.5776 21.5169 67.5329 22.9973 67.5329 24.6485H71.529C73.4761 24.6928 74.1464 25.3192 74.223 27.3184C74.3315 31.3801 74.1081 31.6079 70.0608 31.6079H67.7116C67.6478 31.9685 67.6031 32.3354 67.5839 32.7024V41.2687C67.5839 43.9385 68.3947 44.7546 71.012 44.9444C73.3101 45.1089 73.9357 45.6151 73.9357 47.4688C74.0187 50.4296 73.4122 51.4293 71.012 51.5684C69.1096 51.7076 67.1945 51.6127 65.3177 51.2837C61.4173 50.4992 59.3171 47.9939 59.183 43.9069C59.0681 40.3386 59.1383 36.7704 59.1256 33.2212V31.6205H56.77C55.6592 31.7091 54.6889 30.893 54.5932 29.7921V29.6086C54.2676 26.8755 54.7591 26.148 57.3828 25.4141L59.1894 24.8826ZM88.4969 41.4901C88.4969 46.1149 88.5862 50.746 88.4969 55.3708C88.4713 60.7104 84.0921 65.0189 78.7043 64.9936C78.1936 64.9936 77.6829 64.9493 77.1722 64.8671C75.2954 64.633 74.6251 63.8991 74.5996 61.9695V60.2549C74.6826 58.6416 75.1869 58.0786 76.802 57.7812C79.298 57.3194 80.1087 56.3894 80.1151 53.8081V27.4892C80.1151 25.2559 80.6896 24.6612 82.9431 24.5916H86.0072C87.8202 24.6739 88.5032 25.3255 88.516 27.1349V41.4015L88.4969 41.4901ZM126.135 26.4833C128.344 24.9143 130.974 24.0349 133.687 23.9526C136.381 23.9526 137 24.5157 136.994 27.1602V28.3496C136.994 30.0578 136.279 30.6652 134.593 30.8423C133.01 31.0321 131.433 31.3105 129.876 31.6648C128.829 31.8862 128.433 32.5126 128.452 33.6704C128.535 38.4976 128.452 43.2869 128.452 48.0888C128.452 50.4486 127.935 50.9421 125.529 50.9864H122.056C121.06 51.0686 120.185 50.3284 120.102 49.3415C120.09 49.2213 120.096 49.101 120.109 48.9808V26.768C120.032 25.781 120.779 24.9143 121.775 24.8383H121.781H121.864C123.55 24.5536 125.318 24.2943 126.135 26.4833Z" fill="white"/>
<path d="M87.5898 19.8973C89.1155 14.4754 88.5665 11.7423 85.8918 11.2172C86.3003 13.0582 86.76 14.9499 84.8066 16.2279C83.7852 16.8985 82.9744 16.6391 81.1615 15.2599C80.3252 16.9618 80.6061 18.6573 80.9955 20.4731C78.3974 20.0239 76.3482 18.9547 75.397 16.4683C74.414 14.2033 74.9566 11.5778 76.744 9.86959C77.3696 9.23693 78.0463 8.6612 78.7676 8.14242C81.6913 5.96605 82.2595 3.85295 80.7146 0.582073C80.6444 0.392273 80.587 0.202474 80.5487 0.00634766C83.7979 0.4935 86.8749 1.79046 89.4922 3.76438C95.1928 8.38283 94.5033 16.6897 88.2091 19.7392C87.992 19.7518 87.7877 19.8024 87.5898 19.8973Z" fill="#EE4854"/>
</svg>
