<svg width="83" height="40" viewBox="0 0 83 40" fill="none" xmlns="http://www.w3.org/2000/svg">
<path d="M5.10894 15.7483C6.59019 15.0164 8.23 14.6699 9.87754 14.7361C13.0643 14.8451 14.8163 16.4764 14.8859 19.6689C14.9633 23.0133 14.9401 26.3304 14.9285 29.6709C14.9285 31.0296 14.5727 31.345 13.2384 31.345H11.3897C10.2101 31.345 9.84274 30.9829 9.81953 29.7877V20.833C9.81953 19.447 9.1698 18.8786 7.7775 18.9331C7.53385 18.937 7.29407 18.9603 7.05428 19.0032C5.22883 19.3769 5.12441 19.5093 5.12441 21.382V29.3633C5.12441 31.0686 4.83435 31.3567 3.1636 31.3567H1.31108C0.440893 31.3567 0.0580122 30.944 0 30.0407V8.9545C0 7.41275 0.324868 7.0896 1.83319 7.0896H3.46526C4.72993 7.0896 5.12054 7.44779 5.14375 8.73258C5.17856 10.6598 5.14375 12.587 5.14375 14.5103C5.10894 14.8646 5.10894 15.2461 5.10894 15.7483ZM32.3631 23.5622C32.2509 24.4499 32.189 25.5868 31.9531 26.6964C31.5857 29.1959 29.6558 31.1737 27.1807 31.5864C25.4867 31.9524 23.7347 31.929 22.0524 31.5202C19.9214 31.1075 18.2197 29.484 17.7015 27.3621C16.9318 24.6874 16.9318 21.8453 17.7015 19.1667C18.5175 16.3557 20.6523 14.849 23.7811 14.74C24.9104 14.6777 26.0397 14.7517 27.1536 14.9502C30.1045 15.5459 31.7791 17.5587 32.1581 20.8486C32.2509 21.6818 32.278 22.4877 32.3631 23.5622ZM27.2077 23.6284C27.1497 22.7135 27.1188 22.0867 27.0608 21.4715C27.026 21.1484 26.9602 20.8291 26.8635 20.5177C26.6779 19.482 25.7381 18.754 24.6977 18.8358C23.6806 18.7579 22.7679 19.4665 22.5861 20.4787C22.122 22.3281 22.122 24.263 22.5861 26.1085C22.7756 27.1363 23.727 27.841 24.7596 27.7242C25.7381 27.7904 26.6121 27.1169 26.8016 26.1474C26.9834 25.3142 27.1188 24.4733 27.2116 23.6245V23.6284H27.2077ZM65.0162 21.0705C65.2405 19.3536 64.8615 18.8241 63.2178 18.9019C61.8758 19.0148 60.5454 19.2134 59.2305 19.4976C58.1166 19.7001 57.3006 19.4159 57.1459 18.5438C56.8945 17.1071 56.9912 15.8729 58.136 15.5264C60.7852 14.6504 63.6239 14.5064 66.3466 15.1137C68.8218 15.7094 70.0207 17.3563 70.0207 20.0466V29.5658C70.0207 30.286 70.0207 31.0257 69.1699 31.3061C68.2262 31.6526 67.1627 31.3606 66.5284 30.5741L66.2654 30.1926C64.819 31.3567 62.9935 31.9446 61.141 31.8356C57.1188 31.6876 54.8099 27.8293 56.558 24.1579C57.3741 22.4098 59.0061 21.8609 60.6924 21.5883C62.1465 21.3703 63.5891 21.234 65.0162 21.0705ZM65.0936 23.8737C64.119 24.0217 63.2604 24.1034 62.4289 24.2864C61.5587 24.3993 60.9051 25.1352 60.8857 26.015C60.704 26.8988 61.1681 27.7943 61.9957 28.1447C62.8118 28.4639 64.5482 28.1447 64.9466 27.5841C65.0239 27.475 65.0665 27.3466 65.0704 27.2142C65.0936 26.1318 65.0936 25.0573 65.0936 23.862V23.8737ZM35.8593 15.3123V13.1865C35.7858 12.5364 36.2035 11.929 36.8339 11.7733C37.6654 11.4929 38.5124 11.2555 39.371 11.0569C39.9897 10.8505 40.6588 11.1854 40.8638 11.8083C40.9179 11.9757 40.9373 12.1509 40.9141 12.3261C40.9412 13.241 40.9141 14.1521 40.9141 15.1682H43.3351C44.5147 15.1955 44.9208 15.5809 44.9672 16.8112C45.0329 19.3107 44.8976 19.4509 42.4456 19.4509H41.0224C40.9837 19.6728 40.9566 19.8986 40.945 20.1244V25.396C40.945 27.039 41.4362 27.5412 43.0219 27.658C44.4141 27.7593 44.7932 28.0707 44.7932 29.2115C44.8434 31.0335 44.476 31.6487 43.0219 31.7343C41.8693 31.82 40.7091 31.7616 39.5721 31.5591C37.209 31.0764 35.9366 29.5346 35.8554 27.0195C35.7858 24.8237 35.8283 22.6278 35.8206 20.4437V19.4587H34.3935C33.7206 19.5132 33.1327 19.011 33.0747 18.3335V18.2206C32.8775 16.5387 33.1752 16.091 34.7648 15.6393L35.8593 15.3123ZM53.6149 25.5323C53.6149 28.3783 53.669 31.2282 53.6149 34.0742C53.5994 37.3602 50.9463 40.0115 47.6822 39.996C47.3728 39.996 47.0634 39.9687 46.754 39.9181C45.6169 39.774 45.2108 39.3224 45.1954 38.135V37.0799C45.2457 36.0871 45.5512 35.7406 46.5297 35.5576C48.0418 35.2734 48.533 34.701 48.5369 33.1126V16.9163C48.5369 15.542 48.885 15.176 50.2502 15.1332H52.1066C53.2049 15.1838 53.6187 15.5848 53.6265 16.6983V25.4778L53.6149 25.5323ZM76.4175 16.2973C77.7557 15.3318 79.3491 14.7906 80.9928 14.74C82.6248 14.74 83 15.0865 82.9961 16.7139V17.4458C82.9961 18.497 82.563 18.8708 81.542 18.9798C80.5828 19.0966 79.6276 19.2679 78.6839 19.4859C78.0496 19.6222 77.8098 20.0076 77.8214 20.7201C77.8717 23.6907 77.8214 26.638 77.8214 29.593C77.8214 31.0452 77.5082 31.3489 76.0501 31.3761H73.9462C73.3429 31.4268 72.8131 30.9712 72.7628 30.3639C72.755 30.2899 72.7589 30.2159 72.7666 30.142V16.4725C72.7202 15.8651 73.1727 15.3318 73.7761 15.285H73.7799H73.8302C74.8512 15.1098 75.9225 14.9502 76.4175 16.2973Z" fill="#C4C4C4"/>
<path d="M53.0654 12.2445C53.9898 8.90794 53.6572 7.22602 52.0367 6.90287C52.2842 8.03583 52.5627 9.19993 51.3792 9.98639C50.7604 10.3991 50.2693 10.2395 49.1709 9.39071C48.6642 10.438 48.8344 11.4814 49.0703 12.5988C47.4963 12.3224 46.2548 11.6644 45.6786 10.1343C45.083 8.74052 45.4117 7.12479 46.4946 6.0736C46.8736 5.68426 47.2836 5.32997 47.7206 5.01072C49.4919 3.67142 49.8361 2.37105 48.9002 0.358199C48.8576 0.241399 48.8228 0.124599 48.7996 0.00390625C50.7682 0.303692 52.6323 1.10182 54.2179 2.31654C57.6716 5.15867 57.2539 10.2706 53.4406 12.1472C53.3091 12.155 53.1853 12.1861 53.0654 12.2445V12.2445Z" fill="#C4C4C4"/>
</svg>
