<svg width="84" height="84" viewBox="0 0 84 84" fill="none" xmlns="http://www.w3.org/2000/svg">
<path d="M22.719 73.2073C24.004 73.2073 25.0455 72.1665 25.0455 70.8821C25.0455 69.5982 24.004 68.557 22.719 68.557C21.4342 68.557 20.3926 69.5982 20.3926 70.8821C20.3926 72.1665 21.4342 73.2073 22.719 73.2073Z" fill="#B8E4E5"/>
<path d="M59.7234 13.7715C59.7234 13.3283 59.547 12.9033 59.2337 12.5899C58.9199 12.2764 58.4949 12.1003 58.0513 12.1003C57.6078 12.1003 57.1824 12.2764 56.8686 12.5899C56.5553 12.9033 56.3789 13.3283 56.3789 13.7715C56.3789 14.2147 56.5553 14.6398 56.8686 14.9532C57.1824 15.2666 57.6078 15.4427 58.0513 15.4427C58.4949 15.4427 58.9199 15.2666 59.2337 14.9532C59.547 14.6398 59.7234 14.2147 59.7234 13.7715Z" fill="#B8E4E5"/>
<path d="M73.7192 10.2476C72.6285 9.8843 71.2836 10.8289 71.6469 11.9914C71.7927 12.5727 72.2652 12.827 72.665 13.2267C72.7805 13.3296 72.8683 13.4604 72.9191 13.6067C72.9699 13.7529 72.9825 13.9097 72.9557 14.0622C72.9195 14.0986 72.8465 14.3892 72.7738 14.3892C72.7011 14.3892 72.4105 14.2076 72.3378 14.1349C72.2652 14.0622 71.5016 14.0986 71.3563 14.3166C71.211 14.5345 71.2471 15.4791 71.6469 15.9514C72.0468 16.4237 72.8465 17.005 72.3378 17.5136C71.8288 18.0222 71.4655 17.8042 71.1383 17.9496C70.9132 18.0079 70.7049 18.1168 70.5285 18.2679C70.3521 18.419 70.2126 18.6083 70.1202 18.8215C70.0476 18.9305 70.2294 19.0031 70.3021 19.0395C70.3748 19.0758 70.8838 19.8024 70.7385 20.202C70.5927 20.6016 69.9384 20.6016 69.5751 20.8923C69.2114 21.1829 69.3571 21.8732 69.2844 22.4908C69.2114 23.1084 68.8115 23.7624 68.2302 23.7987C67.6485 23.835 67.6485 23.8713 67.5393 24.0893C67.4305 24.3073 67.612 24.38 67.8304 24.38C68.2395 24.3814 68.6435 24.2868 69.0098 24.1038C69.376 23.9208 69.6939 23.6545 69.9384 23.3264C70.1874 23.0166 70.3281 22.6337 70.3386 22.2365C70.3344 22.0407 70.3101 21.8459 70.2656 21.6552C70.2294 21.3646 70.1568 21.1829 70.484 21.1103C70.8111 21.0376 71.7561 20.6016 71.8288 19.8387C71.8763 19.5419 71.8141 19.2379 71.6532 18.9838C71.4928 18.7297 71.245 18.5428 70.9565 18.4582L71.1744 18.6762C71.3198 18.3129 71.8288 18.2765 72.156 18.2039C72.626 18.1029 73.0485 17.847 73.3555 17.4773C73.6827 17.005 73.4647 16.4964 73.1375 16.0604C72.8103 15.6244 71.8653 14.9705 72.3378 14.3529L71.3563 14.5345C72.1194 15.4428 73.9737 14.9342 74.0464 13.6989C74.0464 13.0813 73.5735 12.7544 73.1736 12.3911C72.9195 12.1889 72.7406 11.9076 72.665 11.5918C72.6285 11.3375 72.665 10.6836 73.0649 10.7925C73.4647 10.9015 74.3005 10.4292 73.7192 10.2476Z" fill="#B8E4E5"/>
<path d="M22.9365 7.3775C22.464 7.7408 22.573 7.34117 22.7184 7.55915L22.9002 7.77713C23.0033 7.96621 23.0535 8.17957 23.0456 8.39474C23.0456 8.8307 22.8275 9.26666 22.8638 9.73895C22.9002 10.2112 23.6272 10.8652 24.3906 10.8652C25.154 10.8652 26.0264 10.5382 26.3899 11.3375C26.7534 12.1367 26.4626 12.8997 26.2444 13.5536C26.2081 13.6263 26.2808 13.6989 26.3535 13.7352C27.1169 14.0985 27.8439 13.7716 28.6436 13.6263C28.7819 13.5785 28.9294 13.5635 29.0745 13.5824C29.2196 13.6014 29.3583 13.6536 29.4797 13.7352C29.8068 14.0259 29.6978 14.4619 29.6614 14.8615C29.6357 15.0055 29.6402 15.1533 29.6746 15.2954C29.7091 15.4376 29.7728 15.571 29.8617 15.6872C29.9507 15.8034 30.0628 15.8998 30.191 15.9703C30.3193 16.0408 30.4608 16.0839 30.6066 16.0967C31.0065 16.1694 32.4241 15.9151 32.3151 16.678C32.206 17.4409 33.3329 16.9323 33.3692 16.569C33.4056 16.2057 32.6786 15.5518 32.097 15.5154C31.5154 15.4791 31.3336 15.6244 31.0065 15.4791C30.6793 15.3338 30.752 14.6798 30.752 14.3165C30.7778 14.1601 30.7702 14 30.7299 13.8467C30.6895 13.6934 30.6172 13.5504 30.5177 13.4269C30.4182 13.3034 30.2937 13.2024 30.1524 13.1303C30.0111 13.0583 29.8562 13.0168 29.6978 13.0087C29.3355 12.9482 28.9647 12.9606 28.6073 13.045C28.1711 13.154 27.6258 13.4446 27.1896 13.2266L27.2986 13.4083C27.5531 12.6453 27.8076 11.6281 27.3713 10.8652C26.9351 10.1022 25.7356 10.1749 24.8995 10.2476C24.0634 10.3202 23.9544 10.1022 23.918 9.48464C23.8817 8.86703 24.1725 8.43107 24.0998 7.88612C24.0271 7.34117 22.8638 6.57824 22.0641 7.19585C21.8824 7.34117 21.9914 7.52282 22.1732 7.55915C22.3061 7.583 22.4424 7.57914 22.5738 7.54789C22.7051 7.51664 22.8286 7.45864 22.9365 7.3775Z" fill="#B8E4E5"/>
<path d="M12.5041 33.4261C12.6495 33.2807 12.9767 32.9538 13.1948 32.9538C13.4129 32.9538 13.5583 33.2807 13.5947 33.4624C13.631 33.644 13.4129 34.5886 13.9582 34.9156C14.5034 35.2426 14.9033 34.9883 15.3032 34.8066L15.9211 34.4796L16.2119 34.298H16.1392L16.2846 34.3706L16.2119 34.1163C15.6667 34.9156 15.9211 36.0782 16.8662 36.3688C17.8114 36.6594 18.9746 36.1871 19.2654 35.2789L18.2113 35.4242C18.1022 36.2598 17.9931 37.277 18.8656 37.7493C19.1972 37.894 19.5655 37.9321 19.9197 37.8583C20.1742 37.822 20.8285 37.5677 20.9012 37.2407C20.9739 36.9137 20.6831 37.2407 20.6831 37.2044L20.7921 37.277L21.083 37.5314C21.2647 37.7493 21.4101 37.9673 21.5919 38.149C21.808 38.328 22.0815 38.4229 22.3621 38.4163C22.6426 38.4096 22.9113 38.3017 23.1186 38.1126C23.3004 37.9673 23.2277 37.822 23.0459 37.7857C22.913 37.7618 22.7766 37.7657 22.6453 37.7969C22.5139 37.8282 22.3905 37.8862 22.2826 37.9673C22.7915 37.9673 22.9369 37.931 22.7188 37.8583L22.6461 37.7857L22.428 37.604L22.0645 37.1317C21.9478 36.9833 21.7987 36.8636 21.6286 36.7817C21.4584 36.6998 21.2718 36.658 21.083 36.6594C20.8124 36.6537 20.5463 36.7296 20.3196 36.8774C20.1737 36.9552 20.0489 37.0675 19.9561 37.2044L19.8107 37.386C19.9561 37.3497 19.9561 37.3497 19.8107 37.3134L19.4835 37.0954C19.3634 36.9459 19.2766 36.7725 19.2291 36.5868C19.1498 36.153 19.1622 35.7075 19.2654 35.2789C19.3381 34.8793 18.3203 35.1336 18.2113 35.4242C18.1022 35.7149 17.5933 36.0055 17.2298 35.6059C17.0677 35.393 16.977 35.1344 16.9704 34.867C16.9639 34.5995 17.0419 34.3369 17.1934 34.1163C17.2661 34.0073 17.2298 33.9347 17.1207 33.8984C17.0116 33.862 15.8484 33.862 15.3395 34.1527L14.976 34.3706L14.8306 34.4796C14.6852 34.5523 14.7943 34.407 14.867 34.4796C14.7677 34.3386 14.6973 34.1793 14.6599 34.0109C14.6224 33.8426 14.6187 33.6685 14.6489 33.4987C14.6761 33.3463 14.6654 33.1896 14.6177 33.0423C14.5701 32.895 14.487 32.7616 14.3757 32.654C14.2644 32.5463 14.1283 32.4677 13.9795 32.4249C13.8306 32.3822 13.6735 32.3766 13.522 32.4088C12.7505 32.4821 12.0358 32.8457 11.5227 33.4261C11.3409 33.6077 11.6681 33.7167 11.7771 33.7167C12.0471 33.7131 12.3062 33.6095 12.5041 33.4261Z" fill="#B8E4E5"/>
<path d="M29.5524 40.5468L27.0442 40.3288C25.4084 40.1471 23.0456 39.9292 20.1375 39.4569C18.6834 39.2389 17.084 38.9483 15.4119 38.585C13.6211 38.2014 11.8597 37.6914 10.141 37.0591C9.23235 36.7361 8.37526 36.2833 7.59641 35.7149C7.24529 35.4985 6.96683 35.1822 6.79669 34.8066C6.74163 34.659 6.72949 34.4987 6.76162 34.3445C6.79379 34.1902 6.86897 34.0482 6.97843 33.9347C7.25668 33.5699 7.60213 33.2616 7.99625 33.0265C8.4378 32.7603 8.89967 32.5296 9.37759 32.3362C10.402 31.8917 11.4594 31.5273 12.5401 31.2463C14.7992 30.6345 17.0936 30.1613 19.4105 29.8294C21.7733 29.4661 24.2088 29.1755 26.6443 28.9575C31.5881 28.5215 36.6045 28.3399 41.5846 28.3399C46.5647 28.3399 51.4359 28.5215 56.0521 28.9212C60.4008 29.2441 64.7238 29.8508 68.9931 30.7377C70.6269 31.086 72.2309 31.5597 73.7916 32.1545C74.7446 32.4769 75.6317 32.9693 76.4087 33.6077C76.7144 33.8672 76.9412 34.207 77.063 34.5887C77.0996 34.734 77.1722 34.6976 77.1357 34.3707C77.0996 34.0437 76.8816 33.5351 76.2633 32.9901C75.454 32.3513 74.5615 31.8257 73.6098 31.4279C71.2834 30.447 68.0481 29.5751 64.1224 28.8848C56.2705 27.468 45.6197 26.705 33.7328 27.1047C30.752 27.2137 27.6985 27.4316 24.6087 27.7586C21.4585 28.0556 18.3274 28.5286 15.2301 29.1755C13.6281 29.4927 12.0493 29.9175 10.5045 30.447C9.70834 30.7085 8.93105 31.0241 8.17803 31.3916C7.35781 31.7665 6.62676 32.3114 6.0333 32.9901C5.63594 33.3914 5.41309 33.9332 5.41309 34.4978C5.41309 35.0624 5.63594 35.6042 6.0333 36.0055C6.63865 36.6779 7.3828 37.2109 8.21436 37.5677C9.72472 38.2845 11.3095 38.8328 12.94 39.2026C15.9096 39.9183 18.9203 40.4522 21.955 40.8011C24.7541 41.1281 27.3714 41.346 29.8432 41.5277C34.7143 41.8183 38.8946 41.891 42.4932 41.8547C49.6908 41.782 54.5619 41.4187 58.2697 41.0554C61.2593 40.7758 64.232 40.3393 67.1758 39.7475C68.4845 39.4569 69.7928 39.1299 71.2107 38.6939C71.9764 38.4705 72.729 38.2036 73.4645 37.8947C74.3154 37.55 75.131 37.1242 75.9 36.6231C76.6997 36.0419 77.063 35.4606 77.1357 35.0973C77.1802 34.9816 77.1928 34.8562 77.1722 34.734C77.1722 34.6613 77.1357 34.6613 77.1357 34.6976C77.0723 34.9866 76.9484 35.259 76.7724 35.4969C76.2944 36.0063 75.7278 36.4248 75.1004 36.7321C73.5371 37.5314 71.1015 38.258 68.3027 38.8393C65.1661 39.4628 61.9993 39.9236 58.8149 40.2198C52.2553 40.8506 45.6651 41.1053 39.0764 40.9827L32.206 40.7284L29.5524 40.5468Z" fill="#1E1D1C"/>
<path d="M29.1164 52.8989L21.8462 46.9769C17.7386 43.6711 12.7585 39.6384 8.97798 36.9863C5.19748 34.3342 5.81547 35.9691 8.94165 39.3115C12.0678 42.6539 17.7386 47.7401 23.991 51.809C30.2433 55.878 33.0424 57.8759 34.7509 59.1111C36.4593 60.3463 37.1864 60.855 39.3311 61.6908C41.4758 62.5261 38.8585 60.419 35.805 57.9851L31.2975 54.5336L29.1164 52.8989Z" fill="#1E1D1C"/>
<path d="M52.3443 73.4252V73.2438C52.3414 73.0615 52.3536 72.8792 52.3804 72.6986C52.388 71.9699 52.4367 71.2425 52.5258 70.5188C52.5984 69.5742 52.7442 68.3756 52.8529 67.0311C52.9424 66.2835 52.9911 65.5317 52.9983 64.7787V63.5073C52.9621 63.2894 52.9621 63.0714 52.9256 62.8169C52.8895 62.5628 52.8895 62.5989 52.8895 62.4536V62.2721C52.8895 62.2625 52.8933 62.2532 52.9 62.2465C52.9067 62.2398 52.9159 62.2356 52.9256 62.2356H52.9621L53.2167 61.9815L54.6342 60.8916C54.9198 60.6841 55.1873 60.4531 55.4338 60.2011L56.1609 59.5472L57.6149 58.2032L63.7948 52.4991C65.8666 50.5373 67.975 48.5028 69.8655 46.4323C71.6496 44.4805 73.2439 42.3641 74.6274 40.1108C74.8819 39.6748 75.0999 39.3115 75.2818 38.9482L75.7904 37.9673C76.018 37.5095 76.2125 37.036 76.3721 36.5504C76.6266 35.7875 76.5901 35.5332 76.336 35.6785C76.0815 35.8238 74.5909 37.822 72.3372 40.3651C71.2103 41.673 69.8655 43.126 68.2657 44.6519C66.6663 46.1777 64.8124 47.8489 62.8498 49.5927C60.8867 51.3366 58.8144 53.2257 56.7064 55.2241C55.6522 56.2048 54.5615 57.222 53.5073 58.2758L52.7803 58.9298L51.9079 59.6198L51.4354 60.0197L51.2175 60.2738L51.0717 60.383L50.9264 60.5644C50.6853 60.8277 50.5001 61.1364 50.3812 61.4729C50.3069 61.632 50.2695 61.8059 50.272 61.9815C50.272 61.9815 50.3086 62.0176 50.272 62.0176V62.4901L50.3447 62.8169V62.9622C50.3749 63.081 50.3871 63.2033 50.3812 63.3255L50.4539 63.6527V64.016C50.4539 64.2701 50.4904 64.488 50.4904 64.7426C50.4904 64.9967 50.5266 65.2512 50.5266 65.5053C50.5266 68.5209 50.1994 71.2454 50.3812 73.7159C50.3812 73.8612 50.4174 74.0065 50.4174 74.1518C50.4174 74.2971 50.4539 74.479 50.4904 74.6243V74.7331C50.5114 74.752 50.5245 74.778 50.5266 74.8058V74.9876C50.5266 75.0238 50.5631 75.0603 50.5266 75.0964H50.4539L50.3086 75.2056L50.1633 75.3144L49.9087 75.3871C49.1086 75.6878 48.2531 75.8117 47.4005 75.7503C45.9851 75.681 44.5827 75.4492 43.2202 75.0603L41.6933 74.6243C41.5598 74.5693 41.4482 74.4719 41.3759 74.3471C41.3036 74.2224 41.2746 74.0771 41.2934 73.9338C41.3275 73.5789 41.3883 73.2266 41.4752 72.8805C41.5479 72.4806 41.6206 72.1173 41.657 71.7179C41.675 71.5247 41.675 71.3298 41.657 71.1366C41.657 70.9548 41.6206 70.7368 41.6206 70.5915C41.6206 70.4462 41.5115 69.9741 41.4388 69.6469C41.2207 68.4117 41.0026 67.1765 40.7118 65.2873C40.421 63.3981 40.2392 63.8706 40.0938 65.6506C40.0016 66.8358 40.0016 68.0261 40.0938 69.2109C40.0938 69.5742 40.1302 69.9375 40.1665 70.3008C40.2029 70.6641 40.2029 70.6642 40.2392 70.846V71.3181C40.2213 71.6491 40.1726 71.9775 40.0938 72.2992C40.0284 72.4882 39.9798 72.6827 39.9484 72.8805C39.9069 72.9851 39.8824 73.0951 39.8757 73.2072V73.6071C39.8426 73.7621 39.8304 73.9208 39.8394 74.0792C39.8149 74.2497 39.8273 74.4231 39.8757 74.5878C39.9455 74.9217 40.0952 75.2333 40.3119 75.4963C40.556 75.7436 40.8548 75.9305 41.1844 76.041L41.3661 76.1136L41.5479 76.1863L41.9114 76.2955L44.3832 76.9856C45.9679 77.4219 47.6197 77.5572 49.2544 77.3854C49.6366 77.3514 50.0142 77.2783 50.3812 77.1674L50.6358 77.0582L50.9264 76.9856L51.5808 76.6223L52.1986 76.259L52.4531 76.0775L52.5984 76.0049V75.8596C52.5258 75.4236 52.4896 75.0603 52.417 74.697C52.3443 74.3337 52.3804 74.5151 52.3804 74.4425V74.3337C52.3804 74.261 52.3443 74.1884 52.3443 74.1157V73.7524C52.3363 73.6436 52.3363 73.5344 52.3443 73.4252Z" fill="#1E1D1C"/>
<path d="M18.9746 39.7474L21.6646 36.9137H20.7195L19.738 39.6747C19.5562 40.1107 20.5377 39.8564 20.6831 39.7111C21.7942 38.6302 22.985 37.6344 24.2455 36.732L23.4458 36.5504C22.94 37.6794 22.562 38.8614 22.3189 40.0744C22.2462 40.474 23.0096 40.2924 23.1913 40.1834L27.0809 37.277L26.2085 37.168L24.9362 40.1834C24.8272 40.4013 25.227 40.4377 25.2997 40.4377C25.4228 40.436 25.5443 40.4094 25.6567 40.3595C25.7692 40.3095 25.8704 40.2373 25.954 40.147C26.6818 39.2453 27.4584 38.3843 28.2805 37.5676C29.0519 36.7101 29.9177 35.9423 30.8614 35.2788L30.0253 35.1698C29.2256 37.059 28.026 38.7665 27.2263 40.6557C27.1173 40.8736 27.5171 40.91 27.6262 40.91C27.7438 40.9077 27.8597 40.8806 27.9662 40.8306C28.0727 40.7805 28.1674 40.7085 28.2442 40.6193L30.5706 37.6766C31.334 36.732 32.0974 35.6421 33.0788 34.9155L32.2064 34.8065C31.4067 36.7683 30.098 38.5122 29.2983 40.5103C29.2256 40.692 29.5528 40.7646 29.6255 40.7646C29.8614 40.7646 30.091 40.6882 30.2798 40.5467C32.4609 38.4395 34.4602 36.1144 36.6412 34.0073H35.6961C35.4655 34.5106 35.1982 34.9963 34.8964 35.4605C34.4965 36.1507 34.0603 36.8047 33.6241 37.4949C33.1879 38.1852 32.061 39.7111 31.5884 40.9463C31.4067 41.3459 32.4245 41.0916 32.5336 40.9826C34.9327 38.6575 37.0047 36.0417 39.4039 33.7166L38.4951 33.5713C37.2592 36.0417 35.7688 38.3669 34.5692 40.8736C34.3148 41.3823 35.369 41.1643 35.5507 40.91C36.6 39.5833 37.729 38.3215 38.9314 37.1316C40.0946 35.8964 41.2578 34.6975 42.5302 33.5713L41.6213 33.4623L38.8587 37.3496C37.9862 38.6212 37.0411 39.9291 36.5322 41.4186C36.3868 41.8182 37.3682 41.6002 37.4773 41.4549C39.622 39.0571 41.8394 36.7683 43.9477 34.3706H43.0027C42.0577 36.9137 40.24 39.0571 39.2949 41.6002C39.1495 42.036 40.1309 41.8182 40.24 41.6366C42.639 38.9118 44.8927 36.0417 47.2556 33.317L46.3468 33.1717C45.0019 35.8238 43.2572 38.2579 41.9121 40.91C41.8031 41.1279 42.0212 41.2369 42.203 41.2369C42.3336 41.2557 42.4668 41.2386 42.5886 41.1874C42.7104 41.1362 42.8158 41.0528 42.8935 40.9463C43.8024 39.8564 44.6747 38.7302 45.5471 37.6039C46.4114 36.4806 47.3858 35.4461 48.4551 34.5159L47.5101 34.4432C46.5651 36.8047 45.3656 39.0571 44.3841 41.4186C44.3114 41.6366 44.6747 41.6729 44.7839 41.6729C44.9024 41.6757 45.02 41.6509 45.1271 41.6005C45.2346 41.55 45.3287 41.4753 45.4018 41.3823L50.9999 34.3706H49.9819C49.0289 36.742 47.8734 39.0271 46.5286 41.2006C46.3833 41.4186 46.6378 41.5276 46.8197 41.5276C46.9495 41.5392 47.0805 41.5188 47.201 41.4681C47.3216 41.4175 47.4274 41.3381 47.5101 41.2369L52.2721 35.3515H51.2545L48.9642 41.2733C48.8189 41.6729 49.8004 41.4549 49.9092 41.3096C51.7996 39.1298 53.3263 36.6957 55.2167 34.5522L54.2713 34.4796C53.3629 36.6594 52.1629 38.6575 51.2545 40.801C51.1818 41.019 51.5451 41.0916 51.6543 41.0553C51.7732 41.0611 51.8916 41.0377 51.9995 40.987C52.1071 40.9363 52.2007 40.8599 52.2721 40.7646C53.1083 39.7111 53.9441 38.6212 54.853 37.6039C55.6846 36.5488 56.6641 35.6189 57.7611 34.8429L56.9253 34.7339C55.6166 36.7683 54.5624 38.9481 53.2902 40.9826C53.181 41.1643 53.3629 41.2733 53.5082 41.3096C53.6321 41.3204 53.7568 41.3067 53.8753 41.2694C53.9937 41.2319 54.1037 41.1715 54.1987 41.0916C56.2709 39.3841 58.0883 37.4223 60.124 35.7148L59.2151 35.5695C58.3063 37.386 57.1794 39.0571 56.2709 40.8736C56.0164 41.3459 56.998 41.2006 57.1794 40.9826C58.3667 39.5936 59.8107 38.4464 61.4327 37.6039L60.7418 37.3496C60.1967 38.4032 59.906 39.5294 59.3605 40.583C58.8153 41.6366 60.0875 40.8373 60.2693 40.692L63.7226 37.7856L62.7776 37.6403C62.345 38.4546 61.8469 39.2323 61.2874 39.9654C61.0329 40.2924 61.6873 40.3287 61.8326 40.256C63.6415 39.7708 65.2783 38.7892 66.558 37.4223L65.613 37.277L64.159 39.6747C63.941 40.0744 64.7041 40.038 64.886 39.9654C66.1094 39.3902 67.2376 38.6305 68.2304 37.7129H67.2489C67.2523 38.1351 67.1393 38.55 66.9217 38.9118C66.8125 39.0571 66.9217 39.2025 67.1036 39.2388L68.1574 39.4568C68.2842 39.4915 68.4178 39.4931 68.545 39.4612C68.6723 39.4294 68.7895 39.3653 68.8844 39.2751C69.0301 39.0935 69.0301 38.9118 68.7756 38.8755L67.7214 38.6212L67.9033 38.9481C68.1565 38.5448 68.2947 38.08 68.3031 37.6039C68.3392 37.1316 67.5395 37.386 67.3577 37.5313C66.5147 38.3551 65.5294 39.0197 64.4496 39.4931L65.1766 39.7837L66.6307 37.386C66.8852 36.9137 65.8675 37.059 65.6857 37.2406C64.6189 38.4396 63.2316 39.3092 61.6873 39.7474L62.2685 40.038C62.8397 39.3057 63.3505 38.5281 63.7952 37.7129C63.8683 37.5313 63.7226 37.4223 63.5411 37.386C63.2912 37.3679 63.0443 37.4459 62.8502 37.6039L59.4331 40.5467L60.342 40.6557C60.8872 39.6384 61.1782 38.4759 61.7234 37.4586C61.9414 37.0227 61.2143 37.0953 60.9964 37.168C59.229 38.0733 57.6502 39.3062 56.3436 40.801L57.2521 40.9463C58.1609 39.1298 59.2878 37.4586 60.1967 35.6784C60.3059 35.4605 60.1601 35.3515 59.9787 35.3151C59.8548 35.3043 59.7301 35.318 59.6116 35.3554C59.4932 35.3928 59.3831 35.4532 59.2878 35.5331C57.2159 37.2406 55.4347 39.2388 53.3629 40.91L54.2713 41.0553C55.5439 39.0208 56.6342 36.841 57.9064 34.8065C58.1975 34.3706 57.2521 34.5159 57.0706 34.6249C55.9047 35.4382 54.8635 36.4174 53.9807 37.5313C53.0357 38.5848 52.1629 39.7111 51.2906 40.8373H52.3087C53.2171 38.6938 54.4171 36.6594 55.3255 34.5159C55.4713 34.1163 54.4897 34.3342 54.344 34.4796C52.4901 36.623 50.9634 39.0935 49.0734 41.2369H50.0184L52.3087 35.3515C52.3813 35.1335 52.0176 35.0972 51.9088 35.0972C51.79 35.0943 51.6728 35.1191 51.5653 35.1696C51.4582 35.22 51.3641 35.2947 51.2906 35.3878L46.5286 41.2369H47.5101C48.8798 39.0023 50.0591 36.6569 51.0361 34.2252C51.1453 34.0436 50.7454 33.9709 50.6362 33.9709C50.5186 33.9732 50.4027 34.0002 50.2964 34.0503C50.1898 34.1004 50.0953 34.1724 50.0184 34.2616L44.4202 41.3096H45.4383C46.4198 38.9481 47.6194 36.6957 48.5644 34.3342C48.637 34.1526 48.3464 34.0799 48.2372 34.0799C48.1246 34.0706 48.0112 34.0852 47.9049 34.1227C47.7983 34.1603 47.7008 34.22 47.6194 34.2979C46.4925 35.2062 45.5836 36.3687 44.6747 37.4586C43.7659 38.5485 42.8574 39.7837 41.9121 40.91H42.8935C44.2388 38.2579 45.9834 35.8238 47.3283 33.1717C47.5828 32.6994 46.6013 32.8447 46.4198 33.0627C44.0204 35.7874 41.7667 38.6575 39.4039 41.4186H40.349C41.2941 38.8755 43.1119 36.732 44.0569 34.1889C44.2022 33.753 43.2207 33.9709 43.1119 34.1526C40.967 36.5504 38.7496 38.8392 36.6412 41.2369H37.5863C38.0953 39.8201 39.0768 38.5122 39.9128 37.2406C40.7489 35.9691 41.7304 34.7339 42.6029 33.4623C42.7482 33.2807 42.5302 33.1717 42.3849 33.1353C42.2606 33.1148 42.1333 33.1238 42.0132 33.1617C41.8932 33.1996 41.7839 33.2652 41.694 33.3533C40.3959 34.4992 39.1582 35.7118 37.9862 36.9863C36.7715 38.2008 35.6304 39.4867 34.5692 40.8373H35.5507C36.7503 38.3669 38.2407 36.0054 39.4766 33.535C39.7311 33.0264 38.7496 33.208 38.5315 33.3897C36.1687 35.7148 34.0603 38.3305 31.6975 40.6557H32.6426C32.8732 40.1523 33.1405 39.6666 33.4423 39.2025C33.8422 38.5122 34.2784 37.8582 34.7146 37.2043C35.1508 36.5504 36.2777 34.9518 36.7503 33.753C36.823 33.5713 36.5322 33.4986 36.4231 33.4623C36.1972 33.4556 35.9769 33.5333 35.8052 33.6803C33.5877 35.7874 31.6248 38.1126 29.4074 40.2197H30.3888C31.1522 38.2579 32.4609 36.514 33.2606 34.5522C33.406 34.1526 32.5336 34.3342 32.4245 34.4432C31.3703 35.2062 30.5342 36.2961 29.7345 37.3133C28.9348 38.3305 28.0987 39.3841 27.2627 40.4377H28.2805C29.0802 38.5122 30.2798 36.841 31.0795 34.9518C31.2249 34.5522 30.3161 34.7339 30.2071 34.8065C29.1955 35.5089 28.2685 36.3257 27.4444 37.2406C26.5639 38.1088 25.7383 39.0309 24.9726 40.0017L25.9904 39.9291L27.2627 36.8773C27.4081 36.514 26.5356 36.6957 26.3902 36.7683L22.5007 39.6747L23.3731 39.7837C23.6257 38.6762 23.9786 37.594 24.4273 36.5504C24.6091 36.0781 23.8093 36.2234 23.5912 36.3687C22.25 37.3081 20.9858 38.3529 19.8107 39.4931H20.7922L21.7737 36.732C21.9191 36.2961 20.9376 36.5504 20.8285 36.6957L18.1386 39.4931C17.7024 39.9654 18.7202 39.9654 18.9746 39.7111V39.7474Z" fill="#1E1D1C"/>
<path d="M18.7199 18.6034L14.4668 30.7376L29.3707 34.0436L33.3693 23.29L18.7199 18.6034Z" fill="#B8E4E5"/>
<path d="M34.4957 18.0948L39.294 20.6742L46.9642 24.8159L48.7088 25.7604C48.9634 25.8694 49.8357 25.7604 49.6538 25.3245L47.1456 19.003L43.1837 8.90331L42.2749 6.57819C42.093 6.17856 41.4024 6.39654 41.257 6.68718L35.259 16.3873L34.423 17.7678C34.2776 17.9858 34.532 18.1675 34.7138 18.1675C34.8444 18.1863 34.9778 18.1691 35.0995 18.1179C35.2211 18.0667 35.3266 17.9834 35.4044 17.8768L41.4024 8.14038L42.2383 6.79617L41.2206 6.86883L43.7289 13.2266L47.6912 23.29L48.5997 25.6151L49.5451 25.1792L44.7466 22.5997L37.0766 18.4944L35.3317 17.5498C35.213 17.4802 35.0754 17.4497 34.9383 17.4627C34.8012 17.4758 34.6718 17.5317 34.5684 17.6225C34.423 17.7315 34.2776 17.9858 34.4957 18.0948Z" fill="#1E1D1C"/>
<path d="M66.0492 28.4126C66.0492 26.8318 65.58 25.2864 64.7014 23.9721C63.8228 22.6577 62.5737 21.6333 61.1125 21.0283C59.6509 20.4234 58.0431 20.2651 56.4917 20.5735C54.9406 20.8819 53.5155 21.6431 52.3971 22.7609C51.2786 23.8787 50.5172 25.3028 50.2085 26.8533C49.8998 28.4036 50.0581 30.0107 50.6633 31.4712C51.269 32.9316 52.2938 34.1799 53.6088 35.0581C54.9242 35.9364 56.4702 36.4052 58.052 36.4052C60.173 36.4052 62.207 35.5631 63.7068 34.0642C65.2067 32.5653 66.0492 30.5323 66.0492 28.4126Z" fill="#B8E4E5"/>
<path d="M40.5308 65.9412C42.3676 66.6262 44.3265 66.9248 46.2841 66.8186C48.2421 66.7123 50.1569 66.2032 51.9087 65.3238C52.0906 65.2511 52.1994 65.0692 52.0175 64.9605C51.8361 64.8513 51.4724 64.9966 51.2905 65.0692C49.7504 65.8059 48.0762 66.2209 46.3698 66.2898C44.6637 66.3582 42.9615 66.0793 41.3669 65.4691C41.2451 65.4334 41.1169 65.4246 40.9914 65.4435C40.8658 65.4619 40.7458 65.5081 40.6399 65.5779C40.5308 65.6505 40.3127 65.8685 40.5308 65.9412Z" fill="#1E1D1C"/>
<path d="M42.2752 66.5225C41.6729 67.0177 41.2722 67.7153 41.1483 68.4843C41.0646 69.3206 40.9065 70.1471 40.6758 70.9548C40.5667 71.3546 41.4028 71.2093 41.5482 71.1001C42.4256 70.3811 43.2181 69.5646 43.9111 68.6662C44.5726 67.7204 45.3685 66.8757 46.274 66.1592L45.4378 65.9051C44.1585 68.3554 42.6494 70.6788 40.9302 72.8439C40.494 73.3526 41.5118 73.3164 41.7663 73.0619L48.5639 66.5952L47.7281 66.3411C45.547 68.993 43.3294 71.6814 42.0207 74.8784C41.8027 75.4236 42.7477 75.2417 42.9296 75.0237C45.6646 72.3219 48.0905 69.3243 50.1632 66.0866L49.1821 66.0139C47.516 68.7023 46.046 71.5071 44.7834 74.4063C44.5655 74.915 45.5105 74.8058 45.6923 74.5517L51.6173 67.2491L50.6723 67.1038C49.2632 69.9938 48.1313 73.0107 47.2917 76.1136C47.1464 76.5861 48.0914 76.3316 48.2367 76.1863C49.9179 74.592 51.2435 72.6608 52.1263 70.5188C52.3082 70.0102 51.254 70.0829 51.1086 70.4827C50.4904 72.0447 49.9091 73.6432 49.4001 75.2417C49.2548 75.7869 49.109 76.2955 48.5639 76.5496C48.3522 76.6596 48.1136 76.7075 47.8759 76.6882C47.6382 76.6689 47.4105 76.5832 47.219 76.4408C46.3467 75.8595 46.3828 74.4063 47.1464 73.7524C47.9095 73.0985 48.2006 73.5705 48.6004 73.8977C48.8553 74.0901 49.0561 74.345 49.1838 74.6378C49.311 74.9305 49.3606 75.2514 49.3274 75.5689C49.2548 76.0049 50.309 75.8595 50.3816 75.4597C50.5631 74.1518 49.4727 73.0258 48.2367 72.8805C47.642 72.828 47.0477 72.9897 46.5613 73.3358C46.0749 73.6823 45.728 74.1905 45.5831 74.7696C45.5121 75.0296 45.4932 75.3014 45.5281 75.5685C45.5625 75.836 45.6503 76.0939 45.7856 76.327C45.9208 76.5601 46.101 76.7642 46.316 76.9272C46.5311 77.0901 46.7759 77.209 47.0372 77.2762C47.6096 77.4085 48.2081 77.3686 48.7579 77.1615C49.3077 76.9549 49.784 76.5903 50.1271 76.1136C50.2922 75.7503 50.4261 75.3736 50.5269 74.9876L50.9633 73.5705C51.3266 72.5533 51.6903 71.5361 52.1263 70.5188H51.1086C50.2661 72.5936 48.9897 74.4639 47.3643 76.0049H48.3459C49.1514 72.954 50.272 69.9955 51.6903 67.1765C51.9083 66.6678 50.9268 66.777 50.7449 67.0311L44.8561 74.3337L45.765 74.479C47.0418 71.5865 48.5114 68.783 50.1632 66.0866C50.309 65.8325 50.0544 65.7233 49.8726 65.6871C49.7394 65.6796 49.6063 65.7056 49.4858 65.7627C49.3652 65.8199 49.2606 65.9064 49.1821 66.0139C47.1455 69.2034 44.7553 72.1526 42.0572 74.8058L43.0022 74.9511C44.2744 71.7906 46.4193 69.1748 48.5639 66.5952C49.0002 66.0866 47.9822 66.0866 47.7281 66.3411L40.9302 72.8439L41.7663 73.0619C43.5453 70.8582 45.1039 68.4856 46.4193 65.9778C46.6739 65.5053 45.8011 65.6145 45.5831 65.7598C44.7091 66.4574 43.9275 67.263 43.2567 68.1576C42.5751 69.098 41.7818 69.9518 40.8939 70.7007L41.7663 70.846C41.9607 70.158 42.0824 69.452 42.1299 68.7389C42.2391 68.0484 42.3844 67.3583 42.9661 66.9224C43.5474 66.4864 42.6389 66.2319 42.2752 66.5225Z" fill="#1E1D1C"/>
<path d="M36.1685 15.5153C36.0303 16.5141 35.9816 17.5233 36.0231 18.5307C36.0595 19.0393 36.7865 18.9304 37.0046 18.676C37.2346 18.362 37.3957 18.003 37.4771 17.6225C37.5862 17.1139 37.7316 16.6416 37.8406 16.1329L38.6404 13.1539L37.5498 13.2265L37.4408 16.4599C37.4044 17.4045 37.2227 18.4581 37.5862 19.3663C37.9497 20.2746 38.5677 19.6206 38.6404 19.1847C39.0337 16.0202 39.7026 12.896 40.6397 9.84785H39.6219L39.3311 15.2247C39.222 16.8959 39.1129 18.6034 39.4765 20.2746C39.5855 20.7105 40.3852 20.5289 40.5306 20.2019C40.8207 19.2548 41.0155 18.2812 41.1122 17.2955C41.2576 16.2419 41.403 15.1884 41.5121 14.1348C41.7302 12.064 41.8756 9.95684 41.912 7.8497C41.9483 7.30475 40.8942 7.45007 40.8578 7.92236C40.7488 10.2112 40.6397 12.4999 40.567 14.7887C40.4943 17.0775 40.5306 19.1847 41.1122 21.2918C41.2213 21.7278 42.1663 21.5461 42.1663 21.1102C42.1709 17.1392 42.4136 13.1721 42.8933 9.23024L41.8392 9.3029C41.9119 11.5554 41.9847 13.8442 42.1301 16.1329C42.2393 17.2592 42.3481 18.3491 42.4934 19.4753C42.6392 20.6015 42.7118 21.5461 43.2205 22.4544C43.7295 23.3626 44.202 22.5634 44.2385 22.2001C44.5351 19.2669 44.6682 16.3197 44.6384 13.3719L43.5476 13.4445C43.7652 16.746 44.2394 20.0256 44.9656 23.2536C45.0382 23.7259 46.0198 23.5079 46.0198 23.072L45.9471 17.4408L44.8929 17.5861C45.0248 18.8805 45.231 20.1663 45.5107 21.4371C45.7287 22.4544 45.9106 23.7986 46.7102 24.5978C46.9282 24.8521 47.7283 24.7795 47.7283 24.3072C47.6918 23.181 47.6191 22.0547 47.5099 20.8922C47.4372 20.4199 46.383 20.6742 46.4557 21.1828C46.5708 22.2568 46.6313 23.336 46.6376 24.4162L47.6552 24.1255C47.3192 23.7262 47.0828 23.2532 46.9647 22.745C46.7808 22.1617 46.635 21.567 46.5284 20.9648C46.2743 19.7659 46.0924 18.5307 45.9471 17.3318C45.9106 16.8595 44.8929 17.0775 44.8929 17.5135V23.181L45.9832 22.9993C45.2537 19.8345 44.7917 16.614 44.6018 13.3719C44.5657 12.8269 43.5115 12.9722 43.5115 13.4445C43.5535 16.3917 43.4321 19.3389 43.1478 22.2727L44.1659 21.9821C43.6568 21.1465 43.6203 20.0566 43.475 19.112C43.3297 18.1674 43.2205 16.9322 43.1478 15.8423C43.0025 13.6262 42.9298 11.41 42.8572 9.23024C42.8572 8.64896 41.8392 8.83061 41.8029 9.3029C41.3051 13.2431 41.0623 17.2113 41.0759 21.1828L42.1301 21.0012C41.5485 18.894 41.5121 16.7142 41.5848 14.5344C41.6575 12.3546 41.7665 10.0658 41.8756 7.8497L40.8214 7.92236C40.7487 9.95684 40.6397 11.9913 40.4216 14.0258C40.3125 15.043 40.2035 16.024 40.0581 17.0412C39.9556 18.0499 39.7609 19.047 39.4765 20.0203L40.4943 19.9476C40.1308 18.3127 40.2762 16.6052 40.3489 14.9341L40.6397 9.73886C40.676 9.23024 39.7309 9.33923 39.6219 9.73886C38.6399 12.8413 37.9463 16.0276 37.5498 19.2573L38.604 19.0757C38.2405 18.1674 38.4223 17.1139 38.4586 16.2056L38.604 13.1539C38.604 12.5726 37.6225 12.7906 37.5135 13.2265L36.8592 15.8423L36.5684 17.0775C36.4593 17.5135 36.423 18.0221 36.1322 18.3491L37.1136 18.4581C37.0773 17.4516 37.1138 16.4439 37.2227 15.4427C37.2954 14.8977 36.2412 15.043 36.1685 15.5153Z" fill="#1E1D1C"/>
</svg>
