<svg width="59" height="59" viewBox="0 0 59 59" fill="none" xmlns="http://www.w3.org/2000/svg">
<path fill-rule="evenodd" clip-rule="evenodd" d="M11.0562 10.4997C12.8819 11.983 13.5667 11.8698 16.995 11.6411L49.3146 9.70044C50.0001 9.70044 49.4301 9.0166 49.2014 8.90298L43.8339 5.02262C42.8054 4.22412 41.4352 3.30969 38.809 3.53844L7.51387 5.821C6.37254 5.93416 6.14459 6.50483 6.59909 6.96222L11.0562 10.4997ZM12.9967 18.0318V52.0376C12.9967 53.8652 13.9099 54.549 15.9655 54.4359L51.4847 52.3806C53.5413 52.2676 53.7704 51.0105 53.7704 49.5259V15.7482C53.7704 14.266 53.2002 13.4667 51.9413 13.5808L14.8233 15.7482C13.4535 15.8634 12.9965 16.5486 12.9965 18.0318H12.9967ZM48.0611 19.856C48.2889 20.884 48.0611 21.9111 47.0311 22.0267L45.3198 22.3677V47.473C43.8339 48.2716 42.4637 48.7282 41.3219 48.7282C39.4938 48.7282 39.036 48.1572 37.6667 46.4464L26.4723 28.8726V45.8758L30.0146 46.6751C30.0146 46.6751 30.0146 48.7282 27.1567 48.7282L19.2779 49.1852C19.0491 48.7282 19.2779 47.588 20.0771 47.3596L22.1331 46.7897V24.3083L19.2785 24.0795C19.0495 23.0514 19.6197 21.5691 21.2199 21.4541L29.6719 20.8844L41.3219 38.687V22.9383L38.3516 22.5974C38.1236 21.3406 39.036 20.428 40.1782 20.3148L48.0611 19.856ZM4.88628 2.74006L37.4382 0.342834C41.4356 -5.61195e-06 42.4642 0.22967 44.9766 2.05472L55.3676 9.35806C57.0821 10.6139 57.6536 10.9559 57.6536 12.3249V52.3806C57.6536 54.891 56.7391 56.3756 53.5418 56.6028L15.7393 58.8856C13.3392 59 12.1969 58.658 10.94 57.0593L3.2879 47.1312C1.91689 45.3036 1.34668 43.9364 1.34668 42.3369V6.73266C1.34668 4.67978 2.26146 2.96731 4.88628 2.74006V2.74006Z" fill="white"/>
</svg>
