<svg width="272" height="155" viewBox="0 0 272 155" fill="none" xmlns="http://www.w3.org/2000/svg">
<path d="M177.25 74.355C177.25 70.7608 175.002 68.1775 170.843 68.1775H157.131V86.8224H161.627V80.4202H166.909L172.08 86.8224H177.137V86.3731L172.08 80.3079C175.339 79.634 177.25 77.2753 177.25 74.355ZM170.281 76.6014H161.627V71.9963H170.281C171.855 71.9963 172.866 72.8949 172.866 74.355C172.979 75.8152 171.967 76.6014 170.281 76.6014Z" fill="white"/>
<path d="M245.137 68.0652H240.979V75.1413H229.627V68.0652H225.131V86.7101H229.627V79.4094H240.979V86.7101H245.137V68.0652Z" fill="white"/>
<path d="M145.104 68.0652L140.158 83.6775H139.934L134.876 68.0652H126.896V86.7101H131.167V71.4348H131.391L136.337 86.7101H143.193L148.251 71.4348H148.476V86.7101H152.859V68.0652H145.104Z" fill="white"/>
<path d="M96.2118 75.7029C94.6383 75.5906 91.716 75.2536 90.03 75.1413C88.4565 75.029 87.5573 74.4674 87.5573 73.4565C87.5573 72.4457 88.5689 71.6594 92.3904 71.6594C95.7623 71.6594 98.9094 72.4457 101.719 73.6812V69.5254C99.0218 68.1776 95.9871 67.616 92.1656 67.616C86.8829 67.616 83.1738 69.8623 83.1738 73.5689C83.1738 76.7138 85.3094 78.5109 89.6928 78.9602C91.2664 79.1848 93.9639 79.4094 95.7623 79.5218C97.7854 79.6341 98.3474 80.308 98.3474 81.2065C98.3474 82.4421 96.8862 83.2283 93.4019 83.2283C89.8052 83.2283 86.0961 81.9928 83.3986 80.4203V84.6884C85.5342 86.1486 89.1309 87.2718 93.2895 87.2718C99.0218 87.2718 102.731 85.0254 102.731 81.0942C102.731 78.0616 100.82 76.1522 96.2118 75.7029Z" fill="white"/>
<path d="M105.766 68.0652V86.7101H123.075V82.8913H110.037V79.0724H122.85V75.2536H110.037V71.884H123.075V68.0652H105.766Z" fill="white"/>
<path d="M215.802 75.7029C214.228 75.5906 211.306 75.2536 209.62 75.1413C208.046 75.029 207.147 74.4674 207.147 73.4565C207.147 72.4457 208.159 71.6594 211.98 71.6594C215.352 71.6594 218.499 72.3334 221.309 73.6812V69.5254C218.612 68.1776 215.577 67.616 211.755 67.616C206.473 67.616 202.764 69.8623 202.764 73.5689C202.764 76.7138 204.899 78.5109 209.283 78.9602C210.856 79.1848 213.554 79.4094 215.352 79.5218C217.375 79.6341 217.937 80.308 217.937 81.2065C217.937 82.4421 216.476 83.2283 212.992 83.2283C209.395 83.2283 205.686 81.9928 202.988 80.4203V84.6884C205.124 86.1486 208.721 87.2718 212.879 87.2718C218.612 87.2718 222.321 85.0254 222.321 81.0942C222.321 78.0616 220.298 76.1522 215.802 75.7029Z" fill="white"/>
<path d="M195.233 68.0652V77.6123C195.233 81.2065 192.985 83.2282 189.726 83.2282C186.354 83.2282 184.219 81.3188 184.219 77.6123V68.1775H179.723V77.2753C179.723 84.0145 183.994 87.384 189.726 87.384C195.346 87.384 199.617 84.1268 199.617 77.5V68.2898H195.233V68.0652Z" fill="white"/>
<path d="M67.8879 77.2753C67.8879 78.1738 67.4383 78.2861 66.3144 78.2861C65.078 78.2861 64.8532 78.0615 64.7408 77.1629C64.516 74.8042 62.9425 72.7825 60.245 72.6702C59.4582 72.5579 59.2334 72.3332 59.2334 71.21C59.2334 70.1992 59.3458 69.7499 60.1326 69.7499C64.6284 69.8622 67.8879 73.5687 67.8879 77.2753ZM74.5193 77.2753C74.5193 70.3115 69.7987 62.8984 58.7838 62.8984H37.0912C36.6416 62.8984 36.4169 63.1231 36.4169 63.5723C36.4169 63.797 36.5293 64.0216 36.754 64.1339C37.5408 64.8079 38.6648 65.4818 40.2383 66.268C41.6995 67.0542 42.9359 67.5035 44.0598 67.9528C44.5094 68.1774 44.7342 68.4021 44.7342 68.6267C44.7342 68.9637 44.5094 69.3006 43.9474 69.3006H26.6383C26.0764 69.3006 25.8516 69.6376 25.8516 69.9745C25.8516 70.3115 25.964 70.5361 26.1888 70.7608C27.5375 72.2209 29.7854 74.018 33.045 76.0397C35.8549 77.8368 39.4516 79.7463 42.2615 81.0941C42.7111 81.3187 42.9359 81.5434 42.9359 81.8803C42.9359 82.2173 42.7111 82.4419 42.1491 82.4419H34.1689C33.7193 82.4419 33.4945 82.6666 33.4945 83.0035C33.4945 83.2282 33.6069 83.4528 33.8317 83.6774C35.6301 85.3622 38.5524 87.047 42.3739 88.7318C47.5441 90.8658 52.7144 92.2137 58.559 92.2137C69.6863 92.1013 74.5193 83.7897 74.5193 77.2753ZM60.0202 87.2716C54.6251 87.2716 50.0169 82.8912 50.0169 77.2753C50.0169 71.8839 54.5127 67.5035 60.0202 67.5035C65.64 67.5035 70.0235 71.8839 70.0235 77.2753C70.0235 82.7789 65.64 87.2716 60.0202 87.2716Z" fill="#FF642D"/>
</svg>
