<svg width="191" height="48" viewBox="0 0 191 48" fill="none" xmlns="http://www.w3.org/2000/svg">
<g clip-path="url(#clip0_784:47)">
<path fill-rule="evenodd" clip-rule="evenodd" d="M61.1045 37.7946L63.4882 32.2935C66.0629 34.2056 69.4932 35.1996 72.8777 35.1996C75.376 35.1996 76.9575 34.2435 76.9575 32.7943C76.9193 28.7424 61.9907 31.9141 61.8761 21.7541C61.8379 16.5945 66.4525 12.6185 72.9923 12.6185C76.8811 12.6185 80.7622 13.5745 83.5355 15.7522L81.3046 21.3672C78.7682 19.7586 75.6129 18.6128 72.6103 18.6128C70.5705 18.6128 69.2258 19.5689 69.2258 20.7905C69.264 24.7665 84.3072 22.5888 84.46 32.2935C84.46 37.567 79.96 41.2774 73.4966 41.2774C68.7598 41.2698 64.4126 40.162 61.1045 37.7946V37.7946ZM152.639 30.3055C151.447 32.3694 149.217 33.7807 146.634 33.7807C142.822 33.7807 139.751 30.7228 139.751 26.9441C139.751 23.1654 142.83 20.1076 146.634 20.1076C149.209 20.1076 151.447 21.5189 152.639 23.5828L159.217 19.9558C156.757 15.6005 152.02 12.6185 146.634 12.6185C138.666 12.6185 132.202 19.0377 132.202 26.9517C132.202 34.8657 138.666 41.285 146.634 41.285C152.059 41.285 156.757 38.3409 159.217 33.9476L152.639 30.3055ZM87.7681 0.728516H96.004V40.7386H87.7681V0.728516ZM162.449 0.728516V40.7386H170.685V28.7348L180.457 40.7386H191L178.569 26.4813L190.075 13.18H179.99L170.677 24.2201V0.728516H162.449Z" fill="white"/>
<path d="M120.475 30.3813C119.283 32.3314 116.823 33.7806 114.05 33.7806C110.238 33.7806 107.166 30.7228 107.166 26.9441C107.166 23.1654 110.245 20.1075 114.05 20.1075C116.823 20.1075 119.283 21.6327 120.475 23.6206V30.3813ZM120.475 13.1875V16.4351C119.131 14.1815 115.784 12.6108 112.277 12.6108C105.042 12.6108 99.3506 18.9542 99.3506 26.9061C99.3506 34.8581 105.042 41.2773 112.277 41.2773C115.777 41.2773 119.123 39.7142 120.475 37.4531V40.7006H128.711V13.1875H120.475Z" fill="white"/>
<path fill-rule="evenodd" clip-rule="evenodd" d="M10.1993 30.3435C10.1993 33.1357 7.93021 35.3893 5.11869 35.3893C2.30717 35.3893 0.0380859 33.1281 0.0380859 30.3435C0.0380859 27.5588 2.30717 25.2976 5.11869 25.2976H10.1993V30.3435ZM12.7358 30.3435C12.7358 27.5512 15.0048 25.2976 17.8164 25.2976C20.6279 25.2976 22.897 27.5512 22.897 30.3435V42.9543C22.897 45.7465 20.6279 48.0001 17.8164 48.0001C15.0048 48.0001 12.7358 45.7465 12.7358 42.9543V30.3435Z" fill="#E01E5A"/>
<path fill-rule="evenodd" clip-rule="evenodd" d="M17.8165 10.0917C15.005 10.0917 12.7359 7.83813 12.7359 5.04584C12.7359 2.25356 15.005 0 17.8165 0C20.628 0 22.8971 2.25356 22.8971 5.04584V10.0917H17.8165ZM17.8165 12.6488C20.628 12.6488 22.8971 14.9023 22.8971 17.6946C22.8971 20.4869 20.628 22.7404 17.8165 22.7404H5.0806C2.26908 22.7404 0 20.4793 0 17.6946C0 14.9099 2.26908 12.6488 5.0806 12.6488H17.8165Z" fill="#36C5F0"/>
<path fill-rule="evenodd" clip-rule="evenodd" d="M38.1694 17.6946C38.1694 14.9023 40.4384 12.6488 43.25 12.6488C46.0615 12.6488 48.3306 14.9023 48.3306 17.6946C48.3306 20.4869 46.0615 22.7404 43.25 22.7404H38.1694V17.6946ZM35.6329 17.6946C35.6329 20.4869 33.3638 22.7404 30.5523 22.7404C27.7408 22.7404 25.4717 20.4869 25.4717 17.6946V5.04584C25.4717 2.25356 27.7408 0 30.5523 0C33.3638 0 35.6329 2.25356 35.6329 5.04584V17.6946Z" fill="#2EB67D"/>
<path fill-rule="evenodd" clip-rule="evenodd" d="M30.5523 37.9084C33.3638 37.9084 35.6329 40.162 35.6329 42.9543C35.6329 45.7465 33.3638 48.0001 30.5523 48.0001C27.7408 48.0001 25.4717 45.7465 25.4717 42.9543V37.9084H30.5523ZM30.5523 35.3893C27.7408 35.3893 25.4717 33.1357 25.4717 30.3435C25.4717 27.5512 27.7408 25.2976 30.5523 25.2976H43.2882C46.0997 25.2976 48.3688 27.5512 48.3688 30.3435C48.3688 33.1357 46.0997 35.3893 43.2882 35.3893H30.5523Z" fill="#ECB22E"/>
</g>
<defs>
<clipPath id="clip0_784:47">
<rect width="191" height="48" fill="white"/>
</clipPath>
</defs>
</svg>
