<svg width="116" height="116" viewBox="0 0 116 116" fill="none" xmlns="http://www.w3.org/2000/svg">
<path d="M69.6835 82.3484C65.0047 83.4817 60.6326 85.6312 56.8781 88.6431C55.2123 89.944 53.026 91.8169 54.4315 94.1061C55.837 96.3954 57.5548 96.8112 59.533 97.2277C61.7619 97.6754 64.0268 97.9196 66.2998 97.9562C68.9585 98.0089 71.6178 97.9045 74.2644 97.6435C79.3092 97.1459 84.2352 95.809 88.8398 93.6897C93.2124 91.6608 97.273 88.7475 100.188 84.8975C100.5 84.481 100.396 84.2212 99.9798 84.013C97.429 82.8164 94.4617 82.8686 91.8071 83.3367C88.9883 83.8656 86.2321 84.6846 83.5821 85.782C80.9924 86.8596 78.4868 88.1286 76.0862 89.5798C73.9001 90.9324 71.6619 92.4409 69.944 94.366C68.226 96.291 67.1327 98.372 68.0178 100.557C68.9029 102.742 70.9851 103.627 72.9629 104.147C75.4284 104.768 77.9706 105.032 80.511 104.927C83.2509 104.834 85.9728 104.451 88.6316 103.783C91.5362 103.073 94.3359 101.988 96.9604 100.557C98.2178 99.8928 99.419 99.1272 100.552 98.2682C101.437 97.6435 103.311 96.2393 102.478 94.8862C102.114 94.3143 101.177 94.4181 100.605 94.522C96.1698 95.0985 92.0327 97.0658 88.7876 100.141C87.3996 101.472 86.3168 103.087 85.6127 104.876C85.3522 105.656 85.144 106.696 85.5083 107.477C85.8725 108.257 87.0702 108.882 88.1113 109.089C89.4273 109.228 90.7549 109.211 92.0675 109.038C93.5894 108.931 95.102 108.723 96.5961 108.413C97.1883 108.311 97.7648 108.137 98.3141 107.893C98.5739 107.737 99.0948 107.425 99.1986 107.06C99.303 106.696 97.6894 106.384 97.3246 106.436C96.1379 106.675 94.9391 106.849 93.7332 106.957L91.7549 107.06H91.2862C91.0896 107.075 90.8924 107.04 90.7138 106.957C88.8398 106.072 90.4017 103.315 91.1302 102.222C92.2107 100.568 93.652 99.1805 95.3468 98.1638L95.7632 97.9562L96.4401 97.5919L96.8043 97.3837C96.5961 97.4875 96.5961 97.4875 96.8565 97.3837L97.585 97.1233L97.9493 96.9672C97.6894 97.0716 97.6372 97.0716 97.8976 96.9672L98.6783 96.7596L99.0948 96.6552C98.7821 96.7596 98.7821 96.7596 99.0426 96.7074L99.8754 96.5514L97.9493 96.1872C98.4701 97.0195 97.429 97.6435 96.8565 98.1122C96.0944 98.6701 95.294 99.1741 94.4617 99.6207L93.0564 100.349L92.3795 100.661L91.9109 100.869L90.4533 101.442L90.1413 101.546L89.204 101.858L87.7465 102.222H87.3822L86.4455 102.43L84.9358 102.638C84.8836 102.638 84.4672 102.69 84.7276 102.69H83.5821C81.5666 102.862 79.5372 102.775 77.5437 102.43C76.0345 102.118 74.1606 101.494 73.0673 100.193C71.974 98.8923 72.2344 96.603 73.2755 95.1466C74.3166 93.6897 76.2428 92.1289 78.0123 90.9324C79.8028 89.7329 81.682 88.6721 83.6343 87.7586L85.144 87.1345L86.9136 86.406L87.7987 86.1462L88.2151 85.9902H88.4233L90.1935 85.4699C90.2451 85.4699 90.6099 85.3655 90.3495 85.4699L90.7138 85.3655L91.5988 85.2095H92.0153C91.7549 85.2617 92.1191 85.2095 92.2235 85.2095H93.1086C94.2088 85.2518 95.2894 85.5175 96.2835 85.9902L96.0753 85.1057C94.9942 86.5249 93.7541 87.8166 92.3795 88.9557C91.6829 89.5514 90.9533 90.1076 90.1935 90.6203L88.0591 91.9207L86.8098 92.5453L86.1329 92.8574L85.8725 93.0134C86.0807 92.9096 85.9247 92.9612 85.8209 93.0134L83.0618 94.0539H82.8014L82.0207 94.2621L80.355 94.7302L79.5743 94.8862L79.2095 94.9906L77.5437 95.2505C76.5467 95.4366 75.5381 95.5584 74.5248 95.6147L71.2455 95.8229C69.1772 95.8403 67.1101 95.7533 65.0505 95.5625C63.3847 95.3549 61.6674 95.0422 60.2614 94.1061C59.5086 93.656 58.9379 92.9566 58.6479 92.1289C58.3358 91.1406 58.8039 90.4121 59.4808 89.7358C60.9812 88.3392 62.6621 87.1496 64.478 86.1978L65.9356 85.4699C66.196 85.3655 65.9878 85.4699 65.9356 85.4699L66.4564 85.2617L67.1327 85.0013L67.9656 84.6892L68.2782 84.5854H68.4342L70.1522 84.1168C70.7246 83.9608 72.3904 83.4405 72.1822 82.6082C71.974 81.7759 70.1 82.244 69.6835 82.3484Z" fill="#A39C8D"/>
<path d="M46.3107 79.4867L45.5819 79.0702L44.749 78.5506L43.6559 77.7699C41.2769 76.0693 39.1706 74.0167 37.4093 71.6828C36.198 70.075 35.1517 68.3495 34.286 66.5324C33.2918 64.4397 32.5408 62.2404 32.0476 59.9772C30.8516 54.4125 31.286 48.6215 33.2987 43.2973C35.3113 37.9733 38.8169 33.3419 43.3956 29.958C45.8766 28.1124 48.6352 26.6724 51.5683 25.6919C54.527 24.7238 57.6168 24.215 60.7298 24.1831C62.2621 24.1835 63.7927 24.2879 65.3106 24.4953C66.807 24.7197 68.286 25.05 69.7354 25.4838C72.5722 26.3516 75.2582 27.6501 77.7 29.3337C82.2466 32.4141 85.8646 36.6777 88.1632 41.6638C89.032 43.6108 89.7286 45.6302 90.2454 47.6989C90.6096 49.3637 90.8178 50.6643 90.9739 51.6528C91.1821 53.5778 91.3381 53.994 91.4947 53.1616C91.6229 52.4232 91.6757 51.6735 91.6507 50.9245C91.6554 49.5829 91.551 48.2431 91.3381 46.9185C90.6195 42.6326 88.9862 38.5514 86.549 34.9525L85.3519 33.3397L83.9988 31.7269C81.9375 29.413 79.5322 27.4301 76.8671 25.8479C75.4397 24.9786 73.9422 24.2303 72.3901 23.6108C70.7371 22.9335 69.0307 22.394 67.289 21.998C65.4689 21.6352 63.6245 21.4091 61.7709 21.3217C57.8495 21.1651 53.9325 21.7294 50.2148 22.9865C46.3028 24.3434 42.6824 26.4263 39.5435 29.1256C36.3097 31.9589 33.6729 35.4077 31.7874 39.2706C29.8709 43.2391 28.7896 47.5583 28.6106 51.9611C28.4315 56.3639 29.1584 60.7567 30.7463 64.8672C33.6117 72.0006 38.9017 77.8957 45.686 81.5155C47.0912 82.2179 48.5335 82.8431 50.0066 83.3889C51.3881 83.8535 52.796 84.2357 54.223 84.5333C56.7724 85.0628 59.3778 85.2722 61.9791 85.1573C66.0449 84.9833 70.0388 84.0292 73.7438 82.3484C75.1921 81.7203 76.5852 80.9721 77.9082 80.1108C79.0293 79.3765 80.107 78.5772 81.1353 77.7177C82.7889 76.3193 84.2894 74.7498 85.6123 73.0353C86.7404 71.6335 87.7177 70.1162 88.5274 68.509C89.3684 66.8798 90.0488 65.1723 90.5574 63.4108C91.1542 61.2706 91.5208 59.073 91.6507 56.8554V55.2426C91.6507 54.7744 91.5985 54.4102 91.5985 54.1501C91.5985 53.8899 91.4947 53.4737 91.3903 53.6298C91.2865 53.7859 91.2343 55.3987 90.8178 57.6878C90.7366 58.3196 90.6154 58.9448 90.4536 59.5608C90.2982 60.2811 90.1073 60.9928 89.8806 61.694C89.3986 63.3174 88.7896 64.9003 88.0588 66.428C86.2532 70.0617 83.7401 73.2987 80.6673 75.9487C77.3949 78.8342 73.517 80.9494 69.319 82.1402C65.5194 83.2439 61.5377 83.5803 57.6066 83.1285C54.743 82.817 51.9385 82.0984 49.2778 80.9953L48.0285 80.3712L47.0915 79.9031L46.5189 79.5911L46.3107 79.4867Z" fill="#1E1D1C"/>
<path d="M63.2811 83.545C58.0083 82.3589 53.1309 79.8318 49.1219 76.2091C45.3035 72.5337 42.4132 68.0045 40.689 62.9944C37.2534 53.3177 37.7739 41.872 44.1767 33.4958C47.7164 28.8655 52.7658 25.5878 58.1272 23.2987C58.4398 23.1946 59.0123 22.7784 58.7002 22.3622C58.3876 21.946 57.5548 22.2061 57.1904 22.3622C52.089 24.5473 47.2479 27.5128 43.5 31.7269C40.3957 35.1688 38.2113 39.3383 37.1492 43.8489C35.8528 49.63 36.0499 55.6458 37.7218 61.3298C39.2191 66.7818 42.004 71.7959 45.8424 75.9493C50.163 80.475 55.8891 83.3368 61.9273 84.8453C62.2144 84.8906 62.5073 84.872 62.7863 84.7908C63.0653 84.7102 63.3228 84.5687 63.5409 84.3773C63.8535 84.0652 63.8013 83.701 63.2811 83.545Z" fill="#1E1D1C"/>
<path d="M58.231 23.6108C64.1127 25.1195 69.6831 27.7208 74.2117 31.8309C78.0223 35.3496 80.8556 39.7948 82.4361 44.7333C83.9453 49.4275 84.3588 54.4044 83.646 59.2829C82.9332 64.1619 81.1131 68.8123 78.3239 72.8793C75.4645 76.9602 71.589 80.2238 67.08 82.3484L65.2582 83.1807C64.8418 83.3367 64.4254 83.9092 64.7374 84.325C65.05 84.7415 65.8307 84.6893 66.2471 84.5332C71.2879 82.5549 75.7209 79.29 79.1046 75.0647C82.2772 71.0047 84.48 66.2743 85.5443 61.2341C86.6092 56.1937 86.5071 50.977 85.2474 45.982C83.9296 40.8146 81.3138 36.0691 77.6471 32.1951C73.3289 27.7784 67.9535 24.5371 62.0305 22.7784L59.5319 22.05C59.2587 21.9704 58.9687 21.9671 58.6932 22.0405C58.4183 22.1139 58.1683 22.2611 57.9705 22.4662C57.8828 22.5469 57.8179 22.6492 57.7825 22.7629C57.7471 22.8767 57.7424 22.9977 57.7688 23.1139C57.7952 23.2301 57.8518 23.3372 57.933 23.4244C58.014 23.5117 58.1167 23.576 58.231 23.6108Z" fill="#1E1D1C"/>
<path d="M56.6179 23.2466C57.2546 23.7706 57.8308 24.3639 58.3359 25.0155C59.221 26.0179 60.0382 27.0781 60.7824 28.1891C63.0015 31.3678 64.9184 34.7468 66.5081 38.2821C70.5165 47.2306 72.9113 57.3236 71.2972 67.1042C70.2265 73.4007 67.5156 79.3045 63.437 84.2212C63.0728 84.5854 63.6975 84.7931 64.0095 84.7931C64.2902 84.7965 64.5692 84.7426 64.8285 84.6353C65.0877 84.528 65.3226 84.3697 65.5192 84.169C69.2533 79.7134 71.8755 74.4354 73.1712 68.7694C74.254 63.6689 74.3776 58.4112 73.536 53.2656C72.1823 44.4212 68.5903 35.8889 63.6975 28.4492C62.784 27.076 61.7933 25.756 60.7302 24.4952C60.149 23.7147 59.4664 23.0149 58.7002 22.4142C58.474 22.2999 58.2246 22.2404 57.9714 22.2404C57.7182 22.2404 57.4685 22.2999 57.2426 22.4142C57.0344 22.5182 56.2015 22.9865 56.6179 23.2466Z" fill="#1E1D1C"/>
<path d="M56.5128 22.4142C52.9211 25.1195 50.8389 29.1255 49.4334 33.2876C47.9048 38.034 47.0634 42.9744 46.9347 47.9589C46.721 57.3128 49.1765 66.5341 54.0142 74.5445C56.4884 78.5668 59.7452 82.052 63.5923 84.7936C64.3214 85.3655 66.3514 84.2734 65.3625 83.5449C58.6472 78.7582 54.3786 71.7871 51.7759 64.0871C48.6478 54.8412 48.3937 44.8656 51.0471 35.4727C52.2443 30.9985 54.1704 26.2121 57.9704 23.2986C58.3346 23.0385 58.595 22.5703 58.1264 22.2061C57.6581 21.8419 56.9293 22.102 56.5128 22.4142Z" fill="#1E1D1C"/>
<path d="M35.7434 34.4842C36.2639 35.6808 37.4091 36.2531 38.6064 36.7213C40.1251 37.3223 41.6925 37.7922 43.2914 38.126C46.4446 38.8738 49.6821 39.206 52.9215 39.1145C59.0241 38.9492 64.9505 37.035 69.9953 33.5998C72.6019 31.8019 74.8598 29.5454 76.6584 26.9404C76.971 26.5242 76.4502 26.4202 76.1381 26.4722C75.8255 26.5242 74.8888 26.6283 74.6284 26.9925C71.7667 31.1855 67.7014 34.414 62.9681 36.2531C57.6065 38.3341 51.7243 38.5422 46.1544 37.3977C44.5259 37.0926 42.9244 36.6577 41.3653 36.097C40.064 35.6808 38.6064 35.1605 37.9818 33.8599C37.3571 32.5592 35.4831 34.016 35.7434 34.4842Z" fill="#1E1D1C"/>
<path d="M52.3492 82.7642C55.0041 79.747 58.648 77.7698 62.4482 76.5733C66.1045 75.2955 70.0201 74.9383 73.8481 75.5328C75.9639 75.9051 77.9823 76.7015 79.7821 77.8736C80.615 78.3939 82.5933 77.3018 81.5522 76.6255C74.1085 71.7871 63.9574 73.3995 56.5657 77.4056C54.2789 78.623 52.2187 80.2244 50.4752 82.1401C50.3985 82.2161 50.343 82.3112 50.3139 82.415C50.2849 82.5194 50.2834 82.6291 50.3097 82.734C50.3359 82.839 50.3889 82.9353 50.4636 83.0136C50.5382 83.0919 50.632 83.1493 50.7356 83.1806C51.0164 83.2705 51.317 83.2792 51.6026 83.2056C51.8882 83.1319 52.147 82.9788 52.3492 82.7642Z" fill="#1E1D1C"/>
<path d="M29.6532 57.7919C36.3841 59.8716 43.3786 60.9754 50.4231 61.0693C59.6367 61.2776 68.9028 59.8212 77.4398 56.2831C82.7805 54.0954 87.7499 51.0944 92.1712 47.3867C92.4839 47.0745 92.3795 46.7624 91.963 46.6583C91.3917 46.5843 90.8135 46.7334 90.3495 47.0745C83.1441 53.159 74.4482 57.2171 65.1549 58.8323C57.2898 60.2017 49.2533 60.2718 41.3656 59.0405C38.0129 58.5429 34.7055 57.7772 31.4751 56.7514C30.9238 56.6263 30.3455 56.7195 29.8615 57.0115C29.6011 57.1676 29.1327 57.6358 29.6532 57.7919Z" fill="#1E1D1C"/>
<path d="M88.6833 40.3632C91.2858 40.3632 93.368 38.8545 95.0338 36.9815C96.6995 35.1086 98.2093 33.2877 98.3131 30.7904C98.3131 30.6344 96.8039 30.7904 96.8039 31.2067C96.6995 33.2877 95.5024 35.0046 94.2009 36.5653C93.5519 37.3534 92.8187 38.0686 92.0149 38.6984C91.3856 39.325 90.5567 39.7115 89.6722 39.7909C89.301 39.7833 88.9368 39.8925 88.6311 40.1031C88.4229 40.2072 88.3707 40.3632 88.6833 40.3632Z" fill="#1E1D1C"/>
<path d="M26.3737 82.0357L26.5299 82.8164C26.6339 83.4538 26.6339 84.104 26.5299 84.7414C26.4047 85.0622 26.229 85.3609 26.0094 85.6259L25.5929 86.1462H25.4888V86.094L25.3326 85.8341L24.9162 84.7936C24.708 84.1168 24.6039 83.8569 24.3957 84.0129C24.1874 84.169 24.0313 84.637 24.0833 85.4699C24.0964 85.6978 24.1313 85.9246 24.1874 86.1462C24.2042 86.272 24.2392 86.3944 24.2915 86.5104V86.6664L24.3957 86.9263C24.4809 87.1293 24.6164 87.3079 24.7894 87.4442C24.9624 87.5805 25.1672 87.671 25.3847 87.7069C25.5104 87.7319 25.6399 87.7313 25.7653 87.7041C25.8907 87.6774 26.0092 87.6252 26.1135 87.5509L26.4258 87.3427L26.6861 87.1345L26.9984 86.7703L27.3107 86.406C27.5254 86.1189 27.7005 85.804 27.8313 85.4699C28.0826 84.7658 28.1008 83.9996 27.8834 83.2845C27.7727 82.9974 27.6856 82.7016 27.6231 82.4L27.3107 81.6199C27.1662 81.389 26.9911 81.1791 26.7902 80.9952L26.1655 80.6315C25.9672 80.5898 25.7621 80.5909 25.5644 80.6362C25.3667 80.6808 25.1811 80.7678 25.0203 80.8914C24.8577 81.0828 24.7179 81.2922 24.6039 81.5155C24.3593 82.0926 24.3225 82.7358 24.4998 83.3367C24.7601 84.0651 24.8642 82.9202 25.3326 81.8797C25.8012 80.8392 26.4258 82.0357 26.3737 82.0357Z" fill="#1E1D1C"/>
<path d="M99.7188 30.7903H99.5628C99.0327 30.7154 98.5101 30.5935 98.0015 30.4262C97.3524 30.1858 96.7255 29.8899 96.1275 29.5417L95.6588 29.2816H95.5544C95.5544 29.254 95.5655 29.2275 95.5852 29.208C95.6049 29.1885 95.631 29.1775 95.6588 29.1775C95.6066 29.1255 95.7627 29.1255 95.8149 29.1255H95.9709C96.0196 29.1296 96.0683 29.1224 96.1136 29.1043C96.1588 29.0862 96.1994 29.0579 96.2313 29.0215C96.3873 28.9694 96.3873 28.8654 96.3357 28.7613C96.1716 28.6138 95.9755 28.5069 95.7627 28.4492L95.138 28.3451C94.8561 28.3032 94.5684 28.3392 94.3051 28.4492C94.0824 28.6108 93.9328 28.8539 93.8887 29.1255C93.9107 29.4192 94 29.704 94.1491 29.9579C94.2448 30.1338 94.3898 30.2784 94.5655 30.3741L94.982 30.6863L95.6066 31.1025C96.5422 31.6527 97.5949 31.9736 98.6777 32.039H99.5628C99.7357 32.0434 99.9073 32.0135 100.068 31.951C100.229 31.8885 100.376 31.7946 100.5 31.6748C100.651 31.4543 100.737 31.1952 100.746 30.928C100.755 30.6607 100.688 30.3964 100.552 30.166C100.287 29.7172 99.9329 29.3276 99.5106 29.0215C99.2966 28.8495 99.0484 28.7254 98.7821 28.6573C98.4875 28.5993 98.183 28.6172 97.8971 28.7093C97.2202 28.9694 98.2613 29.0215 98.9904 29.6458C99.1905 29.8107 99.3656 30.0033 99.5106 30.2181L99.6672 30.4782C99.7154 30.5588 99.7507 30.6466 99.771 30.7383C99.7571 30.7586 99.7391 30.7763 99.7188 30.7903Z" fill="#1E1D1C"/>
<path d="M15.5979 81.4117H15.5458C15.6541 81.2006 15.7946 81.0075 15.9622 80.8393H15.9102L16.3267 80.3712C16.3733 80.3486 16.4098 80.3092 16.4291 80.261C16.4483 80.2135 16.4489 80.1595 16.4308 80.1114C16.4189 80.0656 16.3919 80.025 16.354 79.9965C16.3162 79.9681 16.2698 79.9536 16.2225 79.9548H15.8061L15.4417 80.163L14.9732 80.6316L14.6609 81.0475C14.572 81.1942 14.502 81.3514 14.4527 81.5156C14.4006 81.5678 14.5047 81.6716 14.5568 81.7238H14.9211L15.3897 81.5678C15.4857 81.5063 15.5589 81.4146 15.5979 81.3079V81.4117Z" fill="#1E1D1C"/>
<path d="M15.182 86.1979C15.0052 85.8221 14.8993 85.4161 14.8697 85.0014V84.2735C14.9217 84.0653 14.5573 84.0131 14.4012 84.0131L13.9848 84.1691C13.9318 84.1929 13.8853 84.2288 13.8491 84.2741C13.8129 84.3193 13.788 84.3727 13.7765 84.4295C13.7071 84.8065 13.6896 85.1916 13.7244 85.5738C13.8005 85.8853 13.9234 86.1834 14.0889 86.4583C14.1409 86.5622 14.193 86.5622 14.2971 86.6144H14.7135C14.8697 86.5622 15.0259 86.5105 15.0779 86.4061C15.13 86.3023 15.2341 86.1979 15.182 86.1463V86.1979Z" fill="#1E1D1C"/>
<path d="M18.201 89.0073L17.9407 88.9035H17.7846L17.3681 88.6953C17.0621 88.5723 16.7801 88.396 16.5352 88.175H16.1188L15.7024 88.2789C15.6503 88.3311 15.4941 88.4355 15.4941 88.5393C15.4941 88.5799 15.5035 88.6193 15.5216 88.6553C15.5397 88.6918 15.5659 88.7231 15.5982 88.7475C16.185 89.1622 16.8356 89.4783 17.5243 89.6836H17.9407L18.3051 89.476C18.3571 89.4238 18.4612 89.3194 18.4092 89.2156C18.3571 89.1117 18.3051 89.0595 18.201 89.0595V89.0073Z" fill="#1E1D1C"/>
<path d="M24.1355 86.1463C23.7311 86.9791 23.1233 87.6972 22.3682 88.2331C21.6132 88.7696 20.7351 89.1077 19.815 89.2156C19.6068 89.2678 19.1903 89.3716 19.1383 89.6321C19.0862 89.8919 19.5027 89.8919 19.6588 89.8919C20.8185 89.7782 21.9326 89.3815 22.9036 88.7377C23.8746 88.0939 24.6729 87.2216 25.2287 86.1979C25.489 85.6776 24.3438 85.782 24.1355 86.1463Z" fill="#1E1D1C"/>
<path d="M19.4503 78.4461C19.936 78.282 20.4562 78.246 20.9599 78.3423C21.4958 78.5105 22.0044 78.7559 22.4695 79.0708C23.415 79.6665 24.1307 80.5649 24.4996 81.6199C24.6038 82.0358 25.749 81.7237 25.6449 81.3079C25.4546 80.7192 25.1543 80.1716 24.7599 79.6949C24.3132 79.1798 23.7858 78.7402 23.1982 78.3939C22.6529 78.0546 22.0548 77.8087 21.4284 77.666C20.7142 77.5599 19.9853 77.6133 19.2941 77.8221C19.0859 77.8737 18.7215 78.0303 18.7736 78.2901C18.8256 78.5505 19.2941 78.4983 19.4503 78.4461Z" fill="#1E1D1C"/>
<path d="M22.7818 83.9608C22.0329 84.0727 21.2676 83.9457 20.5955 83.5966C19.8585 83.241 19.2559 82.6576 18.8777 81.932C18.7736 81.7238 18.4612 81.7238 18.201 81.776C17.9407 81.8282 17.6284 82.0358 17.7325 82.244C18.1934 83.1181 18.922 83.8216 19.8118 84.2525C20.7015 84.6829 21.7058 84.818 22.6777 84.6371C22.8859 84.6371 23.2503 84.5333 23.3024 84.2212C23.3544 83.9092 22.99 83.9092 22.7818 83.9608Z" fill="#1E1D1C"/>
<path d="M19.7102 78.8626H20.0225C20.0225 78.8626 20.1786 78.9142 20.0745 78.8626H20.2307L20.7513 79.0708C21.0679 79.2042 21.3654 79.3794 21.6362 79.591L21.9485 79.6949L22.3649 79.591C22.4691 79.5388 22.8855 79.3306 22.6773 79.1746C22.036 78.6549 21.2592 78.3301 20.4389 78.2379C20.3015 78.2188 20.1616 78.2275 20.0275 78.2634C19.8934 78.2988 19.7678 78.3615 19.6581 78.4461C19.6061 78.4983 19.502 78.5505 19.502 78.6544C19.5224 78.6903 19.5531 78.7193 19.5902 78.7379C19.6272 78.7564 19.6691 78.764 19.7102 78.7582V78.8626Z" fill="#1E1D1C"/>
<path d="M17.2118 80.475C16.3128 79.8457 15.4916 79.1126 14.7652 78.2901C14.5861 78.0749 14.4523 77.8255 14.3718 77.5576C14.2913 77.289 14.2658 77.0077 14.2968 76.7293C14.3057 76.4666 14.3406 76.205 14.4009 75.9492C14.4529 75.7926 14.4529 75.6366 14.557 75.5328C14.6611 75.429 14.8173 75.2724 14.505 75.3768C14.1926 75.4806 14.2968 75.4806 14.4529 75.5328L14.6091 75.6888L14.9214 76.0009L15.494 76.6255L16.6913 77.666C17.5707 78.2495 18.5645 78.6399 19.6064 78.8104C19.7519 78.8405 19.9023 78.8376 20.0466 78.8011C20.1908 78.7651 20.325 78.6973 20.4393 78.6022C20.5954 78.4461 20.5434 78.2379 20.2831 78.1863C19.3515 78.0274 18.4642 77.673 17.6803 77.1458C16.8474 76.5733 16.2228 75.6888 15.442 75.0647C15.2407 74.8965 14.9916 74.7962 14.73 74.7771C14.4684 74.7585 14.2076 74.8229 13.9844 74.9603C13.6102 75.2179 13.3493 75.6088 13.2557 76.0531C13.1437 76.5478 13.1086 77.0565 13.1515 77.5616C13.231 78.0309 13.4485 78.4653 13.7762 78.8104C14.5396 79.6496 15.3952 80.4002 16.3269 81.0474C16.6392 81.2557 17.6803 80.7876 17.2118 80.475Z" fill="#1E1D1C"/>
<path d="M14.7652 81.2556C13.6171 81.3351 12.465 81.1756 11.3816 80.7876C10.3926 80.5271 9.0392 80.0591 8.10221 80.7876C7.90437 80.932 7.76088 81.139 7.69481 81.3745C7.62869 81.6106 7.64383 81.8617 7.73779 82.0879C7.98945 82.5049 8.34917 82.8466 8.77889 83.0762C9.62581 83.5095 10.5419 83.7908 11.4858 83.9091C12.5386 84.0448 13.5601 84.3615 14.5049 84.8452C14.6314 84.9044 14.7722 84.9264 14.9107 84.9079C15.049 84.8893 15.1793 84.8319 15.2858 84.7414C15.494 84.637 15.5981 84.325 15.3899 84.2212C13.9324 83.3367 12.2145 83.3367 10.6008 82.8686L9.55975 82.3483C9.24742 82.1923 8.67478 81.7759 8.77889 81.3594C8.883 80.9436 9.50766 81.2556 9.71588 81.3078L11.2255 81.6721C12.3283 82.0514 13.5031 82.1761 14.6611 82.0357C14.9214 82.0357 15.2858 81.8797 15.2858 81.6199C15.2858 81.3594 14.9735 81.2034 14.7652 81.2556Z" fill="#1E1D1C"/>
<path d="M14.0879 86.3022C14.192 86.0939 14.0879 86.3022 14.0879 86.25C14.0879 86.1978 14.192 86.1978 14.1399 86.25L13.9317 86.3544L13.7755 86.4582L13.4632 86.6142L11.9536 87.3949C11.3769 87.6976 10.8356 88.0642 10.3399 88.487C10.083 88.6483 9.8624 88.8605 9.69211 89.1117C9.52182 89.3622 9.40565 89.6459 9.35084 89.944C9.24673 91.6086 11.1207 92.0766 12.37 91.5048C13.117 91.079 13.8152 90.5733 14.4522 89.9962L16.0139 88.9035L16.6906 88.5392H17.1071C17.3153 88.5392 17.6796 88.3832 17.7317 88.1228C17.7262 88.063 17.7075 88.0045 17.6771 87.9523C17.6468 87.9001 17.6054 87.8548 17.5559 87.8206C17.5063 87.7858 17.4498 87.762 17.3903 87.7516C17.3308 87.7411 17.2696 87.7435 17.2112 87.7585C16.2784 87.9511 15.4044 88.3612 14.6604 88.9557L12.318 90.6724L11.9536 90.9845H11.9016L11.5892 91.0883C11.4508 91.1028 11.3109 91.0883 11.1787 91.0454C11.0464 91.0025 10.9247 90.9317 10.8215 90.8383C10.7184 90.745 10.6361 90.6313 10.58 90.5037C10.5239 90.3767 10.4953 90.2392 10.496 90.1C10.444 89.5275 10.9646 89.2155 11.3289 88.9035L12.7344 88.019L14.244 87.1345C14.5987 86.9518 14.9164 86.7047 15.181 86.406C15.3372 86.1462 15.0769 85.9901 14.8166 85.9379C14.6727 85.9194 14.5264 85.9437 14.3965 86.0087C14.2667 86.0737 14.1592 86.1757 14.0879 86.3022Z" fill="#1E1D1C"/>
<path d="M17.6808 88.8513C17.0041 89.7358 16.2232 90.5681 15.4944 91.4004C14.7657 92.2333 14.7136 92.2333 14.8698 92.7535C14.9738 93.0638 15.1792 93.3301 15.4531 93.5093C15.727 93.6885 16.0532 93.7703 16.3794 93.7419C17.0735 93.6485 17.7062 93.2952 18.1493 92.7535C18.7064 92.0564 19.1945 91.307 19.6068 90.5165L20.3356 89.2677L20.6479 88.7991L20.8041 88.6431H20.752C20.9082 88.4871 21.1685 88.2788 21.0123 88.019C20.9058 87.9285 20.7756 87.8711 20.6371 87.8525C20.4987 87.834 20.3579 87.8555 20.2315 87.9152C19.7015 88.3542 19.2749 88.9047 18.9822 89.5276L17.6808 91.713C17.3684 92.1289 16.5876 93.2738 16.0671 92.5975L15.963 92.3371C15.963 92.2849 16.1191 92.2849 15.963 92.3893H16.015C16.015 92.2849 15.963 92.4409 16.015 92.3893L16.4314 91.869L18.6698 89.2677C18.7065 89.2225 18.7321 89.1697 18.7441 89.1129C18.7562 89.056 18.7546 88.9975 18.7393 88.9412C18.724 88.8849 18.6955 88.8339 18.6563 88.791C18.617 88.7481 18.5682 88.7156 18.5136 88.6953C18.369 88.6512 18.215 88.6471 18.0683 88.6837C17.9216 88.7202 17.7876 88.7962 17.6808 88.9035V88.8513Z" fill="#1E1D1C"/>
<path d="M98.4179 18.9285C98.049 19.0305 97.6981 19.1885 97.3768 19.3967L96.9081 19.7609C96.8554 19.7846 96.809 19.8206 96.773 19.8658C96.7365 19.911 96.7115 19.9643 96.6999 20.0211C96.6483 20.0731 96.6999 20.1771 96.8043 20.2292H97.1686C97.3246 20.1771 97.4812 20.1771 97.585 20.0731L98.0536 19.7089L98.2619 19.6048C98.2758 19.6048 98.2891 19.5994 98.2984 19.5896C98.3083 19.5799 98.314 19.5666 98.314 19.5528L98.5223 19.4488H98.5739C98.7305 19.3967 98.8865 19.3447 98.9387 19.2407C98.9886 19.2191 99.0304 19.1824 99.0582 19.1357C99.0866 19.0891 99.0994 19.0348 99.0947 18.9805C98.9903 18.7204 98.6261 18.7724 98.4179 18.8245V18.9285Z" fill="#1E1D1C"/>
<path d="M103.831 19.2927C103.549 19.0698 103.232 18.8942 102.894 18.7724C102.516 18.6949 102.134 18.6428 101.749 18.6163L101.28 18.7204C101.176 18.7724 101.02 18.8244 100.968 18.9285C100.916 19.0325 101.072 19.2927 101.28 19.2927H102.321L102.478 19.3967L102.946 19.6569C102.998 19.7609 103.206 19.7609 103.311 19.7089L103.727 19.6048C103.831 19.5008 103.935 19.4487 103.935 19.3447C103.935 19.3043 103.926 19.2645 103.908 19.2283C103.89 19.1923 103.864 19.1608 103.831 19.1366V19.2927Z" fill="#1E1D1C"/>
<path d="M106.434 22.9865C106.329 22.3327 106.118 21.7002 105.81 21.1136C105.758 21.0096 105.706 20.9575 105.601 20.9575C105.467 20.9053 105.319 20.9053 105.185 20.9575C105.032 20.9946 104.89 21.0658 104.768 21.1656C104.717 21.2177 104.612 21.3217 104.665 21.4258C104.981 22.0088 105.192 22.6427 105.289 23.2987C105.289 23.4028 105.445 23.4548 105.497 23.4548C105.649 23.5063 105.814 23.5063 105.966 23.4548C106.122 23.4028 106.434 23.2467 106.434 22.9865Z" fill="#1E1D1C"/>
<path d="M99.7718 30.1661C101.292 30.1225 102.759 29.5941 103.958 28.6581C105.157 27.7221 106.024 26.4275 106.435 24.9635C106.539 24.5473 105.394 24.7033 105.289 25.1196C105.025 26.2692 104.407 27.3067 103.52 28.085C102.6 28.9175 101.426 29.4128 100.188 29.4897C99.9278 29.4897 99.5636 29.5418 99.4592 29.8019C99.3554 30.062 99.5636 30.1661 99.7718 30.1661Z" fill="#1E1D1C"/>
<path d="M94.0453 23.0385C93.7791 23.5908 93.637 24.1945 93.6289 24.8074C93.6451 25.3802 93.7687 25.945 93.9931 26.4722C94.3672 27.3009 94.8579 28.0718 95.4507 28.7613C95.7111 29.0735 96.8038 28.7093 96.4918 28.3451C95.9733 27.7082 95.5359 27.0091 95.1903 26.2641C94.9496 25.7765 94.808 25.246 94.7738 24.7033C94.7338 24.1416 94.8608 23.5805 95.1381 23.0905C95.3463 22.5702 94.2014 22.6743 94.0453 23.0385Z" fill="#1E1D1C"/>
<path d="M100.76 27.2006C101.034 26.3061 101.021 25.3482 100.722 24.4617C100.423 23.5751 99.8544 22.8045 99.0946 22.2581C98.7298 22.05 97.6887 22.5182 98.2095 22.8824C98.8783 23.3911 99.3724 24.0947 99.6241 24.8961C99.8759 25.6975 99.873 26.5572 99.6149 27.3567C99.5627 27.6168 99.9791 27.6688 100.136 27.6168C100.271 27.6245 100.405 27.588 100.517 27.5129C100.63 27.4379 100.715 27.3282 100.76 27.2006Z" fill="#1E1D1C"/>
<path d="M94.3575 24.0271C94.354 24.7836 94.5709 25.5247 94.9821 26.1601C95.0859 26.3682 95.3986 26.3162 95.6068 26.2642L95.971 26.1081C96.0232 26.0561 96.127 25.952 96.0748 25.9C95.7106 25.2285 95.514 24.4788 95.5024 23.7149C95.5024 23.6109 95.3464 23.6109 95.2942 23.5588H94.8777C94.7217 23.6109 94.3575 23.7149 94.3575 23.975V24.0271Z" fill="#1E1D1C"/>
<path d="M98.1055 20.6973C97.6357 19.8063 97.0963 18.9538 96.4919 18.148C96.1944 17.7993 95.8429 17.5006 95.4508 17.2636C94.9828 17.0307 94.4631 16.9232 93.9411 16.9514C93.4081 16.9321 92.8774 17.0206 92.3797 17.2116C92.0149 17.3676 91.5984 17.7318 91.7028 18.2001C91.8948 18.6395 92.1587 19.0439 92.4835 19.3967C92.7962 19.8129 93.1082 20.1771 93.3686 20.5933C93.9602 21.586 94.2827 22.7156 94.3053 23.8709C94.3053 24.2351 95.4508 24.027 95.4508 23.5587C95.4073 22.5025 95.1225 21.4703 94.6179 20.5412C94.39 20.0778 94.1104 19.6415 93.7851 19.2406L93.3164 18.6163C93.1308 18.4125 92.9736 18.185 92.8478 17.9399C92.744 17.6798 92.9 17.6798 93.1082 17.6278H93.8373C94.0896 17.641 94.3366 17.7082 94.5611 17.8249C94.7856 17.9416 94.9822 18.1049 95.1382 18.3041C95.8684 19.1169 96.4815 20.0275 96.9606 21.0095C97.1688 21.4257 98.2615 21.0615 98.1055 20.6973Z" fill="#1E1D1C"/>
<path d="M99.303 18.9285C99.6672 17.7319 99.459 16.4832 99.303 15.2346C99.1899 14.5996 99.1551 13.9532 99.1986 13.3097C99.2508 13.2056 99.2508 13.1016 99.303 12.9975L99.4068 12.8935C99.303 12.8935 99.303 12.8935 99.3546 12.9455L99.615 13.1016L99.8754 13.4657C100.396 14.4022 100.396 15.5468 100.448 16.5873C100.443 17.6668 100.619 18.7394 100.969 19.7609C101.177 20.2291 102.27 19.917 102.061 19.4487C101.281 17.5758 101.905 15.4427 101.177 13.5698C100.812 12.6333 100.031 11.7489 98.9382 12.2691C97.8454 12.7894 98.0537 14.0901 98.1575 15.0785C98.2619 16.067 98.5217 17.7319 98.1575 19.0325C98.0537 19.2927 98.4701 19.3967 98.6783 19.3967C98.8123 19.3756 98.9399 19.3219 99.0489 19.2403C99.1574 19.1587 99.245 19.0516 99.303 18.9285Z" fill="#1E1D1C"/>
<path d="M103.623 19.865C103.924 19.7115 104.176 19.4773 104.352 19.1886L105.185 17.992C105.52 17.5186 105.886 17.0668 106.278 16.6394C106.442 16.4234 106.634 16.2308 106.851 16.0671C106.994 15.9301 107.176 15.8395 107.371 15.807C107.943 15.7549 108.256 16.3792 108.256 16.8475C108.235 17.2558 108.069 17.6432 107.787 17.94C107.163 18.5643 106.486 19.1886 105.861 19.865C105.237 20.5413 104.352 21.3737 104.092 22.3102C103.831 23.2467 104.404 22.6744 104.612 22.6744C104.75 22.6636 104.882 22.6138 104.992 22.5309C105.103 22.448 105.188 22.3354 105.237 22.2061C105.369 21.8616 105.563 21.5443 105.81 21.2697C106.146 20.8465 106.511 20.4467 106.902 20.0731C107.527 19.3967 108.256 18.7724 108.881 18.0441C109.505 17.3157 109.505 15.4428 108.152 15.0786C106.799 14.7144 105.705 15.859 104.925 16.7954L103.727 18.4083L103.259 19.0326L103.103 19.2407H103.051C103.154 19.1886 103.154 19.1366 103.103 19.1886C103.045 19.2056 102.993 19.2346 102.947 19.2737C102.903 19.3129 102.867 19.3612 102.842 19.4155C102.817 19.4697 102.805 19.5286 102.805 19.5883C102.805 19.6478 102.817 19.7068 102.842 19.7609C102.998 19.969 103.415 19.917 103.623 19.813V19.865Z" fill="#1E1D1C"/>
<path d="M105.809 23.7669L108.568 22.05L108.932 21.7899H109.037L109.193 21.6858C109.245 21.6858 109.453 21.5818 109.245 21.6858C109.037 21.7899 109.297 21.6338 109.349 21.6338C109.401 21.6338 109.193 21.6858 109.245 21.6858C109.297 21.6858 109.088 21.5818 109.141 21.6858C109.288 21.7994 109.387 21.9652 109.416 22.149C109.445 22.3328 109.402 22.5208 109.297 22.6743C109.164 22.8844 108.986 23.0621 108.776 23.1946L108.62 23.2986L108.412 23.4027L106.122 24.3912L104.872 24.9114C104.557 25.0408 104.273 25.2359 104.04 25.4837C103.831 25.6918 103.935 25.952 104.196 26.056C104.332 26.1022 104.479 26.107 104.617 26.07C104.756 26.033 104.881 25.9557 104.976 25.8479H105.028C105.132 25.7439 104.924 25.8999 105.028 25.7959L105.549 25.5357L106.746 25.0155C107.593 24.7269 108.412 24.3612 109.193 23.9229C109.758 23.6444 110.215 23.1872 110.494 22.6223C110.6 22.356 110.621 22.0638 110.556 21.7849C110.491 21.5059 110.342 21.2535 110.13 21.0615C109.557 20.5933 108.88 20.8534 108.36 21.2176L105.289 23.1426C105.081 23.2466 104.872 23.5067 105.028 23.7148C105.121 23.8288 105.253 23.903 105.398 23.9224C105.543 23.9417 105.69 23.9047 105.809 23.8189V23.7669Z" fill="#1E1D1C"/>
<path d="M27.6748 84.5333C30.7477 83.4869 33.5547 81.7823 35.8994 79.5389C38.3981 77.1974 40.0638 74.2841 41.5214 71.1625C42.094 70.0182 39.8036 70.0182 39.3872 70.9027C38.0337 73.7638 36.5762 76.3651 34.2858 78.6022C32.292 80.5562 29.8929 82.048 27.2583 82.9725C26.7898 83.1285 26.1652 83.4927 26.3213 84.0652C26.4775 84.6371 27.2583 84.6893 27.6748 84.5333Z" fill="#1E1D1C"/>
<path d="M42.3544 72.7755L42.8749 72.359L41.7297 71.735C40.6902 73.1606 40.2257 74.9249 40.4283 76.6771C40.4804 77.3534 41.5215 76.9897 41.7817 76.7293L45.5297 72.9315L44.1763 72.7233C44.2888 74.6332 44.2191 76.5495 43.968 78.4461C43.916 79.0186 44.7489 78.9664 45.1133 78.8626C46.1183 78.445 46.9465 77.691 47.4558 76.7293L45.9982 76.8331L46.3626 79.4866C46.4146 80.0591 46.5187 80.7354 47.0913 81.0474C48.653 81.9319 49.59 79.2784 50.1105 78.3423L48.653 78.4461C48.9132 79.8509 49.2256 81.2034 49.59 82.556C49.7461 83.0763 50.7352 82.9724 50.9954 82.6082C51.4863 81.8298 52.0252 81.0828 52.6092 80.3711L51.3078 80.475C51.9363 81.7301 52.6675 82.9307 53.4941 84.0652C53.9105 84.637 55.316 84.0652 54.8475 83.3889C54.0581 82.23 53.3284 81.0318 52.6612 79.7987C52.4009 79.3306 51.6201 79.6427 51.3598 79.9031C50.7601 80.5834 50.2202 81.3148 49.7461 82.0879H51.0995C50.7352 80.7354 50.4229 79.3828 50.1105 78.0303C49.7982 76.6771 48.9132 77.7176 48.653 78.1341L47.768 79.6427L47.6119 80.0069C47.4037 80.2151 47.6119 80.2673 48.1324 80.0591C48.0767 79.8805 48.0071 79.7065 47.9242 79.5388C47.731 78.5064 47.5919 77.4642 47.5078 76.4173C47.4037 75.6888 46.2064 76.1052 45.9982 76.5211C45.6343 77.126 45.0874 77.5999 44.4366 77.8737L45.5297 78.2901C45.7377 76.39 45.7899 74.476 45.6859 72.5673C45.6338 71.8388 44.6447 71.9948 44.2804 72.4112L40.5324 76.2091H41.9379C41.7712 74.7504 42.1616 73.2824 43.0311 72.0992C43.5516 71.3707 42.3544 71.1625 41.8858 71.5267L41.3653 71.9432C40.5845 72.5673 41.7817 73.1397 42.3544 72.6711V72.7755Z" fill="#1E1D1C"/>
<path d="M45.4775 71.8389L48.7049 68.6657L47.2994 68.9255L46.6748 75.4807C46.6227 75.7927 47.9762 75.3769 48.1323 75.2208C49.5551 73.5214 50.9086 71.7524 52.1926 69.9138L50.683 70.1743L49.0173 77.4579C48.9131 77.8738 50.2666 77.4579 50.4227 77.3019C51.7176 75.7521 52.7706 74.0156 53.546 72.1509L52.0364 72.4635L51.5159 79.851C51.5159 80.163 52.8693 79.7471 53.0255 79.4867L55.5241 74.9088L54.0145 75.2208C53.9614 77.3715 54.1711 79.5204 54.6392 81.62C54.7433 81.9842 56.0447 81.5156 56.1488 81.3079L58.0228 77.3019L56.5132 77.6139C57.5543 79.5911 57.1899 82.6083 59.3243 83.857C59.6364 84.013 60.6253 83.8048 60.7819 83.4406C61.1316 82.4343 61.4268 81.4094 61.6664 80.3712L60.1572 80.7355L62.3954 84.4811C62.6558 84.8453 64.0612 84.2735 63.9052 84.0652L61.6664 80.319C61.4581 80.007 60.2088 80.319 60.1572 80.6316C59.9414 81.6756 59.6456 82.7022 59.2721 83.701L60.7297 83.3368C58.6997 82.088 59.0117 79.1225 58.0228 77.2497C57.8145 76.8854 56.6693 77.2497 56.5132 77.5617L54.6912 81.5156L56.1488 81.2035C55.6787 79.1045 55.4689 76.955 55.5241 74.8044C55.5241 74.4402 54.1186 74.9088 54.0145 75.1686L51.5159 79.7471L53.0255 79.4345L53.546 72.0471C53.5981 71.735 52.1926 72.0993 52.0364 72.4113C51.3023 74.2145 50.3021 75.8983 49.0693 77.4057L50.4748 77.1975L52.1926 69.9138C52.2967 69.498 50.8912 69.966 50.683 70.1743C49.4337 71.9433 48.1323 73.6601 46.7268 75.3247L48.1844 75.0648L48.809 68.5091C48.809 68.1454 47.4556 68.6135 47.3515 68.7695L44.1241 71.9433C43.8638 72.1509 44.3323 72.2031 44.4884 72.2031C44.842 72.1602 45.1806 72.0355 45.4775 71.8389Z" fill="#1E1D1C"/>
<path d="M81.8647 16.067C81.8647 15.2391 81.5353 14.4451 80.9495 13.8597C80.3637 13.2744 79.5697 12.9454 78.7415 12.9454C77.9126 12.9454 77.1186 13.2744 76.5328 13.8597C75.947 14.4451 75.6182 15.2391 75.6182 16.067C75.6182 16.8949 75.947 17.6889 76.5328 18.2743C77.1186 18.8597 77.9126 19.1886 78.7415 19.1886C79.5697 19.1886 80.3637 18.8597 80.9495 18.2743C81.5353 17.6889 81.8647 16.8949 81.8647 16.067Z" fill="#A39C8D"/>
<path d="M33.9216 104.823C34.8416 104.823 35.5874 104.078 35.5874 103.159C35.5874 102.239 34.8416 101.494 33.9216 101.494C33.0016 101.494 32.2559 102.239 32.2559 103.159C32.2559 104.078 33.0016 104.823 33.9216 104.823Z" fill="#A39C8D"/>
<path d="M95.3463 43.1206C95.8776 43.2875 96.341 43.62 96.6687 44.0695C96.997 44.5189 97.1715 45.0616 97.1686 45.6178L98.0015 44.9935C97.2203 44.9935 96.544 44.4212 95.7627 44.5253C95.4159 44.536 95.0818 44.6582 94.8098 44.8737C94.5378 45.0893 94.3429 45.3867 94.2536 45.7219C94.2605 46.2923 94.4624 46.843 94.826 47.2827C94.982 47.5428 95.6067 48.2191 95.3463 48.5833L96.3874 48.2712C95.8172 48.0455 95.1839 48.0374 94.6079 48.2485C94.0314 48.4595 93.5535 48.875 93.2641 49.4157C93.0976 49.9965 93.1162 50.6147 93.3163 51.1846C93.3685 51.3927 93.5767 51.913 93.4723 52.1211C93.3685 52.3292 93.5245 52.1731 93.3685 52.2251H92.796C91.4945 52.1211 90.4534 53.0576 89.9848 54.2542C89.5161 55.4508 90.1408 57.4277 89.5161 58.8845L90.922 58.6763C90.378 58.0244 89.6228 57.5826 88.7876 57.4277C88.3921 57.3817 87.9919 57.4628 87.6456 57.6593C87.2994 57.8557 87.025 58.1572 86.8615 58.5203C86.5494 59.1966 86.8093 59.9772 86.5494 60.7051C86.4937 60.8612 86.405 61.0033 86.289 61.1216H86.445L86.133 61.0178C85.796 60.8449 85.4167 60.773 85.0397 60.8095C84.6673 60.9087 84.3251 61.0984 84.0438 61.3617C83.7619 61.625 83.5497 61.9533 83.4261 62.3181C83.3217 62.6302 83.2695 62.9428 83.1657 63.2548C83.1199 63.47 83.0503 63.6794 82.9575 63.8789C82.9053 63.9833 82.7493 64.0349 82.8531 63.9833C82.9575 63.9311 82.541 63.8267 82.385 63.7751C82.1669 63.6927 81.9396 63.6405 81.7082 63.6191C81.3242 63.5721 80.9362 63.6643 80.6149 63.8789C80.3069 64.1005 80.0714 64.4084 79.938 64.7634L79.782 65.2315C79.7715 65.3423 79.7362 65.449 79.6782 65.5441C79.4699 65.6479 79.5738 65.7001 79.938 65.6479C80.3028 65.5957 78.064 65.7001 78.5849 66.3242C78.8499 66.595 79.2101 66.7522 79.5894 66.7615C79.9682 66.7714 80.3365 66.6333 80.6149 66.3764C80.8619 66.1624 81.0574 65.8956 81.1873 65.5957C81.2917 65.4397 81.2917 65.2315 81.3955 65.0754C81.4999 64.9194 81.4477 64.9194 81.4999 64.8156C81.5521 64.7112 81.5521 64.6596 81.3439 64.7634C81.6571 64.9879 82.0248 65.1253 82.4088 65.1619C82.7928 65.1984 83.1796 65.1329 83.5299 64.9716C83.8344 64.786 84.0949 64.536 84.2926 64.2397C84.4904 63.9433 84.6209 63.6069 84.6754 63.2548C84.7416 62.8912 84.8645 62.5397 85.0397 62.2143L85.1957 61.9539H85.1435C85.3001 61.9539 85.5599 62.1621 85.7682 62.2143C86.1051 62.2787 86.4526 62.2497 86.7739 62.1302C87.0952 62.0113 87.3777 61.806 87.5905 61.538C88.0261 60.9934 88.2482 60.309 88.2152 59.613C88.2668 59.3526 88.163 58.6241 88.4234 58.5725C88.6832 58.5203 89.3601 59.0927 89.5683 59.301C89.6698 59.3961 89.7922 59.4668 89.9256 59.5063C90.059 59.5457 90.2005 59.5527 90.3374 59.5272C90.4743 59.5022 90.603 59.4448 90.7138 59.3601C90.8246 59.2754 90.9133 59.1658 90.9737 59.0405C91.4945 57.7399 91.1303 56.4392 91.2863 55.0866C91.3617 54.5385 91.5769 54.0189 91.9109 53.5778C92.2752 53.1616 92.7438 53.3697 93.2641 53.3697C93.7849 53.3697 95.1903 52.5893 94.982 51.4448C94.7738 50.3002 94.6178 50.4042 94.67 49.936C94.7216 49.4678 95.0864 49.1036 95.5545 49.3637C95.7389 49.4263 95.9385 49.4299 96.1252 49.3739C96.312 49.318 96.4761 49.2053 96.5956 49.0516C97.3247 48.1151 96.5956 47.2306 96.0753 46.3982C95.9477 46.2287 95.859 46.0333 95.8149 45.8259V45.6699C95.8149 45.6699 95.6067 45.5658 95.8671 45.6699C96.4889 46.0069 97.1907 46.1687 97.8971 46.1381C98.2097 46.1381 98.73 45.878 98.73 45.5138C98.7259 44.6868 98.44 43.886 97.9192 43.243C97.3989 42.6 96.6751 42.1532 95.8671 41.976C95.0864 41.7679 94.3574 42.8605 95.3463 43.1206Z" fill="#A39C8D"/>
<path d="M22.8852 54.7223C21.844 55.0779 20.8616 55.5864 19.9702 56.2311C19.814 56.3872 19.5537 56.6993 19.866 56.9074C20.4137 57.1821 21.0242 57.3077 21.6359 57.2716L21.0113 56.7513C20.7967 57.2334 20.4811 57.664 20.0861 58.0139C19.691 58.3642 19.2255 58.6252 18.7208 58.7807C18.3565 58.8323 17.7838 59.2487 18.2003 59.5608L20.0222 60.9133V60.3931L18.6167 62.006C18.4085 62.2659 18.4085 62.5263 18.7729 62.6301L20.9071 63.0988L20.5948 62.8905L20.751 66.5323C20.751 66.9482 21.6359 66.7922 21.7921 66.6884C22.6731 66.2917 23.429 65.6618 23.9784 64.8672L22.5209 65.0238L23.9784 68.4574C24.1866 69.0293 25.3319 68.6656 25.488 68.1453C25.6442 67.6251 26.373 67.7811 26.7373 68.1453C27.2594 68.7039 27.635 69.383 27.8305 70.122C27.9866 70.4862 28.6113 70.3824 28.8716 70.278C30.291 69.6661 31.5412 68.7201 32.5154 67.5207L31.214 67.6767C32.3072 69.5495 34.3894 71.4745 36.5757 69.9138C37.3565 69.3935 37.6689 68.4574 38.2415 67.7289C38.8141 67.0004 38.6579 67.2086 39.0744 67.3125C39.6016 67.4569 40.1087 67.6668 40.5839 67.9371C41.0371 68.1749 41.5348 68.3164 42.0457 68.3524C42.5564 68.3883 43.0691 68.3176 43.5511 68.1453C44.3094 67.7185 44.9664 67.1327 45.4771 66.428C45.6963 66.1148 45.9593 65.8346 46.258 65.5956C46.5703 65.3358 46.7785 65.544 47.0908 65.7517C47.4994 66.037 47.9898 66.1809 48.4877 66.1617C48.9856 66.1432 49.4638 65.9628 49.8497 65.6478C50.1387 65.3236 50.3999 64.9756 50.6306 64.6073C50.6826 64.4513 50.7867 64.2431 50.9429 64.1909C51.099 64.1393 51.3073 64.5551 51.5155 64.6073C52.921 64.9716 54.2744 63.931 55.1593 62.9943C56.0443 62.0582 54.3265 62.2659 53.9621 62.6823C53.5977 63.0987 53.0771 63.6706 52.6087 63.7228C52.1401 63.775 52.036 63.5668 51.7758 63.463C51.5114 63.3557 51.2282 63.3023 50.9429 63.3064C50.573 63.3685 50.2219 63.5129 49.9155 63.7292C49.6091 63.9456 49.3553 64.228 49.173 64.5551C49.0689 64.7634 48.8086 65.2314 48.6525 65.2836C48.4963 65.3358 48.8086 65.3358 48.7045 65.2314C48.6004 65.1276 48.4443 65.0754 48.3922 65.0238L47.6634 64.6595C47.2727 64.5261 46.8553 64.4896 46.4473 64.5528C46.0392 64.6166 45.6527 64.7778 45.321 65.0238C44.7313 65.526 44.191 66.0834 43.7072 66.6884C43.5318 66.9772 43.2794 67.2109 42.9785 67.3646C42.7867 67.4151 42.5869 67.4273 42.3903 67.4006C42.1938 67.3739 42.0045 67.3084 41.8333 67.2086C41.0004 66.8444 40.2196 66.3241 39.2826 66.3241C38.8388 66.3282 38.4018 66.4332 38.0049 66.6315C37.608 66.8299 37.2616 67.1164 36.9922 67.4685C36.5236 68.0409 36.0031 69.5495 35.2223 69.5495C34.4414 69.5495 34.1291 69.0293 33.7648 68.6656C33.3082 68.1848 32.9227 67.6419 32.6196 67.0526C32.4113 66.6884 31.5264 66.9482 31.3181 67.2086C30.4955 68.2004 29.4648 68.9997 28.299 69.5495L29.3401 69.7061C28.9236 68.4574 28.299 67.1048 26.8935 66.8444C25.488 66.5845 24.2908 67.1564 23.9784 68.3013L25.488 68.0409L24.0304 64.6595C23.7702 64.0871 22.8332 64.4513 22.5729 64.8156C22.1983 65.2929 21.7396 65.6989 21.2195 66.0121L22.2606 66.1681L22.1044 62.4741C22.1044 62.3703 21.8962 62.2659 21.7921 62.2143L19.6578 61.7456L19.814 62.3181L21.2195 60.7051C21.3757 60.4975 21.4277 60.2892 21.2195 60.1332L19.3976 58.7807L18.9291 59.613C19.674 59.4291 20.3708 59.0881 20.9725 58.6125C21.5741 58.1369 22.0666 57.5377 22.4168 56.8554C22.677 56.3872 22.1044 56.3351 21.8441 56.3351C21.5721 56.3217 21.306 56.2508 21.0633 56.127L20.9592 56.7513C21.6226 56.2724 22.3387 55.8709 23.0935 55.5547C23.3538 55.5027 23.8743 55.2946 23.7702 54.9304C23.6661 54.5663 23.1455 54.6703 22.8852 54.7223Z" fill="#A39C8D"/>
</svg>
