<svg width="185" height="49" viewBox="0 0 185 49" fill="none" xmlns="http://www.w3.org/2000/svg">
<g clip-path="url(#clip0_784:46)">
<path d="M0.0576172 12.2954V6.89453H24.0205V12.2954H15.2544V36.1052H8.82371V12.2954H0.0576172Z" fill="white"/>
<path d="M30.1399 42.4056C29.0198 43.1422 27.4632 43.5099 25.4703 43.5099C24.8691 43.5099 24.2752 43.4898 23.6885 43.4485C23.1008 43.4073 22.5069 43.3598 21.9068 43.3057V38.5191C22.4527 38.5733 23.0125 38.628 23.5863 38.6821C24.1595 38.7363 24.7328 38.7502 25.3066 38.7234C26.0704 38.6419 26.638 38.3412 27.0067 37.8233C27.369 37.3238 27.5625 36.722 27.5593 36.1052C27.5593 35.6421 27.4772 35.2047 27.3135 34.7956L19.8994 14.9543H26.0848L30.8774 29.4361H30.959L35.5879 14.9543H41.6091L32.7614 38.7234C32.1329 40.441 31.2591 41.6685 30.1399 42.4056V42.4056ZM49.2049 14.9543V17.6544H49.287C49.9966 16.5088 50.8978 15.6769 51.9901 15.159C53.0824 14.6412 54.2841 14.3817 55.5954 14.3817C57.2604 14.3817 58.694 14.6953 59.8963 15.3225C61.0976 15.9502 62.0943 16.7822 62.8865 17.8179C63.6782 18.8547 64.2649 20.0616 64.6476 21.4388C65.0297 22.8164 65.2213 24.255 65.2213 25.7554C65.2213 27.1738 65.0297 28.5371 64.6476 29.8456C64.2649 31.1552 63.6849 32.3147 62.9066 33.3231C62.1284 34.3325 61.159 35.1376 59.9986 35.737C58.8376 36.3363 57.4794 36.6375 55.9228 36.6375C54.6121 36.6375 53.4036 36.3714 52.2974 35.8396C51.1912 35.3078 50.2833 34.5238 49.5737 33.4871H49.4915V43.84H43.6749V14.9543H49.2049V14.9543ZM56.7651 31.7081C57.3939 31.3388 57.927 30.8271 58.3217 30.2144C58.7173 29.6006 58.9977 28.8852 59.1614 28.0667C59.3256 27.2481 59.4078 26.4166 59.4078 25.5708C59.4085 24.7318 59.3191 23.8953 59.1413 23.0754C58.9631 22.2573 58.6703 21.5275 58.2602 20.8864C57.8597 20.2551 57.3203 19.7234 56.683 19.3318C56.0416 18.9372 55.2561 18.7386 54.328 18.7386C53.3716 18.7386 52.5732 18.9372 51.9317 19.3318C51.3013 19.7165 50.7686 20.2417 50.3752 20.8662C49.9791 21.494 49.6997 22.2161 49.5354 23.0341C49.37 23.8695 49.2877 24.7192 49.2896 25.5708C49.2896 26.4166 49.3779 27.2481 49.5561 28.0667C49.7332 28.8852 50.0199 29.6006 50.416 30.2144C50.8116 30.8282 51.3378 31.3259 51.9932 31.7081C52.6486 32.0898 53.4403 32.2801 54.3688 32.2801C55.3248 32.2801 56.1232 32.0898 56.7651 31.7081ZM74.5369 31.0319C75.4102 31.8783 76.6672 32.3003 78.3054 32.3003C79.4798 32.3003 80.49 32.0083 81.3369 31.4208C82.1828 30.8344 82.7019 30.2139 82.893 29.5593H88.0135C87.1939 32.096 85.9374 33.9106 84.245 35.0004C82.5516 36.0913 80.5039 36.6375 78.1009 36.6375C76.4348 36.6375 74.9325 36.3714 73.5954 35.8396C72.2568 35.3078 71.1232 34.5512 70.1957 33.5691C69.2671 32.5881 68.5503 31.4141 68.0447 30.0514C67.5391 28.6872 67.2871 27.1872 67.2871 25.5506C67.2871 23.9692 67.5464 22.4966 68.0654 21.1329C68.5839 19.7686 69.3214 18.5895 70.2773 17.5936C71.2327 16.5986 72.3725 15.8141 73.6977 15.2416C75.0213 14.668 76.4891 14.3822 78.1009 14.3822C79.9033 14.3822 81.4733 14.7299 82.8108 15.4252C84.1489 16.121 85.2484 17.0556 86.1083 18.2275C86.9687 19.4004 87.5895 20.7373 87.9722 22.2367C88.3543 23.7376 88.4907 25.3056 88.3817 26.9417H73.1033C73.1854 28.8228 73.6631 30.1866 74.5369 31.0319V31.0319ZM81.1117 19.9048C80.4151 19.1409 79.3569 18.7587 77.9377 18.7587C77.0086 18.7587 76.2376 18.916 75.623 19.2291C75.009 19.5438 74.5173 19.9321 74.1491 20.3953C73.7803 20.859 73.5206 21.3511 73.3713 21.8684C73.2205 22.3863 73.1317 22.85 73.1043 23.259H82.5666C82.2923 21.7859 81.8074 20.6687 81.1117 19.9048ZM88.454 18.8407V14.9543H91.9353V13.3177C91.9353 11.4361 92.522 9.89539 93.6969 8.69464C94.8708 7.49491 96.6463 6.89453 99.022 6.89453C99.5405 6.89453 100.06 6.91568 100.579 6.95591C101.097 6.99717 101.603 7.03173 102.095 7.05855V11.3948C101.388 11.312 100.677 11.271 99.965 11.272C99.1728 11.272 98.6057 11.4567 98.2649 11.825C97.923 12.1927 97.7531 12.8137 97.7531 13.6864V14.9543H101.767V18.8407H97.7531V36.1052H91.9364V18.8407H88.454ZM102.536 20.9477C103.054 19.5706 103.792 18.3977 104.748 17.429C105.703 16.4619 106.85 15.7114 108.188 15.1797C109.526 14.6474 111.028 14.3817 112.694 14.3817C114.359 14.3817 115.869 14.6474 117.221 15.1797C118.573 15.7114 119.728 16.4619 120.682 17.429C121.64 18.3977 122.377 19.5706 122.895 20.9477C123.412 22.3249 123.673 23.8594 123.673 25.5501C123.673 27.2409 123.412 28.7681 122.895 30.1324C122.377 31.4967 121.639 32.6618 120.682 33.63C119.728 34.5981 118.573 35.3414 117.221 35.8592C115.869 36.3771 114.359 36.637 112.694 36.637C111.028 36.637 109.526 36.3771 108.188 35.8592C106.85 35.3414 105.703 34.5981 104.748 33.63C103.791 32.6618 103.054 31.4961 102.536 30.1324C102.016 28.7681 101.757 27.2414 101.757 25.5501C101.757 23.8588 102.016 22.3249 102.536 20.9477V20.9477ZM107.82 28.0249C107.983 28.83 108.263 29.5532 108.66 30.1933C109.049 30.8284 109.591 31.3561 110.237 31.7282C110.892 32.1099 111.711 32.3003 112.694 32.3003C113.678 32.3003 114.503 32.1099 115.172 31.7282C115.84 31.3466 116.374 30.8349 116.77 30.1933C117.166 29.5532 117.447 28.8295 117.611 28.0249C117.774 27.2208 117.857 26.396 117.857 25.5501C117.857 24.7053 117.774 23.8723 117.611 23.0542C117.447 22.2362 117.166 21.5141 116.77 20.8864C116.374 20.2597 115.84 19.748 115.172 19.3519C114.503 18.9573 113.678 18.7587 112.694 18.7587C111.711 18.7587 110.892 18.9573 110.237 19.3519C109.597 19.7319 109.057 20.2578 108.66 20.8864C108.263 21.5141 107.983 22.2362 107.82 23.0542C107.655 23.8761 107.573 24.7121 107.574 25.5501C107.574 26.396 107.656 27.2208 107.82 28.0249ZM131.302 14.9543V18.8815H131.384C131.656 18.2269 132.025 17.6204 132.489 17.0613C132.954 16.5021 133.486 16.0245 134.087 15.6299C134.684 15.2364 135.332 14.9266 136.013 14.7093C136.702 14.49 137.42 14.3795 138.142 14.3817C138.526 14.3817 138.949 14.4503 139.413 14.586V19.9863C139.088 19.9244 138.76 19.8767 138.43 19.8434C138.063 19.8033 137.693 19.7826 137.323 19.7815C136.258 19.7815 135.357 19.9595 134.62 20.3138C133.883 20.6687 133.289 21.1525 132.839 21.7658C132.388 22.3796 132.067 23.0955 131.876 23.9135C131.685 24.7316 131.589 25.6182 131.589 26.5734V36.1052H125.773V14.9543H131.302V14.9543ZM146.968 14.9543V17.8179H147.049C147.813 16.7281 148.736 15.8816 149.814 15.2813C150.892 14.6824 152.128 14.3817 153.521 14.3817C154.859 14.3817 156.081 14.6412 157.188 15.159C158.294 15.6769 159.133 16.5909 159.708 17.8999C160.335 16.9725 161.188 16.1545 162.268 15.4453C163.346 14.7361 164.622 14.3817 166.097 14.3817C167.217 14.3817 168.254 14.5184 169.21 14.7908C170.167 15.0636 170.985 15.5005 171.668 16.0998C172.349 16.7002 172.882 17.4842 173.266 18.4518C173.647 19.4205 173.838 20.5867 173.838 21.9504V36.1052H168.021V24.1183C168.021 23.4091 167.994 22.7411 167.939 22.1134C167.885 21.4867 167.735 20.9415 167.489 20.4773C167.243 20.0142 166.881 19.6459 166.404 19.3725C165.925 19.1002 165.278 18.9635 164.458 18.9635C163.638 18.9635 162.977 19.1208 162.47 19.4339C161.977 19.7356 161.568 20.1581 161.283 20.6615C160.997 21.1664 160.805 21.739 160.71 22.3796C160.614 23.0228 160.566 23.6722 160.567 24.3225V36.1052H154.75V24.241C154.75 23.6133 154.736 22.9934 154.708 22.3796C154.68 21.7658 154.566 21.2 154.36 20.6821C154.156 20.1642 153.814 19.748 153.337 19.4339C152.858 19.1208 152.155 18.9635 151.227 18.9635C150.953 18.9635 150.592 19.0249 150.14 19.1476C149.689 19.2704 149.254 19.502 148.83 19.8434C148.408 20.1844 148.045 20.6754 147.745 21.3155C147.444 21.9571 147.295 22.7953 147.295 23.832V36.1052H141.477V14.9543H146.968" fill="white"/>
<path d="M179.778 0H184.943V49H179.778V0Z" fill="#89C6BE"/>
</g>
<defs>
<clipPath id="clip0_784:46">
<rect width="185" height="49" fill="white"/>
</clipPath>
</defs>
</svg>
